<?xml version="1.0" standalone="no"?>
<!DOCTYPE svg PUBLIC "-//W3C//DTD SVG 1.1//EN" "http://www.w3.org/Graphics/SVG/1.1/DTD/svg11.dtd">
<svg xmlns="http://www.w3.org/2000/svg">
<defs >
<font id="JosefinSans" horiz-adv-x="547" ><font-face
    font-family="Josefin Sans Thin"
    units-per-em="1000"
    panose-1="0 0 0 0 0 0 0 0 0 0"
    ascent="750"
    descent="-250"
    alphabetic="0" />
<glyph unicode=" " horiz-adv-x="316" />
<glyph unicode="!" horiz-adv-x="201" d="M57 759H141V187H57V759ZM101 4Q76 4 59 19T42 57Q42 80 59 95T101 111Q127 111 143 96T160 57Q160 34 144 19T101 4Z" />
<glyph unicode="&quot;" horiz-adv-x="339" d="M147 729Q146 666 145 604T143 477H63V729H147ZM282 729Q281 666 280 604T278 477H198V729H282Z" />
<glyph unicode="#" horiz-adv-x="578" d="M259 651Q252 602 247 554T234 457H337Q342 506 348 554T360 651H445Q439 602 433 554T421 457H524Q522 437 521 417T516 376H412Q409 351 406 325T400 272H503Q500 252 498 232T493 190H389Q384 143 379 96T367 0H283Q288
48 294 95T305 190H203Q198 143 192 96T181 0H96Q102 48 107 95T118 190H25Q28 211 30 231T35 272H129Q132 298 135 324T141 376H48Q51 397 52 417T57 457H150Q156 506 162 554T174 651H259ZM225 376Q223 351 220 325T213 272H315Q319 298 321 324T327 376H225Z"
/>
<glyph unicode="$" horiz-adv-x="567" d="M260 -68V370L280 402V789H338V389L319 347V-68H260ZM478 594Q441 613 397 627T311 641Q253 641 219 614T184 542Q184 508 206 485T264 444T339 412Q373 399 406 383T465 343T507 284T523 197Q523 140 495 93T413 19T287
-8Q239 -8 196 3T115 31T49 68L92 144Q116 127 147 112T212 87T278 77Q312 77 345 89T401 128T423 197Q423 234 404 258T352 300T284 332Q250 345 215 360T150 398T102 454T84 534Q84 591 111 633T187 700T297 727Q367 727 420 710T515 668L478 594Z" />
<glyph unicode="%" horiz-adv-x="780" d="M205 267Q159 267 127 288T79 348T63 438Q63 488 79 526T127 586T205 608Q250 608 281 587T330 527T347 438Q347 387 330 349T282 289T205 267ZM145 437Q145 389 160 361T205 333Q234 333 249 361T264 437Q264 489 249
515T205 541Q176 541 161 516T145 437ZM580 -16Q534 -16 503 6T455 66T438 155Q438 205 454 243T502 303T580 325Q626 325 657 304T706 244T723 155Q723 104 706 66T658 6T580 -16ZM520 154Q520 106 535 78T580 50Q609 50 624 78T640 154Q640 206 625 232T580 258Q551
258 536 233T520 154ZM653 609L236 -1L144 0L559 609H653Z" />
<glyph unicode="&amp;" horiz-adv-x="725" d="M672 0Q664 0 646 0T608 0T574 0T560 0L213 459Q204 473 192 494T172 540T163 593Q163 636 184 673T244 734T341 757Q400 757 446 734T523 680L474 615Q444 643 415 659T356 676Q312 676 288 650T263 586Q263 568
270 549T285 517T295 500L672 0ZM306 348Q278 348 251 337T203 307T170 263T157 208Q157 169 177 140T232 94T308 77Q346 77 375 88T425 119T456 162L518 108Q491 58 435 24T296 -10Q228 -10 174 18T89 94T57 203Q57 250 78 290T134 359T213 406T304 424L306 348ZM557
424H646L529 124L459 168L557 424Z" />
<glyph unicode="&apos;" horiz-adv-x="164" d="M127 729Q126 666 125 604T123 477H43V729H127Z" />
<glyph unicode="(" horiz-adv-x="403" d="M102 295Q102 396 126 484T188 641T269 755L342 714Q303 669 271 607T219 466T199 294Q199 201 218 123T270 -17T342 -124L269 -166Q227 -121 189 -52T126 105T102 295V295Z" />
<glyph unicode=")" horiz-adv-x="405" d="M313 294Q313 193 289 105T227 -52T146 -166L73 -124Q112 -80 144 -18T196 122T216 294Q216 387 197 466T145 607T73 713L146 755Q189 710 226 641T288 484T313 294V294Z" />
<glyph unicode="*" horiz-adv-x="335" d="M139 525Q120 514 100 503T60 480Q53 493 46 506T30 531Q51 542 70 553T110 576Q91 588 71 600T31 624Q38 636 44 647T58 671Q78 660 98 648T139 624V720H199Q198 696 198 672T197 624Q218 636 239 647T280 670Q287 658
293 647T307 623Q287 611 267 599T225 575V575Q245 563 265 552T306 528Q299 516 292 503T276 477Q256 489 236 501T196 525Q196 502 196 480T195 434H139V525Z" />
<glyph unicode="+" horiz-adv-x="550" d="M227 416H312V274H451V193H312V51H227V193H87V274H227V416Z" />
<glyph unicode="," horiz-adv-x="203" d="M165 87Q143 35 122 -16T78 -121H3Q23 -68 42 -17T81 87H165Z" />
<glyph unicode="-" horiz-adv-x="304" d="M53 256H240V174H53V256Z" />
<glyph unicode="." horiz-adv-x="168" d="M34 53Q34 75 50 90T87 106Q105 106 121 91T138 53Q138 29 122 15T87 0Q67 0 51 14T34 53V53Z" />
<glyph unicode="/" horiz-adv-x="384" d="M383 745Q313 554 243 363T102 -19H17Q88 172 158 363T299 745H383Z" />
<glyph unicode="0" horiz-adv-x="623" d="M312 -3Q251 -3 200 20T113 86T56 192T36 331Q36 415 55 477T110 582T198 644T312 665Q373 665 423 642T510 576T567 471T588 331Q588 252 568 190T511 85T424 20T312 -3ZM311 90Q369 90 408 120T468 206T488 333Q488
405 468 458T409 542T311 572Q253 572 214 542T156 457T136 331Q136 260 155 206T214 121T311 90Z" />
<glyph unicode="1" horiz-adv-x="329" d="M53 658H225V0H128V565H53V658Z" />
<glyph unicode="2" horiz-adv-x="545" d="M53 0Q117 62 175 122T279 238T353 346T380 448Q380 481 369 504T341 543T301 565T256 573Q223 573 200 563T163 535T142 499T135 461Q135 428 145 402T174 355L114 302Q91 317 75 344T50 402T41 459Q41 513 67 560T145
637T271 666Q334 666 381 637T454 561T480 456Q480 406 460 358T407 263T333 171T252 79L210 93H502V0H53Z" />
<glyph unicode="3" horiz-adv-x="523" d="M437 658L261 375L203 402Q216 409 232 412T264 415Q301 417 336 407T399 374T443 313T460 219Q460 149 428 98T344 20T227 -8Q179 -8 132 11T53 63L102 143Q121 121 154 103T224 85Q262 85 292 102T341 150T360 224Q360
282 327 315T235 348Q206 348 186 344T150 333L147 337L302 578L332 565H91V658H437Z" />
<glyph unicode="4" horiz-adv-x="535" d="M13 159V160L414 666H415V233H500V159H415V0H318V159H13ZM324 447L155 228L140 233H318V465L324 447Z" />
<glyph unicode="5" horiz-adv-x="523" d="M245 -8Q192 -8 144 11T65 60L117 135Q137 112 170 98T237 84Q274 84 302 100T347 145T363 211Q363 251 349 282T306 330T234 348Q199 348 169 339T107 310H106V658H421V565H190V397L177 417Q194 423 215 426T257 430Q324
430 369 401T438 322T462 214Q462 152 434 102T357 22T245 -8Z" />
<glyph unicode="6" horiz-adv-x="545" d="M274 -8Q208 -8 155 23T70 113T38 252Q38 317 63 375T132 485T229 581T341 663L405 593Q324 553 269 503T184 400T148 302L124 305Q151 361 195 391T306 421Q357 421 402 394T475 320T504 212Q504 145 472 96T387 19T274
-8ZM270 79Q307 79 337 95T386 142T404 211Q404 250 386 279T338 324T270 340Q233 340 203 325T155 283T137 224V207Q137 173 154 144T202 97T270 79Z" />
<glyph unicode="7" horiz-adv-x="489" d="M461 658L198 0H89L326 579L360 565H31V658H461Z" />
<glyph unicode="8" horiz-adv-x="523" d="M28 207Q28 258 47 295T96 357T157 396Q127 415 108 443T88 515Q88 559 110 593T172 646T261 666Q310 666 349 647T411 594T434 519Q434 472 415 444T365 396Q396 382 426 357T475 294T495 207Q495 150 464 101T380 22T260
-8Q193 -8 141 22T59 101T28 207V207ZM127 212Q127 174 145 143T193 93T260 74Q298 74 329 93T379 143T398 211Q398 249 380 279T332 329T264 348Q227 349 196 331T146 281T127 212V212ZM182 503Q182 472 206 451T263 429Q295 429 318 450T342 503Q342 539 319
562T263 585Q230 585 206 562T182 503V503Z" />
<glyph unicode="9" horiz-adv-x="537" d="M236 216Q185 216 140 243T67 317T38 425Q38 495 70 546T155 626T267 654Q334 654 387 625T472 544T504 424Q504 346 475 282T397 166T291 70T175 -13L111 58Q194 101 255 148T351 242T392 332L420 331Q390 275 349 246T236
216ZM271 298Q330 298 367 332T405 420V438Q404 475 386 504T338 550T271 567Q234 567 204 550T156 503T138 431Q138 391 156 361T204 314T271 298Z" />
<glyph unicode=":" horiz-adv-x="177" d="M34 325Q34 347 50 362T86 378Q105 378 121 363T138 325Q138 301 122 287T86 272Q67 272 51 286T34 325V325ZM34 53Q34 75 50 90T86 106Q105 106 121 91T138 53Q138 29 122 15T86 0Q67 0 51 14T34 53V53Z" />
<glyph unicode=";" horiz-adv-x="203" d="M65 306Q65 328 81 343T117 359Q137 359 153 344T169 306Q169 282 153 268T117 253Q98 253 82 267T65 306V306ZM151 87Q129 35 108 -16T64 -121H-12Q8 -69 27 -17T66 87H151Z" />
<glyph unicode="&lt;" horiz-adv-x="601" d="M504 394L240 240L504 87V-15L62 240L504 496V394Z" />
<glyph unicode="=" horiz-adv-x="717" d="M101 392H613V310H101V392ZM101 195H613V114H101V195Z" />
<glyph unicode="&gt;" horiz-adv-x="590" d="M93 87L357 241L93 395V496L536 241L93 -15V-15V87Z" />
<glyph unicode="?" horiz-adv-x="459" d="M167 185V248Q167 297 180 326T214 376T257 415Q288 441 310 469T333 544Q333 577 318 602T277 641T223 655Q190 655 165 641T122 603T95 551L18 587Q25 609 41 635T84 686T147 725T232 741Q289 741 334 719T405 655T432
552Q432 504 418 472T383 416T336 369Q315 351 298 334T270 292T260 227V185H167ZM215 4Q189 4 172 19T155 58Q155 80 172 95T215 111Q240 111 256 96T273 58Q273 34 257 19T215 4Z" />
<glyph unicode="@" horiz-adv-x="1027" d="M437 -219Q355 -219 284 -195T158 -124T75 -5T45 161Q45 222 64 288T123 418T228 533T384 614T594 645Q686 645 757 618T879 543T956 430T982 292Q982 232 964 178T914 82T836 16T737 -9Q697 -9 669 10T628 65T624 145L640
102Q624 76 594 50T525 7T446 -10Q392 -10 349 13T282 80T258 182Q258 251 288 307T373 397T496 431Q540 431 570 419T619 387T650 342L668 414H756L718 144Q716 126 718 111T731 86T760 77Q785 77 809 93T852 139T883 208T895 292Q895 369 859 432T752 533T581
571Q474 571 397 542T269 465T187 362T143 255T129 164Q129 85 153 27T220 -70T323 -127T451 -146Q510 -146 566 -128T673 -78L711 -132Q673 -161 626 -180T531 -209T437 -219ZM482 67Q515 67 543 80T593 116T626 173L637 254Q634 284 617 306T572 341T511 354Q468
354 433 332T378 274T357 194Q357 158 372 129T416 84T482 67Z" />
<glyph unicode="A" horiz-adv-x="701" d="M32 0L348 753H354L669 0H558L322 601L391 646L127 0H32ZM217 274H486L518 190H189L217 274Z" />
<glyph unicode="B" horiz-adv-x="618" d="M290 723Q399 723 461 679T524 540Q524 483 498 441T426 375T316 348L302 398Q375 396 433 372T525 305T559 203Q559 149 539 111T485 48T408 12T319 0H104V723H290ZM310 406Q370 406 397 439T424 521Q424 578 389 604T295
630H201V406H310ZM314 90Q354 90 387 102T440 139T460 202Q460 244 438 268T380 302T308 313H201V90H314Z" />
<glyph unicode="C" horiz-adv-x="694" d="M635 54Q617 42 586 27T514 2T423 -8Q339 -7 272 22T157 101T85 216T59 356Q59 437 85 505T160 624T273 703T417 731Q482 731 535 714T626 672L587 582Q557 602 515 620T420 638Q367 638 320 617T237 558T181 470T160
361Q160 302 178 252T231 164T315 106T425 85Q480 85 523 102T594 140L635 54Z" />
<glyph unicode="D" horiz-adv-x="753" d="M104 0V723H301Q408 723 483 690T605 603T672 484T694 353Q694 271 666 206T587 95T473 25T336 0H104ZM201 93H317Q377 93 427 111T515 163T574 246T595 359Q595 426 573 476T513 561T427 612T326 630H201V93Z" />
<glyph unicode="E" horiz-adv-x="652" d="M104 723H574V630H201V410H534V317H201V93H588V0H104V723Z" />
<glyph unicode="F" horiz-adv-x="589" d="M104 723H533V630H201V399H492V307H201V0H104V723Z" />
<glyph unicode="G" horiz-adv-x="751" d="M670 62Q655 49 628 37T569 14T502 -2T437 -8Q350 -8 281 19T162 94T86 207T59 348Q59 438 88 509T169 630T288 705T430 731Q493 731 547 716T642 678L609 589Q589 601 560 611T499 627T441 634Q377 634 325 615T236 559T179
471T159 355Q159 296 179 247T236 163T324 108T438 88Q475 88 511 95T573 117V261H429V354H670V62Z" />
<glyph unicode="H" horiz-adv-x="780" d="M676 723V0H580V317H201V0H104V723H201V409H580V723H676Z" />
<glyph unicode="I" horiz-adv-x="305" d="M104 723H201V0H104V723Z" />
<glyph unicode="J" horiz-adv-x="365" d="M261 131Q261 43 228 -19T136 -113T3 -149V-149V-55Q73 -51 118 -6T164 134V723H261V131Z" />
<glyph unicode="K" horiz-adv-x="679" d="M202 432L199 396L212 414L508 723H633L334 413L650 0H527L263 351L202 292V0H104V723H202V432Z" />
<glyph unicode="L" horiz-adv-x="622" d="M104 723H201V93H568V0H104V723Z" />
<glyph unicode="M" horiz-adv-x="927" d="M104 0V746H105L484 208L443 216L821 746H823V0H727V526L733 477L460 91H458L181 477L198 522V0H104Z" />
<glyph unicode="N" horiz-adv-x="837" d="M730 -23L171 544L199 537L201 0H104V745H109L662 176L639 181L637 723H733V-23H730Z" />
<glyph unicode="O" horiz-adv-x="857" d="M59 361Q59 436 87 502T167 620T284 701T428 731Q504 731 570 702T688 621T769 503T798 361Q798 284 769 217T689 100T571 21T428 -8Q351 -8 285 20T167 98T88 215T59 361ZM159 360Q159 303 180 254T238 166T324 107T430
85Q486 85 535 106T620 166T677 253T698 361Q698 418 677 468T619 557T533 616T428 638Q371 638 322 616T236 556T179 468T159 360Z" />
<glyph unicode="P" horiz-adv-x="595" d="M297 723Q376 723 432 697T518 620T549 499Q549 456 536 415T495 340T420 286T308 266H201V0H104V723H297ZM307 359Q350 359 378 373T422 408T445 454T452 497Q452 519 445 542T422 585T379 617T313 630H201V359H307Z" />
<glyph unicode="Q" horiz-adv-x="887" d="M580 94H828V0H451L580 94ZM59 361Q59 436 87 502T167 620T284 701T428 731Q504 731 570 702T688 621T769 503T798 361Q798 284 769 217T689 100T571 21T428 -8Q351 -8 285 20T167 98T88 215T59 361ZM159 360Q159 303
180 254T238 166T324 107T430 86Q486 86 535 107T620 166T677 253T698 361Q698 417 677 467T619 554T533 613T428 635Q371 635 322 614T236 554T179 466T159 360Z" />
<glyph unicode="R" horiz-adv-x="659" d="M296 723Q351 723 397 709T478 666T532 596T552 499Q552 456 540 415T498 341T423 287T308 266H201V0H104V723H296ZM306 359Q349 359 377 372T422 405T445 450T452 495Q452 517 445 540T421 584T378 617T313 630H201V359H306ZM425
304L614 0H502L310 301L425 304Z" />
<glyph unicode="S" horiz-adv-x="582" d="M478 594Q441 613 397 627T311 641Q253 641 219 614T184 542Q184 508 206 485T264 444T339 412Q373 399 406 383T465 343T507 284T523 197Q523 140 495 93T413 19T287 -8Q239 -8 196 3T115 31T49 68L92 144Q116 127 147
112T212 87T278 77Q312 77 345 89T401 128T423 197Q423 234 404 258T352 300T284 332Q250 345 215 360T150 398T102 454T84 534Q84 591 111 633T187 700T297 727Q367 727 420 710T515 668L478 594Z" />
<glyph unicode="T" horiz-adv-x="581" d="M51 723H531V630H337V0H240V630H51V723Z" />
<glyph unicode="U" horiz-adv-x="731" d="M191 256Q191 207 214 169T277 108T365 86Q416 86 456 108T519 168T542 256V723H637V253Q637 174 601 115T503 24T365 -8V-8Q289 -8 228 24T131 115T95 253V723H191V256Z" />
<glyph unicode="V" horiz-adv-x="719" d="M156 723L394 125L339 136L565 723H678L359 -33L41 723H156Z" />
<glyph unicode="W" horiz-adv-x="1008" d="M41 719H153L349 167L332 174L475 544L520 413L329 -33L41 719ZM388 719H485L697 175L677 179L864 719H967L683 -32L388 719Z" />
<glyph unicode="X" horiz-adv-x="672" d="M44 723H167L638 0H514L44 723ZM34 0L285 393L332 299L154 0H34ZM335 428L511 723H628L387 347L335 428Z" />
<glyph unicode="Y" horiz-adv-x="691" d="M296 241L28 723H147L362 324L332 322L545 723H663L393 241V0H296V241Z" />
<glyph unicode="Z" horiz-adv-x="712" d="M51 0Q62 16 84 49T137 127T201 224T272 330T343 435T408 531T460 608T494 656L507 630H173Q154 630 135 637T104 658T92 691V759H182V746Q182 728 189 726T213 723H646L209 81L203 93H658V0H51Z" />
<glyph unicode="[" horiz-adv-x="362" d="M104 755H312V668H202V-64H312V-151H104V755Z" />
<glyph unicode="\" horiz-adv-x="389" d="M95 745Q165 554 235 363T376 -19H282Q211 172 141 363T0 745H95Z" />
<glyph unicode="]" horiz-adv-x="362" d="M258 -151H51V-64H161V669H51V755H258V-151Z" />
<glyph unicode="^" horiz-adv-x="475" d="M297 485Q291 495 279 511T254 544T234 571Q228 561 216 545T192 512T173 485H113Q144 531 174 576T234 668V668Q265 622 295 577T356 485H297Z" />
<glyph unicode="_" horiz-adv-x="607" d="M101 81H506V0H101V81Z" />
<glyph unicode="`" horiz-adv-x="274" d="M14 619H117L190 485H130L14 619Z" />
<glyph unicode="a" horiz-adv-x="586" d="M253 -10Q195 -10 148 15T73 88T45 207Q45 276 74 326T151 404T258 431Q316 431 356 405T417 342L411 326L420 414H506V0H413V108L423 84Q419 74 406 59T370 27T318 1T253 -10ZM278 67Q313 67 341 80T387 116T413 173V254Q405
284 385 306T337 341T275 354Q238 354 207 336T158 286T139 211Q139 171 158 138T209 86T278 67Z" />
<glyph unicode="b" horiz-adv-x="593" d="M333 -10Q276 -10 233 15T163 78L174 107V0H81V774H173V319L170 354Q195 388 241 409T345 431Q401 431 447 404T520 329T548 213Q548 143 519 93T440 17T333 -10ZM314 69Q354 69 386 88T436 139T454 214Q454 254 436 286T386
338T314 357Q280 357 251 344T202 309T174 256V173Q182 143 201 120T249 83T314 69Z" />
<glyph unicode="c" horiz-adv-x="456" d="M417 38Q389 16 350 3T272 -10Q204 -10 153 17T74 92T45 207Q45 273 75 322T155 397T262 424Q312 424 351 410T419 372L373 312Q355 326 329 337T270 348Q234 348 204 330T156 279T138 207Q138 169 156 137T206 86T279
67Q306 67 328 75T369 97L417 38Z" />
<glyph unicode="d" horiz-adv-x="593" d="M249 -10Q192 -10 146 17T72 95T45 212Q45 281 73 330T151 405T261 431Q310 431 354 410T424 352L420 319V774H512V0H419V103L429 77Q400 39 354 15T249 -10ZM278 69Q315 69 344 82T392 120T419 177V255Q411 285 391 307T342
343T278 357Q240 357 209 339T158 288T139 214Q139 173 158 141T209 89T278 69Z" />
<glyph unicode="e" horiz-adv-x="520" d="M273 -10Q202 -10 151 18T73 96T45 210Q45 271 76 321T159 401T275 431Q357 431 411 383T484 251L143 131L121 186L401 288L381 275Q369 308 341 332T268 357Q230 357 200 339T153 288T136 215Q136 172 154 140T203 89T275
70Q302 70 327 80T375 106L418 37Q387 16 349 3T273 -10Z" />
<glyph unicode="f" horiz-adv-x="379" d="M115 0V331H44V414H115V589Q115 679 155 727T275 775Q296 775 321 769T366 749L327 682Q318 691 307 694T285 698Q248 698 228 673T208 588V414H339V331H208V0H115Z" />
<glyph unicode="g" horiz-adv-x="598" d="M280 -205Q234 -205 199 -195T136 -165T81 -122L135 -59Q168 -90 202 -107T278 -124Q325 -124 357 -109T407 -66T424 -2L425 110L433 92Q415 49 368 20T254 -10Q197 -10 150 19T74 97T45 209Q45 274 75 323T154 402T261
431Q316 431 361 409T428 351L423 334L433 414H518V-3Q518 -59 489 -105T407 -178T280 -205ZM138 211Q138 171 157 138T208 86T281 67Q318 67 347 80T397 117T425 172V254Q416 284 395 306T345 341T281 354Q241 354 209 336T157 286T138 211Z" />
<glyph unicode="h" horiz-adv-x="553" d="M81 0V774H172V318L170 335Q191 376 234 403T337 430Q396 430 433 396T472 306V0H378V273Q377 307 359 328T301 350Q265 350 236 330T191 274T174 194V0H81Z" />
<glyph unicode="i" horiz-adv-x="254" d="M81 414H174V0H81V414ZM74 820Q74 842 91 857T130 872Q151 872 167 857T184 820Q184 797 168 783T130 768Q109 768 92 783T74 820Z" />
<glyph unicode="j" horiz-adv-x="259" d="M86 -199L31 -142Q59 -118 75 -83T91 1V414H185V-3Q185 -73 162 -121T86 -199ZM83 820Q83 842 100 857T139 872Q160 872 176 857T193 820Q193 797 177 783T139 768Q118 768 101 783T83 820Z" />
<glyph unicode="k" horiz-adv-x="498" d="M81 0V774H174V0H81ZM274 275L464 0H355L212 223L274 275ZM145 132L136 221L387 423L444 374L145 132Z" />
<glyph unicode="l" horiz-adv-x="254" d="M81 774H174V0H81V774Z" />
<glyph unicode="m" horiz-adv-x="825" d="M164 414L172 321L168 329Q191 376 233 403T331 430Q366 430 393 419T437 388T460 337L455 334Q479 379 521 404T611 430Q672 430 707 396T744 306V0H651V273Q650 305 636 326T585 350Q549 350 521 328T476 272T459 197V0H366V273Q365
305 350 326T298 350Q261 350 233 328T190 271T174 196V0H81V414H164Z" />
<glyph unicode="n" horiz-adv-x="553" d="M164 414L172 313L168 329Q188 375 233 402T337 430Q396 430 433 396T472 306V0H378V273Q377 307 359 328T301 350Q265 350 236 330T191 275T174 194V0H81V414H164Z" />
<glyph unicode="o" horiz-adv-x="545" d="M45 211Q45 273 74 323T156 402T274 431Q342 431 393 402T472 323T500 211Q500 149 472 99T393 19T273 -10Q207 -10 156 17T75 94T45 211ZM138 210Q138 170 156 138T204 86T272 67Q311 67 341 86T389 137T406 210Q406
250 389 282T342 334T272 354Q234 354 204 334T156 282T138 210Z" />
<glyph unicode="p" horiz-adv-x="593" d="M325 -10Q278 -10 235 12T167 71L173 100V-199H81V420H161L174 314L164 343Q194 381 240 406T343 431Q401 431 447 403T521 325T548 208Q548 141 519 92T440 17T325 -10ZM307 64Q347 64 380 82T434 133T454 207Q454 249
435 281T385 333T314 352Q278 352 249 338T201 300T174 243V174Q179 142 198 117T245 78T307 64Z" />
<glyph unicode="q" horiz-adv-x="593" d="M247 -10Q192 -10 146 17T73 92T45 207Q45 275 74 325T153 403T262 431Q318 431 361 407T430 343L419 314V420H512V-199H420V106L424 67Q400 33 353 12T247 -10ZM278 64Q314 64 344 78T393 116T419 173V243Q411 275 392
299T344 338T278 352Q241 352 209 333T158 281T139 207Q139 166 158 134T209 83T278 64Z" />
<glyph unicode="r" horiz-adv-x="376" d="M164 414L173 294L168 310Q184 348 214 374T278 415T337 430L332 338Q285 341 250 320T194 264T173 189V0H81V414H164Z" />
<glyph unicode="s" horiz-adv-x="407" d="M197 -8Q153 -8 112 7T43 54L82 108Q108 83 135 71T190 58Q210 58 227 63T254 79T265 111Q265 133 251 146T214 167T166 182Q115 199 88 229T61 302Q61 335 77 363T126 410T207 428Q250 428 284 418T348 383L311 325Q293
344 268 353T223 363Q206 364 191 358T165 341T155 315Q155 294 169 281T205 261T250 245Q281 236 305 221T343 184T358 129Q358 92 341 61T288 11T197 -8Z" />
<glyph unicode="t" horiz-adv-x="359" d="M121 596H214V412H328V339H214V0H121V339H45V412H121V596Z" />
<glyph unicode="u" horiz-adv-x="546" d="M212 -16Q156 -16 120 18T81 108V414H174V141Q176 107 193 86T249 64Q284 64 311 84T356 140T373 221V414H466V0H381L373 102L378 84Q366 55 342 33T284 -3T212 -16Z" />
<glyph unicode="v" horiz-adv-x="494" d="M249 -12L19 414H129L285 85L228 87L371 414H475L254 -12H249Z" />
<glyph unicode="w" horiz-adv-x="674" d="M346 414L468 135L450 133L564 414H655L465 -25L332 259L211 -25L19 414H110L239 122L207 128L299 342L266 414H346Z" />
<glyph unicode="x" horiz-adv-x="465" d="M237 260L336 414H430L271 192L237 260ZM446 0H334L19 414H134L446 0ZM227 154L118 0H24L182 216L227 154Z" />
<glyph unicode="y" horiz-adv-x="494" d="M116 -199L389 414H475L208 -199H116ZM218 -3L19 414H124L291 44L218 -3Z" />
<glyph unicode="z" horiz-adv-x="463" d="M119 338Q88 338 66 357T44 414V453H115V440Q115 424 123 419T149 414H414L166 57L148 77H411V0H28L281 364L297 338H119Z" />
<glyph unicode="{" horiz-adv-x="353" d="M263 673Q242 673 231 665T215 635T210 569V452Q210 405 200 375T174 329T144 303Q158 294 173 278T199 234T210 166V35Q210 -8 214 -30T230 -61T263 -69H307V-151H243Q218 -151 195 -150T154 -137T124 -99T113 -18V140Q113
169 105 197T80 244T33 263V263V345Q62 346 79 364T105 411T113 469V635Q113 682 124 707T153 742T195 753T243 755H307V673H263Z" />
<glyph unicode="|" horiz-adv-x="274" d="M92 709H177V-235H92V709Z" />
<glyph unicode="}" horiz-adv-x="371" d="M109 -69Q130 -69 141 -61T156 -31T161 35V166Q161 208 172 235T199 278T227 301Q215 311 199 327T172 370T161 439V570Q161 614 157 636T141 665T109 673H64V755H127Q151 755 174 754T216 743T246 708T258 636V478Q258
458 261 435T273 390T298 356T338 341V341V259Q314 259 298 245T274 211T262 167T258 122V-31Q258 -78 247 -103T217 -138T175 -149T127 -151H64V-69H109Z" />
<glyph unicode="~" horiz-adv-x="426" d="M297 436Q260 436 237 452T193 486Q180 499 167 509T136 519Q122 519 112 509T96 480T91 435H33Q30 479 42 514T81 570T142 591Q171 591 192 575T233 542Q248 527 263 516T294 504Q309 504 318 515T331 546T335 592L393
591Q398 544 386 509T351 455T297 436Z" />
<glyph unicode="&#xa0;" horiz-adv-x="316" />
<glyph unicode="&#xa1;" horiz-adv-x="202" d="M57 -212H141V360H57V-212ZM101 543Q76 543 59 528T42 490Q42 467 59 452T101 436Q127 436 143 451T160 490Q160 513 144 528T101 543Z" />
<glyph unicode="&#xa2;" horiz-adv-x="456" d="M237 481H295V-68H237V481ZM417 38Q389 16 350 3T272 -10Q204 -10 153 17T74 92T45 207Q45 273 75 322T155 397T262 424Q312 424 351 410T419 372L373 312Q355 326 329 337T270 348Q234 348 204 330T156 279T138
207Q138 169 156 137T206 86T279 67Q306 67 328 75T369 97L417 38Z" />
<glyph unicode="&#xa3;" horiz-adv-x="632" d="M389 384V290H88V384H389ZM154 538Q154 585 180 621T253 678T363 699Q434 699 481 672T553 597L483 549Q473 564 459 577T423 598T364 606Q323 606 298 594T262 559T250 504V199V177Q250 163 249 146T242 113T225
87L211 93H427Q463 93 479 103T496 137V179L581 180V115Q581 90 575 69T553 33T513 9T448 0H56V93H101Q123 93 134 100T149 130T154 195V538Z" />
<glyph unicode="&#xa4;" horiz-adv-x="504" d="M376 443Q402 406 402 361Q402 337 395 316T374 276L404 246L364 206Q356 213 349 221T332 237Q297 212 250 212Q227 212 207 218T169 236V236L138 205L97 245L127 275Q115 293 108 315T101 361V361Q101 384 107
404T126 443Q118 450 112 457T97 472L138 512L167 483Q185 495 206 502T250 510Q274 510 295 503T334 483V483L363 512L404 471L376 443ZM158 361Q158 335 171 314T205 281T251 268Q277 268 298 280T331 314T344 361Q344 387 331 408T298 441T251 454Q226 454 205
442T171 408T158 361V361Z" />
<glyph unicode="&#xa5;" horiz-adv-x="691" d="M165 301H533V225H165V301ZM166 154H532V77H166V154ZM296 303L28 723H147L362 386L332 383L545 723H663L393 303V0H296V303Z" />
<glyph unicode="&#xa6;" horiz-adv-x="217" d="M70 709H154V354H70V709ZM70 118H154V-236H70V118Z" />
<glyph unicode="&#xa7;" horiz-adv-x="571" d="M370 137L336 172Q380 168 416 150T475 101T497 22Q497 -31 469 -75T390 -145T276 -171Q231 -171 190 -162T113 -135T50 -97L98 -17Q126 -38 154 -53T212 -77T270 -85Q304 -85 332 -74T378 -42T396 9Q396 40 377
58T326 87T260 107Q227 116 193 128T131 160T86 208T69 276Q69 328 95 362T162 413T247 428L239 394Q189 410 156 433T108 488T92 557Q92 589 104 620T143 676T208 716T300 731Q355 731 405 714T493 669L452 597Q416 623 381 635T310 648Q271 648 245 637T206 608T193
569Q193 541 212 523T263 492T334 470Q367 462 400 450T460 419T504 372T521 301Q521 243 482 198T370 137ZM427 284Q428 313 408 332T357 364T294 383Q235 385 200 360T163 299Q163 267 181 246T232 212T304 187Q332 190 360 201T407 234T427 284Z" />
<glyph unicode="&#xa8;" horiz-adv-x="415" d="M62 527Q62 549 78 564T114 580Q133 580 149 565T166 526Q166 503 150 489T114 474Q94 474 78 489T62 527V527ZM249 527Q249 549 265 564T302 580Q320 580 336 565T353 526Q353 503 337 489T302 474Q282 474 266
489T249 527V527Z" />
<glyph unicode="&#xa9;" horiz-adv-x="847" d="M566 202Q544 181 508 164T426 147Q375 148 334 174T269 242T245 335Q245 391 268 434T335 502T434 527Q454 527 475 524T516 513T551 492L514 421Q498 435 480 440T441 445Q412 445 390 430T354 391T341 338Q341
309 353 285T388 246T441 231Q463 231 484 239T523 266L566 202ZM423 -1Q353 -1 292 24T183 94T110 201T83 334Q83 407 109 468T183 575T291 645T424 670Q494 670 555 645T664 575T737 469T764 334Q764 262 738 201T666 95T558 24T423 -1ZM423 75Q496 75 554 108T647
201T682 333Q682 410 648 468T555 561T423 595Q351 595 292 561T199 468T164 333Q164 259 196 201T287 109T423 75Z" />
<glyph unicode="&#xaa;" horiz-adv-x="400" d="M165 422Q128 422 98 439T51 489T33 571Q33 619 51 653T99 705T163 724Q203 724 230 709T271 668L266 653L272 714H338V428H267V498L275 484Q270 474 255 459T218 433T165 422ZM187 480Q208 480 224 489T252 514T267
551V600Q260 628 238 647T186 666Q152 666 129 641T105 574Q105 548 116 527T145 493T187 480Z" />
<glyph unicode="&#xab;" horiz-adv-x="606" d="M53 242Q58 247 75 261T115 295T164 336T213 377T254 411T276 430V345Q270 339 254 325T220 294T186 264T164 242Q171 235 186 221T219 190T254 159T276 137V53L53 242ZM274 242Q279 247 296 261T336 295T385 336T434
377T475 411T497 430V345Q490 339 475 325T441 294T407 264T385 242Q392 235 407 221T440 190T474 159T497 137V53L274 242Z" />
<glyph unicode="&#xac;" horiz-adv-x="501" d="M69 296H433V112H336V203H69V296Z" />
<glyph unicode="&#xad;" horiz-adv-x="600" d="M53 256H240V174H53V256Z" />
<glyph unicode="&#xae;" horiz-adv-x="486" d="M243 303Q185 303 137 330T60 404T31 512Q31 572 59 619T136 693T243 720Q302 720 350 693T426 619T455 512Q455 452 427 405T350 331T243 303ZM242 356Q286 356 321 376T377 431T398 512Q398 557 378 592T322 648T242
669Q199 669 164 649T108 593T87 512Q87 467 107 432T163 376T242 356ZM167 621H251Q287 621 307 604T327 553Q327 526 310 504T254 482H220V408H167V621ZM240 523Q258 523 264 531T271 551Q271 564 264 572T242 581H220V523H240ZM288 494L328 408H268L234 493L288
494Z" />
<glyph unicode="&#xaf;" horiz-adv-x="371" d="M63 537H309V471H63V537Z" />
<glyph unicode="&#xb0;" horiz-adv-x="285" d="M37 567Q37 595 50 618T87 655T140 668Q168 668 190 655T226 618T240 567Q240 539 227 516T191 479T140 466Q111 466 88 479T51 515T37 567V567ZM140 517Q160 517 175 531T190 567Q190 586 175 601T140 616Q119 616
105 602T91 566Q91 546 105 532T140 517V517Z" />
<glyph unicode="&#xb1;" horiz-adv-x="531" d="M227 578H312V436H451V355H312V213H227V355H87V436H227V578ZM87 171H451V89H87V171Z" />
<glyph unicode="&#xb2;" horiz-adv-x="403" d="M68 636Q85 661 122 678T198 695Q259 694 296 661T333 569Q333 529 313 494T260 428T195 370T135 321L147 384H348V306H76V357Q101 375 128 396T180 442T220 492T236 544Q236 583 220 599T174 616Q150 616 129 604T97
575L68 636Z" />
<glyph unicode="&#xb3;" horiz-adv-x="390" d="M165 303Q125 303 98 318T55 350L82 404Q92 394 110 379T155 365Q185 365 203 383T222 436Q222 472 202 488T154 504Q136 504 125 501T105 494L100 503L189 636L210 620H69V688H289L185 509L124 525Q136 535 152
542T191 549Q218 550 244 538T289 500T307 439Q307 401 290 370T240 321T165 303Z" />
<glyph unicode="&#xb4;" horiz-adv-x="276" d="M231 619L104 485H45L128 619H231Z" />
<glyph unicode="&#xb5;" horiz-adv-x="546" d="M212 -16Q160 -16 126 15T85 96L174 87V-201H81V109V414H174V141Q176 107 193 86T249 64Q284 64 311 84T356 140T373 221V414H466V0H381L373 106L377 84Q365 56 341 33T284 -3T212 -16Z" />
<glyph unicode="&#xb6;" horiz-adv-x="554" d="M203 428Q158 428 121 450T61 510T38 593Q38 640 60 677T120 737T203 759H452V0H369V678H287V0H203V428Z" />
<glyph unicode="&#xb7;" horiz-adv-x="170" d="M34 286Q34 308 50 323T87 339Q105 339 121 324T138 286Q138 262 122 248T87 233Q67 233 51 247T34 286V286Z" />
<glyph unicode="&#xb8;" horiz-adv-x="402" d="M112 -154Q123 -165 140 -172T179 -180Q205 -180 226 -169T247 -135Q247 -118 233 -104T182 -89Q166 -89 148 -93T117 -102L100 -57L170 8L241 4L169 -80L147 -57Q158 -52 174 -50T205 -46Q258 -45 292 -67T326 -133Q326
-167 307 -188T256 -220T188 -231Q151 -231 125 -220T82 -193L112 -154Z" />
<glyph unicode="&#xb9;" horiz-adv-x="270" d="M45 660H192V288H105V577H45V660Z" />
<glyph unicode="&#xba;" horiz-adv-x="377" d="M33 571Q33 614 53 648T108 702T189 722Q235 722 270 702T324 648T344 571Q344 528 325 494T270 439T189 419Q144 419 109 438T53 491T33 571ZM106 570Q106 546 117 526T146 494T188 482Q212 482 231 493T260 525T271
570Q271 595 260 615T231 647T188 659Q164 659 146 647T117 614T106 570Z" />
<glyph unicode="&#xbb;" horiz-adv-x="606" d="M538 242Q533 247 516 261T476 295T426 336T377 377T337 411T314 430V345Q321 339 336 325T370 294T404 264T426 242Q419 235 404 221T371 190T337 159T314 137V53L538 242ZM317 242Q312 247 295 261T255 295T206
336T157 377T116 411T94 430V345Q100 339 115 325T149 294T183 264T205 242Q199 235 184 221T150 190T116 159T94 137V53L317 242Z" />
<glyph unicode="&#xbc;" horiz-adv-x="811" d="M637 684L230 0H142L549 684H637ZM49 660H195V288H108V577H49V660ZM776 153V100H479L477 124L675 380H732V0H651V283L672 284L546 120L533 153H776Z" />
<glyph unicode="&#xbd;" horiz-adv-x="876" d="M49 663H196V291H109V580H49V663ZM528 324Q545 349 582 366T658 383Q719 382 756 349T793 257Q793 217 773 182T720 116T655 58T595 9L607 72H808V-6H536V45Q561 63 588 84T640 130T680 180T696 232Q696 271 680
287T634 304Q610 304 589 292T557 263L528 324ZM629 685L222 0H135L542 685H629Z" />
<glyph unicode="&#xbe;" horiz-adv-x="824" d="M416 303Q376 303 349 318T306 350L333 404Q343 394 361 379T406 365Q436 365 454 383T473 436Q473 472 453 488T405 504Q387 504 376 501T356 494L351 503L440 636L461 620H320V688H540L436 509L375 525Q387 535
403 542T442 549Q469 550 495 538T540 500T558 439Q558 401 541 370T491 321T416 303ZM658 685L251 0H164L571 685H658ZM770 154V100H473L472 125L669 381H726V1H645V283L666 285L540 121L527 154H770Z" />
<glyph unicode="&#xbf;" horiz-adv-x="436" d="M294 354V291Q294 243 281 213T248 164T204 124Q173 98 151 70T128 -5Q128 -38 143 -63T184 -102T238 -116Q271 -116 296 -102T339 -64T366 -12L443 -48Q436 -70 420 -96T377 -147T314 -186T229 -202Q173 -202 128
-180T56 -116T29 -13Q29 35 43 67T79 123T125 170Q146 188 163 205T191 247T201 312V354H294ZM246 535Q272 535 289 520T306 481Q306 459 289 444T246 428Q221 428 205 443T188 481Q188 505 204 520T246 535Z" />
<glyph unicode="&#xc0;" horiz-adv-x="701" d="M32 0L348 753H354L669 0H558L322 601L391 646L127 0H32ZM217 274H486L518 190H189L217 274ZM200 919H303L376 785H316L200 919Z" />
<glyph unicode="&#xc1;" horiz-adv-x="701" d="M32 0L348 753H354L669 0H558L322 601L391 646L127 0H32ZM217 274H486L518 190H189L217 274ZM760 914L633 780H574L657 914H760Z" />
<glyph unicode="&#xc2;" horiz-adv-x="701" d="M32 0L348 753H354L669 0H558L322 601L391 646L127 0H32ZM217 274H486L518 190H189L217 274ZM426 798L333 896L360 902L265 798H179L344 969H345L512 798H426Z" />
<glyph unicode="&#xc3;" horiz-adv-x="701" d="M32 0L348 753H354L669 0H558L322 601L391 646L127 0H32ZM217 274H486L518 190H189L217 274ZM427 814Q395 814 375 828T336 859Q324 870 312 879T285 889Q273 889 264 880T249 854T244 813L194 814Q191 853 202 884T236
933T290 951Q316 951 335 937T370 908Q384 894 397 884T425 873Q445 873 453 894T462 952L512 951Q516 910 506 879T474 831T427 814Z" />
<glyph unicode="&#xc4;" horiz-adv-x="701" d="M32 0L348 753H354L669 0H558L322 601L391 646L127 0H32ZM217 274H486L518 190H189L217 274ZM201 840Q201 862 217 877T253 893Q272 893 288 878T305 839Q305 816 289 802T253 787Q233 787 217 802T201 840V840ZM388
840Q388 862 404 877T441 893Q459 893 475 878T492 839Q492 816 476 802T441 787Q421 787 405 802T388 840V840Z" />
<glyph unicode="&#xc5;" horiz-adv-x="701" d="M32 0L348 753H354L669 0H558L322 601L391 646L127 0H32ZM217 274H486L518 190H189L217 274ZM259 875Q259 915 285 939T353 964Q392 964 419 940T446 875Q446 836 419 811T352 786Q312 786 286 811T259 875ZM310
874Q310 855 322 843T353 830Q371 830 383 842T395 874Q395 894 383 906T353 918Q334 918 322 906T310 874Z" />
<glyph unicode="&#xc6;" horiz-adv-x="950" d="M477 723H872V629H574V408H831V315H574V93H886V0H477V723ZM491 615Q489 605 486 594T481 580L124 0H13L477 723L491 615ZM231 256H491V179H202L231 256Z" />
<glyph unicode="&#xc7;" horiz-adv-x="694" d="M635 54Q617 42 586 27T514 2T423 -8Q339 -7 272 22T157 101T85 216T59 356Q59 437 85 505T160 624T273 703T417 731Q482 731 535 714T626 672L587 582Q557 602 515 620T420 638Q367 638 320 617T237 558T181 470T160
361Q160 302 178 252T231 164T315 106T425 85Q480 85 523 102T594 140L635 54ZM581 -154Q592 -165 609 -172T648 -180Q674 -180 695 -169T716 -135Q716 -118 702 -104T651 -89Q635 -89 617 -93T586 -102L569 -57L639 8L710 4L638 -80L616 -57Q627 -52 643 -50T674
-46Q727 -45 761 -67T795 -133Q795 -167 776 -188T725 -220T657 -231Q620 -231 594 -220T551 -193L581 -154Z" />
<glyph unicode="&#xc8;" horiz-adv-x="652" d="M104 723H574V630H201V410H534V317H201V93H588V0H104V723ZM184 907H287L360 773H300L184 907Z" />
<glyph unicode="&#xc9;" horiz-adv-x="652" d="M104 723H574V630H201V410H534V317H201V93H588V0H104V723ZM744 901L617 767H558L641 901H744Z" />
<glyph unicode="&#xca;" horiz-adv-x="652" d="M104 723H574V630H201V410H534V317H201V93H588V0H104V723ZM410 785L317 883L344 889L249 785H163L328 956H329L496 785H410Z" />
<glyph unicode="&#xcb;" horiz-adv-x="652" d="M104 723H574V630H201V410H534V317H201V93H588V0H104V723ZM185 828Q185 850 201 865T237 881Q256 881 272 866T289 827Q289 804 273 790T237 775Q217 775 201 790T185 828V828ZM372 828Q372 850 388 865T425 881Q443
881 459 866T476 827Q476 804 460 790T425 775Q405 775 389 790T372 828V828Z" />
<glyph unicode="&#xcc;" horiz-adv-x="305" d="M104 723H201V0H104V723ZM2 907H105L178 773H118L2 907Z" />
<glyph unicode="&#xcd;" horiz-adv-x="305" d="M104 723H201V0H104V723ZM563 901L436 767H377L460 901H563Z" />
<glyph unicode="&#xce;" horiz-adv-x="305" d="M104 723H201V0H104V723ZM228 785L135 883L162 889L67 785H-19L146 956H147L314 785H228Z" />
<glyph unicode="&#xcf;" horiz-adv-x="305" d="M104 723H201V0H104V723ZM3 828Q3 850 19 865T55 881Q74 881 90 866T107 827Q107 804 91 790T55 775Q35 775 19 790T3 828V828ZM190 828Q190 850 206 865T243 881Q261 881 277 866T294 827Q294 804 278 790T243 775Q223
775 207 790T190 828V828Z" />
<glyph unicode="&#xd0;" horiz-adv-x="753" d="M104 0V723H301Q408 723 483 690T605 603T672 484T694 353Q694 271 666 206T587 95T473 25T336 0H104ZM201 93H317Q377 93 427 111T515 163T574 246T595 359Q595 426 573 476T513 561T427 612T326 630H201V93ZM273
402H550V315H273V402Z" />
<glyph unicode="&#xd1;" horiz-adv-x="837" d="M730 -23L171 544L199 537L201 0H104V745H109L662 176L639 181L637 723H733V-23H730ZM483 789Q451 789 431 803T392 834Q380 845 368 854T341 864Q329 864 320 855T305 829T300 788L250 789Q247 828 258 859T292
908T346 926Q372 926 391 912T426 883Q440 869 453 859T481 848Q501 848 509 869T518 927L568 926Q572 885 562 854T530 806T483 789Z" />
<glyph unicode="&#xd2;" horiz-adv-x="857" d="M59 361Q59 436 87 502T167 620T284 701T428 731Q504 731 570 702T688 621T769 503T798 361Q798 284 769 217T689 100T571 21T428 -8Q351 -8 285 20T167 98T88 215T59 361ZM159 360Q159 303 180 254T238 166T324
107T430 85Q486 85 535 106T620 166T677 253T698 361Q698 418 677 468T619 557T533 616T428 638Q371 638 322 616T236 556T179 468T159 360ZM278 901H381L454 767H394L278 901Z" />
<glyph unicode="&#xd3;" horiz-adv-x="857" d="M59 361Q59 436 87 502T167 620T284 701T428 731Q504 731 570 702T688 621T769 503T798 361Q798 284 769 217T689 100T571 21T428 -8Q351 -8 285 20T167 98T88 215T59 361ZM159 360Q159 303 180 254T238 166T324
107T430 85Q486 85 535 106T620 166T677 253T698 361Q698 418 677 468T619 557T533 616T428 638Q371 638 322 616T236 556T179 468T159 360ZM838 895L711 761H652L735 895H838Z" />
<glyph unicode="&#xd4;" horiz-adv-x="857" d="M59 361Q59 436 87 502T167 620T284 701T428 731Q504 731 570 702T688 621T769 503T798 361Q798 284 769 217T689 100T571 21T428 -8Q351 -8 285 20T167 98T88 215T59 361ZM159 360Q159 303 180 254T238 166T324
107T430 85Q486 85 535 106T620 166T677 253T698 361Q698 418 677 468T619 557T533 616T428 638Q371 638 322 616T236 556T179 468T159 360ZM504 779L411 877L438 883L343 779H257L422 950H423L590 779H504Z" />
<glyph unicode="&#xd5;" horiz-adv-x="857" d="M59 361Q59 436 87 502T167 620T284 701T428 731Q504 731 570 702T688 621T769 503T798 361Q798 284 769 217T689 100T571 21T428 -8Q351 -8 285 20T167 98T88 215T59 361ZM159 360Q159 303 180 254T238 166T324
107T430 85Q486 85 535 106T620 166T677 253T698 361Q698 418 677 468T619 557T533 616T428 638Q371 638 322 616T236 556T179 468T159 360ZM505 795Q473 795 453 809T414 840Q402 851 390 860T363 870Q351 870 342 861T327 835T322 794L272 795Q269 834 280 865T314
914T368 932Q394 932 413 918T448 889Q462 875 475 865T503 854Q523 854 531 875T540 933L590 932Q594 891 584 860T552 812T505 795Z" />
<glyph unicode="&#xd6;" horiz-adv-x="857" d="M59 361Q59 436 87 502T167 620T284 701T428 731Q504 731 570 702T688 621T769 503T798 361Q798 284 769 217T689 100T571 21T428 -8Q351 -8 285 20T167 98T88 215T59 361ZM159 360Q159 303 180 254T238 166T324
107T430 85Q486 85 535 106T620 166T677 253T698 361Q698 418 677 468T619 557T533 616T428 638Q371 638 322 616T236 556T179 468T159 360ZM279 821Q279 843 295 858T331 874Q350 874 366 859T383 820Q383 797 367 783T331 768Q311 768 295 783T279 821V821ZM466
821Q466 843 482 858T519 874Q537 874 553 859T570 820Q570 797 554 783T519 768Q499 768 483 783T466 821V821Z" />
<glyph unicode="&#xd7;" horiz-adv-x="517" d="M278 240Q302 264 325 287T373 335Q390 318 407 299T442 263Q419 240 396 217T350 169Q374 145 397 121T445 72L371 0Q348 24 324 47T274 95Q252 72 228 49T181 1Q163 19 145 36T110 72Q134 96 157 119T205 167L108
263L180 337L278 240Z" />
<glyph unicode="&#xd8;" horiz-adv-x="857" d="M753 687L154 -14L93 41L693 743L753 687ZM59 361Q59 436 87 502T167 620T284 701T428 731Q504 731 570 702T688 621T769 503T798 361Q798 284 769 217T689 100T571 21T428 -8Q351 -8 285 20T167 98T88 215T59 361ZM159
360Q159 303 180 254T238 166T324 107T430 85Q486 85 535 106T620 166T677 253T698 361Q698 418 677 468T619 557T533 616T428 638Q371 638 322 616T236 556T179 468T159 360Z" />
<glyph unicode="&#xd9;" horiz-adv-x="731" d="M191 256Q191 207 214 169T277 108T365 86Q416 86 456 108T519 168T542 256V723H637V253Q637 174 601 115T503 24T365 -8V-8Q289 -8 228 24T131 115T95 253V723H191V256ZM215 907H318L391 773H331L215 907Z" />
<glyph unicode="&#xda;" horiz-adv-x="731" d="M191 256Q191 207 214 169T277 108T365 86Q416 86 456 108T519 168T542 256V723H637V253Q637 174 601 115T503 24T365 -8V-8Q289 -8 228 24T131 115T95 253V723H191V256ZM776 901L649 767H590L673 901H776Z" />
<glyph unicode="&#xdb;" horiz-adv-x="731" d="M191 256Q191 207 214 169T277 108T365 86Q416 86 456 108T519 168T542 256V723H637V253Q637 174 601 115T503 24T365 -8V-8Q289 -8 228 24T131 115T95 253V723H191V256ZM441 785L348 883L375 889L280 785H194L359
956H360L527 785H441Z" />
<glyph unicode="&#xdc;" horiz-adv-x="731" d="M191 256Q191 207 214 169T277 108T365 86Q416 86 456 108T519 168T542 256V723H637V253Q637 174 601 115T503 24T365 -8V-8Q289 -8 228 24T131 115T95 253V723H191V256ZM216 828Q216 850 232 865T268 881Q287 881
303 866T320 827Q320 804 304 790T268 775Q248 775 232 790T216 828V828ZM403 828Q403 850 419 865T456 881Q474 881 490 866T507 827Q507 804 491 790T456 775Q436 775 420 790T403 828V828Z" />
<glyph unicode="&#xdd;" horiz-adv-x="691" d="M296 241L28 723H147L362 324L332 322L545 723H663L393 241V0H296V241ZM768 899L641 765H582L665 899H768Z" />
<glyph unicode="&#xde;" horiz-adv-x="595" d="M315 586Q369 586 412 572T486 529T532 459T549 362Q549 319 537 278T498 204T426 150T314 129H204V0H104V718H204V586H315ZM305 223Q345 223 372 235T416 267T441 312T449 360Q449 395 434 425T387 474T306 493H204V223H305Z"
/>
<glyph unicode="&#xdf;" horiz-adv-x="601" d="M109 452Q109 519 136 566T209 639T314 665Q376 665 418 646T482 594T504 524Q504 481 485 447T429 394Q465 381 493 356T536 291T552 196Q552 131 527 85T457 15T354 -9Q313 -9 284 2T240 26L277 83Q293 71 309
66T344 61Q381 61 406 80T445 131T459 201Q459 246 444 279T400 329T334 346H329L328 428Q364 428 387 448T410 503Q410 528 399 547T367 578T315 589Q254 589 228 545T202 423V0H109V343H44V420H109V452Z" />
<glyph unicode="&#xe0;" horiz-adv-x="586" d="M253 -10Q195 -10 148 15T73 88T45 207Q45 276 74 326T151 404T258 431Q316 431 356 405T417 342L411 326L420 414H506V0H413V108L423 84Q419 74 406 59T370 27T318 1T253 -10ZM278 67Q313 67 341 80T387 116T413
173V254Q405 284 385 306T337 341T275 354Q238 354 207 336T158 286T139 211Q139 171 158 138T209 86T278 67ZM161 632H264L337 498H277L161 632Z" />
<glyph unicode="&#xe1;" horiz-adv-x="586" d="M253 -10Q195 -10 148 15T73 88T45 207Q45 276 74 326T151 404T258 431Q316 431 356 405T417 342L411 326L420 414H506V0H413V108L423 84Q419 74 406 59T370 27T318 1T253 -10ZM278 67Q313 67 341 80T387 116T413
173V254Q405 284 385 306T337 341T275 354Q238 354 207 336T158 286T139 211Q139 171 158 138T209 86T278 67ZM420 624L293 490H234L317 624H420Z" />
<glyph unicode="&#xe2;" horiz-adv-x="586" d="M253 -10Q195 -10 148 15T73 88T45 207Q45 276 74 326T151 404T258 431Q316 431 356 405T417 342L411 326L420 414H506V0H413V108L423 84Q419 74 406 59T370 27T318 1T253 -10ZM278 67Q313 67 341 80T387 116T413
173V254Q405 284 385 306T337 341T275 354Q238 354 207 336T158 286T139 211Q139 171 158 138T209 86T278 67ZM386 499L293 597L320 603L225 499H139L304 670H305L472 499H386Z" />
<glyph unicode="&#xe3;" horiz-adv-x="586" d="M253 -10Q195 -10 148 15T73 88T45 207Q45 276 74 326T151 404T258 431Q316 431 356 405T417 342L411 326L420 414H506V0H413V108L423 84Q419 74 406 59T370 27T318 1T253 -10ZM278 67Q313 67 341 80T387 116T413
173V254Q405 284 385 306T337 341T275 354Q238 354 207 336T158 286T139 211Q139 171 158 138T209 86T278 67ZM382 472Q350 472 330 486T291 517Q279 528 267 537T240 547Q228 547 219 538T204 511T199 471H149Q146 510 157 541T191 591T245 609Q271 609 290 595T325
565Q339 552 352 542T380 531Q400 531 408 552T417 609H467Q471 567 461 536T429 489T382 472Z" />
<glyph unicode="&#xe4;" horiz-adv-x="586" d="M253 -10Q195 -10 148 15T73 88T45 207Q45 276 74 326T151 404T258 431Q316 431 356 405T417 342L411 326L420 414H506V0H413V108L423 84Q419 74 406 59T370 27T318 1T253 -10ZM278 67Q313 67 341 80T387 116T413
173V254Q405 284 385 306T337 341T275 354Q238 354 207 336T158 286T139 211Q139 171 158 138T209 86T278 67ZM159 540Q159 562 175 577T211 593Q230 593 246 578T263 539Q263 516 247 502T211 487Q191 487 175 502T159 540V540ZM346 540Q346 562 362 577T399 593Q417
593 433 578T450 539Q450 516 434 502T399 487Q379 487 363 502T346 540V540Z" />
<glyph unicode="&#xe5;" horiz-adv-x="586" d="M253 -10Q195 -10 148 15T73 88T45 207Q45 276 74 326T151 404T258 431Q316 431 356 405T417 342L411 326L420 414H506V0H413V108L423 84Q419 74 406 59T370 27T318 1T253 -10ZM278 67Q313 67 341 80T387 116T413
173V254Q405 284 385 306T337 341T275 354Q238 354 207 336T158 286T139 211Q139 171 158 138T209 86T278 67ZM204 554Q204 594 230 618T298 643Q337 643 364 619T391 554Q391 515 364 490T297 465Q257 465 231 490T204 554ZM255 553Q255 534 267 522T298 509Q316
509 328 521T340 553Q340 573 328 585T298 597Q279 597 267 585T255 553Z" />
<glyph unicode="&#xe6;" horiz-adv-x="814" d="M207 -11Q150 -11 115 6T62 52T45 117Q45 158 69 186T131 230T213 245Q260 245 304 229T373 188L357 134Q327 159 300 171T234 183Q211 183 191 177T159 156T147 120Q147 91 168 73T232 55Q251 55 272 61T313 78T345
104V167H385L386 64Q365 37 335 21T272 -3T207 -11ZM339 197V263Q339 300 323 319T286 346T245 353Q206 353 174 335T118 288L71 347Q103 381 149 405T258 430Q309 430 347 414T407 366T429 288V257L339 197ZM567 -10Q497 -10 446 18T367 96T339 210Q339 271 370
321T453 401T569 431Q651 431 705 383T779 251L438 131L415 186L695 288L676 275Q663 308 636 332T562 357Q524 357 495 339T448 288T431 215Q431 172 448 140T497 89T569 70Q597 70 622 80T670 106L713 37Q681 16 643 3T567 -10Z" />
<glyph unicode="&#xe7;" horiz-adv-x="456" d="M417 38Q389 16 350 3T272 -10Q204 -10 153 17T74 92T45 207Q45 273 75 322T155 397T262 424Q312 424 351 410T419 372L373 312Q355 326 329 337T270 348Q234 348 204 330T156 279T138 207Q138 169 156 137T206 86T279
67Q306 67 328 75T369 97L417 38ZM404 -152Q415 -163 432 -170T471 -178Q497 -178 518 -167T539 -133Q539 -116 525 -102T474 -87Q458 -87 440 -91T409 -100L392 -55L462 10L533 6L461 -78L439 -55Q450 -50 466 -48T497 -44Q550 -43 584 -65T618 -131Q618 -165
599 -186T548 -218T480 -229Q443 -229 417 -218T374 -191L404 -152Z" />
<glyph unicode="&#xe8;" horiz-adv-x="520" d="M273 -10Q202 -10 151 18T73 96T45 210Q45 271 76 321T159 401T275 431Q357 431 411 383T484 251L143 131L121 186L401 288L381 275Q369 308 341 332T268 357Q230 357 200 339T153 288T136 215Q136 172 154 140T203
89T275 70Q302 70 327 80T375 106L418 37Q387 16 349 3T273 -10ZM123 632H226L299 498H239L123 632Z" />
<glyph unicode="&#xe9;" horiz-adv-x="520" d="M273 -10Q202 -10 151 18T73 96T45 210Q45 271 76 321T159 401T275 431Q357 431 411 383T484 251L143 131L121 186L401 288L381 275Q369 308 341 332T268 357Q230 357 200 339T153 288T136 215Q136 172 154 140T203
89T275 70Q302 70 327 80T375 106L418 37Q387 16 349 3T273 -10ZM382 625L255 491H196L279 625H382Z" />
<glyph unicode="&#xea;" horiz-adv-x="520" d="M273 -10Q202 -10 151 18T73 96T45 210Q45 271 76 321T159 401T275 431Q357 431 411 383T484 251L143 131L121 186L401 288L381 275Q369 308 341 332T268 357Q230 357 200 339T153 288T136 215Q136 172 154 140T203
89T275 70Q302 70 327 80T375 106L418 37Q387 16 349 3T273 -10ZM348 499L255 597L282 603L187 499H101L266 670H267L434 499H348Z" />
<glyph unicode="&#xeb;" horiz-adv-x="520" d="M273 -10Q202 -10 151 18T73 96T45 210Q45 271 76 321T159 401T275 431Q357 431 411 383T484 251L143 131L121 186L401 288L381 275Q369 308 341 332T268 357Q230 357 200 339T153 288T136 215Q136 172 154 140T203
89T275 70Q302 70 327 80T375 106L418 37Q387 16 349 3T273 -10ZM121 540Q121 562 137 577T173 593Q192 593 208 578T225 539Q225 516 209 502T173 487Q153 487 137 502T121 540V540ZM308 540Q308 562 324 577T361 593Q379 593 395 578T412 539Q412 516 396 502T361
487Q341 487 325 502T308 540V540Z" />
<glyph unicode="&#xec;" horiz-adv-x="254" d="M81 414H174V0H81V414ZM239 619H342L415 485H355L239 619Z" />
<glyph unicode="&#xed;" horiz-adv-x="254" d="M81 414H174V0H81V414ZM498 867L371 733H312L395 867H498Z" />
<glyph unicode="&#xee;" horiz-adv-x="254" d="M81 414H174V0H81V414ZM464 742L371 840L398 846L303 742H217L382 913H383L550 742H464Z" />
<glyph unicode="&#xef;" horiz-adv-x="254" d="M81 414H174V0H81V414ZM238 527Q238 549 254 564T290 580Q309 580 325 565T342 526Q342 503 326 489T290 474Q270 474 254 489T238 527V527ZM425 527Q425 549 441 564T478 580Q496 580 512 565T529 526Q529 503 513
489T478 474Q458 474 442 489T425 527V527Z" />
<glyph unicode="&#xf0;" horiz-adv-x="545" d="M264 -10Q203 -10 153 17T74 94T45 211Q45 273 72 323T147 402T251 431Q292 431 325 414T382 370T420 310T438 245L405 253Q402 327 382 390T328 509T248 612T146 705L214 766Q274 725 326 666T417 537T478 393T500
246Q500 197 484 151T438 69T364 11T264 -10ZM272 67Q311 67 341 86T389 137T406 210Q406 250 389 282T342 334T272 354Q234 354 204 334T156 282T138 210Q138 170 156 138T204 86T272 67ZM425 675L189 527L157 589L393 735L425 675Z" />
<glyph unicode="&#xf1;" horiz-adv-x="553" d="M164 414L172 313L168 329Q188 375 233 402T337 430Q396 430 433 396T472 306V0H378V273Q377 307 359 328T301 350Q265 350 236 330T191 275T174 194V0H81V414H164ZM353 465Q321 465 301 479T262 510Q250 521 238
530T211 540Q199 540 190 531T175 504T170 464H120Q117 503 128 534T162 584T216 602Q242 602 261 588T296 558Q310 545 323 535T351 524Q371 524 379 545T388 602H438Q442 560 432 529T400 482T353 465Z" />
<glyph unicode="&#xf2;" horiz-adv-x="545" d="M45 211Q45 273 74 323T156 402T274 431Q342 431 393 402T472 323T500 211Q500 149 472 99T393 19T273 -10Q207 -10 156 17T75 94T45 211ZM138 210Q138 170 156 138T204 86T272 67Q311 67 341 86T389 137T406 210Q406
250 389 282T342 334T272 354Q234 354 204 334T156 282T138 210ZM128 632H231L304 498H244L128 632Z" />
<glyph unicode="&#xf3;" horiz-adv-x="545" d="M45 211Q45 273 74 323T156 402T274 431Q342 431 393 402T472 323T500 211Q500 149 472 99T393 19T273 -10Q207 -10 156 17T75 94T45 211ZM138 210Q138 170 156 138T204 86T272 67Q311 67 341 86T389 137T406 210Q406
250 389 282T342 334T272 354Q234 354 204 334T156 282T138 210ZM387 624L260 490H201L284 624H387Z" />
<glyph unicode="&#xf4;" horiz-adv-x="545" d="M45 211Q45 273 74 323T156 402T274 431Q342 431 393 402T472 323T500 211Q500 149 472 99T393 19T273 -10Q207 -10 156 17T75 94T45 211ZM138 210Q138 170 156 138T204 86T272 67Q311 67 341 86T389 137T406 210Q406
250 389 282T342 334T272 354Q234 354 204 334T156 282T138 210ZM353 499L260 597L287 603L192 499H106L271 670H272L439 499H353Z" />
<glyph unicode="&#xf5;" horiz-adv-x="545" d="M45 211Q45 273 74 323T156 402T274 431Q342 431 393 402T472 323T500 211Q500 149 472 99T393 19T273 -10Q207 -10 156 17T75 94T45 211ZM138 210Q138 170 156 138T204 86T272 67Q311 67 341 86T389 137T406 210Q406
250 389 282T342 334T272 354Q234 354 204 334T156 282T138 210ZM350 472Q318 472 298 486T259 517Q247 528 235 537T208 547Q196 547 187 538T172 511T167 471H117Q114 510 125 541T159 591T213 609Q239 609 258 595T293 565Q307 552 320 542T348 531Q368 531
376 552T385 609H435Q439 567 429 536T397 489T350 472Z" />
<glyph unicode="&#xf6;" horiz-adv-x="545" d="M45 211Q45 273 74 323T156 402T274 431Q342 431 393 402T472 323T500 211Q500 149 472 99T393 19T273 -10Q207 -10 156 17T75 94T45 211ZM138 210Q138 170 156 138T204 86T272 67Q311 67 341 86T389 137T406 210Q406
250 389 282T342 334T272 354Q234 354 204 334T156 282T138 210ZM126 540Q126 562 142 577T178 593Q197 593 213 578T230 539Q230 516 214 502T178 487Q158 487 142 502T126 540V540ZM313 540Q313 562 329 577T366 593Q384 593 400 578T417 539Q417 516 401 502T366
487Q346 487 330 502T313 540V540Z" />
<glyph unicode="&#xf7;" horiz-adv-x="506" d="M202 396Q202 419 218 434T254 450Q273 450 289 435T306 396Q306 373 290 359T254 344Q234 344 218 358T202 396V396ZM202 105Q202 128 218 143T254 159Q273 159 289 144T306 105Q306 82 290 68T254 53Q234 53 218
67T202 105V105ZM68 290H433V209H68V290Z" />
<glyph unicode="&#xf8;" horiz-adv-x="521" d="M474 404L102 -23L57 19L426 444L474 404ZM45 211Q45 273 74 323T156 402T274 431Q342 431 393 402T472 323T500 211Q500 149 472 99T393 19T273 -10Q207 -10 156 17T75 94T45 211ZM138 210Q138 170 156 138T204
86T272 67Q311 67 341 86T389 137T406 210Q406 250 389 282T342 334T272 354Q234 354 204 334T156 282T138 210Z" />
<glyph unicode="&#xf9;" horiz-adv-x="546" d="M212 -16Q156 -16 120 18T81 108V414H174V141Q176 107 193 86T249 64Q284 64 311 84T356 140T373 221V414H466V0H381L373 102L378 84Q366 55 342 33T284 -3T212 -16ZM129 632H232L305 498H245L129 632Z" />
<glyph unicode="&#xfa;" horiz-adv-x="546" d="M212 -16Q156 -16 120 18T81 108V414H174V141Q176 107 193 86T249 64Q284 64 311 84T356 140T373 221V414H466V0H381L373 102L378 84Q366 55 342 33T284 -3T212 -16ZM388 624L261 490H202L285 624H388Z" />
<glyph unicode="&#xfb;" horiz-adv-x="546" d="M212 -16Q156 -16 120 18T81 108V414H174V141Q176 107 193 86T249 64Q284 64 311 84T356 140T373 221V414H466V0H381L373 102L378 84Q366 55 342 33T284 -3T212 -16ZM354 499L261 597L288 603L193 499H107L272 670H273L440
499H354Z" />
<glyph unicode="&#xfc;" horiz-adv-x="546" d="M212 -16Q156 -16 120 18T81 108V414H174V141Q176 107 193 86T249 64Q284 64 311 84T356 140T373 221V414H466V0H381L373 102L378 84Q366 55 342 33T284 -3T212 -16ZM128 540Q128 562 144 577T180 593Q199 593 215
578T232 539Q232 516 216 502T180 487Q160 487 144 502T128 540V540ZM315 540Q315 562 331 577T368 593Q386 593 402 578T419 539Q419 516 403 502T368 487Q348 487 332 502T315 540V540Z" />
<glyph unicode="&#xfd;" horiz-adv-x="494" d="M116 -199L389 414H475L208 -199H116ZM218 -3L19 414H124L291 44L218 -3ZM367 867L240 733H181L264 867H367Z" />
<glyph unicode="&#xfe;" horiz-adv-x="584" d="M323 -10Q292 -10 262 0T207 29T168 72L171 107V-199H79V774H172V316L161 338Q179 365 206 385T268 418T341 431Q400 431 446 403T519 325T546 208Q546 141 517 92T438 17T323 -10ZM306 65Q346 65 379 83T432 134T452
207Q452 248 433 281T382 333T312 352Q276 352 247 338T199 300T172 243V171Q178 140 197 116T244 79T306 65Z" />
<glyph unicode="&#xff;" horiz-adv-x="494" d="M116 -199L389 414H475L208 -199H116ZM218 -3L19 414H124L291 44L218 -3ZM106 527Q106 549 122 564T158 580Q177 580 193 565T210 526Q210 503 194 489T158 474Q138 474 122 489T106 527V527ZM293 527Q293 549 309
564T346 580Q364 580 380 565T397 526Q397 503 381 489T346 474Q326 474 310 489T293 527V527Z" />
<glyph unicode="&#x2013;" horiz-adv-x="515" d="M101 252H406V170H101V252Z" />
<glyph unicode="&#x2014;" horiz-adv-x="709" d="M100 252H608V170H100V252Z" />
<glyph unicode="&#x2018;" horiz-adv-x="181" d="M102 732L150 708Q128 684 116 650T110 583L36 576Q30 610 37 639T62 692T102 732Z" />
<glyph unicode="&#x2019;" horiz-adv-x="185" d="M82 564L35 588Q56 608 68 643T74 713L148 720Q154 692 146 662T121 605T82 564V564Z" />
<glyph unicode="&#x201a;" horiz-adv-x="185" d="M82 -85L35 -61Q56 -41 68 -6T74 64L148 71Q154 43 146 13T121 -44T82 -85V-85Z" />
<glyph unicode="&#x201c;" horiz-adv-x="293" d="M231 732L279 708Q257 684 245 650T239 583L165 576Q159 610 166 639T191 692T231 732ZM107 732L155 708Q133 684 121 650T115 583L41 576Q35 610 42 639T67 692T107 732Z" />
<glyph unicode="&#x201d;" horiz-adv-x="290" d="M82 564L35 588Q56 608 68 643T74 713L148 720Q154 692 146 662T121 605T82 564V564ZM199 564L152 588Q173 608 185 643T191 713L265 720Q271 692 263 662T238 605T199 564V564Z" />
<glyph unicode="&#x201e;" horiz-adv-x="302" d="M82 -84L35 -60Q56 -40 68 -5T74 65L148 72Q154 44 146 14T121 -43T82 -84V-84ZM199 -84L152 -60Q173 -40 185 -5T191 65L265 72Q271 44 263 14T238 -43T199 -84V-84Z" />
<glyph unicode="&#x2022;" horiz-adv-x="484" d="M115 304Q115 340 132 369T178 416T242 433Q278 433 307 416T354 370T371 304Q371 269 354 240T308 193T242 176Q207 176 178 193T132 239T115 304V304Z" />
<glyph unicode="&#x2039;" horiz-adv-x="371" d="M53 242Q58 247 75 261T115 295T164 336T213 377T254 411T276 430V345Q270 339 254 325T220 294T186 264T164 242Q171 235 186 221T219 190T254 159T276 137V53L53 242Z" />
<glyph unicode="&#x203a;" horiz-adv-x="365" d="M317 242Q312 247 295 261T255 295T206 336T157 377T116 411T94 430V345Q100 339 115 325T149 294T183 264T205 242Q199 235 184 221T150 190T116 159T94 137V53L317 242Z" />
</font>
</defs>
</svg>
