<?xml version="1.0" standalone="no"?>
<!DOCTYPE svg PUBLIC "-//W3C//DTD SVG 1.1//EN" "http://www.w3.org/Graphics/SVG/1.1/DTD/svg11.dtd">
<svg xmlns="http://www.w3.org/2000/svg">
<defs >
<font id="JosefinSans" horiz-adv-x="547" ><font-face
    font-family="Josefin Sans Thin Light"
    units-per-em="1000"
    panose-1="0 0 0 0 0 0 0 0 0 0"
    ascent="750"
    descent="-250"
    alphabetic="0" />
<glyph unicode=" " horiz-adv-x="307" />
<glyph unicode="!" horiz-adv-x="201" d="M78 754H121V175H78V754ZM101 22Q85 22 74 32T63 58Q63 72 74 82T101 93Q117 93 127 83T138 58Q138 42 128 32T101 22Z" />
<glyph unicode="&quot;" horiz-adv-x="312" d="M109 724Q108 661 107 599T105 474H63V724H109ZM243 724Q242 661 241 599T239 474H197V724H243Z" />
<glyph unicode="#" horiz-adv-x="574" d="M231 646Q224 594 218 542T205 436H347Q353 489 359 541T372 646H416Q409 594 403 542T390 436H512Q511 426 511 416T509 394H385Q381 359 377 324T369 253H490Q489 243 488 232T486 210H363Q357 158 351 106T339 0H295Q301
53 307 105T319 210H178Q172 158 166 106T154 0H110Q116 53 122 105T134 210H27Q29 221 30 232T32 253H140Q145 288 149 323T157 394H50Q52 405 53 415T55 436H162Q168 489 174 541T187 646H231ZM200 394Q196 359 192 324T183 253H325Q330 288 333 323T341 394H200Z"
/>
<glyph unicode="$" horiz-adv-x="567" d="M288 -68V373V391V775H321V392V369V-68H288ZM468 630Q437 645 392 658T302 671Q232 671 190 636T148 548Q148 508 172 482T235 437T318 401Q353 388 387 372T450 333T494 276T511 192Q511 133 483 88T405 17T289 -8Q236
-8 193 5T117 35T65 65L88 105Q110 89 141 73T210 46T284 35Q327 35 367 52T434 103T461 191Q461 242 436 273T372 325T289 361Q255 374 221 388T159 423T115 473T98 543Q98 594 124 632T194 691T296 714Q346 714 397 701T487 668L468 630Z" />
<glyph unicode="%" horiz-adv-x="750" d="M214 240Q177 240 149 258T106 311T90 392Q90 439 105 473T149 525T214 544Q250 544 277 526T321 473T337 392Q337 345 321 311T278 258T214 240ZM133 391Q133 336 155 306T214 275Q249 275 271 305T294 391Q294 447 272
477T214 508Q178 508 156 479T133 391ZM547 -4Q510 -4 483 14T440 67T424 148Q424 195 439 229T482 281T547 300Q584 300 611 282T655 229T671 148Q671 101 655 67T611 14T547 -4ZM466 147Q466 92 489 62T547 31Q582 31 605 61T628 147Q628 203 605 233T547 264Q512
264 489 235T466 147ZM578 546L230 -1L182 0L529 546H578Z" />
<glyph unicode="&amp;" horiz-adv-x="711" d="M630 0Q627 0 618 0T598 0T581 0T573 0L204 481Q196 495 187 512T171 550T165 595Q165 640 186 675T244 731T330 752Q377 752 416 735T483 695L459 662Q429 684 399 697T337 710Q284 710 250 678T215 595Q215 572
222 551T237 517T246 502L630 0ZM302 361Q270 361 238 349T179 314T136 262T120 194Q120 147 145 112T212 56T304 36Q347 36 383 50T447 87T486 137L517 105Q491 57 433 25T299 -8Q232 -8 180 19T98 91T68 193Q68 237 87 274T140 340T214 384T299 401L302 361ZM585
401H633L522 112L487 139L585 401Z" />
<glyph unicode="&apos;" horiz-adv-x="154" d="M103 724Q102 661 101 599T99 474H57V724H103Z" />
<glyph unicode="(" horiz-adv-x="398" d="M128 293Q128 394 152 481T214 637T294 750L326 720Q288 676 254 612T198 468T177 293Q177 199 198 119T253 -25T326 -133L294 -164Q252 -120 214 -51T152 105T128 293V293Z" />
<glyph unicode=")" horiz-adv-x="402" d="M293 293Q293 193 269 106T208 -51T128 -164L95 -133Q134 -89 168 -26T223 118T244 293Q244 387 223 467T168 611T95 719L128 750Q170 706 207 637T269 481T293 293V293Z" />
<glyph unicode="*" horiz-adv-x="335" d="M150 546Q126 532 102 518T53 490Q49 498 45 506T35 521Q60 535 84 549T133 576Q109 590 85 605T36 634Q39 641 43 647T51 661Q76 647 100 633T150 604V720H186Q185 691 185 662T184 604Q209 618 234 632T285 660Q288
653 292 647T300 633Q275 619 251 604T200 575V575Q225 561 249 547T299 518Q295 511 291 504T281 488Q257 502 233 517T183 546Q183 518 183 491T182 434H150V546Z" />
<glyph unicode="+" horiz-adv-x="546" d="M246 413H289V254H448V212H289V51H246V212H87V254H246V413Z" />
<glyph unicode="," horiz-adv-x="201" d="M143 87Q121 35 100 -16T57 -121H17Q37 -68 56 -17T94 87H143Z" />
<glyph unicode="-" horiz-adv-x="302" d="M53 222H238V180H53V222Z" />
<glyph unicode="." horiz-adv-x="165" d="M53 34Q53 48 63 58T86 68Q99 68 109 58T120 34Q120 19 110 10T86 0Q73 0 63 9T53 34V34Z" />
<glyph unicode="/" horiz-adv-x="348" d="M340 740Q270 550 201 361T61 -19H17Q88 171 157 360T297 740H340Z" />
<glyph unicode="0" horiz-adv-x="619" d="M310 -5Q245 -5 194 20T108 92T55 198T36 328Q36 399 54 459T107 565T193 634T310 659Q375 659 425 634T511 563T564 457T583 328Q583 258 565 198T511 92T426 21T310 -5ZM309 42Q375 42 425 76T504 175T533 328Q533 415
505 479T426 578T309 612Q243 613 193 578T115 479T86 327Q87 240 115 176T193 77T309 42Z" />
<glyph unicode="1" horiz-adv-x="315" d="M56 653H202V0H153V606H56V653Z" />
<glyph unicode="2" horiz-adv-x="507" d="M53 0Q117 62 176 122T283 240T357 352T385 457Q385 501 372 531T337 579T290 606T240 615Q197 615 169 601T125 563T101 515T94 466Q94 431 104 403T133 355L103 328Q85 344 72 365T53 413T46 465Q46 519 69 563T137
634T246 661Q303 661 345 635T411 563T435 461Q435 406 409 352T341 245T249 140T152 37L133 47H471V0H53Z" />
<glyph unicode="3" horiz-adv-x="520" d="M418 653L216 375L179 386Q196 396 216 400T258 405Q297 407 332 397T394 363T437 303T453 217Q453 149 423 99T342 20T225 -8Q179 -8 137 10T66 60L91 100Q113 74 149 57T224 39Q276 39 316 61T380 125T403 219Q403 289
360 329T245 369Q217 369 193 363T152 349L148 352L342 616L360 607H88V653H418Z" />
<glyph unicode="4" horiz-adv-x="518" d="M15 173V174L395 661H396V212H488V173H396V0H347V173H15ZM353 542L92 208L76 212H347V571L353 542Z" />
<glyph unicode="5" horiz-adv-x="527" d="M247 -8Q201 -8 160 8T90 53L118 88Q141 64 174 51T242 37Q293 37 330 59T387 119T407 202Q407 249 391 286T341 346T253 368Q215 368 183 357T125 329H124V653H422V607H167V378L159 389Q179 399 208 404T264 410Q329
410 372 382T436 307T457 203Q457 145 431 97T358 21T247 -8Z" />
<glyph unicode="6" horiz-adv-x="529" d="M262 -8Q202 -8 153 21T74 101T45 218Q45 289 73 350T149 464T252 562T365 646L397 609Q314 560 255 508T161 403T113 303L100 306Q128 355 173 380T276 406Q330 406 375 379T449 305T477 201Q477 141 448 94T369 19T262
-8ZM260 36Q306 36 344 57T404 116T427 201Q427 248 405 284T344 342T260 364Q214 364 177 344T117 289T94 210V199Q94 155 116 118T176 58T260 36Z" />
<glyph unicode="7" horiz-adv-x="476" d="M435 653L155 0H99L368 618L388 607H22V653H435Z" />
<glyph unicode="8" horiz-adv-x="514" d="M41 200Q41 249 60 287T112 353T182 392Q145 408 122 439T98 513Q98 556 117 589T172 641T255 661Q301 661 336 642T390 589T410 514Q410 471 387 440T328 392Q367 380 400 353T453 288T473 200Q473 144 444 97T365 21T255
-8Q195 -8 147 20T70 96T41 200V200ZM90 202Q90 157 112 119T171 57T254 34Q301 34 339 57T401 118T424 202Q424 248 402 285T341 345T256 368Q211 368 173 346T113 286T90 202V202ZM145 508Q145 466 177 438T256 409Q301 409 332 437T363 508Q363 558 332 589T256
620Q210 620 178 589T145 508V508Z" />
<glyph unicode="9" horiz-adv-x="529" d="M246 224Q192 224 147 251T73 325T45 429Q45 490 74 537T153 611T260 638Q321 638 370 612T448 539T477 426Q477 352 447 290T369 174T262 76T147 -9L114 29Q201 81 262 133T359 233T406 320L426 323Q393 274 352 249T246
224ZM262 267Q336 267 382 308T428 422V437Q426 483 403 518T344 573T262 593Q216 593 178 572T118 513T95 429Q95 383 117 346T178 288T262 267Z" />
<glyph unicode=":" horiz-adv-x="176" d="M52 293Q52 307 62 317T86 327Q98 327 108 317T119 293Q119 278 109 269T86 259Q73 259 63 268T52 293V293ZM52 34Q52 48 62 58T86 68Q98 68 108 58T119 34Q119 19 109 10T86 0Q73 0 63 9T52 34V34Z" />
<glyph unicode=";" horiz-adv-x="202" d="M78 286Q78 299 88 309T112 319Q125 319 135 309T145 285Q145 270 136 261T112 251Q99 251 89 261T78 286V286ZM128 87Q106 35 85 -16T42 -121H2Q22 -68 41 -17T79 87H128Z" />
<glyph unicode="&lt;" horiz-adv-x="647" d="M532 441L183 239L532 37V-15L93 239L532 493V441Z" />
<glyph unicode="=" horiz-adv-x="712" d="M101 372H609V330H101V372ZM101 177H609V135H101V177Z" />
<glyph unicode="&gt;" horiz-adv-x="625" d="M106 37L456 239L106 441V493L546 239L106 -15V-15V37Z" />
<glyph unicode="?" horiz-adv-x="455" d="M191 173V246Q191 294 205 319T241 361T287 396Q323 423 347 455T371 540Q371 584 351 618T296 672T219 692Q182 692 151 677T98 636T65 577L25 594Q34 620 51 645T94 690T151 723T223 736Q279 736 323 712T394 644T420
543Q420 503 408 472T374 417T324 370Q300 351 281 337T250 300T238 236V173H191ZM217 22Q201 22 190 32T179 58Q179 72 190 82T217 93Q233 93 243 83T254 58Q254 42 244 32T217 22Z" />
<glyph unicode="@" horiz-adv-x="993" d="M414 -212Q332 -212 265 -189T150 -120T77 -8T51 144Q51 199 69 262T125 386T225 498T373 579T574 610Q657 610 724 585T841 513T916 406T942 272Q942 217 925 166T879 76T809 14T722 -9Q684 -9 661 9T629 60T630 139L639
114Q622 82 592 54T523 9T445 -8Q391 -8 349 15T284 79T262 173Q262 235 291 287T372 371T486 403Q530 403 563 389T618 351T651 294L670 391H713L675 117Q673 97 676 78T692 47T731 34Q763 34 793 53T846 106T882 182T896 272Q896 356 855 423T741 531T567 571Q461
571 383 542T249 464T160 358T111 246T95 147Q95 69 117 10T182 -91T285 -152T421 -173Q482 -173 539 -154T647 -103L668 -133Q631 -158 589 -176T503 -203T414 -212ZM461 32Q499 32 535 50T599 102T635 178L642 234Q640 271 620 300T566 346T491 363Q443 363 403
338T337 271T312 178Q312 137 330 104T383 51T461 32Z" />
<glyph unicode="A" horiz-adv-x="706" d="M51 0L351 741H355L655 0H600L339 663L373 682L100 0H51ZM196 281H511L525 235H184L196 281Z" />
<glyph unicode="B" horiz-adv-x="590" d="M270 710Q373 710 429 668T486 530Q486 483 468 444T415 380T326 348L321 372Q376 368 421 345T494 282T522 189Q522 141 504 106T454 47T382 12T298 0H113V710H270ZM293 378Q369 378 402 419T436 521Q436 597 392 630T272
663H162V378H293ZM296 45Q344 45 384 60T448 108T472 187Q472 239 445 270T377 316T293 331H162V45H296Z" />
<glyph unicode="C" horiz-adv-x="691" d="M623 47Q600 33 570 20T504 0T426 -8Q345 -8 279 20T166 98T94 212T68 350Q68 428 95 495T171 612T285 690T426 718Q482 718 531 703T620 664L599 619Q564 641 520 656T427 671Q364 671 308 647T210 579T143 477T119 352Q119
288 140 231T202 131T300 64T427 39Q479 39 522 53T600 90L623 47Z" />
<glyph unicode="D" horiz-adv-x="736" d="M113 0V710H288Q391 710 463 678T581 592T647 476T668 351Q668 270 640 206T564 95T453 25T322 0H113ZM162 47H309Q373 47 429 68T527 129T594 225T618 354Q618 415 598 470T536 569T435 637T295 662H162V47Z" />
<glyph unicode="E" horiz-adv-x="639" d="M113 710H551V663H162V381H512V334H162V47H565V0H113V710Z" />
<glyph unicode="F" horiz-adv-x="578" d="M113 710H511V663H162V370H471V324H162V0H113V710Z" />
<glyph unicode="G" horiz-adv-x="741" d="M649 50Q631 38 606 28T551 9T492 -3T434 -8Q350 -8 283 19T167 95T94 208T68 348Q68 429 96 497T175 614T291 691T431 718Q487 718 536 704T626 666L608 622Q585 636 556 646T497 663T436 669Q368 669 310 645T209 578T142
477T118 351Q118 285 140 229T204 130T304 64T433 40Q475 40 521 50T600 79V276H440V323H649V50Z" />
<glyph unicode="H" horiz-adv-x="752" d="M639 710V0H590V334H162V0H113V710H162V380H590V710H639Z" />
<glyph unicode="I" horiz-adv-x="275" d="M113 710H162V0H113V710Z" />
<glyph unicode="J" horiz-adv-x="330" d="M217 107Q217 28 188 -28T111 -113T1 -145V-145V-98Q73 -94 120 -41T168 110V710H217V107Z" />
<glyph unicode="K" horiz-adv-x="655" d="M163 390L161 355L164 364L515 710H578L284 419L611 0H549L248 388L162 306L163 0H113V710H163V390Z" />
<glyph unicode="L" horiz-adv-x="603" d="M113 710H162V47H551V0H113V710Z" />
<glyph unicode="M" horiz-adv-x="906" d="M113 0V726H114L464 229L443 232L792 726H793V0H745V613L749 589L453 172H451L153 589L161 611V0H113Z" />
<glyph unicode="N" horiz-adv-x="822" d="M707 -17L147 614L160 624L161 0H113V725H116L676 89L663 85L662 710H709V-17H707Z" />
<glyph unicode="O" horiz-adv-x="862" d="M68 354Q68 429 96 494T174 610T289 689T430 718Q505 718 571 690T687 611T765 495T794 354Q794 279 766 214T687 98T571 20T430 -8Q355 -8 290 19T174 95T96 210T68 354ZM118 353Q118 288 142 231T209 131T308 64T429
39Q495 39 552 63T652 131T719 231T744 354Q744 419 720 476T652 577T552 646T430 671Q364 671 307 646T208 576T142 475T118 353Z" />
<glyph unicode="P" horiz-adv-x="554" d="M277 710Q343 710 392 688T469 621T497 509Q497 469 485 432T445 364T375 316T272 298H162V0H113V710H277ZM272 345Q324 345 358 361T412 403T440 457T449 509Q449 543 438 571T406 619T353 651T282 663H162V345H272Z" />
<glyph unicode="Q" horiz-adv-x="882" d="M546 47H814V0H477L546 47ZM68 354Q68 429 96 494T174 610T289 689T430 718Q505 718 571 690T687 611T765 495T794 354Q794 279 766 214T687 98T571 20T430 -8Q355 -8 290 19T174 95T96 210T68 354ZM118 353Q118 288 142
231T209 131T308 64T429 39Q495 39 552 63T652 131T719 231T744 354Q744 419 720 476T652 576T552 645T430 670Q364 670 307 645T208 575T142 474T118 353Z" />
<glyph unicode="R" horiz-adv-x="633" d="M275 710Q315 710 354 699T426 663T479 600T499 509Q499 469 487 432T448 364T378 316T272 298H162V0H113V710H275ZM269 345Q322 345 357 360T412 399T440 451T449 507Q449 539 438 567T404 616T351 650T282 663H162V345H269ZM371
323L568 0H511L313 322L371 323Z" />
<glyph unicode="S" horiz-adv-x="581" d="M468 630Q437 645 392 658T302 671Q232 671 190 636T148 548Q148 508 172 482T235 437T318 401Q353 388 387 372T450 333T494 276T511 192Q511 133 483 88T405 17T289 -8Q236 -8 193 5T117 35T65 65L88 105Q110 89 141
73T210 46T284 35Q327 35 367 52T434 103T461 191Q461 242 436 273T372 325T289 361Q255 374 221 388T159 423T115 473T98 543Q98 594 124 632T194 691T296 714Q346 714 397 701T487 668L468 630Z" />
<glyph unicode="T" horiz-adv-x="577" d="M56 710H521V663H312V0H263V663H56V710Z" />
<glyph unicode="U" horiz-adv-x="707" d="M158 240Q158 178 183 133T253 64T353 39Q410 39 454 63T524 133T550 240V710H598V237Q598 160 566 105T478 21T353 -8V-8Q284 -8 229 21T141 105T109 237V710H158V240Z" />
<glyph unicode="V" horiz-adv-x="702" d="M106 710L368 45L341 49L597 710H653L351 -33L49 710H106Z" />
<glyph unicode="W" horiz-adv-x="993" d="M49 708H105L340 66L329 69L477 469L500 406L329 -33L49 708ZM376 708H425L669 66L654 70L892 708H944L659 -32L376 708Z" />
<glyph unicode="X" horiz-adv-x="620" d="M53 710H114L576 0H514L53 710ZM43 0L283 375L309 332L103 0H43ZM306 391L505 710H563L334 352L306 391Z" />
<glyph unicode="Y" horiz-adv-x="661" d="M306 253L41 710H101L340 294L323 293L561 710H620L355 253V0H306V253Z" />
<glyph unicode="Z" horiz-adv-x="703" d="M56 0Q79 32 107 71T166 154T231 246T300 342T368 436T433 526T493 608T544 676L553 663H152Q134 663 119 668T95 684T86 714V745H133V733Q133 720 140 715T164 710H621L135 39L131 47H645V0H56Z" />
<glyph unicode="[" horiz-adv-x="351" d="M113 750H295V705H164V-105H295V-150H113V750Z" />
<glyph unicode="\" horiz-adv-x="349" d="M58 740Q128 550 197 361T337 -19H289Q219 171 150 360T10 740H58Z" />
<glyph unicode="]" horiz-adv-x="351" d="M238 -150H56V-105H188V706H56V750H238V-150Z" />
<glyph unicode="^" horiz-adv-x="472" d="M320 482Q307 501 292 522T262 566T233 607Q220 588 205 566T175 523T147 482H113Q143 527 173 572T233 663V663Q263 618 293 573T354 482H320Z" />
<glyph unicode="_" horiz-adv-x="603" d="M101 42H503V0H101V42Z" />
<glyph unicode="`" horiz-adv-x="231" d="M-2 615H50L133 482H99L-2 615Z" />
<glyph unicode="a" horiz-adv-x="559" d="M251 -8Q195 -8 150 17T78 89T51 196Q51 261 79 307T155 378T264 403Q316 403 362 372T429 294L422 280L428 391H470V0H423V121L433 103Q426 83 409 64T368 28T314 2T251 -8ZM261 32Q305 32 340 50T398 102T423 178V234Q415
271 392 300T334 346T260 363Q216 363 179 343T120 285T98 198Q98 152 120 115T179 55T261 32Z" />
<glyph unicode="b" horiz-adv-x="562" d="M308 -8Q248 -8 199 23T126 101L136 128V0H89V760H136V276L130 302Q153 348 203 375T313 403Q368 403 413 377T484 304T511 199Q511 133 483 87T409 16T308 -8ZM300 33Q350 33 386 54T443 113T463 199Q463 244 443 281T386
341T300 364Q259 364 225 347T167 301T136 234V173Q140 136 162 104T220 53T300 33Z" />
<glyph unicode="c" horiz-adv-x="433" d="M391 38Q364 16 330 4T259 -8Q199 -8 152 18T78 91T51 196Q51 255 79 301T153 373T255 400Q296 400 331 388T392 354L367 322Q346 339 318 350T258 361Q214 361 178 339T120 280T98 196Q98 151 119 114T178 54T262 32Q292
32 318 41T365 67L391 38Z" />
<glyph unicode="d" horiz-adv-x="562" d="M249 -8Q194 -8 149 18T78 92T51 198Q51 261 78 307T151 378T254 403Q310 403 360 374T434 298L426 276V760H473V0H425V120L435 98Q410 51 360 22T249 -8ZM261 33Q306 33 342 52T400 105T425 181V231Q418 269 394 299T336
346T261 364Q216 364 179 343T120 285T98 199Q98 153 120 116T179 56T261 33Z" />
<glyph unicode="e" horiz-adv-x="487" d="M259 -8Q198 -8 151 19T78 92T51 197Q51 254 79 301T154 376T260 404Q330 404 377 363T446 256L104 124L90 158L403 280L393 266Q376 306 342 335T257 364Q212 364 176 342T119 283T97 199Q97 155 117 117T175 56T260
33Q292 33 321 45T374 76L398 42Q370 20 334 6T259 -8Z" />
<glyph unicode="f" horiz-adv-x="324" d="M115 0V347H47V390H115V587Q115 681 147 722T244 764Q258 764 274 761T303 749L283 715Q276 720 268 722T248 725Q205 725 184 695T162 588V390H293V347H162V0H115Z" />
<glyph unicode="g" horiz-adv-x="564" d="M263 -191Q230 -191 200 -184T141 -158T81 -111L109 -79Q152 -120 189 -134T261 -149Q322 -149 358 -130T410 -78T427 -5L428 122L439 110Q419 58 368 25T251 -8Q196 -8 151 19T78 93T51 197Q51 258 79 304T155 376T261
403Q315 403 363 375T434 301L428 279L433 391H475V-6Q475 -54 454 -96T386 -165T263 -191ZM98 198Q98 152 120 115T179 55T263 32Q307 32 343 51T402 104T428 175V233Q420 271 397 300T339 346T263 363Q217 363 180 342T120 284T98 198Z" />
<glyph unicode="h" horiz-adv-x="512" d="M89 0V760H135V287L132 304Q152 345 196 373T299 402Q354 402 388 370T423 285V0H375V272Q374 310 351 335T284 361Q245 361 211 341T157 287T136 210V0H89Z" />
<glyph unicode="i" horiz-adv-x="225" d="M89 391H136V0H89V391ZM79 535Q79 549 90 558T114 568Q128 568 138 559T148 535Q148 520 138 511T114 501Q101 501 90 511T79 535Z" />
<glyph unicode="j" horiz-adv-x="224" d="M72 -188L42 -159Q68 -133 83 -94T99 -6V391H147V-5Q147 -68 129 -113T72 -188ZM89 535Q89 549 100 558T124 568Q138 568 148 559T158 535Q158 520 148 511T124 501Q111 501 100 511T89 535Z" />
<glyph unicode="k" horiz-adv-x="451" d="M89 0V760H136V0H89ZM226 254L408 0H353L193 228L226 254ZM120 142L116 189L355 399L384 374L120 142Z" />
<glyph unicode="l" horiz-adv-x="225" d="M89 760H136V0H89V760Z" />
<glyph unicode="m" horiz-adv-x="787" d="M130 391L135 282L128 292Q148 343 194 372T296 402Q329 402 355 390T398 356T418 306L412 300Q433 350 478 376T575 402Q631 402 664 370T698 285V0H651V275Q650 310 629 334T565 361Q526 361 493 341T440 288T417 214V0H370V275Q369
310 348 334T283 361Q243 361 210 341T156 287T136 210V0H89V391H130Z" />
<glyph unicode="n" horiz-adv-x="512" d="M130 391L135 268L129 292Q146 343 193 372T299 402Q354 402 388 370T423 285V0H375V272Q374 310 351 335T284 361Q245 361 211 342T157 289T136 210V0H89V391H130Z" />
<glyph unicode="o" horiz-adv-x="519" d="M51 198Q51 255 78 302T153 376T260 404Q320 404 367 377T441 302T468 198Q468 141 441 94T367 20T260 -8Q200 -8 153 18T79 91T51 198ZM98 197Q98 151 119 114T177 54T259 32Q304 32 340 54T398 113T420 197Q420 243
399 280T341 340T259 363Q213 363 177 340T119 278T98 197Z" />
<glyph unicode="p" horiz-adv-x="562" d="M305 -8Q249 -8 200 21T128 98L136 115V-188H89V394H131L136 266L127 295Q153 342 203 372T312 403Q368 403 413 376T484 303T511 196Q511 137 484 91T410 18T305 -8ZM297 31Q343 31 380 53T440 112T463 196Q463 243 441
280T383 340T300 362Q256 362 220 342T162 288T136 211V179Q139 138 161 104T219 51T297 31Z" />
<glyph unicode="q" horiz-adv-x="562" d="M248 -8Q194 -8 149 18T78 91T51 196Q51 256 78 303T153 376T260 403Q315 403 364 373T436 294L425 266V394H473V-188H426V127L432 94Q410 48 360 20T248 -8ZM261 31Q305 31 340 50T399 103T425 177V211Q422 254 400 288T342
342T261 362Q217 362 180 340T120 281T98 196Q98 150 120 113T179 53T261 31Z" />
<glyph unicode="r" horiz-adv-x="342" d="M130 391L135 271L129 286Q142 322 170 348T232 388T299 402L297 356Q252 356 216 336T158 283T136 207V0H89V391H130Z" />
<glyph unicode="s" horiz-adv-x="368" d="M181 -8Q147 -8 110 4T50 45L72 76Q92 55 119 43T178 30Q201 30 221 36T255 59T268 102Q268 130 253 145T214 169T164 187Q121 201 94 225T66 293Q66 325 81 349T124 386T185 400Q216 400 246 390T302 356L281 323Q265
345 239 353T192 362Q175 362 157 355T126 335T113 299Q113 276 126 262T159 238T202 221Q231 212 256 200T298 167T315 112Q315 78 300 51T256 8T181 -8Z" />
<glyph unicode="t" horiz-adv-x="325" d="M128 563H176V386H297V348H176V0H128V348H45V386H128V563Z" />
<glyph unicode="u" horiz-adv-x="509" d="M212 -11Q157 -11 124 21T89 106V391H136V120Q138 82 160 57T228 30Q266 30 299 50T352 104T373 183V391H420V0H378L373 123L380 96Q370 66 345 42T285 3T212 -11Z" />
<glyph unicode="v" horiz-adv-x="454" d="M226 -15L28 391H83L246 36L217 37L374 391H426L232 -15H226Z" />
<glyph unicode="w" horiz-adv-x="665" d="M309 391L457 58L446 57L589 391H637L453 -24L327 254L212 -24L28 391H75L226 51L209 56L309 298L266 391H309Z" />
<glyph unicode="x" horiz-adv-x="405" d="M204 222L320 391H369L224 187L204 222ZM377 0H321L28 391H87L377 0ZM203 168L83 0H33L177 199L203 168Z" />
<glyph unicode="y" horiz-adv-x="454" d="M125 -188L380 391H426L174 -188H125ZM213 -4L28 391H81L250 21L213 -4Z" />
<glyph unicode="z" horiz-adv-x="404" d="M99 352Q73 352 56 364T39 409V428H76V416Q76 404 84 398T110 391H363L109 30L99 40H359V0H36L293 365L303 352H99Z" />
<glyph unicode="{" horiz-adv-x="306" d="M212 707Q192 707 181 697T165 664T160 599V462Q160 406 150 374T125 326T94 301Q110 291 125 275T150 228T160 144V2Q160 -39 164 -63T180 -97T212 -107H264V-149H215Q193 -149 174 -147T141 -133T119 -91T111 -4V147Q111
175 104 204T80 255T31 277V277V325Q62 327 79 347T104 398T111 456V631Q111 677 120 702T143 737T177 748T215 750H264V707H212Z" />
<glyph unicode="|" horiz-adv-x="242" d="M96 704H140V-233H96V704Z" />
<glyph unicode="}" horiz-adv-x="341" d="M130 -107Q151 -107 162 -97T177 -63T182 2V166Q182 209 193 236T220 278T248 300Q233 310 218 326T192 373T182 457V599Q182 641 178 664T162 697T130 707H78V750H126Q146 750 164 749T198 737T222 703T231 631V480Q231
462 233 436T242 385T265 343T310 324V324V275Q282 274 266 257T242 214T233 163T231 119V-31Q231 -77 222 -102T198 -136T165 -147T126 -149H78V-107H130Z" />
<glyph unicode="~" horiz-adv-x="402" d="M277 449Q246 449 227 464T190 497Q177 511 163 523T129 535Q117 535 105 527T84 498T75 445L43 446Q43 487 54 515T86 559T131 574Q160 574 178 559T213 526Q227 510 242 498T276 486Q290 486 301 495T319 524T327 578L359
577Q360 535 349 507T320 464T277 449Z" />
<glyph unicode="&#xa0;" horiz-adv-x="307" />
<glyph unicode="&#xa1;" horiz-adv-x="201" d="M78 -211H121V368H78V-211ZM101 521Q85 521 74 511T63 485Q63 471 74 461T101 450Q117 450 127 460T138 485Q138 501 128 511T101 521Z" />
<glyph unicode="&#xa2;" horiz-adv-x="433" d="M235 456H268V-68H235V456ZM391 38Q364 16 330 4T259 -8Q199 -8 152 18T78 91T51 196Q51 255 79 301T153 373T255 400Q296 400 331 388T392 354L367 322Q346 339 318 350T258 361Q214 361 178 339T120 280T98 196Q98
151 119 114T178 54T262 32Q292 32 318 41T365 67L391 38Z" />
<glyph unicode="&#xa3;" horiz-adv-x="593" d="M316 350V302H70V350H316ZM135 516Q135 563 157 595T220 644T315 661Q383 661 423 636T485 567L450 543Q437 565 422 581T382 605T315 614Q265 614 236 600T195 560T183 504V161V138Q183 129 182 111T176 75T161
47H152H388Q438 47 460 57T482 96V147H525V98Q525 79 522 61T506 30T469 8T401 0H38V47H83Q106 47 117 58T131 97T135 177V516Z" />
<glyph unicode="&#xa4;" horiz-adv-x="502" d="M359 445Q389 409 389 361Q389 336 380 314T357 273L393 237L370 214Q361 223 352 232T333 251Q297 221 248 221Q225 221 203 229T164 250V250L127 213L104 236L140 272Q126 290 118 313T109 361V361Q109 385 117
406T138 446Q129 454 121 462T104 480L127 503L161 469Q179 483 201 492T248 501Q274 501 296 492T336 468V468L370 502L393 479L359 445ZM141 361Q141 331 155 307T195 268T249 253Q279 253 303 267T341 306T356 361Q356 391 342 415T303 454T250 469Q220 469
195 455T156 416T141 361V361Z" />
<glyph unicode="&#xa5;" horiz-adv-x="661" d="M156 287H503V247H156V287ZM157 131H502V90H157V131ZM306 297L41 710H101L340 338L323 336L561 710H620L355 297V0H306V297Z" />
<glyph unicode="&#xa6;" horiz-adv-x="216" d="M89 704H132V352H89V704ZM89 118H132V-234H89V118Z" />
<glyph unicode="&#xa7;" horiz-adv-x="564" d="M357 135L342 152Q381 144 413 127T464 82T484 10Q484 -36 456 -74T380 -135T269 -158Q217 -158 174 -146T100 -116T50 -85L74 -45Q98 -62 128 -78T194 -104T265 -114Q308 -114 346 -100T409 -58T434 7Q434 45 411
67T350 103T270 126Q235 136 201 148T138 178T93 223T76 290Q76 337 101 371T168 425T258 444L253 428Q210 441 177 460T124 508T105 578Q105 607 118 633T157 681T219 714T300 727Q344 727 394 714T481 679L460 643Q429 661 388 672T305 685Q258 685 225 670T173
632T155 581Q155 545 177 523T236 487T322 461Q357 452 391 440T453 410T497 365T514 296Q514 236 471 193T357 135ZM466 289Q466 328 442 352T378 392T294 419Q216 420 171 386T124 299Q124 257 148 233T215 193T316 162Q349 165 383 180T442 222T466 289Z" />
<glyph unicode="&#xa8;" horiz-adv-x="389" d="M74 511Q74 525 84 535T107 545Q120 545 130 535T141 511Q141 497 131 487T107 477Q94 477 84 487T74 511V511ZM248 511Q248 525 258 535T282 545Q294 545 304 535T315 511Q315 497 305 487T282 477Q269 477 259
487T248 511V511Z" />
<glyph unicode="&#xa9;" horiz-adv-x="814" d="M521 222Q502 207 475 196T414 185Q365 186 327 209T267 272T245 358Q245 408 268 447T330 510T418 533Q435 533 452 530T485 521T515 505L496 469Q480 481 461 486T421 491Q387 491 358 474T311 426T293 358Q293
322 309 293T354 246T420 228Q442 228 462 235T499 255L521 222ZM407 68Q346 68 294 89T201 150T139 241T116 356Q116 419 138 471T201 563T293 623T407 645Q468 645 520 624T613 563T675 472T698 356Q698 294 677 242T617 150T525 90T407 68ZM406 108Q475 108
531 140T621 229T655 355Q655 428 622 484T532 572T406 605Q338 605 282 573T192 484T158 355Q158 284 188 228T273 140T406 108Z" />
<glyph unicode="&#xaa;" horiz-adv-x="410" d="M180 417Q141 417 110 435T59 487T40 564Q40 611 59 644T110 694T179 712Q222 712 256 693T306 640L299 624L304 705H338V422H300V508L310 496Q302 476 283 458T237 429T180 417ZM189 449Q219 449 243 462T283 499T300
552V589Q292 627 261 653T189 680Q143 680 111 649T78 565Q78 533 93 507T133 465T189 449Z" />
<glyph unicode="&#xab;" horiz-adv-x="603" d="M90 240Q101 250 116 264T149 294T186 326T224 359T257 389T283 413V367Q270 354 253 338T218 304T184 271T154 240Q167 227 183 210T218 176T253 143T283 112V67L90 240ZM282 240Q293 250 308 264T341 294T378 326T416
359T449 389T475 413V367Q462 354 445 338T410 304T376 271T346 240Q359 227 375 210T410 176T445 143T475 112V67L282 240Z" />
<glyph unicode="&#xac;" horiz-adv-x="535" d="M87 264H449V133H400V217H87V264Z" />
<glyph unicode="&#xad;" horiz-adv-x="600" d="M53 222H238V180H53V222Z" />
<glyph unicode="&#xae;" horiz-adv-x="406" d="M203 376Q157 376 119 397T59 456T36 541Q36 589 58 626T119 685T203 706Q250 706 287 685T347 627T370 541Q370 494 348 457T288 398T203 376ZM202 406Q240 406 271 423T320 472T338 541Q338 580 320 610T271 659T202
677Q165 677 135 659T86 611T68 541Q68 503 86 472T134 424T202 406ZM143 636H204Q229 636 247 623T265 581Q265 556 250 540T203 523H173V453H143V636ZM197 548Q217 548 225 557T233 580Q233 597 223 604T200 611H174V548H197ZM230 531L270 453H236L199 530L230
531Z" />
<glyph unicode="&#xaf;" horiz-adv-x="387" d="M76 519H312V483H76V519Z" />
<glyph unicode="&#xb0;" horiz-adv-x="283" d="M51 562Q51 587 62 607T94 638T139 650Q163 650 182 639T213 607T225 562Q225 538 214 519T183 488T139 476Q114 476 94 487T63 518T51 562V562ZM139 506Q162 506 179 522T196 563Q196 586 179 602T139 619Q115 619
99 603T82 563Q82 539 98 523T139 506V506Z" />
<glyph unicode="&#xb1;" horiz-adv-x="527" d="M246 574H289V415H448V372H289V212H246V372H87V415H246V574ZM87 159H448V116H87V159Z" />
<glyph unicode="&#xb2;" horiz-adv-x="399" d="M91 648Q105 669 132 683T192 698Q242 697 272 670T303 589Q303 556 286 525T241 464T184 407T128 354L130 386H318V346H90V368Q119 393 147 419T200 473T239 527T254 579Q254 622 234 639T181 657Q156 657 138 646T108
619L91 648Z" />
<glyph unicode="&#xb3;" horiz-adv-x="404" d="M167 345Q132 345 108 359T69 388L85 416Q96 404 115 391T163 379Q201 380 222 404T244 465Q244 501 222 519T168 538Q147 538 135 535T110 526L107 531L210 671L223 659H80V695H264L158 541L125 546Q136 554 151
559T184 565Q209 566 233 554T272 518T288 464Q288 430 273 403T231 361T167 345Z" />
<glyph unicode="&#xb4;" horiz-adv-x="235" d="M188 615L82 482H48L135 615H188Z" />
<glyph unicode="&#xb5;" horiz-adv-x="509" d="M212 -11Q165 -11 134 14T94 79L136 78V-201H89V109V391H136V120Q138 82 160 57T228 30Q266 30 299 50T352 104T373 183V391H420V0H378L373 125L378 97Q368 67 343 43T284 4T212 -11Z" />
<glyph unicode="&#xb6;" horiz-adv-x="516" d="M202 425Q157 425 120 447T60 506T38 589Q38 635 60 672T119 732T202 754H409V0H366V712H245V0H202V425Z" />
<glyph unicode="&#xb7;" horiz-adv-x="166" d="M53 283Q53 297 63 307T86 317Q99 317 109 307T120 283Q120 268 110 259T86 249Q73 249 63 258T53 283V283Z" />
<glyph unicode="&#xb8;" horiz-adv-x="431" d="M131 -171Q142 -182 160 -189T204 -197Q239 -197 262 -183T286 -142Q286 -119 268 -102T210 -85Q194 -85 173 -89T140 -99L125 -74L195 4L231 -3L164 -85L147 -74Q158 -67 179 -63T219 -58Q270 -57 299 -78T328 -141Q328
-170 312 -189T269 -217T209 -226Q178 -226 154 -217T114 -195L131 -171Z" />
<glyph unicode="&#xb9;" horiz-adv-x="258" d="M65 658H161V328H116V615H65V658Z" />
<glyph unicode="&#xba;" horiz-adv-x="380" d="M40 560Q40 602 60 635T114 689T190 709Q233 709 267 689T321 636T341 560Q341 519 321 486T267 433T190 413Q148 413 114 432T60 484T40 560ZM79 560Q79 529 94 503T134 462T190 447Q221 447 246 462T287 503T302
560Q302 592 287 618T247 659T190 675Q158 675 133 659T94 617T79 560Z" />
<glyph unicode="&#xbb;" horiz-adv-x="603" d="M492 240Q482 250 467 264T433 294T396 326T358 359T325 389T299 413V367Q312 354 329 338T364 304T398 271T428 240Q415 227 399 210T364 176T329 143T299 112V67L492 240ZM300 240Q290 250 275 264T241 294T204
326T166 359T133 389T107 413V367Q120 354 137 338T172 304T206 271T236 240Q223 227 207 210T172 176T137 143T107 112V67L300 240Z" />
<glyph unicode="&#xbc;" horiz-adv-x="762" d="M582 671L175 0H129L536 671H582ZM72 658H168V328H123V615H72V658ZM713 135V105H465L464 120L647 339H673V0H631V287L642 283L503 119L495 135H713Z" />
<glyph unicode="&#xbd;" horiz-adv-x="824" d="M72 664H168V334H123V621H72V664ZM511 299Q525 320 552 334T612 349Q662 348 692 321T723 240Q723 207 706 176T661 115T604 58T548 5L550 37H738V-3H510V19Q539 44 567 70T620 124T659 178T674 230Q674 273 654
290T601 308Q576 308 558 297T528 270L511 299ZM588 672L181 0H135L542 672H588Z" />
<glyph unicode="&#xbe;" horiz-adv-x="743" d="M404 345Q369 345 345 359T306 388L322 416Q333 404 352 391T400 379Q438 380 459 404T481 465Q481 501 459 519T405 538Q384 538 372 535T347 526L344 531L447 671L460 659H317V695H501L395 541L362 546Q373 554
388 559T421 565Q446 566 470 554T509 518T525 464Q525 430 510 403T468 361T404 345ZM590 672L183 0H137L544 672H590ZM686 135V105H438L437 120L620 339H646V0H604V287L615 283L476 119L468 135H686Z" />
<glyph unicode="&#xbf;" horiz-adv-x="421" d="M263 366V293Q263 245 249 220T214 178T167 143Q131 116 107 84T83 -1Q83 -45 103 -79T159 -133T235 -153Q272 -153 303 -138T356 -97T389 -38L429 -55Q420 -81 403 -106T360 -151T303 -184T231 -197Q176 -197 131
-173T60 -105T34 -4Q34 37 46 67T81 123T130 169Q154 188 173 202T204 239T216 303V366H263ZM237 517Q253 517 264 507T275 481Q275 467 264 457T237 446Q221 446 211 456T200 481Q200 497 210 507T237 517Z" />
<glyph unicode="&#xc0;" horiz-adv-x="706" d="M51 0L351 741H355L655 0H600L339 663L373 682L100 0H51ZM196 281H511L525 235H184L196 281ZM237 898H289L372 765H338L237 898Z" />
<glyph unicode="&#xc1;" horiz-adv-x="706" d="M51 0L351 741H355L655 0H600L339 663L373 682L100 0H51ZM196 281H511L525 235H184L196 281ZM732 889L626 756H592L679 889H732Z" />
<glyph unicode="&#xc2;" horiz-adv-x="706" d="M51 0L351 741H355L655 0H600L339 663L373 682L100 0H51ZM196 281H511L525 235H184L196 281ZM451 779L342 901L363 904L253 779H206L351 938H352L498 779H451Z" />
<glyph unicode="&#xc3;" horiz-adv-x="706" d="M51 0L351 741H355L655 0H600L339 663L373 682L100 0H51ZM196 281H511L525 235H184L196 281ZM428 786Q398 786 380 800T345 832Q332 845 319 856T287 868Q275 868 264 860T244 833T235 782L205 783Q204 822 215 849T246
891T289 905Q316 905 334 891T367 860Q380 845 394 833T427 821Q447 821 460 841T476 909L506 908Q507 868 497 841T468 800T428 786Z" />
<glyph unicode="&#xc4;" horiz-adv-x="706" d="M51 0L351 741H355L655 0H600L339 663L373 682L100 0H51ZM196 281H511L525 235H184L196 281ZM231 806Q231 820 241 830T264 840Q277 840 287 830T298 806Q298 792 288 782T264 772Q251 772 241 782T231 806V806ZM405
806Q405 820 415 830T439 840Q451 840 461 830T472 806Q472 792 462 782T439 772Q426 772 416 782T405 806V806Z" />
<glyph unicode="&#xc5;" horiz-adv-x="706" d="M51 0L351 741H355L655 0H600L339 663L373 682L100 0H51ZM196 281H511L525 235H184L196 281ZM278 851Q278 883 299 904T354 925Q386 925 407 904T429 851Q429 819 408 798T354 777Q321 777 300 797T278 851ZM307
850Q307 831 321 817T354 803Q373 803 386 817T400 850Q400 870 387 883T354 897Q335 897 321 884T307 850Z" />
<glyph unicode="&#xc6;" horiz-adv-x="934" d="M468 710H846V662H517V380H806V333H517V47H860V0H468V710ZM482 664Q480 657 477 649T472 635L75 0H20L468 710L482 664ZM190 236H479V196H178L190 236Z" />
<glyph unicode="&#xc7;" horiz-adv-x="691" d="M623 47Q600 33 570 20T504 0T426 -8Q345 -8 279 20T166 98T94 212T68 350Q68 428 95 495T171 612T285 690T426 718Q482 718 531 703T620 664L599 619Q564 641 520 656T427 671Q364 671 308 647T210 579T143 477T119
352Q119 288 140 231T202 131T300 64T427 39Q479 39 522 53T600 90L623 47ZM588 -171Q599 -182 617 -189T661 -197Q696 -197 719 -183T743 -142Q743 -119 725 -102T667 -85Q651 -85 630 -89T597 -99L582 -74L652 4L688 -3L621 -85L604 -74Q615 -67 636 -63T676
-58Q727 -57 756 -78T785 -141Q785 -170 769 -189T726 -217T666 -226Q635 -226 611 -217T571 -195L588 -171Z" />
<glyph unicode="&#xc8;" horiz-adv-x="639" d="M113 710H551V663H162V381H512V334H162V47H565V0H113V710ZM207 893H259L342 760H308L207 893Z" />
<glyph unicode="&#xc9;" horiz-adv-x="639" d="M113 710H551V663H162V381H512V334H162V47H565V0H113V710ZM702 884L596 751H562L649 884H702Z" />
<glyph unicode="&#xca;" horiz-adv-x="639" d="M113 710H551V663H162V381H512V334H162V47H565V0H113V710ZM421 774L312 896L333 899L223 774H176L321 933H322L468 774H421Z" />
<glyph unicode="&#xcb;" horiz-adv-x="639" d="M113 710H551V663H162V381H512V334H162V47H565V0H113V710ZM201 801Q201 815 211 825T234 835Q247 835 257 825T268 801Q268 787 258 777T234 767Q221 767 211 777T201 801V801ZM375 801Q375 815 385 825T409 835Q421
835 431 825T442 801Q442 787 432 777T409 767Q396 767 386 777T375 801V801Z" />
<glyph unicode="&#xcc;" horiz-adv-x="275" d="M113 710H162V0H113V710ZM22 893H74L157 760H123L22 893Z" />
<glyph unicode="&#xcd;" horiz-adv-x="275" d="M113 710H162V0H113V710ZM517 884L411 751H377L464 884H517Z" />
<glyph unicode="&#xce;" horiz-adv-x="275" d="M113 710H162V0H113V710ZM236 774L127 896L148 899L38 774H-9L136 933H137L283 774H236Z" />
<glyph unicode="&#xcf;" horiz-adv-x="275" d="M113 710H162V0H113V710ZM16 801Q16 815 26 825T49 835Q62 835 72 825T83 801Q83 787 73 777T49 767Q36 767 26 777T16 801V801ZM190 801Q190 815 200 825T224 835Q236 835 246 825T257 801Q257 787 247 777T224
767Q211 767 201 777T190 801V801Z" />
<glyph unicode="&#xd0;" horiz-adv-x="736" d="M113 0V710H288Q391 710 463 678T581 592T647 476T668 351Q668 270 640 206T564 95T453 25T322 0H113ZM162 47H309Q373 47 429 68T527 129T594 225T618 354Q618 415 598 470T536 569T435 637T295 662H162V47ZM270
376H511V331H270V376Z" />
<glyph unicode="&#xd1;" horiz-adv-x="822" d="M707 -17L147 614L160 624L161 0H113V725H116L676 89L663 85L662 710H709V-17H707ZM481 776Q451 776 433 790T398 822Q385 835 372 846T340 858Q328 858 317 850T297 823T288 772L258 773Q257 812 268 839T299 881T342
895Q369 895 387 881T420 850Q433 835 447 823T480 811Q500 811 513 831T529 899L559 898Q560 858 550 831T521 790T481 776Z" />
<glyph unicode="&#xd2;" horiz-adv-x="862" d="M68 354Q68 429 96 494T174 610T289 689T430 718Q505 718 571 690T687 611T765 495T794 354Q794 279 766 214T687 98T571 20T430 -8Q355 -8 290 19T174 95T96 210T68 354ZM118 353Q118 288 142 231T209 131T308 64T429
39Q495 39 552 63T652 131T719 231T744 354Q744 419 720 476T652 577T552 646T430 671Q364 671 307 646T208 576T142 475T118 353ZM315 890H367L450 757H416L315 890Z" />
<glyph unicode="&#xd3;" horiz-adv-x="862" d="M68 354Q68 429 96 494T174 610T289 689T430 718Q505 718 571 690T687 611T765 495T794 354Q794 279 766 214T687 98T571 20T430 -8Q355 -8 290 19T174 95T96 210T68 354ZM118 353Q118 288 142 231T209 131T308 64T429
39Q495 39 552 63T652 131T719 231T744 354Q744 419 720 476T652 577T552 646T430 671Q364 671 307 646T208 576T142 475T118 353ZM810 881L704 748H670L757 881H810Z" />
<glyph unicode="&#xd4;" horiz-adv-x="862" d="M68 354Q68 429 96 494T174 610T289 689T430 718Q505 718 571 690T687 611T765 495T794 354Q794 279 766 214T687 98T571 20T430 -8Q355 -8 290 19T174 95T96 210T68 354ZM118 353Q118 288 142 231T209 131T308 64T429
39Q495 39 552 63T652 131T719 231T744 354Q744 419 720 476T652 577T552 646T430 671Q364 671 307 646T208 576T142 475T118 353ZM529 771L420 893L441 896L331 771H284L429 930H430L576 771H529Z" />
<glyph unicode="&#xd5;" horiz-adv-x="862" d="M68 354Q68 429 96 494T174 610T289 689T430 718Q505 718 571 690T687 611T765 495T794 354Q794 279 766 214T687 98T571 20T430 -8Q355 -8 290 19T174 95T96 210T68 354ZM118 353Q118 288 142 231T209 131T308 64T429
39Q495 39 552 63T652 131T719 231T744 354Q744 419 720 476T652 577T552 646T430 671Q364 671 307 646T208 576T142 475T118 353ZM506 778Q476 778 458 792T423 824Q410 837 397 848T365 860Q353 860 342 852T322 825T313 774L283 775Q282 814 293 841T324 883T367
897Q394 897 412 883T445 852Q458 837 472 825T505 813Q525 813 538 833T554 901L584 900Q585 860 575 833T546 792T506 778Z" />
<glyph unicode="&#xd6;" horiz-adv-x="862" d="M68 354Q68 429 96 494T174 610T289 689T430 718Q505 718 571 690T687 611T765 495T794 354Q794 279 766 214T687 98T571 20T430 -8Q355 -8 290 19T174 95T96 210T68 354ZM118 353Q118 288 142 231T209 131T308 64T429
39Q495 39 552 63T652 131T719 231T744 354Q744 419 720 476T652 577T552 646T430 671Q364 671 307 646T208 576T142 475T118 353ZM309 798Q309 812 319 822T342 832Q355 832 365 822T376 798Q376 784 366 774T342 764Q329 764 319 774T309 798V798ZM483 798Q483
812 493 822T517 832Q529 832 539 822T550 798Q550 784 540 774T517 764Q504 764 494 774T483 798V798Z" />
<glyph unicode="&#xd7;" horiz-adv-x="507" d="M269 184Q297 212 324 239T380 294Q388 286 397 277T415 258Q387 231 360 204T305 148Q333 120 360 93T416 36L379 0Q351 28 324 55T267 111Q240 83 213 56T157 1Q148 9 139 18T122 36Q150 64 177 91T232 147L121
258L157 295L269 184Z" />
<glyph unicode="&#xd8;" horiz-adv-x="857" d="M735 699L140 -6L110 22L705 727L735 699ZM68 354Q68 429 96 494T174 610T289 689T430 718Q505 718 571 690T687 611T765 495T794 354Q794 279 766 214T687 98T571 20T430 -8Q355 -8 290 19T174 95T96 210T68 354ZM118
353Q118 288 142 231T209 131T308 64T429 39Q495 39 552 63T652 131T719 231T744 354Q744 419 720 476T652 577T552 646T430 671Q364 671 307 646T208 576T142 475T118 353Z" />
<glyph unicode="&#xd9;" horiz-adv-x="707" d="M158 240Q158 178 183 133T253 64T353 39Q410 39 454 63T524 133T550 240V710H598V237Q598 160 566 105T478 21T353 -8V-8Q284 -8 229 21T141 105T109 237V710H158V240ZM238 893H290L373 760H339L238 893Z" />
<glyph unicode="&#xda;" horiz-adv-x="707" d="M158 240Q158 178 183 133T253 64T353 39Q410 39 454 63T524 133T550 240V710H598V237Q598 160 566 105T478 21T353 -8V-8Q284 -8 229 21T141 105T109 237V710H158V240ZM733 884L627 751H593L680 884H733Z" />
<glyph unicode="&#xdb;" horiz-adv-x="707" d="M158 240Q158 178 183 133T253 64T353 39Q410 39 454 63T524 133T550 240V710H598V237Q598 160 566 105T478 21T353 -8V-8Q284 -8 229 21T141 105T109 237V710H158V240ZM452 774L343 896L364 899L254 774H207L352
933H353L499 774H452Z" />
<glyph unicode="&#xdc;" horiz-adv-x="707" d="M158 240Q158 178 183 133T253 64T353 39Q410 39 454 63T524 133T550 240V710H598V237Q598 160 566 105T478 21T353 -8V-8Q284 -8 229 21T141 105T109 237V710H158V240ZM232 801Q232 815 242 825T265 835Q278 835
288 825T299 801Q299 787 289 777T265 767Q252 767 242 777T232 801V801ZM406 801Q406 815 416 825T440 835Q452 835 462 825T473 801Q473 787 463 777T440 767Q427 767 417 777T406 801V801Z" />
<glyph unicode="&#xdd;" horiz-adv-x="661" d="M306 253L41 710H101L340 294L323 293L561 710H620L355 253V0H306V253ZM715 879L609 746H575L662 879H715Z" />
<glyph unicode="&#xde;" horiz-adv-x="554" d="M283 556Q322 556 360 545T429 509T478 447T497 356Q497 316 485 279T446 211T378 163T275 145H163V0H113V704H163V556H283ZM273 192Q323 192 356 207T410 248T438 302T447 356Q447 400 426 434T366 489T274 509H163V192H273Z"
/>
<glyph unicode="&#xdf;" horiz-adv-x="577" d="M112 437Q112 508 135 557T200 633T299 661Q356 661 393 641T448 589T467 522Q467 475 445 442T382 391Q423 380 455 353T505 287T524 196Q524 136 497 90T425 17T322 -9Q288 -9 261 1T213 24L232 54Q251 41 272
35T317 29Q363 29 399 52T456 113T477 198Q477 246 456 284T399 344T317 366H312V410Q357 410 388 437T419 510Q419 539 406 564T367 605T301 621Q229 621 195 569T160 427V0H112V359H47V399H112V437Z" />
<glyph unicode="&#xe0;" horiz-adv-x="559" d="M251 -8Q195 -8 150 17T78 89T51 196Q51 261 79 307T155 378T264 403Q316 403 362 372T429 294L422 280L428 391H470V0H423V121L433 103Q426 83 409 64T368 28T314 2T251 -8ZM261 32Q305 32 340 50T398 102T423 178V234Q415
271 392 300T334 346T260 363Q216 363 179 343T120 285T98 198Q98 152 120 115T179 55T261 32ZM170 621H222L305 488H271L170 621Z" />
<glyph unicode="&#xe1;" horiz-adv-x="559" d="M251 -8Q195 -8 150 17T78 89T51 196Q51 261 79 307T155 378T264 403Q316 403 362 372T429 294L422 280L428 391H470V0H423V121L433 103Q426 83 409 64T368 28T314 2T251 -8ZM261 32Q305 32 340 50T398 102T423 178V234Q415
271 392 300T334 346T260 363Q216 363 179 343T120 285T98 198Q98 152 120 115T179 55T261 32ZM366 606L260 473H226L313 606H366Z" />
<glyph unicode="&#xe2;" horiz-adv-x="559" d="M251 -8Q195 -8 150 17T78 89T51 196Q51 261 79 307T155 378T264 403Q316 403 362 372T429 294L422 280L428 391H470V0H423V121L433 103Q426 83 409 64T368 28T314 2T251 -8ZM261 32Q305 32 340 50T398 102T423 178V234Q415
271 392 300T334 346T260 363Q216 363 179 343T120 285T98 198Q98 152 120 115T179 55T261 32ZM385 744L276 866L297 869L187 744H140L285 903H286L432 744H385Z" />
<glyph unicode="&#xe3;" horiz-adv-x="559" d="M251 -8Q195 -8 150 17T78 89T51 196Q51 261 79 307T155 378T264 403Q316 403 362 372T429 294L422 280L428 391H470V0H423V121L433 103Q426 83 409 64T368 28T314 2T251 -8ZM261 32Q305 32 340 50T398 102T423 178V234Q415
271 392 300T334 346T260 363Q216 363 179 343T120 285T98 198Q98 152 120 115T179 55T261 32ZM360 458Q330 458 312 472T277 504Q264 517 251 528T219 540Q207 540 196 532T176 505T167 454L137 455Q136 494 147 521T178 563T221 577Q248 577 266 563T299 532Q312
517 326 505T359 493Q379 493 392 513T408 581L438 580Q439 540 429 513T400 472T360 458Z" />
<glyph unicode="&#xe4;" horiz-adv-x="559" d="M251 -8Q195 -8 150 17T78 89T51 196Q51 261 79 307T155 378T264 403Q316 403 362 372T429 294L422 280L428 391H470V0H423V121L433 103Q426 83 409 64T368 28T314 2T251 -8ZM261 32Q305 32 340 50T398 102T423 178V234Q415
271 392 300T334 346T260 363Q216 363 179 343T120 285T98 198Q98 152 120 115T179 55T261 32ZM164 517Q164 531 174 541T197 551Q210 551 220 541T231 517Q231 503 221 493T197 483Q184 483 174 493T164 517V517ZM338 517Q338 531 348 541T372 551Q384 551 394
541T405 517Q405 503 395 493T372 483Q359 483 349 493T338 517V517Z" />
<glyph unicode="&#xe5;" horiz-adv-x="559" d="M251 -8Q195 -8 150 17T78 89T51 196Q51 261 79 307T155 378T264 403Q316 403 362 372T429 294L422 280L428 391H470V0H423V121L433 103Q426 83 409 64T368 28T314 2T251 -8ZM261 32Q305 32 340 50T398 102T423 178V234Q415
271 392 300T334 346T260 363Q216 363 179 343T120 285T98 198Q98 152 120 115T179 55T261 32ZM206 523Q206 555 227 576T282 597Q314 597 335 576T357 523Q357 491 336 470T282 449Q249 449 228 469T206 523ZM235 522Q235 503 249 489T282 475Q301 475 314 489T328
522Q328 542 315 555T282 569Q263 569 249 556T235 522Z" />
<glyph unicode="&#xe6;" horiz-adv-x="780" d="M204 -11Q150 -11 116 5T67 49T51 106Q51 146 72 172T126 213T197 227Q248 227 294 206T367 146L357 118Q325 154 288 173T207 192Q182 192 158 184T119 157T103 109Q103 74 130 50T215 25Q234 25 258 30T305 46T343
74V162H372L373 55Q352 28 320 14T257 -5T204 -11ZM344 168V263Q344 304 329 325T291 353T243 361Q204 361 169 346T101 295L76 327Q107 359 149 380T248 402Q297 402 328 387T374 344T390 276V233L344 168ZM552 -8Q491 -8 444 19T371 92T344 197Q344 254 372 301T447
376T553 404Q623 404 670 363T739 256L397 124L383 158L696 280L686 266Q669 306 635 335T550 364Q505 364 469 342T412 283T390 199Q390 155 410 117T468 56T553 33Q585 33 614 45T667 76L691 42Q663 20 627 6T552 -8Z" />
<glyph unicode="&#xe7;" horiz-adv-x="433" d="M391 38Q364 16 330 4T259 -8Q199 -8 152 18T78 91T51 196Q51 255 79 301T153 373T255 400Q296 400 331 388T392 354L367 322Q346 339 318 350T258 361Q214 361 178 339T120 280T98 196Q98 151 119 114T178 54T262
32Q292 32 318 41T365 67L391 38ZM395 -167Q406 -178 424 -185T468 -193Q503 -193 526 -179T550 -138Q550 -115 532 -98T474 -81Q458 -81 437 -85T404 -95L389 -70L459 8L495 1L428 -81L411 -70Q422 -63 443 -59T483 -54Q534 -53 563 -74T592 -137Q592 -166 576
-185T533 -213T473 -222Q442 -222 418 -213T378 -191L395 -167Z" />
<glyph unicode="&#xe8;" horiz-adv-x="487" d="M259 -8Q198 -8 151 19T78 92T51 197Q51 254 79 301T154 376T260 404Q330 404 377 363T446 256L104 124L90 158L403 280L393 266Q376 306 342 335T257 364Q212 364 176 342T119 283T97 199Q97 155 117 117T175 56T260
33Q292 33 321 45T374 76L398 42Q370 20 334 6T259 -8ZM132 621H184L267 488H233L132 621Z" />
<glyph unicode="&#xe9;" horiz-adv-x="487" d="M259 -8Q198 -8 151 19T78 92T51 197Q51 254 79 301T154 376T260 404Q330 404 377 363T446 256L104 124L90 158L403 280L393 266Q376 306 342 335T257 364Q212 364 176 342T119 283T97 199Q97 155 117 117T175 56T260
33Q292 33 321 45T374 76L398 42Q370 20 334 6T259 -8ZM328 606L222 473H188L275 606H328Z" />
<glyph unicode="&#xea;" horiz-adv-x="487" d="M259 -8Q198 -8 151 19T78 92T51 197Q51 254 79 301T154 376T260 404Q330 404 377 363T446 256L104 124L90 158L403 280L393 266Q376 306 342 335T257 364Q212 364 176 342T119 283T97 199Q97 155 117 117T175 56T260
33Q292 33 321 45T374 76L398 42Q370 20 334 6T259 -8ZM347 744L238 866L259 869L149 744H102L247 903H248L394 744H347Z" />
<glyph unicode="&#xeb;" horiz-adv-x="487" d="M259 -8Q198 -8 151 19T78 92T51 197Q51 254 79 301T154 376T260 404Q330 404 377 363T446 256L104 124L90 158L403 280L393 266Q376 306 342 335T257 364Q212 364 176 342T119 283T97 199Q97 155 117 117T175 56T260
33Q292 33 321 45T374 76L398 42Q370 20 334 6T259 -8ZM126 517Q126 531 136 541T159 551Q172 551 182 541T193 517Q193 503 183 493T159 483Q146 483 136 493T126 517V517ZM300 517Q300 531 310 541T334 551Q346 551 356 541T367 517Q367 503 357 493T334 483Q321
483 311 493T300 517V517Z" />
<glyph unicode="&#xec;" horiz-adv-x="225" d="M89 391H136V0H89V391ZM-2 615H50L133 482H99L-2 615Z" />
<glyph unicode="&#xed;" horiz-adv-x="225" d="M89 391H136V0H89V391ZM194 856L88 723H54L141 856H194Z" />
<glyph unicode="&#xee;" horiz-adv-x="225" d="M89 391H136V0H89V391ZM469 738L360 860L381 863L271 738H224L369 897H370L516 738H469Z" />
<glyph unicode="&#xef;" horiz-adv-x="225" d="M89 391H136V0H89V391ZM248 511Q248 525 258 535T281 545Q294 545 304 535T315 511Q315 497 305 487T281 477Q268 477 258 487T248 511V511ZM422 511Q422 525 432 535T456 545Q468 545 478 535T489 511Q489 497 479
487T456 477Q443 477 433 487T422 511V511Z" />
<glyph unicode="&#xf0;" horiz-adv-x="519" d="M255 -8Q198 -8 152 18T78 91T51 198Q51 255 77 302T149 376T250 404Q286 404 315 392T368 360T408 316T432 265L417 253Q412 316 387 381T324 507T237 620T138 712L170 743Q229 700 283 639T378 508T444 364T468
223Q468 175 452 134T408 60T340 10T255 -8ZM259 32Q304 32 340 54T398 113T420 197Q420 243 399 280T341 340T259 363Q213 363 177 340T119 278T98 197Q98 151 119 114T177 54T259 32ZM358 682L164 557L146 588L340 711L358 682Z" />
<glyph unicode="&#xf1;" horiz-adv-x="512" d="M130 391L135 268L129 292Q146 343 193 372T299 402Q354 402 388 370T423 285V0H375V272Q374 310 351 335T284 361Q245 361 211 342T157 289T136 210V0H89V391H130ZM331 455Q301 455 283 469T248 501Q235 514 222
525T190 537Q178 537 167 529T147 502T138 451L108 452Q107 491 118 518T149 560T192 574Q219 574 237 560T270 529Q283 514 297 502T330 490Q350 490 363 510T379 578L409 577Q410 537 400 510T371 469T331 455Z" />
<glyph unicode="&#xf2;" horiz-adv-x="519" d="M51 198Q51 255 78 302T153 376T260 404Q320 404 367 377T441 302T468 198Q468 141 441 94T367 20T260 -8Q200 -8 153 18T79 91T51 198ZM98 197Q98 151 119 114T177 54T259 32Q304 32 340 54T398 113T420 197Q420
243 399 280T341 340T259 363Q213 363 177 340T119 278T98 197ZM145 621H197L280 488H246L145 621Z" />
<glyph unicode="&#xf3;" horiz-adv-x="519" d="M51 198Q51 255 78 302T153 376T260 404Q320 404 367 377T441 302T468 198Q468 141 441 94T367 20T260 -8Q200 -8 153 18T79 91T51 198ZM98 197Q98 151 119 114T177 54T259 32Q304 32 340 54T398 113T420 197Q420
243 399 280T341 340T259 363Q213 363 177 340T119 278T98 197ZM341 606L235 473H201L288 606H341Z" />
<glyph unicode="&#xf4;" horiz-adv-x="519" d="M51 198Q51 255 78 302T153 376T260 404Q320 404 367 377T441 302T468 198Q468 141 441 94T367 20T260 -8Q200 -8 153 18T79 91T51 198ZM98 197Q98 151 119 114T177 54T259 32Q304 32 340 54T398 113T420 197Q420
243 399 280T341 340T259 363Q213 363 177 340T119 278T98 197ZM360 744L251 866L272 869L162 744H115L260 903H261L407 744H360Z" />
<glyph unicode="&#xf5;" horiz-adv-x="519" d="M51 198Q51 255 78 302T153 376T260 404Q320 404 367 377T441 302T468 198Q468 141 441 94T367 20T260 -8Q200 -8 153 18T79 91T51 198ZM98 197Q98 151 119 114T177 54T259 32Q304 32 340 54T398 113T420 197Q420
243 399 280T341 340T259 363Q213 363 177 340T119 278T98 197ZM335 458Q305 458 287 472T252 504Q239 517 226 528T194 540Q182 540 171 532T151 505T142 454L112 455Q111 494 122 521T153 563T196 577Q223 577 241 563T274 532Q287 517 301 505T334 493Q354 493
367 513T383 581L413 580Q414 540 404 513T375 472T335 458Z" />
<glyph unicode="&#xf6;" horiz-adv-x="519" d="M51 198Q51 255 78 302T153 376T260 404Q320 404 367 377T441 302T468 198Q468 141 441 94T367 20T260 -8Q200 -8 153 18T79 91T51 198ZM98 197Q98 151 119 114T177 54T259 32Q304 32 340 54T398 113T420 197Q420
243 399 280T341 340T259 363Q213 363 177 340T119 278T98 197ZM139 517Q139 531 149 541T172 551Q185 551 195 541T206 517Q206 503 196 493T172 483Q159 483 149 493T139 517V517ZM313 517Q313 531 323 541T347 551Q359 551 369 541T380 517Q380 503 370 493T347
483Q334 483 324 493T313 517V517Z" />
<glyph unicode="&#xf7;" horiz-adv-x="503" d="M219 364Q219 378 228 388T252 398Q265 398 275 388T286 364Q286 350 276 341T252 331Q239 331 229 341T219 364V364ZM219 97Q219 111 228 121T252 131Q265 131 275 121T286 97Q286 82 276 73T252 63Q239 63 229
72T219 97V97ZM68 252H430V209H68V252Z" />
<glyph unicode="&#xf8;" horiz-adv-x="496" d="M430 382L96 -10L72 14L405 404L430 382ZM51 198Q51 255 78 302T153 376T260 404Q320 404 367 377T441 302T468 198Q468 141 441 94T367 20T260 -8Q200 -8 153 18T79 91T51 198ZM98 197Q98 151 119 114T177 54T259
32Q304 32 340 54T398 113T420 197Q420 243 399 280T341 340T259 363Q213 363 177 340T119 278T98 197Z" />
<glyph unicode="&#xf9;" horiz-adv-x="509" d="M212 -11Q157 -11 124 21T89 106V391H136V120Q138 82 160 57T228 30Q266 30 299 50T352 104T373 183V391H420V0H378L373 123L380 96Q370 66 345 42T285 3T212 -11ZM140 621H192L275 488H241L140 621Z" />
<glyph unicode="&#xfa;" horiz-adv-x="509" d="M212 -11Q157 -11 124 21T89 106V391H136V120Q138 82 160 57T228 30Q266 30 299 50T352 104T373 183V391H420V0H378L373 123L380 96Q370 66 345 42T285 3T212 -11ZM336 606L230 473H196L283 606H336Z" />
<glyph unicode="&#xfb;" horiz-adv-x="509" d="M212 -11Q157 -11 124 21T89 106V391H136V120Q138 82 160 57T228 30Q266 30 299 50T352 104T373 183V391H420V0H378L373 123L380 96Q370 66 345 42T285 3T212 -11ZM355 744L246 866L267 869L157 744H110L255 903H256L402
744H355Z" />
<glyph unicode="&#xfc;" horiz-adv-x="509" d="M212 -11Q157 -11 124 21T89 106V391H136V120Q138 82 160 57T228 30Q266 30 299 50T352 104T373 183V391H420V0H378L373 123L380 96Q370 66 345 42T285 3T212 -11ZM134 517Q134 531 144 541T167 551Q180 551 190
541T201 517Q201 503 191 493T167 483Q154 483 144 493T134 517V517ZM308 517Q308 531 318 541T342 551Q354 551 364 541T375 517Q375 503 365 493T342 483Q329 483 319 493T308 517V517Z" />
<glyph unicode="&#xfd;" horiz-adv-x="454" d="M125 -188L380 391H426L174 -188H125ZM213 -4L28 391H81L250 21L213 -4ZM311 856L205 723H171L258 856H311Z" />
<glyph unicode="&#xfe;" horiz-adv-x="544" d="M298 -8Q261 -8 225 6T161 46T123 103L129 129V-188H82V760H130V271L118 285Q132 319 161 345T228 387T306 403Q362 403 406 376T477 303T504 196Q504 136 477 90T403 18T298 -8ZM291 32Q337 32 374 54T434 113T457
196Q457 244 435 281T375 340T294 362Q249 362 213 342T155 288T130 211V174Q134 134 156 102T214 51T291 32Z" />
<glyph unicode="&#xff;" horiz-adv-x="454" d="M125 -188L380 391H426L174 -188H125ZM213 -4L28 391H81L250 21L213 -4ZM109 511Q109 525 119 535T142 545Q155 545 165 535T176 511Q176 497 166 487T142 477Q129 477 119 487T109 511V511ZM283 511Q283 525 293
535T317 545Q329 545 339 535T350 511Q350 497 340 487T317 477Q304 477 294 487T283 511V511Z" />
<glyph unicode="&#x2013;" horiz-adv-x="512" d="M101 218H403V175H101V218Z" />
<glyph unicode="&#x2014;" horiz-adv-x="704" d="M100 218H604V175H100V218Z" />
<glyph unicode="&#x2018;" horiz-adv-x="171" d="M104 720L128 699Q106 672 96 642T92 581L50 574Q44 604 49 630T69 680T104 720Z" />
<glyph unicode="&#x2019;" horiz-adv-x="173" d="M72 569L49 589Q70 609 80 641T84 708L127 715Q133 688 127 661T107 609T72 569V569Z" />
<glyph unicode="&#x201a;" horiz-adv-x="173" d="M72 -97L49 -77Q70 -57 80 -25T84 42L127 49Q133 22 127 -5T107 -57T72 -97V-97Z" />
<glyph unicode="&#x201c;" horiz-adv-x="255" d="M224 720L248 699Q226 672 216 642T212 581L170 574Q164 604 169 630T189 680T224 720ZM114 720L138 699Q116 672 106 642T102 581L60 574Q54 604 59 630T79 680T114 720Z" />
<glyph unicode="&#x201d;" horiz-adv-x="247" d="M72 569L49 589Q70 609 80 641T84 708L127 715Q133 688 127 661T107 609T72 569V569ZM165 569L142 589Q163 609 173 641T177 708L220 715Q226 688 220 661T200 609T165 569V569Z" />
<glyph unicode="&#x201e;" horiz-adv-x="271" d="M72 -105L49 -85Q70 -65 80 -33T84 34L127 41Q133 14 127 -13T107 -65T72 -105V-105ZM165 -105L142 -85Q163 -65 173 -33T177 34L220 41Q226 14 220 -13T200 -65T165 -105V-105Z" />
<glyph unicode="&#x2022;" horiz-adv-x="481" d="M149 302Q149 328 161 348T194 381T240 394Q266 394 287 382T320 349T333 302Q333 277 321 256T287 223T240 210Q215 210 195 222T162 256T149 302V302Z" />
<glyph unicode="&#x2039;" horiz-adv-x="383" d="M90 240Q101 250 116 264T149 294T186 326T224 359T257 389T283 413V367Q270 354 253 338T218 304T184 271T154 240Q167 227 183 210T218 176T253 143T283 112V67L90 240Z" />
<glyph unicode="&#x203a;" horiz-adv-x="381" d="M300 240Q290 250 275 264T241 294T204 326T166 359T133 389T107 413V367Q120 354 137 338T172 304T206 271T236 240Q223 227 207 210T172 176T137 143T107 112V67L300 240Z" />
</font>
</defs>
</svg>
