<?xml version="1.0" standalone="no"?>
<!DOCTYPE svg PUBLIC "-//W3C//DTD SVG 1.1//EN" "http://www.w3.org/Graphics/SVG/1.1/DTD/svg11.dtd">
<svg xmlns="http://www.w3.org/2000/svg">
<defs >
<font id="JosefinSans" horiz-adv-x="547" ><font-face
    font-family="Josefin Sans Thin SemiBold"
    units-per-em="1000"
    panose-1="0 0 0 0 0 0 0 0 0 0"
    ascent="750"
    descent="-250"
    alphabetic="0" />
<glyph unicode=" " horiz-adv-x="320" />
<glyph unicode="!" horiz-adv-x="202" d="M49 762H149V192H49V762ZM102 -3Q72 -3 53 13T33 57Q33 83 52 101T102 119Q131 119 150 101T169 57Q169 30 151 14T102 -3Z" />
<glyph unicode="&quot;" horiz-adv-x="350" d="M163 731Q162 668 161 606T159 479H64V731H163ZM298 731Q297 668 296 606T294 479H199V731H298Z" />
<glyph unicode="#" horiz-adv-x="580" d="M270 653Q264 606 259 560T246 466H332Q338 513 344 559T355 653H457Q451 606 446 560T433 466H529Q526 442 525 418T519 369H423Q420 347 418 325T412 280H508Q505 256 502 232T496 182H400Q395 136 390 91T379 0H278Q283
46 288 91T299 182H214Q209 136 203 91T192 0H90Q96 46 101 91T112 182H24Q28 207 31 231T36 280H124Q127 303 129 325T135 369H47Q51 393 53 417T58 466H145Q151 513 157 559T169 653H270ZM236 369Q234 347 231 325T225 280H311Q314 303 316 325T321 369H236Z"
/>
<glyph unicode="$" horiz-adv-x="567" d="M249 -68V368L277 406V795H345V387L318 338V-68H249ZM482 580Q443 600 399 614T315 629Q261 629 230 605T198 539Q198 509 219 487T275 448T348 416Q381 404 413 388T472 347T513 288T528 200Q528 143 500 96T417 20T286
-8Q240 -8 197 2T114 29T42 69L94 160Q118 142 149 127T213 103T275 94Q306 94 336 104T387 138T408 199Q408 230 391 252T344 290T281 320Q247 333 212 349T147 388T97 446T78 530Q78 590 106 634T183 704T298 732Q375 732 429 714T526 669L482 580Z" />
<glyph unicode="%" horiz-adv-x="792" d="M201 278Q152 278 119 301T69 364T52 456Q52 508 68 548T118 611T201 634Q251 634 284 611T334 548T351 456Q351 404 334 364T284 301T201 278ZM150 456Q150 411 162 384T201 357Q228 357 240 384T252 456Q252 506 240
530T201 554Q175 554 163 531T150 456ZM594 -21Q544 -21 511 2T461 65T444 158Q444 210 460 250T510 313T594 336Q643 336 676 313T727 250T744 158Q744 106 727 66T677 2T594 -21ZM542 157Q542 112 554 85T594 58Q620 58 632 85T645 157Q645 207 633 231T594 256Q567
256 555 232T542 157ZM683 635L238 -2L128 0L571 635H683Z" />
<glyph unicode="&amp;" horiz-adv-x="731" d="M689 0Q679 0 657 0T612 0T572 0T555 0L217 450Q208 464 195 486T172 535T162 592Q162 634 183 672T244 735T345 760Q409 760 458 735T539 673L481 596Q450 626 421 644T364 662Q324 662 303 638T282 582Q282 566
289 548T305 517T315 499L689 0ZM308 343Q281 343 257 333T213 304T183 263T172 214Q172 178 190 151T240 109T310 93Q346 93 372 104T416 133T444 173L518 109Q492 59 436 24T294 -11Q226 -11 171 17T84 95T52 208Q52 256 73 296T131 367T213 415T306 434L308
343ZM545 434H652L532 129L448 180L545 434Z" />
<glyph unicode="&apos;" horiz-adv-x="169" d="M137 731Q136 668 135 606T133 479H37V731H137Z" />
<glyph unicode="(" horiz-adv-x="405" d="M91 295Q91 397 115 485T178 643T258 757L348 711Q310 666 278 605T227 466T208 295Q208 202 227 125T278 -14T348 -120L258 -167Q216 -121 178 -52T116 105T91 295V295Z" />
<glyph unicode=")" horiz-adv-x="406" d="M321 295Q321 194 297 106T235 -52T154 -167L64 -120Q103 -76 134 -15T185 124T204 295Q204 388 185 465T135 604T64 710L154 757Q197 712 234 643T296 485T321 295V295Z" />
<glyph unicode="*" horiz-adv-x="335" d="M135 517Q117 506 99 496T63 475Q55 490 46 505T28 536Q47 545 64 555T101 576Q83 587 65 598T29 619Q37 633 45 647T61 676Q79 665 97 654T135 633V720H204Q204 698 204 677T203 633Q222 643 240 653T278 675Q286 661
294 647T310 618Q292 608 274 597T235 575V575Q254 564 272 554T309 533Q301 518 292 503T274 473Q256 483 238 494T201 516Q201 496 201 476T200 434H135V517Z" />
<glyph unicode="+" horiz-adv-x="552" d="M219 417H321V283H453V185H321V52H219V185H88V283H219V417Z" />
<glyph unicode="," horiz-adv-x="204" d="M174 88Q152 35 131 -17T87 -122H-3Q17 -69 36 -17T75 88H174Z" />
<glyph unicode="-" horiz-adv-x="305" d="M54 270H241V172H54V270Z" />
<glyph unicode="." horiz-adv-x="170" d="M26 61Q26 86 45 104T87 122Q108 122 127 104T146 61Q146 33 127 17T87 0Q64 0 45 16T26 61V61Z" />
<glyph unicode="/" horiz-adv-x="399" d="M401 748Q330 556 260 365T118 -19H17Q88 173 158 364T300 748H401Z" />
<glyph unicode="0" horiz-adv-x="625" d="M313 -2Q253 -2 203 19T115 84T56 189T35 333Q35 421 55 484T112 589T200 648T313 667Q372 667 422 646T510 582T569 477T590 333Q590 250 569 187T511 82T423 19T313 -2ZM312 109Q367 109 401 138T452 218T469 336Q469
400 453 449T402 527T312 555Q258 556 223 527T172 448T156 333Q156 269 172 218T223 138T312 109Z" />
<glyph unicode="1" horiz-adv-x="335" d="M52 660H235V0H118V548H52V660Z" />
<glyph unicode="2" horiz-adv-x="560" d="M54 0Q116 63 174 122T278 236T350 344T377 444Q377 472 368 493T343 528T307 549T262 556Q233 556 212 547T178 524T158 493T151 459Q151 426 161 401T190 356L119 291Q93 306 75 335T48 398T38 456Q38 511 66 559T149
637T282 668Q347 668 395 639T471 560T498 454Q498 406 481 361T433 271T367 183T293 96L241 112H514V0H54Z" />
<glyph unicode="3" horiz-adv-x="525" d="M445 660L279 375L213 408Q225 414 239 417T266 420Q303 421 338 412T401 379T446 317T463 220Q463 149 431 98T345 20T228 -8Q180 -8 130 12T48 65L107 161Q124 140 156 122T225 104Q256 104 282 118T326 160T343 227Q343
279 313 309T230 339Q201 339 183 336T149 327L146 330L286 563L321 548H93V660H445Z" />
<glyph unicode="4" horiz-adv-x="542" d="M12 154V154L421 668H423V242H505V153H423V0H306V154H12ZM312 409L180 237L166 242H306V423L312 409Z" />
<glyph unicode="5" horiz-adv-x="521" d="M244 -8Q188 -8 137 12T55 63L116 154Q135 132 168 118T234 103Q266 103 291 117T330 156T345 215Q345 252 332 280T291 324T226 340Q193 340 164 331T100 302H99V660H420V548H199V405L185 429Q201 433 218 435T254 438Q322
438 369 408T440 328T465 219Q465 155 436 104T357 22T244 -8Z" />
<glyph unicode="6" horiz-adv-x="551" d="M279 -8Q210 -8 155 24T68 118T35 266Q35 329 59 386T125 494T220 590T331 670L409 586Q328 550 275 500T194 398T163 301L134 305Q161 363 204 395T318 428Q368 428 413 401T486 326T515 216Q515 147 481 97T394 19T279
-8ZM274 96Q308 96 335 110T378 152T394 216Q394 251 378 276T335 316T274 330Q241 330 214 317T171 280T154 230V210Q154 180 170 154T213 112T274 96Z" />
<glyph unicode="7" horiz-adv-x="495" d="M472 660L215 0H85L309 563L348 548H35V660H472Z" />
<glyph unicode="8" horiz-adv-x="527" d="M23 210Q23 262 42 298T90 359T146 398Q120 418 102 445T84 516Q84 560 107 594T172 648T263 668Q314 668 354 649T419 596T444 521Q444 473 426 446T380 398Q408 383 436 359T484 298T504 210Q504 153 472 103T386 23T262
-8Q193 -8 139 22T54 103T23 210V210ZM142 215Q142 181 158 153T202 107T262 90Q297 90 325 107T371 152T388 215Q388 249 372 277T328 322T267 340Q234 341 206 325T160 280T142 215V215ZM197 502Q197 475 218 456T266 437Q292 437 312 456T333 502Q333 531 313
551T266 571Q239 571 218 551T197 502V502Z" />
<glyph unicode="9" horiz-adv-x="541" d="M231 212Q182 212 137 239T64 314T35 423Q35 498 68 551T156 632T270 661Q340 661 395 631T482 546T515 423Q515 344 486 279T409 162T303 67T187 -15L109 70Q191 109 252 154T347 247T386 337L417 335Q388 276 347 244T231
212ZM275 310Q327 310 361 341T395 419V439Q395 471 379 497T336 540T275 557Q242 557 215 542T171 498T155 432Q155 394 171 367T215 325T275 310Z" />
<glyph unicode=":" horiz-adv-x="178" d="M26 338Q26 364 45 381T87 399Q108 399 127 382T146 338Q146 310 127 294T87 277Q64 277 45 293T26 338V338ZM26 61Q26 86 45 104T87 122Q108 122 127 104T146 61Q146 33 127 17T87 0Q64 0 45 16T26 61V61Z" />
<glyph unicode=";" horiz-adv-x="204" d="M60 315Q60 340 78 358T120 376Q142 376 160 358T179 314Q179 287 161 271T120 254Q98 254 79 270T60 315V315ZM160 88Q138 35 117 -17T73 -122H-18Q2 -69 21 -17T61 88H160Z" />
<glyph unicode="&lt;" horiz-adv-x="583" d="M492 375L263 241L492 107V-14L49 241L492 497V375Z" />
<glyph unicode="=" horiz-adv-x="719" d="M102 400H615V302H102V400ZM102 203H615V105H102V203Z" />
<glyph unicode="&gt;" horiz-adv-x="576" d="M88 108L317 242L88 376V497L531 242L88 -14V-14V108Z" />
<glyph unicode="?" horiz-adv-x="461" d="M157 190V249Q157 298 170 329T203 382T244 423Q274 448 296 475T318 546Q318 574 304 595T269 628T225 640Q193 640 170 626T132 590T107 541L15 584Q21 604 37 631T79 684T145 727T236 744Q293 744 338 723T410 661T437
556Q437 505 423 472T387 415T341 369Q322 351 305 333T279 289T269 223V190H157ZM214 -3Q184 -3 165 13T145 57Q145 83 164 101T214 119Q243 119 262 101T281 57Q281 30 262 14T214 -3Z" />
<glyph unicode="@" horiz-adv-x="1041" d="M446 -222Q364 -222 291 -198T162 -126T74 -4T42 168Q42 231 61 299T122 432T230 547T388 628T603 659Q698 659 771 632T895 555T972 440T999 300Q999 238 980 183T928 84T847 17T744 -8Q702 -8 672 12T627 67T621 148L640
97Q625 73 595 48T526 6T447 -11Q392 -11 349 12T280 80T256 186Q256 257 287 315T373 408T501 442Q545 442 573 431T620 402T650 361L667 423H773L736 155Q734 138 736 124T747 102T772 94Q794 94 816 109T855 153T884 218T895 300Q895 374 860 435T757 534T587
571Q480 571 404 542T277 466T197 364T156 259T143 171Q143 91 167 34T236 -61T338 -116T463 -135Q521 -135 577 -117T683 -67L729 -132Q690 -162 641 -182T542 -212T446 -222ZM491 81Q521 81 546 92T590 123T622 171L635 263Q631 289 615 308T575 339T519 350Q479
350 446 329T394 274T375 200Q375 167 389 140T430 97T491 81Z" />
<glyph unicode="A" horiz-adv-x="699" d="M24 0L346 758H353L675 0H541L315 576L398 632L138 0H24ZM226 271H475L515 171H191L226 271Z" />
<glyph unicode="B" horiz-adv-x="630" d="M299 728Q410 728 474 683T539 545Q539 483 510 440T431 373T312 347L294 409Q375 408 438 384T537 315T574 209Q574 152 554 113T498 48T419 12T327 0H100V728H299ZM317 418Q370 418 394 448T419 520Q419 570 388 593T304
616H217V418H317ZM322 108Q359 108 389 118T437 151T455 208Q455 246 434 267T381 297T314 306H217V108H322Z" />
<glyph unicode="C" horiz-adv-x="695" d="M640 57Q624 46 593 30T518 3T421 -8Q336 -7 268 22T153 102T81 218T55 358Q55 441 81 510T155 629T269 708T413 736Q482 736 536 718T628 676L582 567Q554 586 512 605T417 624Q369 624 325 605T248 550T196 467T176
365Q176 308 193 260T243 178T321 124T424 104Q480 104 522 121T591 161L640 57Z" />
<glyph unicode="D" horiz-adv-x="760" d="M100 0V728H307Q415 728 491 695T615 608T683 488T705 354Q705 272 676 207T597 96T481 25T342 0H100ZM217 112H321Q379 112 427 128T510 176T565 255T585 362Q585 430 563 478T504 557T424 602T339 617H217V112Z" />
<glyph unicode="E" horiz-adv-x="658" d="M100 728H583V616H217V422H543V310H217V112H597V0H100V728Z" />
<glyph unicode="F" horiz-adv-x="593" d="M100 728H542V616H217V411H500V300H217V0H100V728Z" />
<glyph unicode="G" horiz-adv-x="756" d="M679 67Q665 53 638 40T576 16T506 -1T438 -8Q350 -8 280 19T159 93T82 206T55 347Q55 442 85 514T167 636T286 711T429 736Q495 736 551 721T648 683L610 575Q591 586 561 596T500 613T444 619Q381 619 332 602T247 550T194
468T175 357Q175 301 194 255T249 176T333 126T441 108Q475 108 507 114T562 133V254H425V366H679V67Z" />
<glyph unicode="H" horiz-adv-x="792" d="M691 728V0H575V310H217V0H100V728H217V421H575V728H691Z" />
<glyph unicode="I" horiz-adv-x="317" d="M100 728H217V0H100V728Z" />
<glyph unicode="J" horiz-adv-x="379" d="M279 141Q279 50 244 -14T146 -113T4 -151V-151V-38Q73 -34 117 8T162 144V728H279V141Z" />
<glyph unicode="K" horiz-adv-x="689" d="M218 449L215 412L231 435L505 728H655L354 410L666 0H518L269 336L218 286V0H100V728H218V449Z" />
<glyph unicode="L" horiz-adv-x="630" d="M100 728H217V112H575V0H100V728Z" />
<glyph unicode="M" horiz-adv-x="935" d="M100 0V754H101L493 199L443 210L833 754H835V0H719V491L727 432L463 59H461L193 432L213 486V0H100Z" />
<glyph unicode="N" horiz-adv-x="844" d="M740 -26L181 516L215 502L218 0H100V753H106L656 211L629 219L627 728H743V-26H740Z" />
<glyph unicode="O" horiz-adv-x="855" d="M55 363Q55 439 84 506T164 625T282 706T427 736Q503 736 570 707T689 625T770 506T800 363Q800 286 771 219T690 100T571 21T427 -8Q349 -8 282 20T164 99T84 217T55 363ZM175 363Q175 309 194 262T249 180T330 124T430
104Q482 104 527 124T607 179T660 262T680 363Q680 418 660 465T606 548T526 604T427 624Q374 624 328 604T248 548T194 465T175 363Z" />
<glyph unicode="P" horiz-adv-x="611" d="M306 728Q389 728 448 700T538 620T570 494Q570 451 557 408T515 330T439 274T322 253H217V0H100V728H306ZM322 365Q360 365 386 378T426 411T447 453T454 492Q454 509 448 530T428 571T389 603T325 616H217V365H322Z" />
<glyph unicode="Q" horiz-adv-x="890" d="M594 113H834V0H441L594 113ZM55 363Q55 439 84 506T164 625T282 706T427 736Q503 736 570 707T689 625T770 506T800 363Q800 286 771 219T690 100T571 21T427 -8Q349 -8 282 20T164 99T84 217T55 363ZM175 363Q175 310
194 263T249 181T330 125T430 105Q482 105 527 125T607 180T660 262T680 363Q680 416 660 463T606 545T526 601T427 621Q374 621 328 601T248 545T194 462T175 363Z" />
<glyph unicode="R" horiz-adv-x="670" d="M305 728Q365 728 415 713T500 667T554 594T574 494Q574 451 561 408T519 331T441 275T322 253H217V0H100V728H305ZM321 365Q360 365 386 377T426 409T447 449T454 490Q454 508 448 529T428 570T388 603T325 616H217V365H321ZM447
296L633 0H498L308 293L447 296Z" />
<glyph unicode="S" horiz-adv-x="582" d="M482 580Q443 600 399 614T315 629Q261 629 230 605T198 539Q198 509 219 487T275 448T348 416Q381 404 413 388T472 347T513 288T528 200Q528 143 500 96T417 20T286 -8Q240 -8 197 2T114 29T42 69L94 160Q118 142 149
127T213 103T275 94Q306 94 336 104T387 138T408 199Q408 230 391 252T344 290T281 320Q247 333 212 349T147 388T97 446T78 530Q78 590 106 634T183 704T298 732Q375 732 429 714T526 669L482 580Z" />
<glyph unicode="T" horiz-adv-x="583" d="M48 728H535V616H347V0H231V616H48V728Z" />
<glyph unicode="U" horiz-adv-x="741" d="M205 262Q205 219 227 183T287 126T370 105Q418 105 456 126T516 183T538 262V728H653V259Q653 180 615 120T513 26T370 -8V-8Q292 -8 228 25T127 119T89 259V728H205V262Z" />
<glyph unicode="V" horiz-adv-x="726" d="M176 728L405 158L338 171L552 728H689L363 -34L37 728H176Z" />
<glyph unicode="W" horiz-adv-x="1014" d="M37 724H173L353 208L334 216L474 575L528 416L328 -34L37 724ZM393 724H509L709 219L686 223L852 724H977L693 -32L393 724Z" />
<glyph unicode="X" horiz-adv-x="693" d="M40 728H188L663 0H513L40 728ZM30 0L286 401L341 286L174 0H30ZM347 443L513 728H654L408 344L347 443Z" />
<glyph unicode="Y" horiz-adv-x="704" d="M292 236L23 728H166L371 336L336 334L538 728H681L408 236V0H292V236Z" />
<glyph unicode="Z" horiz-adv-x="716" d="M48 0Q55 10 75 40T125 116T189 215T261 325T333 435T397 533T447 608T474 648L488 616H182Q162 616 142 624T108 647T94 682V765H202V751Q202 732 209 730T233 728H657L239 98L232 112H663V0H48Z" />
<glyph unicode="[" horiz-adv-x="367" d="M100 758H319V653H217V-48H319V-151H100V758Z" />
<glyph unicode="\" horiz-adv-x="406" d="M110 748Q180 556 251 365T392 -19H279Q208 173 138 364T-4 748H110Z" />
<glyph unicode="]" horiz-adv-x="367" d="M267 -151H48V-47H150V654H48V758H267V-151Z" />
<glyph unicode="^" horiz-adv-x="477" d="M288 487Q284 493 273 507T251 535T235 556Q231 550 221 536T199 507T183 487H114Q144 533 174 578T235 670V670Q266 624 296 579T357 487H288Z" />
<glyph unicode="_" horiz-adv-x="609" d="M102 97H508V0H102V97Z" />
<glyph unicode="`" horiz-adv-x="291" d="M20 621H144L213 487H143L20 621Z" />
<glyph unicode="a" horiz-adv-x="597" d="M254 -11Q195 -11 147 14T70 88T42 211Q42 283 71 334T149 414T255 442Q316 442 353 418T412 361L406 345L417 423H520V0H408V103L419 76Q416 70 404 57T370 27T321 0T254 -11ZM285 81Q316 81 341 92T383 123T408 171V263Q400
289 382 308T339 339T282 350Q247 350 219 333T173 286T155 217Q155 179 173 148T221 99T285 81Z" />
<glyph unicode="b" horiz-adv-x="605" d="M344 -11Q287 -11 246 11T178 69L189 98V0H77V780H188V336L187 375Q212 405 257 423T358 442Q415 442 461 415T535 339T563 219Q563 148 533 96T453 17T344 -11ZM320 84Q356 84 385 101T432 150T450 220Q450 258 433 288T386
336T320 354Q288 354 262 343T217 312T189 265V172Q199 146 217 126T261 95T320 84Z" />
<glyph unicode="c" horiz-adv-x="465" d="M427 39Q399 16 359 3T277 -11Q207 -11 154 16T72 93T42 212Q42 281 73 331T156 407T265 434Q319 434 360 420T430 380L375 307Q359 320 334 331T275 343Q242 343 214 326T170 280T154 212Q154 176 171 146T217 99T286
81Q312 81 333 88T371 109L427 39Z" />
<glyph unicode="d" horiz-adv-x="605" d="M250 -11Q191 -11 144 17T69 97T42 218Q42 289 71 339T150 415T264 442Q310 442 352 425T419 374L417 336V780H528V0H416V96L427 68Q395 34 351 12T250 -11ZM285 84Q319 84 344 95T388 126T416 175V265Q408 291 390 311T344
342T285 354Q250 354 221 337T173 289T155 220Q155 182 173 151T221 102T285 84Z" />
<glyph unicode="e" horiz-adv-x="533" d="M279 -11Q204 -11 151 18T70 98T42 215Q42 278 74 329T160 411T281 442Q368 442 424 392T500 249L159 134L133 197L400 292L376 279Q366 309 341 331T272 354Q237 354 210 337T168 291T152 221Q152 179 169 149T215 102T281
85Q307 85 330 94T376 118L427 35Q394 14 355 2T279 -11Z" />
<glyph unicode="f" horiz-adv-x="402" d="M114 0V325H42V424H114V590Q114 678 158 728T288 779Q312 779 341 772T392 750L345 669Q335 679 323 683T300 687Q266 687 246 664T226 587V424H358V325H226V0H114Z" />
<glyph unicode="g" horiz-adv-x="612" d="M287 -211Q236 -211 199 -199T134 -168T80 -127L146 -50Q175 -77 207 -95T285 -113Q327 -113 357 -100T405 -61T423 0V105L430 84Q413 45 368 17T256 -11Q198 -11 149 18T71 99T42 214Q42 280 73 331T154 412T261 442Q317
442 360 422T426 372L420 356L432 423H535V-2Q535 -61 504 -108T417 -183T287 -211ZM155 217Q155 179 172 148T220 99T289 81Q322 81 349 92T395 123T423 170V262Q414 289 395 308T348 339T289 350Q251 350 221 333T173 286T155 217Z" />
<glyph unicode="h" horiz-adv-x="569" d="M77 0V780H187V330L185 347Q207 388 250 414T353 441Q413 441 452 406T492 314V0H380V274Q379 306 362 325T308 346Q274 346 247 325T205 269T189 188V0H77Z" />
<glyph unicode="i" horiz-adv-x="266" d="M77 423H189V0H77V423ZM72 831Q72 857 92 874T137 891Q161 891 180 874T199 831Q199 805 180 789T137 772Q113 772 93 789T72 831Z" />
<glyph unicode="j" horiz-adv-x="274" d="M92 -204L27 -135Q55 -111 71 -77T88 4V423H200V-2Q200 -75 175 -124T92 -204ZM81 831Q81 857 101 874T146 891Q170 891 189 874T208 831Q208 805 189 789T146 772Q122 772 102 789T81 831Z" />
<glyph unicode="k" horiz-adv-x="517" d="M77 0V780H189V0H77ZM294 284L487 0H356L220 220L294 284ZM155 127L144 234L400 433L469 373L155 127Z" />
<glyph unicode="l" horiz-adv-x="266" d="M77 780H189V0H77V780Z" />
<glyph unicode="m" horiz-adv-x="840" d="M178 423L187 337L184 344Q208 390 249 416T346 442Q381 442 408 431T453 400T477 350L472 348Q498 391 539 416T626 442Q688 442 725 407T763 315V0H652V272Q651 302 639 322T594 345Q558 345 532 323T491 265T476 190V0H364V272Q363
302 350 322T304 345Q269 345 243 323T203 265T189 190V0H77V423H178Z" />
<glyph unicode="n" horiz-adv-x="569" d="M178 423L187 332L184 344Q205 388 249 414T353 441Q413 441 452 406T492 314V0H380V274Q379 306 362 325T308 346Q274 346 247 326T205 270T189 188V0H77V423H178Z" />
<glyph unicode="o" horiz-adv-x="555" d="M42 216Q42 280 72 331T157 412T280 442Q351 442 403 413T484 332T513 216Q513 152 485 101T403 19T279 -11Q210 -11 157 16T73 95T42 216ZM155 215Q155 178 171 148T215 99T277 81Q314 81 341 99T384 147T400 215Q400
253 385 283T342 332T277 350Q242 350 215 332T171 283T155 215Z" />
<glyph unicode="p" horiz-adv-x="605" d="M334 -11Q290 -11 249 8T183 60L188 94V-203H77V431H174L189 333L179 363Q210 397 254 419T355 442Q415 442 462 414T536 335T563 213Q563 143 534 93T452 16T334 -11ZM312 78Q349 78 380 95T431 142T450 211Q450 251
433 281T386 329T320 347Q287 347 261 336T217 305T189 256V171Q196 144 213 123T256 90T312 78Z" />
<glyph unicode="q" horiz-adv-x="605" d="M247 -11Q191 -11 145 16T70 93T42 212Q42 283 72 334T153 414T263 442Q319 442 359 420T427 363L416 333V431H528V-203H417V98L420 56Q395 27 350 8T247 -11ZM285 78Q318 78 345 89T391 122T416 171V256Q407 284 389
304T345 336T285 347Q251 347 221 330T173 281T155 211Q155 173 173 143T221 96T285 78Z" />
<glyph unicode="r" horiz-adv-x="390" d="M178 423L188 303L184 320Q201 358 232 385T297 427T352 442L347 330Q299 334 264 313T208 257T188 182V0H77V423H178Z" />
<glyph unicode="s" horiz-adv-x="423" d="M204 -9Q156 -9 113 8T40 58L87 121Q115 94 142 82T195 69Q214 69 229 73T254 88T264 115Q264 135 250 146T214 165T167 180Q113 198 86 230T59 306Q59 339 76 369T128 420T216 440Q264 440 299 429T366 394L323 326Q305
344 281 353T236 364Q218 365 204 360T181 344T172 321Q172 301 186 289T224 270T270 255Q301 246 324 230T362 192T376 136Q376 98 357 65T300 11T204 -9Z" />
<glyph unicode="t" horiz-adv-x="373" d="M118 609H230V423H340V335H230V0H118V335H45V423H118V609Z" />
<glyph unicode="u" horiz-adv-x="561" d="M213 -18Q155 -18 117 17T77 109V423H189V149Q191 118 207 98T258 78Q291 78 316 98T357 155T372 236V423H484V0H383L374 93L377 79Q364 51 340 29T284 -5T213 -18Z" />
<glyph unicode="v" horiz-adv-x="510" d="M258 -11L15 423H148L301 105L232 108L370 423H495L263 -11H258Z" />
<glyph unicode="w" horiz-adv-x="678" d="M361 423L473 166L452 164L553 423H663L470 -25L334 261L210 -25L15 423H125L244 151L206 157L294 360L265 423H361Z" />
<glyph unicode="x" horiz-adv-x="490" d="M250 275L343 423H455L290 194L250 275ZM474 0H339L15 423H153L474 0ZM237 148L133 0H20L185 223L237 148Z" />
<glyph unicode="y" horiz-adv-x="510" d="M112 -203L393 423H495L222 -203H112ZM221 -3L15 423H141L307 54L221 -3Z" />
<glyph unicode="z" horiz-adv-x="487" d="M128 332Q95 332 71 354T47 416V464H131V450Q131 432 139 428T165 423H435L189 68L168 92H432V0H25L276 364L294 332H128Z" />
<glyph unicode="{" horiz-adv-x="372" d="M283 659Q263 659 252 652T236 624T231 557V447Q231 404 220 375T194 330T165 304Q177 295 192 279T219 237T231 175V48Q231 4 235 -17T251 -46T283 -54H325V-152H255Q229 -152 204 -151T159 -139T126 -102T114 -24V137Q114
166 106 193T80 239T34 257V257V353Q62 354 80 372T106 417T114 474V637Q114 685 126 710T158 745T203 756T255 758H325V659H283Z" />
<glyph unicode="|" horiz-adv-x="287" d="M90 711H192V-236H90V711Z" />
<glyph unicode="}" horiz-adv-x="383" d="M100 -54Q121 -54 132 -47T148 -17T153 49V167Q153 207 164 234T191 277T219 302Q207 311 191 327T164 369T153 431V558Q153 603 149 624T133 652T100 659H58V758H128Q154 758 178 757T223 746T256 711T269 638V477Q269
456 273 434T286 392T311 361T349 348V348V253Q327 252 311 240T286 209T273 168T269 124V-32Q269 -79 257 -104T225 -139T180 -150T128 -152H58V-54H100Z" />
<glyph unicode="~" horiz-adv-x="436" d="M305 430Q266 430 241 447T195 482Q182 494 169 503T139 513Q125 513 115 502T101 472T97 430L28 431Q25 476 38 514T78 575T146 598Q176 598 198 582T241 548Q257 534 271 523T302 511Q317 511 325 523T336 554T338 598L407
597Q414 548 401 510T363 451T305 430Z" />
<glyph unicode="&#xa0;" horiz-adv-x="320" />
<glyph unicode="&#xa1;" horiz-adv-x="203" d="M49 -213H149V357H49V-213ZM102 552Q72 552 53 535T33 492Q33 465 52 448T102 430Q131 430 150 447T169 492Q169 518 151 535T102 552Z" />
<glyph unicode="&#xa2;" horiz-adv-x="465" d="M238 491H306V-68H238V491ZM427 39Q399 16 359 3T277 -11Q207 -11 154 16T72 93T42 212Q42 281 73 331T156 407T265 434Q319 434 360 420T430 380L375 307Q359 320 334 331T275 343Q242 343 214 326T170 280T154
212Q154 176 171 146T217 99T286 81Q312 81 333 88T371 109L427 39Z" />
<glyph unicode="&#xa3;" horiz-adv-x="648" d="M418 398V285H96V398H418ZM162 547Q162 594 189 632T266 692T382 714Q454 714 504 686T580 609L496 551Q487 564 474 575T440 594T384 602Q347 602 323 591T288 558T277 504V214V193Q277 177 276 160T269 128T251
103L235 112H443Q474 112 488 122T502 154V192L603 193V122Q603 95 596 73T573 35T530 9T467 0H64V112H109Q130 112 141 118T157 143T162 202V547Z" />
<glyph unicode="&#xa4;" horiz-adv-x="505" d="M383 442Q407 405 407 361Q407 338 400 317T381 278L409 250L361 202Q353 209 347 216T332 231Q296 208 251 208Q228 208 208 214T171 230V230L142 201L94 249L122 277Q111 295 104 316T97 361V361Q97 384 103 404T121
441Q114 448 108 454T94 468L142 516L169 489Q188 500 208 507T251 514Q274 514 294 507T333 489V489L360 516L408 468L383 442ZM165 360Q165 337 177 317T208 286T252 274Q276 274 295 285T327 317T339 360Q339 385 327 404T296 435T252 447Q228 447 209 436T177
405T165 360V360Z" />
<glyph unicode="&#xa5;" horiz-adv-x="704" d="M169 307H545V216H169V307ZM170 163H545V72H170V163ZM292 305L23 728H166L371 405L336 402L538 728H681L408 305V0H292V305Z" />
<glyph unicode="&#xa6;" horiz-adv-x="218" d="M62 711H163V355H62V711ZM62 119H163V-237H62V119Z" />
<glyph unicode="&#xa7;" horiz-adv-x="574" d="M376 138L333 180Q380 178 418 160T479 108T502 27Q502 -29 474 -75T395 -149T279 -177Q237 -177 196 -169T118 -144T50 -102L108 -6Q137 -28 165 -43T219 -65T272 -73Q302 -73 326 -64T366 -35T381 10Q381 37 363
53T317 81T255 99Q223 108 190 120T128 153T83 201T66 270Q66 324 92 358T159 408T243 422L233 380Q180 398 148 423T101 480T87 549Q87 582 99 614T137 674T203 717T300 733Q359 733 409 714T498 664L448 579Q411 608 378 620T312 633Q276 633 253 624T219 599T208
564Q208 539 226 523T274 495T339 474Q371 466 403 454T463 423T507 375T524 303Q524 246 487 200T376 138ZM411 282Q412 306 394 324T348 353T293 369Q243 371 212 350T179 298Q179 271 195 252T239 219T299 198Q325 200 350 210T392 238T411 282Z" />
<glyph unicode="&#xa8;" horiz-adv-x="426" d="M57 533Q57 559 76 576T117 594Q139 594 158 577T177 533Q177 506 158 489T117 472Q95 472 76 489T57 533V533ZM249 533Q249 559 268 576T310 594Q331 594 350 577T369 533Q369 506 350 489T310 472Q287 472 268
489T249 533V533Z" />
<glyph unicode="&#xa9;" horiz-adv-x="860" d="M585 194Q561 171 522 151T431 131Q379 133 337 159T269 230T244 326Q244 384 268 428T337 499T441 525Q461 525 484 521T529 509T566 487L521 401Q505 417 487 422T449 427Q423 427 403 413T371 377T360 329Q360
303 371 282T402 247T450 233Q472 233 494 242T533 270L585 194ZM430 -29Q356 -29 291 -3T176 72T98 184T70 325Q70 402 98 467T176 580T291 654T430 681Q504 681 569 655T684 580T762 467T790 325Q790 249 763 185T686 72T571 -2T430 -29ZM430 61Q504 61 563 95T658
189T693 325Q693 402 658 461T564 555T430 590Q356 590 296 556T201 462T166 325Q166 249 200 189T293 95T430 61Z" />
<glyph unicode="&#xaa;" horiz-adv-x="395" d="M159 424Q123 424 94 440T47 491T30 574Q30 622 47 656T94 710T157 729Q195 729 219 715T256 680L252 665L259 718H339V430H253V494L260 479Q257 473 244 460T210 435T159 424ZM186 493Q204 493 217 500T239 520T253
551V604Q247 629 229 644T185 660Q156 660 136 638T116 578Q116 554 125 535T151 505T186 493Z" />
<glyph unicode="&#xab;" horiz-adv-x="607" d="M38 243Q41 246 58 260T101 296T155 340T209 384T252 420T273 437V336Q269 332 254 319T221 290T188 261T169 243Q173 239 187 226T220 196T254 166T273 148V47L38 243ZM270 243Q273 246 290 260T334 296T388 340T442
384T485 420T506 437V336Q502 332 487 319T454 290T420 261T401 243Q405 239 420 226T453 196T487 166T506 148V47L270 243Z" />
<glyph unicode="&#xac;" horiz-adv-x="487" d="M61 309H427V104H310V197H61V309Z" />
<glyph unicode="&#xad;" horiz-adv-x="600" d="M54 270H241V172H54V270Z" />
<glyph unicode="&#xae;" horiz-adv-x="518" d="M259 274Q196 274 144 303T60 384T28 500Q28 565 59 616T143 696T259 726Q323 726 375 697T458 616T490 500Q490 435 459 384T375 304T259 274ZM259 335Q305 335 342 356T401 415T423 500Q423 548 402 585T343 643T259
665Q213 665 176 644T117 585T95 500Q95 453 116 416T175 357T259 335ZM177 615H270Q311 615 331 596T352 541Q352 513 333 489T275 465H239V390H177V615ZM258 512Q274 512 280 520T286 540Q286 551 280 559T259 568H239V512H258ZM312 479L352 390H281L249 478L312
479Z" />
<glyph unicode="&#xaf;" horiz-adv-x="365" d="M58 545H307V466H58V545Z" />
<glyph unicode="&#xb0;" horiz-adv-x="286" d="M31 569Q31 599 45 623T85 661T140 676Q170 676 194 662T232 623T247 569Q247 539 233 515T194 476T140 461Q110 461 85 475T46 514T31 569V569ZM141 522Q159 522 173 535T187 568Q187 587 173 600T140 614Q121 614
108 601T95 568Q95 549 108 536T141 522V522Z" />
<glyph unicode="&#xb1;" horiz-adv-x="533" d="M219 580H321V445H453V348H321V214H219V348H88V445H219V580ZM88 176H453V78H88V176Z" />
<glyph unicode="&#xb2;" horiz-adv-x="405" d="M59 631Q77 658 117 676T201 693Q266 692 306 657T346 560Q346 518 324 481T268 413T199 356T138 307L154 383H360V289H70V353Q94 367 121 386T172 429T213 478T229 530Q229 567 214 583T171 600Q148 600 126 587T92
557L59 631Z" />
<glyph unicode="&#xb3;" horiz-adv-x="384" d="M164 286Q122 286 93 302T49 334L81 399Q90 389 108 374T152 359Q178 359 195 375T213 424Q213 460 194 475T148 490Q132 490 121 488T102 481L97 491L180 621L204 604H64V685H300L196 496L123 516Q136 527 153 535T194
543Q222 543 249 531T296 493T315 428Q315 389 297 357T244 305T164 286Z" />
<glyph unicode="&#xb4;" horiz-adv-x="292" d="M249 621L113 487H44L125 621H249Z" />
<glyph unicode="&#xb5;" horiz-adv-x="561" d="M213 -18Q157 -18 122 16T81 103L189 91V-201H77V110V423H189V149Q191 118 207 98T258 78Q291 78 316 98T357 155T372 236V423H484V0H383L372 98L377 79Q363 51 340 29T284 -5T213 -18Z" />
<glyph unicode="&#xb6;" horiz-adv-x="569" d="M204 429Q158 429 121 451T61 512T39 595Q39 642 61 679T120 739T204 762H470V0H370V664H304V0H204V429Z" />
<glyph unicode="&#xb7;" horiz-adv-x="172" d="M26 288Q26 313 45 331T87 349Q108 349 127 331T146 288Q146 260 127 244T87 227Q64 227 45 243T26 288V288Z" />
<glyph unicode="&#xb8;" horiz-adv-x="390" d="M104 -147Q115 -158 131 -165T168 -173Q191 -173 211 -163T231 -132Q231 -117 219 -104T171 -91Q155 -91 138 -95T108 -103L90 -50L159 10L245 7L171 -77L148 -50Q159 -46 172 -44T199 -41Q253 -40 289 -62T325 -130Q325
-165 304 -188T251 -222T180 -233Q140 -233 113 -221T69 -192L104 -147Z" />
<glyph unicode="&#xb9;" horiz-adv-x="275" d="M37 661H204V272H100V561H37V661Z" />
<glyph unicode="&#xba;" horiz-adv-x="375" d="M30 575Q30 619 50 653T106 707T189 727Q236 727 271 707T326 653T346 575Q346 532 327 497T272 442T188 422Q142 422 106 441T50 494T30 575ZM117 574Q117 553 126 535T151 507T187 497Q208 497 224 507T250 535T259
574Q259 596 250 614T224 642T187 653Q167 653 151 642T126 614T117 574Z" />
<glyph unicode="&#xbb;" horiz-adv-x="607" d="M556 243Q553 246 536 260T493 296T439 340T385 384T342 420T321 437V336Q325 332 339 319T373 290T406 261T425 243Q421 239 407 226T373 196T340 166T321 148V47L556 243ZM324 243Q321 246 304 260T260 296T206
340T152 384T109 420T88 437V336Q92 332 107 319T140 290T174 261T193 243Q189 239 174 226T141 196T107 166T88 148V47L324 243Z" />
<glyph unicode="&#xbc;" horiz-adv-x="831" d="M660 690L253 0H148L555 690H660ZM39 661H206V272H102V561H39V661ZM802 161V97H485L483 126L687 397H756V0H660V281L684 285L564 121L549 161H802Z" />
<glyph unicode="&#xbd;" horiz-adv-x="897" d="M39 663H206V274H102V563H39V663ZM535 334Q553 361 593 379T677 396Q742 395 782 360T822 263Q822 221 800 184T744 116T675 59T614 10L630 86H836V-8H546V56Q570 70 597 89T648 132T689 181T705 233Q705 270 690
286T647 303Q624 303 602 290T568 260L535 334ZM647 690L240 0H135L542 690H647Z" />
<glyph unicode="&#xbe;" horiz-adv-x="856" d="M165 286Q123 286 94 302T50 334L82 399Q91 389 109 374T153 359Q179 359 196 375T214 424Q214 460 195 475T149 490Q133 490 122 488T103 481L98 491L181 621L205 604H65V685H301L197 496L124 516Q137 527 154 535T195
543Q223 543 250 531T297 493T316 428Q316 389 298 357T245 305T165 286ZM687 690L280 0H175L582 690H687ZM804 162V98H487L485 127L689 398H759V1H662V282L686 286L566 122L551 162H804Z" />
<glyph unicode="&#xbf;" horiz-adv-x="443" d="M307 349V290Q307 242 294 211T261 158T219 116Q190 91 168 64T146 -7Q146 -35 160 -56T195 -89T239 -101Q271 -101 294 -87T332 -50T357 -2L449 -45Q442 -65 427 -92T384 -145T319 -188T228 -205Q172 -204 126 -184T54
-121T27 -17Q27 34 41 67T78 124T123 170Q143 189 159 207T185 250T195 316V349H307ZM250 542Q280 542 299 526T319 482Q319 456 300 438T250 420Q221 420 202 438T183 482Q183 509 201 525T250 542Z" />
<glyph unicode="&#xc0;" horiz-adv-x="699" d="M24 0L346 758H353L675 0H541L315 576L398 632L138 0H24ZM226 271H475L515 171H191L226 271ZM184 929H308L377 795H307L184 929Z" />
<glyph unicode="&#xc1;" horiz-adv-x="699" d="M24 0L346 758H353L675 0H541L315 576L398 632L138 0H24ZM226 271H475L515 171H191L226 271ZM772 924L636 790H567L648 924H772Z" />
<glyph unicode="&#xc2;" horiz-adv-x="699" d="M24 0L346 758H353L675 0H541L315 576L398 632L138 0H24ZM226 271H475L515 171H191L226 271ZM416 805L329 893L359 901L271 805H168L341 981H342L518 805H416Z" />
<glyph unicode="&#xc3;" horiz-adv-x="699" d="M24 0L346 758H353L675 0H541L315 576L398 632L138 0H24ZM226 271H475L515 171H191L226 271ZM426 826Q393 826 372 840T332 871Q320 881 309 889T284 898Q271 898 263 889T250 863T247 826L189 827Q185 866 196 898T232
950T290 970Q316 970 335 956T371 928Q385 915 397 905T424 895Q443 895 449 916T456 970L514 969Q519 927 509 895T476 844T426 826Z" />
<glyph unicode="&#xc4;" horiz-adv-x="699" d="M24 0L346 758H353L675 0H541L315 576L398 632L138 0H24ZM226 271H475L515 171H191L226 271ZM188 854Q188 880 207 897T248 915Q270 915 289 898T308 854Q308 827 289 810T248 793Q226 793 207 810T188 854V854ZM380
854Q380 880 399 897T441 915Q462 915 481 898T500 854Q500 827 481 810T441 793Q418 793 399 810T380 854V854Z" />
<glyph unicode="&#xc5;" horiz-adv-x="699" d="M24 0L346 758H353L675 0H541L315 576L398 632L138 0H24ZM226 271H475L515 171H191L226 271ZM251 886Q251 929 279 955T352 981Q395 981 424 955T453 886Q453 843 424 817T352 790Q309 790 280 816T251 886ZM311
884Q311 865 322 853T352 841Q371 841 382 853T393 884Q393 905 382 916T352 927Q334 927 323 916T311 884Z" />
<glyph unicode="&#xc6;" horiz-adv-x="957" d="M481 728H882V616H597V420H842V308H597V112H896V0H481V728ZM495 595Q493 585 489 572T485 557L144 0H10L481 728L495 595ZM247 264H496V172H212L247 264Z" />
<glyph unicode="&#xc7;" horiz-adv-x="695" d="M640 57Q624 46 593 30T518 3T421 -8Q336 -7 268 22T153 102T81 218T55 358Q55 441 81 510T155 629T269 708T413 736Q482 736 536 718T628 676L582 567Q554 586 512 605T417 624Q369 624 325 605T248 550T196 467T176
365Q176 308 193 260T243 178T321 124T424 104Q480 104 522 121T591 161L640 57ZM577 -147Q588 -158 604 -165T641 -173Q664 -173 684 -163T704 -132Q704 -117 692 -104T644 -91Q628 -91 611 -95T581 -103L563 -50L632 10L718 7L644 -77L621 -50Q632 -46 645 -44T672
-41Q726 -40 762 -62T798 -130Q798 -165 777 -188T724 -222T653 -233Q613 -233 586 -221T542 -192L577 -147Z" />
<glyph unicode="&#xc8;" horiz-adv-x="658" d="M100 728H583V616H217V422H543V310H217V112H597V0H100V728ZM174 913H298L367 779H297L174 913Z" />
<glyph unicode="&#xc9;" horiz-adv-x="658" d="M100 728H583V616H217V422H543V310H217V112H597V0H100V728ZM762 908L626 774H557L638 908H762Z" />
<glyph unicode="&#xca;" horiz-adv-x="658" d="M100 728H583V616H217V422H543V310H217V112H597V0H100V728ZM405 790L318 878L348 886L260 790H157L330 966H331L507 790H405Z" />
<glyph unicode="&#xcb;" horiz-adv-x="658" d="M100 728H583V616H217V422H543V310H217V112H597V0H100V728ZM178 838Q178 864 197 881T238 899Q260 899 279 882T298 838Q298 811 279 794T238 777Q216 777 197 794T178 838V838ZM370 838Q370 864 389 881T431 899Q452
899 471 882T490 838Q490 811 471 794T431 777Q408 777 389 794T370 838V838Z" />
<glyph unicode="&#xcc;" horiz-adv-x="317" d="M100 728H217V0H100V728ZM-6 913H118L187 779H117L-6 913Z" />
<glyph unicode="&#xcd;" horiz-adv-x="317" d="M100 728H217V0H100V728ZM582 908L446 774H377L458 908H582Z" />
<glyph unicode="&#xce;" horiz-adv-x="317" d="M100 728H217V0H100V728ZM225 790L138 878L168 886L80 790H-23L150 966H151L327 790H225Z" />
<glyph unicode="&#xcf;" horiz-adv-x="317" d="M100 728H217V0H100V728ZM-2 838Q-2 864 17 881T58 899Q80 899 99 882T118 838Q118 811 99 794T58 777Q36 777 17 794T-2 838V838ZM190 838Q190 864 209 881T251 899Q272 899 291 882T310 838Q310 811 291 794T251
777Q228 777 209 794T190 838V838Z" />
<glyph unicode="&#xd0;" horiz-adv-x="760" d="M100 0V728H307Q415 728 491 695T615 608T683 488T705 354Q705 272 676 207T597 96T481 25T342 0H100ZM217 112H321Q379 112 427 128T510 176T565 255T585 362Q585 430 563 478T504 557T424 602T339 617H217V112ZM275
413H567V309H275V413Z" />
<glyph unicode="&#xd1;" horiz-adv-x="844" d="M740 -26L181 516L215 502L218 0H100V753H106L656 211L629 219L627 728H743V-26H740ZM484 795Q451 795 430 809T390 840Q378 850 367 858T342 867Q329 867 321 858T308 832T305 795L247 796Q243 835 254 867T290
919T348 939Q374 939 393 925T429 897Q443 884 455 874T482 864Q501 864 507 885T514 939L572 938Q577 896 567 864T534 813T484 795Z" />
<glyph unicode="&#xd2;" horiz-adv-x="855" d="M55 363Q55 439 84 506T164 625T282 706T427 736Q503 736 570 707T689 625T770 506T800 363Q800 286 771 219T690 100T571 21T427 -8Q349 -8 282 20T164 99T84 217T55 363ZM175 363Q175 309 194 262T249 180T330
124T430 104Q482 104 527 124T607 179T660 262T680 363Q680 418 660 465T606 548T526 604T427 624Q374 624 328 604T248 548T194 465T175 363ZM262 905H386L455 771H385L262 905Z" />
<glyph unicode="&#xd3;" horiz-adv-x="855" d="M55 363Q55 439 84 506T164 625T282 706T427 736Q503 736 570 707T689 625T770 506T800 363Q800 286 771 219T690 100T571 21T427 -8Q349 -8 282 20T164 99T84 217T55 363ZM175 363Q175 309 194 262T249 180T330
124T430 104Q482 104 527 124T607 179T660 262T680 363Q680 418 660 465T606 548T526 604T427 624Q374 624 328 604T248 548T194 465T175 363ZM850 900L714 766H645L726 900H850Z" />
<glyph unicode="&#xd4;" horiz-adv-x="855" d="M55 363Q55 439 84 506T164 625T282 706T427 736Q503 736 570 707T689 625T770 506T800 363Q800 286 771 219T690 100T571 21T427 -8Q349 -8 282 20T164 99T84 217T55 363ZM175 363Q175 309 194 262T249 180T330
124T430 104Q482 104 527 124T607 179T660 262T680 363Q680 418 660 465T606 548T526 604T427 624Q374 624 328 604T248 548T194 465T175 363ZM494 782L407 870L437 878L349 782H246L419 958H420L596 782H494Z" />
<glyph unicode="&#xd5;" horiz-adv-x="855" d="M55 363Q55 439 84 506T164 625T282 706T427 736Q503 736 570 707T689 625T770 506T800 363Q800 286 771 219T690 100T571 21T427 -8Q349 -8 282 20T164 99T84 217T55 363ZM175 363Q175 309 194 262T249 180T330
124T430 104Q482 104 527 124T607 179T660 262T680 363Q680 418 660 465T606 548T526 604T427 624Q374 624 328 604T248 548T194 465T175 363ZM504 802Q471 802 450 816T410 847Q398 857 387 865T362 874Q349 874 341 865T328 839T325 802L267 803Q263 842 274
874T310 926T368 946Q394 946 413 932T449 904Q463 891 475 881T502 871Q521 871 527 892T534 946L592 945Q597 903 587 871T554 820T504 802Z" />
<glyph unicode="&#xd6;" horiz-adv-x="855" d="M55 363Q55 439 84 506T164 625T282 706T427 736Q503 736 570 707T689 625T770 506T800 363Q800 286 771 219T690 100T571 21T427 -8Q349 -8 282 20T164 99T84 217T55 363ZM175 363Q175 309 194 262T249 180T330
124T430 104Q482 104 527 124T607 179T660 262T680 363Q680 418 660 465T606 548T526 604T427 624Q374 624 328 604T248 548T194 465T175 363ZM266 830Q266 856 285 873T326 891Q348 891 367 874T386 830Q386 803 367 786T326 769Q304 769 285 786T266 830V830ZM458
830Q458 856 477 873T519 891Q540 891 559 874T578 830Q578 803 559 786T519 769Q496 769 477 786T458 830V830Z" />
<glyph unicode="&#xd7;" horiz-adv-x="522" d="M282 262Q304 285 325 306T370 351Q391 331 412 309T453 265Q432 244 411 222T368 177Q390 156 411 133T457 87L368 0Q346 22 323 44T277 89Q257 67 235 45T191 2Q169 23 148 44T105 86Q128 109 149 130T194 175L102
266L189 354L282 262Z" />
<glyph unicode="&#xd8;" horiz-adv-x="858" d="M760 682L160 -18L86 49L688 749L760 682ZM55 363Q55 439 84 506T164 625T282 706T427 736Q503 736 570 707T689 625T770 506T800 363Q800 286 771 219T690 100T571 21T427 -8Q349 -8 282 20T164 99T84 217T55 363ZM175
363Q175 309 194 262T249 180T330 124T430 104Q482 104 527 124T607 179T660 262T680 363Q680 418 660 465T606 548T526 604T427 624Q374 624 328 604T248 548T194 465T175 363Z" />
<glyph unicode="&#xd9;" horiz-adv-x="741" d="M205 262Q205 219 227 183T287 126T370 105Q418 105 456 126T516 183T538 262V728H653V259Q653 180 615 120T513 26T370 -8V-8Q292 -8 228 25T127 119T89 259V728H205V262ZM205 913H329L398 779H328L205 913Z" />
<glyph unicode="&#xda;" horiz-adv-x="741" d="M205 262Q205 219 227 183T287 126T370 105Q418 105 456 126T516 183T538 262V728H653V259Q653 180 615 120T513 26T370 -8V-8Q292 -8 228 25T127 119T89 259V728H205V262ZM794 908L658 774H589L670 908H794Z" />
<glyph unicode="&#xdb;" horiz-adv-x="741" d="M205 262Q205 219 227 183T287 126T370 105Q418 105 456 126T516 183T538 262V728H653V259Q653 180 615 120T513 26T370 -8V-8Q292 -8 228 25T127 119T89 259V728H205V262ZM437 790L350 878L380 886L292 790H189L362
966H363L539 790H437Z" />
<glyph unicode="&#xdc;" horiz-adv-x="741" d="M205 262Q205 219 227 183T287 126T370 105Q418 105 456 126T516 183T538 262V728H653V259Q653 180 615 120T513 26T370 -8V-8Q292 -8 228 25T127 119T89 259V728H205V262ZM210 838Q210 864 229 881T270 899Q292
899 311 882T330 838Q330 811 311 794T270 777Q248 777 229 794T210 838V838ZM402 838Q402 864 421 881T463 899Q484 899 503 882T522 838Q522 811 503 794T463 777Q440 777 421 794T402 838V838Z" />
<glyph unicode="&#xdd;" horiz-adv-x="704" d="M292 236L23 728H166L371 336L336 334L538 728H681L408 236V0H292V236ZM790 907L654 773H585L666 907H790Z" />
<glyph unicode="&#xde;" horiz-adv-x="611" d="M328 598Q388 598 433 583T509 537T554 464T570 364Q570 321 558 278T518 200T445 144T330 123H220V0H100V724H220V598H328ZM318 235Q354 235 378 246T419 275T442 316T450 362Q450 392 437 420T396 467T319 486H220V235H318Z"
/>
<glyph unicode="&#xdf;" horiz-adv-x="611" d="M107 459Q107 524 136 570T213 642T320 667Q385 667 429 648T496 596T519 525Q519 484 502 449T448 396Q482 382 508 357T549 293T564 197Q564 129 539 83T469 14T367 -10Q323 -10 294 2T251 27L295 95Q310 83 324
79T355 74Q388 74 409 91T440 138T451 203Q451 246 438 276T401 323T341 338H336L335 436Q367 436 386 453T406 500Q406 523 396 540T368 566T321 576Q265 576 242 536T219 421V0H107V337H42V428H107V459Z" />
<glyph unicode="&#xe0;" horiz-adv-x="597" d="M254 -11Q195 -11 147 14T70 88T42 211Q42 283 71 334T149 414T255 442Q316 442 353 418T412 361L406 345L417 423H520V0H408V103L419 76Q416 70 404 57T370 27T321 0T254 -11ZM285 81Q316 81 341 92T383 123T408
171V263Q400 289 382 308T339 339T282 350Q247 350 219 333T173 286T155 217Q155 179 173 148T221 99T285 81ZM156 637H280L349 503H279L156 637Z" />
<glyph unicode="&#xe1;" horiz-adv-x="597" d="M254 -11Q195 -11 147 14T70 88T42 211Q42 283 71 334T149 414T255 442Q316 442 353 418T412 361L406 345L417 423H520V0H408V103L419 76Q416 70 404 57T370 27T321 0T254 -11ZM285 81Q316 81 341 92T383 123T408
171V263Q400 289 382 308T339 339T282 350Q247 350 219 333T173 286T155 217Q155 179 173 148T221 99T285 81ZM441 632L305 498H236L317 632H441Z" />
<glyph unicode="&#xe2;" horiz-adv-x="597" d="M254 -11Q195 -11 147 14T70 88T42 211Q42 283 71 334T149 414T255 442Q316 442 353 418T412 361L406 345L417 423H520V0H408V103L419 76Q416 70 404 57T370 27T321 0T254 -11ZM285 81Q316 81 341 92T383 123T408
171V263Q400 289 382 308T339 339T282 350Q247 350 219 333T173 286T155 217Q155 179 173 148T221 99T285 81ZM386 503L299 591L329 599L241 503H138L311 679H312L488 503H386Z" />
<glyph unicode="&#xe3;" horiz-adv-x="597" d="M254 -11Q195 -11 147 14T70 88T42 211Q42 283 71 334T149 414T255 442Q316 442 353 418T412 361L406 345L417 423H520V0H408V103L419 76Q416 70 404 57T370 27T321 0T254 -11ZM285 81Q316 81 341 92T383 123T408
171V263Q400 289 382 308T339 339T282 350Q247 350 219 333T173 286T155 217Q155 179 173 148T221 99T285 81ZM392 478Q359 478 338 492T298 522Q286 533 275 541T250 549Q237 549 229 540T216 514T213 478H155Q151 517 162 550T198 602T256 622Q282 622 301 608T337
579Q351 566 363 556T390 546Q409 546 415 568T422 621H480Q485 579 475 547T442 496T392 478Z" />
<glyph unicode="&#xe4;" horiz-adv-x="597" d="M254 -11Q195 -11 147 14T70 88T42 211Q42 283 71 334T149 414T255 442Q316 442 353 418T412 361L406 345L417 423H520V0H408V103L419 76Q416 70 404 57T370 27T321 0T254 -11ZM285 81Q316 81 341 92T383 123T408
171V263Q400 289 382 308T339 339T282 350Q247 350 219 333T173 286T155 217Q155 179 173 148T221 99T285 81ZM157 549Q157 575 176 592T217 610Q239 610 258 593T277 549Q277 522 258 505T217 488Q195 488 176 505T157 549V549ZM349 549Q349 575 368 592T410 610Q431
610 450 593T469 549Q469 522 450 505T410 488Q387 488 368 505T349 549V549Z" />
<glyph unicode="&#xe5;" horiz-adv-x="597" d="M254 -11Q195 -11 147 14T70 88T42 211Q42 283 71 334T149 414T255 442Q316 442 353 418T412 361L406 345L417 423H520V0H408V103L419 76Q416 70 404 57T370 27T321 0T254 -11ZM285 81Q316 81 341 92T383 123T408
171V263Q400 289 382 308T339 339T282 350Q247 350 219 333T173 286T155 217Q155 179 173 148T221 99T285 81ZM202 567Q202 610 230 636T303 662Q346 662 375 636T404 567Q404 524 375 498T303 471Q260 471 231 497T202 567ZM262 565Q262 546 273 534T303 522Q322
522 333 534T344 565Q344 586 333 597T303 608Q285 608 274 597T262 565Z" />
<glyph unicode="&#xe6;" horiz-adv-x="828" d="M208 -11Q151 -11 114 6T60 53T42 121Q42 163 67 192T133 237T219 253Q265 253 309 239T376 205L358 140Q328 161 305 170T245 179Q223 179 205 174T176 156T165 124Q165 98 184 83T239 67Q258 67 278 73T317 91T346
117V170H391V68Q371 41 342 24T278 -2T208 -11ZM337 209V263Q337 298 321 317T283 342T246 349Q207 349 176 330T125 285L69 356Q101 390 148 415T262 441Q314 441 355 425T421 376T445 293V267L337 209ZM574 -11Q499 -11 447 18T366 98T337 215Q337 278 369 329T455
411T576 442Q663 442 719 392T795 249L454 134L428 197L695 292L671 279Q661 309 636 331T567 354Q532 354 505 337T463 291T447 221Q447 179 464 149T510 102T576 85Q602 85 626 94T671 118L722 35Q689 14 650 2T574 -11Z" />
<glyph unicode="&#xe7;" horiz-adv-x="465" d="M427 39Q399 16 359 3T277 -11Q207 -11 154 16T72 93T42 212Q42 281 73 331T156 407T265 434Q319 434 360 420T430 380L375 307Q359 320 334 331T275 343Q242 343 214 326T170 280T154 212Q154 176 171 146T217 99T286
81Q312 81 333 88T371 109L427 39ZM407 -146Q418 -157 434 -164T471 -172Q494 -172 514 -162T534 -131Q534 -116 522 -103T474 -90Q458 -90 441 -94T411 -102L393 -49L462 11L548 8L474 -76L451 -49Q462 -45 475 -43T502 -40Q556 -39 592 -61T628 -129Q628 -164
607 -187T554 -221T483 -232Q443 -232 416 -220T372 -191L407 -146Z" />
<glyph unicode="&#xe8;" horiz-adv-x="533" d="M279 -11Q204 -11 151 18T70 98T42 215Q42 278 74 329T160 411T281 442Q368 442 424 392T500 249L159 134L133 197L400 292L376 279Q366 309 341 331T272 354Q237 354 210 337T168 291T152 221Q152 179 169 149T215
102T281 85Q307 85 330 94T376 118L427 35Q394 14 355 2T279 -11ZM119 637H243L312 503H242L119 637Z" />
<glyph unicode="&#xe9;" horiz-adv-x="533" d="M279 -11Q204 -11 151 18T70 98T42 215Q42 278 74 329T160 411T281 442Q368 442 424 392T500 249L159 134L133 197L400 292L376 279Q366 309 341 331T272 354Q237 354 210 337T168 291T152 221Q152 179 169 149T215
102T281 85Q307 85 330 94T376 118L427 35Q394 14 355 2T279 -11ZM404 633L268 499H199L280 633H404Z" />
<glyph unicode="&#xea;" horiz-adv-x="533" d="M279 -11Q204 -11 151 18T70 98T42 215Q42 278 74 329T160 411T281 442Q368 442 424 392T500 249L159 134L133 197L400 292L376 279Q366 309 341 331T272 354Q237 354 210 337T168 291T152 221Q152 179 169 149T215
102T281 85Q307 85 330 94T376 118L427 35Q394 14 355 2T279 -11ZM349 504L262 592L292 600L204 504H101L274 680H275L451 504H349Z" />
<glyph unicode="&#xeb;" horiz-adv-x="533" d="M279 -11Q204 -11 151 18T70 98T42 215Q42 278 74 329T160 411T281 442Q368 442 424 392T500 249L159 134L133 197L400 292L376 279Q366 309 341 331T272 354Q237 354 210 337T168 291T152 221Q152 179 169 149T215
102T281 85Q307 85 330 94T376 118L427 35Q394 14 355 2T279 -11ZM120 549Q120 575 139 592T180 610Q202 610 221 593T240 549Q240 522 221 505T180 488Q158 488 139 505T120 549V549ZM312 549Q312 575 331 592T373 610Q394 610 413 593T432 549Q432 522 413 505T373
488Q350 488 331 505T312 549V549Z" />
<glyph unicode="&#xec;" horiz-adv-x="266" d="M77 423H189V0H77V423ZM233 621H357L426 487H356L233 621Z" />
<glyph unicode="&#xed;" horiz-adv-x="266" d="M77 423H189V0H77V423ZM518 872L382 738H313L394 872H518Z" />
<glyph unicode="&#xee;" horiz-adv-x="266" d="M77 423H189V0H77V423ZM462 743L375 831L405 839L317 743H214L387 919H388L564 743H462Z" />
<glyph unicode="&#xef;" horiz-adv-x="266" d="M77 423H189V0H77V423ZM233 533Q233 559 252 576T293 594Q315 594 334 577T353 533Q353 506 334 489T293 472Q271 472 252 489T233 533V533ZM425 533Q425 559 444 576T486 594Q507 594 526 577T545 533Q545 506 526
489T486 472Q463 472 444 489T425 533V533Z" />
<glyph unicode="&#xf0;" horiz-adv-x="555" d="M268 -11Q205 -11 154 16T72 95T42 216Q42 280 70 331T145 412T251 442Q295 442 329 423T387 374T425 307T441 236L400 254Q398 331 381 394T331 509T253 609T150 702L232 775Q292 735 343 677T433 550T492 405T513
256Q513 206 497 159T450 73T374 12T268 -11ZM277 81Q314 81 341 99T384 147T400 215Q400 253 385 283T342 332T277 350Q242 350 215 332T171 283T155 215Q155 178 171 148T215 99T277 81ZM452 672L199 515L162 589L415 745L452 672Z" />
<glyph unicode="&#xf1;" horiz-adv-x="569" d="M178 423L187 332L184 344Q205 388 249 414T353 441Q413 441 452 406T492 314V0H380V274Q379 306 362 325T308 346Q274 346 247 326T205 270T189 188V0H77V423H178ZM362 470Q329 470 308 484T268 514Q256 525 245
533T220 541Q207 541 199 532T186 506T183 470H125Q121 509 132 542T168 594T226 614Q252 614 271 600T307 571Q321 558 333 548T360 538Q379 538 385 560T392 613H450Q455 571 445 539T412 488T362 470Z" />
<glyph unicode="&#xf2;" horiz-adv-x="555" d="M42 216Q42 280 72 331T157 412T280 442Q351 442 403 413T484 332T513 216Q513 152 485 101T403 19T279 -11Q210 -11 157 16T73 95T42 216ZM155 215Q155 178 171 148T215 99T277 81Q314 81 341 99T384 147T400 215Q400
253 385 283T342 332T277 350Q242 350 215 332T171 283T155 215ZM120 637H244L313 503H243L120 637Z" />
<glyph unicode="&#xf3;" horiz-adv-x="555" d="M42 216Q42 280 72 331T157 412T280 442Q351 442 403 413T484 332T513 216Q513 152 485 101T403 19T279 -11Q210 -11 157 16T73 95T42 216ZM155 215Q155 178 171 148T215 99T277 81Q314 81 341 99T384 147T400 215Q400
253 385 283T342 332T277 350Q242 350 215 332T171 283T155 215ZM405 632L269 498H200L281 632H405Z" />
<glyph unicode="&#xf4;" horiz-adv-x="555" d="M42 216Q42 280 72 331T157 412T280 442Q351 442 403 413T484 332T513 216Q513 152 485 101T403 19T279 -11Q210 -11 157 16T73 95T42 216ZM155 215Q155 178 171 148T215 99T277 81Q314 81 341 99T384 147T400 215Q400
253 385 283T342 332T277 350Q242 350 215 332T171 283T155 215ZM350 503L263 591L293 599L205 503H102L275 679H276L452 503H350Z" />
<glyph unicode="&#xf5;" horiz-adv-x="555" d="M42 216Q42 280 72 331T157 412T280 442Q351 442 403 413T484 332T513 216Q513 152 485 101T403 19T279 -11Q210 -11 157 16T73 95T42 216ZM155 215Q155 178 171 148T215 99T277 81Q314 81 341 99T384 147T400 215Q400
253 385 283T342 332T277 350Q242 350 215 332T171 283T155 215ZM356 478Q323 478 302 492T262 522Q250 533 239 541T214 549Q201 549 193 540T180 514T177 478H119Q115 517 126 550T162 602T220 622Q246 622 265 608T301 579Q315 566 327 556T354 546Q373 546
379 568T386 621H444Q449 579 439 547T406 496T356 478Z" />
<glyph unicode="&#xf6;" horiz-adv-x="555" d="M42 216Q42 280 72 331T157 412T280 442Q351 442 403 413T484 332T513 216Q513 152 485 101T403 19T279 -11Q210 -11 157 16T73 95T42 216ZM155 215Q155 178 171 148T215 99T277 81Q314 81 341 99T384 147T400 215Q400
253 385 283T342 332T277 350Q242 350 215 332T171 283T155 215ZM121 549Q121 575 140 592T181 610Q203 610 222 593T241 549Q241 522 222 505T181 488Q159 488 140 505T121 549V549ZM313 549Q313 575 332 592T374 610Q395 610 414 593T433 549Q433 522 414 505T374
488Q351 488 332 505T313 549V549Z" />
<glyph unicode="&#xf7;" horiz-adv-x="508" d="M195 409Q195 435 213 453T255 471Q276 471 295 453T314 409Q314 382 295 366T255 349Q232 349 214 365T195 409V409ZM195 109Q195 135 213 152T255 170Q276 170 295 153T314 109Q314 81 295 65T255 48Q232 48 214
64T195 109V109ZM69 306H434V208H69V306Z" />
<glyph unicode="&#xf8;" horiz-adv-x="531" d="M492 413L105 -29L51 21L435 460L492 413ZM42 216Q42 280 72 331T157 412T280 442Q351 442 403 413T484 332T513 216Q513 152 485 101T403 19T279 -11Q210 -11 157 16T73 95T42 216ZM155 215Q155 178 171 148T215
99T277 81Q314 81 341 99T384 147T400 215Q400 253 385 283T342 332T277 350Q242 350 215 332T171 283T155 215Z" />
<glyph unicode="&#xf9;" horiz-adv-x="561" d="M213 -18Q155 -18 117 17T77 109V423H189V149Q191 118 207 98T258 78Q291 78 316 98T357 155T372 236V423H484V0H383L374 93L377 79Q364 51 340 29T284 -5T213 -18ZM124 637H248L317 503H247L124 637Z" />
<glyph unicode="&#xfa;" horiz-adv-x="561" d="M213 -18Q155 -18 117 17T77 109V423H189V149Q191 118 207 98T258 78Q291 78 316 98T357 155T372 236V423H484V0H383L374 93L377 79Q364 51 340 29T284 -5T213 -18ZM409 632L273 498H204L285 632H409Z" />
<glyph unicode="&#xfb;" horiz-adv-x="561" d="M213 -18Q155 -18 117 17T77 109V423H189V149Q191 118 207 98T258 78Q291 78 316 98T357 155T372 236V423H484V0H383L374 93L377 79Q364 51 340 29T284 -5T213 -18ZM354 503L267 591L297 599L209 503H106L279 679H280L456
503H354Z" />
<glyph unicode="&#xfc;" horiz-adv-x="561" d="M213 -18Q155 -18 117 17T77 109V423H189V149Q191 118 207 98T258 78Q291 78 316 98T357 155T372 236V423H484V0H383L374 93L377 79Q364 51 340 29T284 -5T213 -18ZM125 549Q125 575 144 592T185 610Q207 610 226
593T245 549Q245 522 226 505T185 488Q163 488 144 505T125 549V549ZM317 549Q317 575 336 592T378 610Q399 610 418 593T437 549Q437 522 418 505T378 488Q355 488 336 505T317 549V549Z" />
<glyph unicode="&#xfd;" horiz-adv-x="510" d="M112 -203L393 423H495L222 -203H112ZM221 -3L15 423H141L307 54L221 -3ZM390 872L254 738H185L266 872H390Z" />
<glyph unicode="&#xfe;" horiz-adv-x="601" d="M334 -11Q304 -11 276 -3T225 21T187 60L188 98V-203H77V780H189V335L178 360Q198 383 225 401T285 431T356 442Q415 442 462 414T536 335T563 213Q563 143 534 93T452 16T334 -11ZM312 78Q350 78 381 95T431 143T450
211Q450 250 432 281T385 329T320 347Q287 347 261 336T217 305T189 256V170Q196 143 213 122T256 90T312 78Z" />
<glyph unicode="&#xff;" horiz-adv-x="510" d="M112 -203L393 423H495L222 -203H112ZM221 -3L15 423H141L307 54L221 -3ZM105 533Q105 559 124 576T165 594Q187 594 206 577T225 533Q225 506 206 489T165 472Q143 472 124 489T105 533V533ZM297 533Q297 559 316
576T358 594Q379 594 398 577T417 533Q417 506 398 489T358 472Q335 472 316 489T297 533V533Z" />
<glyph unicode="&#x2013;" horiz-adv-x="517" d="M102 266H407V168H102V266Z" />
<glyph unicode="&#x2014;" horiz-adv-x="711" d="M101 266H610V168H101V266Z" />
<glyph unicode="&#x2018;" horiz-adv-x="186" d="M101 737L159 712Q137 689 124 654T118 584L30 577Q24 613 32 643T59 698T101 737Z" />
<glyph unicode="&#x2019;" horiz-adv-x="190" d="M86 562L29 588Q50 608 63 644T69 715L157 722Q163 694 154 662T127 604T86 562V562Z" />
<glyph unicode="&#x201a;" horiz-adv-x="190" d="M86 -80L29 -54Q50 -34 63 2T69 73L157 80Q163 52 154 20T127 -38T86 -80V-80Z" />
<glyph unicode="&#x201c;" horiz-adv-x="308" d="M234 737L292 712Q270 689 257 654T251 584L163 577Q157 613 165 643T192 698T234 737ZM104 737L162 712Q140 689 127 654T121 584L33 577Q27 613 35 643T62 698T104 737Z" />
<glyph unicode="&#x201d;" horiz-adv-x="308" d="M86 562L29 588Q50 608 63 644T69 715L157 722Q163 694 154 662T127 604T86 562V562ZM213 562L156 588Q177 608 190 644T196 715L284 722Q290 694 281 662T254 604T213 562V562Z" />
<glyph unicode="&#x201e;" horiz-adv-x="315" d="M86 -75L29 -49Q50 -29 63 7T69 78L157 85Q163 57 154 25T127 -33T86 -75V-75ZM213 -75L156 -49Q177 -29 190 7T196 78L284 85Q290 57 281 25T254 -33T213 -75V-75Z" />
<glyph unicode="&#x2022;" horiz-adv-x="486" d="M101 305Q101 345 120 377T171 429T242 449Q283 449 315 430T367 378T387 305Q387 265 368 233T316 181T243 162Q204 162 172 181T120 232T101 305V305Z" />
<glyph unicode="&#x2039;" horiz-adv-x="366" d="M38 243Q41 246 58 260T101 296T155 340T209 384T252 420T273 437V336Q269 332 254 319T221 290T188 261T169 243Q173 239 187 226T220 196T254 166T273 148V47L38 243Z" />
<glyph unicode="&#x203a;" horiz-adv-x="359" d="M324 243Q321 246 304 260T260 296T206 340T152 384T109 420T88 437V336Q92 332 107 319T140 290T174 261T193 243Q189 239 174 226T141 196T107 166T88 148V47L324 243Z" />
</font>
</defs>
</svg>
