<?xml version="1.0" standalone="no"?>
<!DOCTYPE svg PUBLIC "-//W3C//DTD SVG 1.1//EN" "http://www.w3.org/Graphics/SVG/1.1/DTD/svg11.dtd">
<svg xmlns="http://www.w3.org/2000/svg">
<defs >
<font id="JosefinSans" horiz-adv-x="550" ><font-face
    font-family="Josefin Sans Thin SemiBold"
    units-per-em="1000"
    panose-1="0 0 0 0 0 0 0 0 0 0"
    ascent="750"
    descent="-250"
    alphabetic="0" />
<glyph unicode=" " horiz-adv-x="300" />
<glyph unicode="!" horiz-adv-x="201" d="M123 754H223L153 184H53L123 754ZM73 -7Q45 -3 31 14T21 57Q26 81 47 95T96 106Q123 103 136 84T145 41Q140 15 121 3T73 -7Z" />
<glyph unicode="&quot;" horiz-adv-x="350" d="M252 731Q244 668 235 606T218 479H123L153 731H252ZM388 731Q380 668 371 606T353 479H258L289 731H388Z" />
<glyph unicode="#" horiz-adv-x="580" d="M351 653Q339 606 327 560T304 466H390Q401 513 412 559T436 653H538Q526 606 514 560T491 466H586Q581 442 576 418T565 369H468Q463 347 458 325T447 280H543Q537 256 531 232T519 182H423Q412 136 401 91T379 0H278Q288
46 299 91T322 182H236Q226 136 215 91T192 0H90Q101 46 112 91T134 182H47Q53 207 59 231T71 280H158Q165 303 169 325T180 369H93Q99 393 104 417T115 466H202Q214 513 225 559T250 653H351ZM281 369Q276 347 271 325T260 280H346Q351 303 356 325T366 369H281Z"
/>
<glyph unicode="$" horiz-adv-x="582" d="M213 -68L266 372L305 407L353 795H422L371 378L332 343L282 -68H213ZM522 567Q485 590 442 607T359 626Q328 627 306 621T268 602T244 574T234 540Q232 511 250 488T301 447T368 412Q410 394 448 368T508 300T523 192Q519
153 500 116T448 51T368 7T258 -6Q213 -4 171 7T91 38T21 86L83 173Q106 153 135 136T197 109T261 96Q297 96 327 107T378 141T402 198Q405 227 389 249T347 288T290 320Q258 335 225 353T165 395T123 455T113 537Q120 598 152 641T236 707T354 729Q406 727 446
716T519 688T577 652L522 567Z" />
<glyph unicode="%" horiz-adv-x="829" d="M214 278Q181 280 155 292T112 327T87 383T82 457Q87 508 107 549T163 613T251 634Q282 632 307 620T350 585T376 530T381 456Q377 405 357 364T301 300T214 278ZM222 357Q242 356 254 370T274 409T283 461Q285 488 283
505T274 533T260 548T241 554Q221 555 209 542T190 506T180 452Q178 419 183 399T198 368T222 357ZM605 -21Q572 -19 547 -7T504 29T479 84T475 158Q480 209 500 250T556 314T644 336Q676 334 701 321T744 286T769 231T774 157Q769 107 749 66T693 1T605 -21ZM614
58Q635 58 647 72T666 111T675 163Q678 199 673 218T658 246T634 256Q614 256 601 244T582 208T572 153Q570 121 575 100T591 69T614 58ZM752 635L230 -2L120 0L640 635H752Z" />
<glyph unicode="&amp;" horiz-adv-x="715" d="M643 0Q632 0 610 0T565 0T525 0T508 0L228 452Q219 466 209 488T192 537T188 591Q192 633 216 671T285 735T392 760Q456 760 502 735T575 673L507 596Q479 626 453 644T398 662Q354 662 332 637T307 580Q306 567
310 551T321 522T331 503L643 0ZM320 341Q293 343 267 334T220 307T186 267T170 216Q167 181 183 153T228 109T295 92Q330 90 356 99T402 125T435 163L501 95Q469 48 410 17T267 -11Q199 -8 148 22T70 103T49 217Q54 266 80 306T146 374T233 418T329 432L320 341ZM564
434H670L512 126L434 177L564 434Z" />
<glyph unicode="&apos;" horiz-adv-x="169" d="M227 731Q219 668 210 606T192 479H95L126 731H227Z" />
<glyph unicode="(" horiz-adv-x="389" d="M91 286Q98 364 120 435T173 566T242 674T316 756L399 705Q354 661 314 598T245 456T207 280Q199 191 209 115T242 -21T298 -127L202 -168Q168 -122 139 -53T96 102T91 286V286Z" />
<glyph unicode=")" horiz-adv-x="389" d="M319 304Q312 226 290 155T237 24T168 -84T94 -165L11 -114Q56 -70 96 -8T165 135T202 311Q211 399 201 475T168 612T112 717L208 758Q243 712 272 643T315 488T319 304V304Z" />
<glyph unicode="*" horiz-adv-x="335" d="M198 517Q179 506 160 496T121 475Q115 490 108 505T94 536Q114 545 133 555T172 576Q156 587 139 598T106 619Q115 633 124 647T144 676Q161 665 178 654T213 633L223 720H293Q290 698 287 677T281 633Q301 643 321 653T361
675Q368 661 374 647T387 618Q366 608 347 597T306 575V575Q323 564 340 554T375 533Q364 518 354 503T333 473Q316 483 299 494T265 516Q262 496 260 476T254 434H188L198 517Z" />
<glyph unicode="+" horiz-adv-x="552" d="M270 417H372L356 283H488L476 185H344L327 52H225L242 185H110L122 283H254L270 417Z" />
<glyph unicode="," horiz-adv-x="204" d="M44 -206L-13 -167Q11 -147 21 -109T27 -33L125 -34Q130 -62 122 -95T94 -158T44 -206Z" />
<glyph unicode="-" horiz-adv-x="305" d="M87 270H274L262 172H75L87 270Z" />
<glyph unicode="." horiz-adv-x="166" d="M33 54Q33 83 55 102T102 122Q121 122 137 106T153 66Q153 47 143 32T118 9T87 0Q66 0 50 15T33 54V54Z" />
<glyph unicode="/" horiz-adv-x="399" d="M494 748Q399 556 305 365T116 -19H15Q110 173 203 364T392 748H494Z" />
<glyph unicode="0" horiz-adv-x="648" d="M308 0Q255 1 210 18T130 71T76 160T59 287Q60 309 65 344T81 423T115 509T172 587T256 644T374 665Q425 664 472 645T555 586T608 490T618 355Q613 282 591 218T531 104T437 27T308 0ZM322 110Q364 109 395 132T448 192T482
276T496 369Q498 438 479 478T427 536T356 555Q314 556 283 533T230 473T196 389T182 296Q179 228 198 187T250 129T322 110Z" />
<glyph unicode="1" horiz-adv-x="359" d="M127 660H310L229 0H112L179 548H113L127 660Z" />
<glyph unicode="2" horiz-adv-x="575" d="M39 0Q140 91 207 156T314 267T375 345T402 401T409 448Q409 486 395 509T356 544T299 556Q267 556 245 546T209 518T189 482T183 444Q183 418 190 397T210 358L131 293Q117 309 103 334T79 390T69 453Q69 486 82 523T123
593T198 647T312 668Q381 668 430 645T505 578T531 474Q531 433 521 394T483 312T410 217T293 96L239 112H513L500 0H39Z" />
<glyph unicode="3" horiz-adv-x="507" d="M471 660L277 376L214 410Q241 417 261 418T296 420Q341 417 380 395T444 332T468 237Q468 195 455 153T414 74T339 16T228 -7Q197 -7 161 1T92 29T35 78L105 169Q126 137 160 121T227 105Q257 105 279 115T317 143T340
183T348 232Q348 284 312 312T218 342Q195 343 174 338T141 328L138 332L300 563L334 548H106L120 660H471Z" />
<glyph unicode="4" horiz-adv-x="518" d="M-5 153V154L468 668H469L417 242H500L489 153H406L388 0H271L290 153H-5ZM330 412L167 227L156 242H300L323 422L330 412Z" />
<glyph unicode="5" horiz-adv-x="519" d="M235 -8Q210 -8 175 0T105 28T45 75L117 164Q132 143 152 130T194 112T231 106Q274 106 301 123T340 167T353 225Q353 260 341 282T308 318T264 336T220 343Q192 343 160 335T94 304H92L163 660H477L465 548H237L208 405L202
429Q214 433 232 435T270 438Q302 437 337 426T404 390T454 326T473 231Q473 191 460 149T419 72T345 15T235 -8Z" />
<glyph unicode="6" horiz-adv-x="571" d="M283 -8Q217 -8 166 21T85 104T55 233Q55 283 71 337T127 447T234 558T403 667L469 578Q385 547 326 501T233 404T189 308L161 315Q193 368 237 396T350 425Q377 425 408 415T467 380T513 319T531 229Q531 192 516 150T470
73T393 15T283 -8ZM284 96Q321 96 345 109T384 143T405 185T411 224Q411 257 396 280T355 316T295 330Q257 330 233 317T195 285T175 246T169 209Q169 178 184 153T224 112T284 96Z" />
<glyph unicode="7" horiz-adv-x="495" d="M528 660L192 0H57L348 563L389 548H75L90 660H528Z" />
<glyph unicode="8" horiz-adv-x="559" d="M40 201Q40 254 60 293T114 361T186 404Q165 424 151 448T138 507Q139 533 149 561T181 613T237 653T320 668Q371 668 411 649T475 598T499 526Q499 477 478 447T419 391Q443 376 466 353T505 298T521 223Q521 199 512
169T484 108T436 51T365 9T269 -8Q200 -8 149 21T69 98T40 201ZM159 207Q159 176 172 149T210 106T271 90Q310 90 340 108T387 157T405 223Q405 255 390 281T350 324T291 340Q248 340 219 320T174 269T159 207ZM249 501Q248 475 268 456T314 437Q338 437 353 447T377
474T385 505Q385 535 367 552T322 570Q290 570 271 551T249 501Z" />
<glyph unicode="9" horiz-adv-x="562" d="M252 215Q219 215 186 229T124 268T80 331T65 416Q66 453 81 493T128 569T206 626T316 647Q384 647 435 618T516 538T544 425Q543 363 520 307T450 199T334 97T165 -4L98 86Q185 119 250 159T356 243T405 330L436 322Q402
270 360 242T252 215ZM297 310Q353 309 386 336T426 424Q429 456 416 482T376 526T315 543Q271 544 243 525T201 477T186 420Q185 387 199 363T239 325T297 310Z" />
<glyph unicode=":" horiz-adv-x="178" d="M33 54Q33 83 55 102T102 122Q121 122 137 106T153 66Q153 46 143 32T117 9T87 0Q65 0 49 15T33 54V54ZM67 331Q67 360 89 379T136 399Q155 399 171 383T187 344Q187 324 177 309T151 286T121 277Q100 277 84 292T67 331V331Z" />
<glyph unicode=";" horiz-adv-x="204" d="M98 308Q98 327 108 342T134 367T166 376Q186 376 202 360T218 320Q218 290 196 272T150 254Q130 254 114 269T98 308V308ZM171 88Q142 35 114 -17T58 -122H-33Q-6 -69 19 -17T72 88H171Z" />
<glyph unicode="&lt;" horiz-adv-x="583" d="M462 -14Q359 50 256 114T50 242Q168 306 287 370T524 497L507 360Q454 331 399 302T288 242Q336 212 384 183T479 123V123L462 -14Z" />
<glyph unicode="=" horiz-adv-x="719" d="M126 203H640L628 105H114L126 203ZM150 400H664L652 302H138L150 400Z" />
<glyph unicode="&gt;" horiz-adv-x="577" d="M90 123Q146 153 200 182T311 242Q263 272 216 301T119 360L136 497Q240 433 342 370T549 242Q429 178 311 114T73 -14V-14L90 123Z" />
<glyph unicode="?" horiz-adv-x="446" d="M138 265Q142 297 154 318T185 355T226 384T274 415Q319 447 342 482T365 558Q365 583 355 602T326 633T280 645Q243 645 219 635T179 604T149 551V551Q129 559 108 567T65 584Q75 604 90 631T132 684T197 727T292 744Q344
744 383 720T445 656T468 566Q468 502 436 455T345 368Q327 356 303 341T260 303T237 246L227 166H126L138 265ZM153 -5Q133 -5 117 9T100 48Q100 77 122 96T168 116Q188 116 204 100T220 60Q220 31 199 13T153 -5V-5Z" />
<glyph unicode="@" horiz-adv-x="1031" d="M444 -222Q362 -222 289 -198T160 -126T72 -4T40 168Q40 231 59 299T120 432T228 547T386 628T601 659Q696 659 769 632T893 555T970 440T997 300Q997 238 978 183T926 84T846 17T742 -8Q700 -8 670 12T625 67T619 148L638
97Q623 73 593 48T524 6T445 -11Q390 -11 347 12T279 80T254 186Q254 257 285 315T371 408T498 442Q542 442 570 431T617 402T648 361L665 423H771L734 155Q732 138 734 124T745 102T770 94Q792 94 814 109T853 153T882 218T893 300Q893 374 858 435T755 534T585
571Q478 571 402 542T275 466T195 364T154 259T141 171Q141 91 166 34T234 -61T336 -116T461 -135Q519 -135 575 -117T681 -67L727 -132Q688 -162 639 -182T540 -212T444 -222ZM489 81Q519 81 544 92T588 123T620 171L633 263Q629 289 613 308T573 339T517 350Q477
350 444 329T392 274T373 200Q373 167 387 140T428 97T489 81Z" />
<glyph unicode="A" horiz-adv-x="699" d="M109 0H-5L410 758H417L646 0H512L355 574L446 630L109 0ZM230 271H480L507 171H183L230 271Z" />
<glyph unicode="B" horiz-adv-x="624" d="M359 728Q460 728 517 691T574 567Q574 528 562 487T522 414T443 369L440 373Q472 367 501 349T548 299T567 221Q567 163 545 121T487 52T403 13T303 0H72L161 728H359ZM338 418Q370 418 392 429T427 458T446 497T452
536Q452 579 425 599T348 620H268L243 418H338ZM307 108Q351 108 382 122T431 163T449 226Q449 261 431 280T383 308T322 317H231L206 108H307Z" />
<glyph unicode="C" horiz-adv-x="699" d="M622 40Q607 31 577 19T508 -3T422 -13Q362 -13 301 6T188 65T105 170T74 326Q74 385 87 443T130 554T204 646T311 709T454 732Q531 732 590 709T686 658L626 552Q601 574 560 595T465 620Q400 622 350 601T266 540T213
448T195 335Q195 283 211 240T258 165T332 117T427 100Q467 100 497 108T549 128T586 147L622 40Z" />
<glyph unicode="D" horiz-adv-x="758" d="M72 0L161 728H392Q492 728 558 697T662 613T713 496T720 362Q713 278 680 211T593 96T473 25T333 0H72ZM202 112H328Q384 112 432 128T516 177T575 257T602 370Q609 439 592 486T541 562T467 604T386 617H263L202 112Z" />
<glyph unicode="E" horiz-adv-x="659" d="M161 728H644L631 620H268L244 420H566L552 310H230L206 111H583L569 0H72L161 728Z" />
<glyph unicode="F" horiz-adv-x="593" d="M161 728H602L589 618H268L243 411H523L508 300H228L192 0H72L161 728Z" />
<glyph unicode="G" horiz-adv-x="764" d="M664 50Q644 34 605 20T519 -2T431 -11Q402 -11 365 -4T287 19T208 60T139 123T90 212T73 329Q74 381 88 437T133 546T209 640T321 707T471 731Q532 730 595 714T709 664L657 559Q619 585 568 600T469 614Q406 614 360
596T283 548T232 482T204 406T194 332Q194 281 211 244T256 180T317 137T385 113T446 104Q475 103 504 107T555 122L570 252H433L447 363H702L664 50Z" />
<glyph unicode="H" horiz-adv-x="793" d="M752 728L663 0H543L582 310H230L192 0H72L161 728H281L244 423H595L632 728H752Z" />
<glyph unicode="I" horiz-adv-x="322" d="M161 728H281L192 0H72L161 728Z" />
<glyph unicode="J" horiz-adv-x="382" d="M270 141Q259 50 216 -14T107 -113T-40 -151V-151L-26 -38Q20 -35 58 -16T121 43T154 144L225 728H342L270 141Z" />
<glyph unicode="K" horiz-adv-x="687" d="M244 449L236 412L256 435L565 728H716L376 410L637 0H490L281 336L225 286L190 0H72L161 728H279L244 449Z" />
<glyph unicode="L" horiz-adv-x="620" d="M161 728H277L202 112H561L547 0H72L161 728Z" />
<glyph unicode="M" horiz-adv-x="936" d="M184 0H72L164 754H165L489 199L440 210L897 754H899L806 0H690L751 491V432L442 59H440L217 432L243 486L184 0Z" />
<glyph unicode="N" horiz-adv-x="844" d="M711 -26H708L216 517L248 502L188 0H72L164 753H169L652 210L627 219L687 728H803L711 -26Z" />
<glyph unicode="O" horiz-adv-x="856" d="M423 -7Q359 -7 297 14T184 78T104 186T74 338Q74 404 98 474T172 603T296 698T470 735Q535 735 597 714T709 650T789 542T819 389Q819 323 795 254T721 125T597 30T423 -7ZM425 105Q497 105 549 131T634 198T683 288T699
383Q699 432 682 475T633 551T559 604T465 623Q393 623 342 598T257 530T209 440T194 345Q194 297 211 254T258 177T331 124T425 105Z" />
<glyph unicode="P" horiz-adv-x="598" d="M366 728Q421 728 465 715T540 674T587 610T604 523Q604 477 589 430T541 342T455 278T325 253H223L192 0H72L161 728H366ZM335 365Q377 365 405 380T450 417T475 464T483 506Q483 530 473 555T437 598T366 616H268L237 365H335Z" />
<glyph unicode="Q" horiz-adv-x="943" d="M646 85L892 114L878 0H491L646 85ZM465 -7Q401 -7 339 14T226 78T146 186T116 338Q116 404 140 474T214 603T338 698T512 735Q577 735 639 714T751 650T831 542T861 389Q861 323 837 254T763 125T639 30T465 -7ZM467
105Q539 105 591 131T676 198T725 288T741 383Q741 432 724 475T675 551T601 604T507 623Q435 623 384 598T299 530T251 440T236 345Q236 297 253 254T300 177T373 124T467 105Z" />
<glyph unicode="R" horiz-adv-x="671" d="M366 728Q426 728 473 713T553 667T599 594T606 494Q600 451 582 408T530 331T446 275T325 253H219L188 0H72L161 728H366ZM337 365Q389 365 420 385T467 435T485 490Q488 508 485 529T469 570T434 603T372 616H263L233
365H337ZM454 296L605 0H469L315 293L454 296Z" />
<glyph unicode="S" horiz-adv-x="574" d="M522 567Q485 590 442 607T359 626Q328 627 306 621T268 602T244 574T234 540Q232 511 250 488T301 447T368 412Q410 394 448 368T508 300T523 192Q519 153 500 116T448 51T368 7T258 -6Q213 -4 171 7T91 38T21 86L83
173Q106 153 135 136T197 109T261 96Q297 96 327 107T378 141T402 198Q405 227 389 249T347 288T290 320Q258 335 225 353T165 395T123 455T113 537Q120 598 152 641T236 707T354 729Q406 727 446 716T519 688T577 652L522 567Z" />
<glyph unicode="T" horiz-adv-x="583" d="M109 728H596L581 614H396L320 0H200L276 614H95L109 728Z" />
<glyph unicode="U" horiz-adv-x="766" d="M224 262Q219 219 235 183T286 126T366 105Q413 105 452 126T517 183T548 262L605 728H725L668 259Q658 180 614 120T501 26T352 -8V-8Q274 -8 214 25T124 119T104 259L161 728H281L224 262Z" />
<glyph unicode="V" horiz-adv-x="729" d="M334 -28L102 728H241L401 160L335 173L617 728H754L338 -28H334Z" />
<glyph unicode="W" horiz-adv-x="1017" d="M102 724H237L354 209L336 217L520 575L555 416L300 -34L102 724ZM458 724H574L712 219L690 223L917 724H1041L664 -32L458 724Z" />
<glyph unicode="X" horiz-adv-x="659" d="M90 728H237L623 0H473L90 728ZM-9 0L294 401L337 286L134 0H-9ZM361 443L562 728H703L411 344L361 443Z" />
<glyph unicode="Y" horiz-adv-x="704" d="M295 236L87 728H229L386 336L351 334L601 728H745L412 236L383 0H266L295 236Z" />
<glyph unicode="Z" horiz-adv-x="665" d="M2 0L502 648L517 616H211Q191 616 172 624T141 647T131 682L141 765H248L247 751Q246 739 252 734T276 728H699L210 98L200 112H630L617 0H2Z" />
<glyph unicode="[" horiz-adv-x="351" d="M165 758H367L355 659H253L166 -54H268L256 -151H54L165 758Z" />
<glyph unicode="\" horiz-adv-x="406" d="M201 748Q248 556 295 365T389 -19H276Q229 173 182 364T87 748H201Z" />
<glyph unicode="]" horiz-adv-x="365" d="M127 758H329L218 -151H15L28 -54H130L217 659H115L127 758Z" />
<glyph unicode="^" horiz-adv-x="477" d="M348 487Q345 493 336 507T317 535T304 556Q299 550 287 536T261 507T243 487H173Q209 533 245 578T318 670V670Q343 624 367 579T417 487H348Z" />
<glyph unicode="_" horiz-adv-x="609" d="M114 97H520L508 0H102L114 97Z" />
<glyph unicode="`" horiz-adv-x="204" d="M161 621L226 487H156L37 621H161Z" />
<glyph unicode="a" horiz-adv-x="601" d="M221 -9Q176 -9 135 15T68 86T42 197Q42 242 58 285T105 363T180 420T279 442Q323 442 353 431T402 401T433 359L424 340L446 423H549L498 0H386L398 101L405 74Q401 69 387 56T350 27T295 2T221 -9ZM283 81Q309 81 332
91T375 121T406 168L417 260Q412 287 396 307T355 339T299 350Q260 350 234 337T190 302T166 256T158 210Q158 172 173 143T217 98T283 81Z" />
<glyph unicode="b" horiz-adv-x="607" d="M320 -10Q262 -10 223 13T161 72L176 100L163 0H51L147 780H258L204 339L207 377Q233 405 274 423T367 442Q421 442 466 419T539 348T566 230Q566 168 536 113T451 24T320 -10ZM307 84Q347 84 374 97T418 132T443 177T451
223Q451 263 436 292T393 338T327 354Q282 354 248 330T197 268L185 177Q190 161 199 145T223 115T258 93T307 84Z" />
<glyph unicode="c" horiz-adv-x="470" d="M407 28Q378 10 340 -1T262 -12Q232 -12 195 -2T122 31T64 93T41 192Q41 235 56 277T101 355T175 411T277 432Q338 432 381 414T452 367L388 299Q373 314 347 327T284 340Q251 340 221 322T173 272T154 200Q154 166 170
139T214 96T282 79Q304 79 323 85T359 102L407 28Z" />
<glyph unicode="d" horiz-adv-x="607" d="M247 -10Q187 -9 140 19T66 96T42 200Q43 246 60 289T110 367T189 422T294 442Q350 441 392 418T455 361L434 334L488 780H600L504 0H392L403 93L411 67Q376 33 336 11T247 -10ZM281 85Q310 84 335 94T380 124T414 172L424
262Q420 289 404 309T362 341T305 354Q263 354 230 338T178 290T157 216Q156 178 171 149T214 103T281 85Z" />
<glyph unicode="e" horiz-adv-x="535" d="M281 85Q303 85 324 93T366 113L406 26Q375 9 339 0T269 -10Q201 -10 150 14T71 87T42 206Q42 246 57 287T102 362T179 418T289 440Q326 440 361 431T426 398T476 336T505 235L152 141L134 206L425 286L386 272Q376 309
349 331T285 353Q242 353 213 334T169 284T154 219Q154 170 173 141T221 98T281 85Z" />
<glyph unicode="f" horiz-adv-x="402" d="M86 0L125 325H53L66 424H138L158 590Q169 678 219 728T355 779Q379 779 407 772T456 750L398 669Q390 679 379 683T356 687Q322 687 299 664T270 587L250 424H382L369 325H237L198 0H86Z" />
<glyph unicode="g" horiz-adv-x="615" d="M258 -211Q202 -211 163 -199T95 -167T41 -124L117 -48Q136 -68 157 -82T206 -105T268 -113Q304 -113 332 -100T378 -62T399 -3L412 103L418 83Q398 43 355 17T249 -10Q191 -10 144 16T70 90T42 208Q42 243 56 283T101
360T177 419T286 442Q346 442 388 421T448 368L437 349L461 423H564L508 -22Q501 -81 467 -123T379 -188T258 -211ZM306 350Q265 350 237 336T191 300T165 254T157 208Q157 169 173 141T218 97T288 81Q315 81 340 92T386 122T420 168L431 260Q426 287 409 307T365
339T306 350Z" />
<glyph unicode="h" horiz-adv-x="570" d="M200 348Q228 389 274 415T381 441Q442 441 476 406T505 314L467 0H355L388 275Q390 306 376 325T326 345Q291 345 261 325T212 269T187 187L164 0H52L147 780H257L202 325L200 348Z" />
<glyph unicode="i" horiz-adv-x="266" d="M103 423H215L163 0H51L103 423ZM367 1081Q368 1107 387 1125T435 1144Q457 1144 477 1131T497 1089Q496 1062 477 1044T429 1025Q408 1025 388 1038T367 1081Z" />
<glyph unicode="j" horiz-adv-x="279" d="M-22 -138Q13 -115 35 -82T63 0L116 423H228L175 0Q166 -72 132 -124T33 -207L-22 -138ZM376 1081Q377 1107 396 1125T444 1144Q466 1144 486 1131T506 1089Q505 1062 486 1044T438 1025Q417 1025 397 1038T376 1081Z" />
<glyph unicode="k" horiz-adv-x="518" d="M52 0L147 780H259L164 0H52ZM303 284L462 0H331L221 220L303 284ZM145 127V234L426 433L489 373L145 127Z" />
<glyph unicode="l" horiz-adv-x="267" d="M147 780H259L164 0H52L147 780Z" />
<glyph unicode="m" horiz-adv-x="841" d="M204 423L203 332L201 347Q231 391 275 416T374 442Q426 442 457 421T493 354L490 352Q521 392 565 417T655 442Q717 442 749 407T776 315L738 0H626L660 272Q662 302 653 322T611 345Q575 345 546 323T499 265T475 190L451
0H339L372 272Q375 302 365 322T322 345Q286 345 258 323T211 265T187 190L164 0H52L103 423H204Z" />
<glyph unicode="n" horiz-adv-x="570" d="M204 423L205 332L199 346Q226 389 272 415T380 441Q441 441 476 406T505 314L467 0H355L388 274Q391 306 376 325T323 345Q289 345 260 325T212 269T187 187L164 0H52L103 423H204Z" />
<glyph unicode="o" horiz-adv-x="557" d="M270 -11Q231 -11 191 2T117 40T63 105T42 198Q42 237 55 279T97 358T173 417T289 440Q347 440 398 416T483 346T516 232Q516 206 509 174T485 109T440 49T369 6T270 -11ZM273 82Q321 82 349 105T389 163T402 227Q402
262 391 285T361 323T322 343T285 349Q239 349 210 326T168 269T155 203Q155 158 174 132T220 94T273 82Z" />
<glyph unicode="p" horiz-adv-x="596" d="M294 -11Q249 -11 206 10T144 64L170 93L137 -203H26L105 431H202L201 333L177 363Q220 398 268 420T361 442Q415 442 459 418T530 351T557 250Q557 181 525 122T433 26T294 -11ZM291 83Q337 83 371 104T424 159T443 233Q443
268 426 295T382 338T322 353Q293 353 268 342T223 311T189 263L179 175Q183 158 191 142T213 113T246 91T291 83Z" />
<glyph unicode="q" horiz-adv-x="600" d="M238 -9Q190 -10 145 14T70 85T41 194Q41 242 59 286T109 366T186 421T281 442Q346 442 382 418T436 361L426 346L444 423H549L471 -203H359L397 101L425 76Q420 70 406 57T369 28T313 1T238 -9ZM270 80Q299 80 324 90T369
121T404 169L417 256Q413 274 404 290T381 320T347 341T301 349Q256 349 222 328T169 273T150 199Q150 164 166 137T210 95T270 80Z" />
<glyph unicode="r" horiz-adv-x="393" d="M204 423L198 324Q220 362 252 388T319 428T381 442L362 330Q315 334 277 313T215 257T186 182L163 0H52L103 423H204Z" />
<glyph unicode="s" horiz-adv-x="424" d="M190 -9Q171 -9 140 -4T77 19T19 69L74 128Q97 102 118 90T157 74T190 70Q224 70 237 86T250 118Q250 136 237 147T204 166T162 182Q115 201 92 231T69 300Q69 320 76 343T101 388T149 424T226 439Q250 439 277 435T333
419T386 384L335 319Q315 342 291 352T242 362Q221 362 208 355T189 338T183 316Q184 298 197 287T231 268T273 251Q302 240 323 224T356 184T364 127Q362 102 350 78T318 34T265 3T190 -9Z" />
<glyph unicode="t" horiz-adv-x="373" d="M163 609H275L253 423H363L353 335H242L201 0H89L130 335H57L68 423H141L163 609Z" />
<glyph unicode="u" horiz-adv-x="561" d="M185 -18Q127 -18 93 17T65 108L103 423H215L181 148Q179 117 193 98T241 78Q275 78 303 98T351 155T375 236L398 423H510L458 0H357L359 94L363 79Q346 52 319 30T258 -5T185 -18Z" />
<glyph unicode="v" horiz-adv-x="510" d="M229 -11L38 423H171L285 107L217 109L393 423H518L233 -11H229Z" />
<glyph unicode="w" horiz-adv-x="679" d="M436 -13L337 267L183 -12H176L38 423H148L234 158L195 165L309 361L288 423H384L465 173L443 171L576 423H686L443 -13H436Z" />
<glyph unicode="x" horiz-adv-x="481" d="M452 0H317L46 423H183L452 0ZM261 276L372 423H485L292 195L261 276ZM234 148L111 0H-2L191 224L234 148Z" />
<glyph unicode="y" horiz-adv-x="513" d="M73 -203L430 423H533L183 -203H73ZM207 -3L54 423H180L300 54L207 -3Z" />
<glyph unicode="z" horiz-adv-x="487" d="M142 331Q108 331 87 353T70 416L75 464H160L159 450Q157 432 164 428T189 423H459L170 68L151 92H415L404 0H-3L293 364L306 331H142Z" />
<glyph unicode="{" horiz-adv-x="359" d="M330 659Q309 659 297 652T277 624T264 558L249 431Q245 395 230 369T198 327T167 302Q178 294 191 278T213 236T217 175L201 49Q196 5 198 -17T211 -46T242 -54H284L272 -152H202Q177 -152 155 -151T115 -141T91 -108T88
-40L108 116Q112 143 109 174T92 229T44 253V253L56 348Q89 350 109 372T139 426T153 486L172 638Q178 685 191 710T222 745T264 756T313 758H383L371 659H330Z" />
<glyph unicode="|" horiz-adv-x="295" d="M178 711H279L162 -236H61L178 711Z" />
<glyph unicode="}" horiz-adv-x="363" d="M73 -54Q94 -54 106 -47T125 -17T138 49L152 167Q158 207 172 234T204 277T235 302Q225 311 211 327T189 369T185 431L200 558Q206 603 205 624T192 652T160 659H119L131 758H201Q226 758 249 757T288 746T312 711T313
638L293 477Q291 456 292 434T301 392T322 361T358 348V348L347 253Q324 252 307 240T278 209T260 168T250 124L231 -32Q225 -79 213 -104T181 -139T139 -150T89 -152H19L31 -54H73Z" />
<glyph unicode="~" horiz-adv-x="459" d="M322 425Q284 427 261 445T219 483Q207 496 196 506T168 518Q153 519 142 508T124 479T116 437L47 443Q49 488 66 525T114 583T185 602Q215 601 235 584T273 547Q287 531 300 519T329 506Q344 505 354 516T369 547T375
590L445 585Q445 536 428 499T383 443T322 425Z" />
<glyph unicode="&#xa0;" horiz-adv-x="300" />
<glyph unicode="&#xa1;" horiz-adv-x="201" d="M99 -205H-1L69 365H169L99 -205ZM149 555Q177 552 191 534T201 491Q196 467 175 453T126 442Q99 446 86 465T77 508Q82 533 101 545T149 555Z" />
<glyph unicode="&#xa2;" horiz-adv-x="470" d="M273 491H341L273 -68H205L273 491ZM407 28Q378 10 340 -1T262 -12Q232 -12 195 -2T122 31T64 93T41 192Q41 235 56 277T101 355T175 411T277 432Q338 432 381 414T452 367L388 299Q373 314 347 327T284 340Q251
340 221 322T173 272T154 200Q154 166 170 139T214 96T282 79Q304 79 323 85T359 102L407 28Z" />
<glyph unicode="&#xa3;" horiz-adv-x="580" d="M427 398L413 285H91L104 398H427ZM188 547Q194 594 226 632T311 692T429 714Q502 714 548 686T615 609L524 551Q516 564 504 575T471 594T418 602Q381 602 356 591T318 558T300 504L264 212L261 193Q258 177 254
160T243 129T228 106L221 112H417Q447 112 462 122T481 154L486 192L587 193L578 122Q574 87 558 59T509 16T427 0H24L37 112H82Q103 112 115 118T134 143T146 202L188 547Z" />
<glyph unicode="&#xa4;" horiz-adv-x="505" d="M416 435Q425 417 429 397T430 356Q428 332 419 311T395 272L418 242L366 197Q359 205 353 212T340 227Q302 207 256 208Q234 209 215 216T180 234V234L148 207L105 257L136 284Q127 301 123 322T122 366V366Q124
389 132 409T155 447Q150 455 144 461T133 476L185 521L209 493Q229 503 250 509T294 514Q316 513 336 505T372 485V485L403 510L445 460L416 435ZM190 361Q187 327 209 302T265 274Q290 273 311 284T346 315T363 359Q366 394 344 420T286 447Q262 448 241 437T206
406T190 361V361Z" />
<glyph unicode="&#xa5;" horiz-adv-x="704" d="M179 307H555L544 216H168L179 307ZM166 163H542L531 72H155L166 163ZM303 302L87 728H229L394 402L359 399L601 728H745L420 302L383 0H266L303 302Z" />
<glyph unicode="&#xa6;" horiz-adv-x="218" d="M77 119H178L134 -237H33L77 119ZM150 711H251L207 355H106L150 711Z" />
<glyph unicode="&#xa7;" horiz-adv-x="575" d="M367 132L330 177Q376 172 412 152T467 98T479 14Q472 -42 438 -86T351 -155T232 -176Q191 -173 151 -163T76 -133T14 -87L83 6Q110 -19 135 -35T186 -61T238 -71Q268 -73 293 -65T336 -39T356 5Q359 32 344 49T301
79T242 102Q211 112 180 127T123 163T84 214T75 283Q82 337 112 370T184 416T269 424L255 384Q204 403 175 430T136 491T130 560Q135 604 162 645T239 712T364 732Q424 728 471 706T553 651L493 568Q460 599 428 613T364 631Q328 633 304 625T268 602T253 569Q250
543 265 526T309 495T372 471Q403 460 434 446T489 412T527 361T535 288Q528 231 485 187T367 132ZM419 274Q424 299 408 318T366 350T313 368Q263 373 230 354T191 305Q187 277 201 257T241 222T297 197Q323 197 349 206T396 232T419 274Z" />
<glyph unicode="&#xa8;" horiz-adv-x="376" d="M71 541Q74 567 95 583T138 599Q159 598 176 580T190 534Q187 507 167 492T125 477Q102 478 85 496T71 541V541ZM263 541Q266 567 286 583T329 599Q351 598 367 579T381 534Q378 507 358 492T316 477Q293 478 277
496T263 541V541Z" />
<glyph unicode="&#xa9;" horiz-adv-x="861" d="M582 185Q556 164 515 146T422 131Q370 136 331 165T273 240T260 337Q267 395 296 438T373 504T479 524Q509 522 544 511T600 479L545 395Q531 412 513 418T475 426Q449 427 428 415T393 381T376 334Q373 307 380
285T407 249T453 232Q475 231 498 238T541 264L582 185ZM401 -29Q328 -24 266 6T161 88T98 205T86 347Q96 424 132 486T223 594T346 661T488 680Q562 675 623 645T728 564T792 447T803 303Q794 228 759 165T668 57T545 -10T401 -29ZM412 62Q486 57 549 88T655 176T705
309Q715 385 688 447T606 547T477 590Q403 595 340 564T234 476T182 341Q173 265 199 204T281 105T412 62Z" />
<glyph unicode="&#xaa;" horiz-adv-x="395" d="M185 424Q148 424 121 440T81 491T74 574Q80 622 101 656T154 710T220 729Q258 729 279 715T311 679L320 718H400L365 430H279L288 494L290 479Q287 473 273 460T237 435T185 424ZM220 493Q237 493 251 500T277 520T294
551L301 604Q297 629 281 644T240 660Q210 660 188 638T160 578Q157 554 164 535T185 505T220 493Z" />
<glyph unicode="&#xab;" horiz-adv-x="610" d="M148 243Q152 246 167 260T203 296T247 340T291 384T327 420T346 437L332 323Q327 319 317 308T295 283T273 259T258 243Q262 239 269 228T284 202T300 177T311 161L298 47L148 243ZM322 243Q325 246 340 260T376
296T420 340T465 384T501 420T520 437L506 324Q501 320 491 309T469 284T447 259T432 243Q435 239 442 228T458 202T474 177T485 161L472 47L322 243Z" />
<glyph unicode="&#xac;" horiz-adv-x="487" d="M79 309H444L418 104H302L313 197H64L79 309Z" />
<glyph unicode="&#xad;" horiz-adv-x="600" d="M87 270H274L262 172H75L87 270Z" />
<glyph unicode="&#xae;" horiz-adv-x="519" d="M267 274Q204 278 156 310T83 396T65 514Q73 579 110 628T204 703T322 726Q385 723 433 690T507 604T524 486Q517 422 480 373T386 297T267 274ZM274 335Q321 333 360 352T426 407T457 490Q464 538 447 576T395 638T315
665Q269 668 230 649T165 594T132 510Q127 463 143 424T194 362T274 335ZM228 620L320 619Q361 619 378 595T391 535Q389 508 371 487T314 466H270L261 395H200L228 620ZM295 513Q312 512 319 519T327 537Q328 549 323 558T303 569L283 570L277 513H295ZM345 476L372
394L304 395L282 478L345 476Z" />
<glyph unicode="&#xaf;" horiz-adv-x="406" d="M153 545H387L380 482H146L153 545Z" />
<glyph unicode="&#xb0;" horiz-adv-x="286" d="M46 573Q50 603 67 626T111 664T169 676Q212 673 239 642T261 566Q259 535 242 511T198 473T142 461Q98 464 70 496T46 573V573ZM150 522Q170 521 185 534T202 567Q204 586 192 599T161 614Q142 615 127 602T110
568Q108 550 119 537T150 522V522Z" />
<glyph unicode="&#xb1;" horiz-adv-x="533" d="M290 580H392L376 445H507L496 348H364L347 214H245L262 348H130L142 445H274L290 580ZM109 176H474L462 78H97L109 176Z" />
<glyph unicode="&#xb2;" horiz-adv-x="405" d="M111 631Q125 649 149 663T202 685T260 693Q325 692 360 657T389 560Q383 518 357 481T293 413T217 356T150 307L175 383H381L370 289H80L88 353Q113 367 142 386T199 429T246 478T268 530Q272 567 260 583T218 600Q195
600 171 587T134 557L111 631Z" />
<glyph unicode="&#xb3;" horiz-adv-x="384" d="M172 286Q130 286 104 302T64 334L103 399Q108 393 117 383T139 365T168 359Q197 363 216 379T239 424Q243 456 225 473T178 490Q167 490 155 488T135 481L130 491L229 621L251 604H111L121 685H357L230 496L160
516Q173 527 192 535T235 543Q258 543 284 527T327 484T340 421Q335 384 313 353T255 304T172 286Z" />
<glyph unicode="&#xb4;" horiz-adv-x="291" d="M323 621L184 487H115L199 621H323Z" />
<glyph unicode="&#xb5;" horiz-adv-x="561" d="M185 -18Q130 -18 99 15T70 102L165 163L120 -201H28L65 110L103 423H215L182 149Q180 118 193 98T241 78Q275 78 303 98T351 155T375 236L398 423H510L458 0H357L359 79Q342 52 316 30T257 -5T185 -18Z" />
<glyph unicode="&#xb6;" horiz-adv-x="569" d="M257 429Q214 429 181 449T130 503T111 578Q111 629 136 670T205 737T298 762H564L470 0H370L452 664H386L304 0H204L257 429Z" />
<glyph unicode="&#xb7;" horiz-adv-x="225" d="M67 281Q67 310 89 329T136 349Q155 349 171 333T187 293Q187 274 177 259T152 236T121 227Q100 227 84 242T67 281V281Z" />
<glyph unicode="&#xb8;" horiz-adv-x="459" d="M101 -141Q110 -153 125 -161T162 -172Q184 -173 205 -164T229 -133Q231 -119 220 -106T174 -90Q158 -89 141 -91T110 -98L99 -43L167 3L252 1L175 -76L156 -47Q167 -44 181 -43T208 -41Q262 -43 295 -67T322 -138Q318
-173 295 -194T237 -224T166 -232Q126 -229 101 -216T61 -185L101 -141Z" />
<glyph unicode="&#xb9;" horiz-adv-x="276" d="M94 673H261L215 284H110L145 573H82L94 673Z" />
<glyph unicode="&#xba;" horiz-adv-x="376" d="M76 585Q81 629 105 662T168 712T252 727Q299 724 332 702T380 645T390 565Q385 522 362 489T300 437T214 422Q169 425 136 446T86 502T76 585ZM162 578Q159 557 166 539T188 509T222 497Q244 495 261 504T289 531T303
570Q306 592 299 610T278 640T242 653Q222 654 205 645T176 618T162 578Z" />
<glyph unicode="&#xbb;" horiz-adv-x="610" d="M437 243Q433 246 419 260T383 296T339 340T294 384T258 420T240 437L253 323Q258 319 268 308T290 283T312 259T327 243Q324 239 317 228T301 202T285 177T274 161L288 47L437 243ZM263 243Q260 246 245 260T209
296T165 340T120 384T84 420T66 437L79 324Q84 320 94 309T116 284T139 259T154 243Q150 239 143 228T127 202T111 177T100 161L113 47L263 243Z" />
<glyph unicode="&#xbc;" horiz-adv-x="896" d="M699 766Q604 575 511 384T322 0H221Q315 192 409 383T598 766H699ZM94 673H261L215 284H110L145 573H82L94 673ZM846 168L838 105H521L523 133L760 405H829L780 8H684L718 288L743 293L603 129L593 168H846Z" />
<glyph unicode="&#xbd;" horiz-adv-x="911" d="M114 673H281L235 284H130L165 573H102L114 673ZM666 767Q572 575 478 384T289 0H188Q283 192 377 383T565 767H666ZM546 340Q560 358 584 372T637 394T695 402Q760 401 795 366T824 269Q818 227 792 190T728 122T652
65T585 16L610 92H816L805 -2H515L523 62Q548 76 577 95T634 138T681 187T703 239Q707 276 695 292T653 309Q630 309 606 296T569 266L546 340Z" />
<glyph unicode="&#xbe;" horiz-adv-x="920" d="M173 286Q131 286 105 302T65 334L104 399Q109 393 118 383T140 365T169 359Q198 363 217 379T240 424Q244 456 226 473T179 490Q168 490 156 488T136 481L131 491L230 621L252 604H112L122 685H358L231 496L161
516Q174 527 193 535T236 543Q259 543 285 527T328 484T341 421Q336 384 314 353T256 304T173 286ZM723 767Q629 575 535 384T346 0H245Q340 192 434 383T622 767H723ZM868 161L861 97H543L545 126L783 397H852L803 0H706L741 281L766 285L626 121L615 161H868Z"
/>
<glyph unicode="&#xbf;" horiz-adv-x="436" d="M323 274Q319 242 307 221T277 184T235 156T188 124Q142 92 120 57T97 -19Q97 -44 107 -63T136 -94T181 -106Q219 -106 243 -96T283 -65T312 -12V-12Q333 -20 354 -28T396 -45Q387 -65 372 -92T330 -145T265 -188T169
-205Q118 -205 79 -181T16 -116T-7 -27Q-7 38 26 85T116 171Q135 184 159 199T202 236T225 293L235 373H335L323 274ZM308 544Q329 544 345 530T361 491Q361 462 339 443T293 423Q274 423 258 439T241 479Q241 508 263 526T308 544V544Z" />
<glyph unicode="&#xc0;" horiz-adv-x="699" d="M109 0H-5L410 758H417L646 0H512L355 574L446 630L109 0ZM230 271H480L507 171H183L230 271ZM388 939L453 805H383L264 939H388Z" />
<glyph unicode="&#xc1;" horiz-adv-x="699" d="M109 0H-5L410 758H417L646 0H512L355 574L446 630L109 0ZM230 271H480L507 171H183L230 271ZM585 939L446 805H377L461 939H585Z" />
<glyph unicode="&#xc2;" horiz-adv-x="699" d="M109 0H-5L410 758H417L646 0H512L355 574L446 630L109 0ZM230 271H480L507 171H183L230 271ZM494 805L421 898L450 906L352 805H251L443 988H444L595 805H494Z" />
<glyph unicode="&#xc3;" horiz-adv-x="699" d="M109 0H-5L410 758H417L646 0H512L355 574L446 630L109 0ZM230 271H480L507 171H183L230 271ZM495 770Q456 772 433 790T391 828Q379 841 368 851T340 862Q326 863 315 853T297 824T288 782L219 788Q221 833 239
870T287 928T358 947Q387 946 407 929T445 892Q460 876 473 864T501 851Q517 850 526 861T541 892T548 935L617 930Q618 881 601 844T556 788T495 770Z" />
<glyph unicode="&#xc4;" horiz-adv-x="699" d="M109 0H-5L410 758H417L646 0H512L355 574L446 630L109 0ZM230 271H480L507 171H183L230 271ZM272 859Q275 885 296 901T339 917Q360 916 377 898T391 852Q388 825 368 810T326 795Q303 796 286 814T272 859V859ZM464
859Q467 885 487 901T530 917Q552 916 568 897T582 852Q579 825 559 810T517 795Q494 796 478 814T464 859V859Z" />
<glyph unicode="&#xc5;" horiz-adv-x="699" d="M109 0H-5L410 758H417L646 0H512L355 574L446 630L109 0ZM230 271H480L507 171H183L230 271ZM332 867Q336 911 367 935T443 958Q486 955 511 928T532 858Q529 815 497 790T422 767Q379 769 353 797T332 867ZM391
862Q390 843 400 832T428 818Q447 817 459 828T474 860Q475 881 466 892T437 904Q419 905 406 895T391 862Z" />
<glyph unicode="&#xc6;" horiz-adv-x="960" d="M544 728H945L932 616H646L622 420H867L853 308H608L584 112H884L870 0H454L544 728ZM542 595Q538 585 533 570T527 554L117 0H-17L544 728L542 595ZM254 264H502L491 172H208L254 264Z" />
<glyph unicode="&#xc7;" horiz-adv-x="699" d="M622 40Q607 31 577 19T508 -3T422 -13Q362 -13 301 6T188 65T105 170T74 326Q74 385 87 443T130 554T204 646T311 709T454 732Q531 732 590 709T686 658L626 552Q601 574 560 595T465 620Q400 622 350 601T266 540T213
448T195 335Q195 283 211 240T258 165T332 117T427 100Q467 100 497 108T549 128T586 147L622 40ZM328 -142Q337 -154 352 -162T389 -173Q411 -174 432 -165T456 -134Q458 -120 447 -107T401 -91Q385 -90 368 -92T337 -99L326 -44L394 2L479 0L402 -77L383 -48Q394
-45 408 -44T435 -42Q489 -44 522 -68T549 -139Q545 -174 522 -195T464 -225T393 -233Q353 -230 328 -217T288 -186L328 -142Z" />
<glyph unicode="&#xc8;" horiz-adv-x="659" d="M161 728H644L631 620H268L244 420H566L552 310H230L206 111H583L569 0H72L161 728ZM369 921L434 787H364L245 921H369Z" />
<glyph unicode="&#xc9;" horiz-adv-x="659" d="M161 728H644L631 620H268L244 420H566L552 310H230L206 111H583L569 0H72L161 728ZM566 921L427 787H358L442 921H566Z" />
<glyph unicode="&#xca;" horiz-adv-x="659" d="M161 728H644L631 620H268L244 420H566L552 310H230L206 111H583L569 0H72L161 728ZM475 787L402 880L431 888L333 787H232L424 970H425L576 787H475Z" />
<glyph unicode="&#xcb;" horiz-adv-x="659" d="M161 728H644L631 620H268L244 420H566L552 310H230L206 111H583L569 0H72L161 728ZM253 841Q256 867 277 883T320 899Q341 898 358 880T372 834Q369 807 349 792T307 777Q284 778 267 796T253 841V841ZM445 841Q448
867 468 883T511 899Q533 898 549 879T563 834Q560 807 540 792T498 777Q475 778 459 796T445 841V841Z" />
<glyph unicode="&#xcc;" horiz-adv-x="322" d="M161 728H281L192 0H72L161 728ZM195 921L260 787H190L71 921H195Z" />
<glyph unicode="&#xcd;" horiz-adv-x="322" d="M161 728H281L192 0H72L161 728ZM392 921L253 787H184L268 921H392Z" />
<glyph unicode="&#xce;" horiz-adv-x="322" d="M161 728H281L192 0H72L161 728ZM301 787L228 880L257 888L159 787H58L250 970H251L402 787H301Z" />
<glyph unicode="&#xcf;" horiz-adv-x="322" d="M161 728H281L192 0H72L161 728ZM79 841Q82 867 103 883T146 899Q167 898 184 880T198 834Q195 807 175 792T133 777Q110 778 93 796T79 841V841ZM271 841Q274 867 294 883T337 899Q359 898 375 879T389 834Q386
807 366 792T324 777Q301 778 285 796T271 841V841Z" />
<glyph unicode="&#xd0;" horiz-adv-x="758" d="M72 0L161 728H392Q492 728 558 697T662 613T713 496T720 362Q713 278 680 211T593 96T473 25T333 0H72ZM202 112H328Q384 112 432 128T516 177T575 257T602 370Q609 439 592 486T541 562T467 604T386 617H263L202
112ZM307 407H572L557 294H292L307 407Z" />
<glyph unicode="&#xd1;" horiz-adv-x="844" d="M711 -26H708L216 517L248 502L188 0H72L164 753H169L652 210L627 219L687 728H803L711 -26ZM555 729Q516 731 493 749T451 787Q439 800 428 810T400 821Q386 822 375 812T357 783T348 741L279 747Q281 792 299 829T347
887T418 906Q447 905 467 888T505 851Q520 835 533 823T561 810Q577 809 586 820T601 851T608 894L677 889Q678 840 661 803T616 747T555 729Z" />
<glyph unicode="&#xd2;" horiz-adv-x="856" d="M423 -7Q359 -7 297 14T184 78T104 186T74 338Q74 404 98 474T172 603T296 698T470 735Q535 735 597 714T709 650T789 542T819 389Q819 323 795 254T721 125T597 30T423 -7ZM425 105Q497 105 549 131T634 198T683
288T699 383Q699 432 682 475T633 551T559 604T465 623Q393 623 342 598T257 530T209 440T194 345Q194 297 211 254T258 177T331 124T425 105ZM447 921L512 787H442L323 921H447Z" />
<glyph unicode="&#xd3;" horiz-adv-x="856" d="M423 -7Q359 -7 297 14T184 78T104 186T74 338Q74 404 98 474T172 603T296 698T470 735Q535 735 597 714T709 650T789 542T819 389Q819 323 795 254T721 125T597 30T423 -7ZM425 105Q497 105 549 131T634 198T683
288T699 383Q699 432 682 475T633 551T559 604T465 623Q393 623 342 598T257 530T209 440T194 345Q194 297 211 254T258 177T331 124T425 105ZM644 921L505 787H436L520 921H644Z" />
<glyph unicode="&#xd4;" horiz-adv-x="856" d="M423 -7Q359 -7 297 14T184 78T104 186T74 338Q74 404 98 474T172 603T296 698T470 735Q535 735 597 714T709 650T789 542T819 389Q819 323 795 254T721 125T597 30T423 -7ZM425 105Q497 105 549 131T634 198T683
288T699 383Q699 432 682 475T633 551T559 604T465 623Q393 623 342 598T257 530T209 440T194 345Q194 297 211 254T258 177T331 124T425 105ZM553 787L480 880L509 888L411 787H310L502 970H503L654 787H553Z" />
<glyph unicode="&#xd5;" horiz-adv-x="856" d="M423 -7Q359 -7 297 14T184 78T104 186T74 338Q74 404 98 474T172 603T296 698T470 735Q535 735 597 714T709 650T789 542T819 389Q819 323 795 254T721 125T597 30T423 -7ZM425 105Q497 105 549 131T634 198T683
288T699 383Q699 432 682 475T633 551T559 604T465 623Q393 623 342 598T257 530T209 440T194 345Q194 297 211 254T258 177T331 124T425 105ZM554 752Q515 754 492 772T450 810Q438 823 427 833T399 844Q385 845 374 835T356 806T347 764L278 770Q280 815 298
852T346 910T417 929Q446 928 466 911T504 874Q519 858 532 846T560 833Q576 832 585 843T600 874T607 917L676 912Q677 863 660 826T615 770T554 752Z" />
<glyph unicode="&#xd6;" horiz-adv-x="856" d="M423 -7Q359 -7 297 14T184 78T104 186T74 338Q74 404 98 474T172 603T296 698T470 735Q535 735 597 714T709 650T789 542T819 389Q819 323 795 254T721 125T597 30T423 -7ZM425 105Q497 105 549 131T634 198T683
288T699 383Q699 432 682 475T633 551T559 604T465 623Q393 623 342 598T257 530T209 440T194 345Q194 297 211 254T258 177T331 124T425 105ZM331 841Q334 867 355 883T398 899Q419 898 436 880T450 834Q447 807 427 792T385 777Q362 778 345 796T331 841V841ZM523
841Q526 867 546 883T589 899Q611 898 627 879T641 834Q638 807 618 792T576 777Q553 778 537 796T523 841V841Z" />
<glyph unicode="&#xd7;" horiz-adv-x="522" d="M313 262Q339 285 363 306T413 351Q432 331 450 309T486 265Q463 244 438 222T389 177Q409 156 428 133T467 87L368 0Q349 22 329 44T288 89Q265 67 240 45T191 2Q172 23 153 44T116 86Q140 109 165 130T215 175L135
266L232 354L313 262Z" />
<glyph unicode="&#xd8;" horiz-adv-x="853" d="M842 682L155 -18L104 33L792 734L842 682ZM423 -7Q359 -7 297 14T184 78T104 186T74 338Q74 404 98 474T172 603T296 698T470 735Q535 735 597 714T709 650T789 542T819 389Q819 323 795 254T721 125T597 30T423
-7ZM425 105Q497 105 549 131T634 198T683 288T699 383Q699 432 682 475T633 551T559 604T465 623Q393 623 342 598T257 530T209 440T194 345Q194 297 211 254T258 177T331 124T425 105Z" />
<glyph unicode="&#xd9;" horiz-adv-x="766" d="M224 262Q219 219 235 183T286 126T366 105Q413 105 452 126T517 183T548 262L605 728H725L668 259Q658 180 614 120T501 26T352 -8V-8Q274 -8 214 25T124 119T104 259L161 728H281L224 262ZM422 921L487 787H417L298
921H422Z" />
<glyph unicode="&#xda;" horiz-adv-x="766" d="M224 262Q219 219 235 183T286 126T366 105Q413 105 452 126T517 183T548 262L605 728H725L668 259Q658 180 614 120T501 26T352 -8V-8Q274 -8 214 25T124 119T104 259L161 728H281L224 262ZM619 921L480 787H411L495
921H619Z" />
<glyph unicode="&#xdb;" horiz-adv-x="766" d="M224 262Q219 219 235 183T286 126T366 105Q413 105 452 126T517 183T548 262L605 728H725L668 259Q658 180 614 120T501 26T352 -8V-8Q274 -8 214 25T124 119T104 259L161 728H281L224 262ZM527 787L454 880L483
888L385 787H284L476 970H477L628 787H527Z" />
<glyph unicode="&#xdc;" horiz-adv-x="766" d="M224 262Q219 219 235 183T286 126T366 105Q413 105 452 126T517 183T548 262L605 728H725L668 259Q658 180 614 120T501 26T352 -8V-8Q274 -8 214 25T124 119T104 259L161 728H281L224 262ZM305 841Q308 867 329
883T372 899Q393 898 410 880T424 834Q421 807 401 792T359 777Q336 778 319 796T305 841V841ZM497 841Q500 867 520 883T563 899Q585 898 601 879T615 834Q612 807 592 792T550 777Q527 778 511 796T497 841V841Z" />
<glyph unicode="&#xdd;" horiz-adv-x="704" d="M295 236L87 728H229L386 336L351 334L601 728H745L412 236L383 0H266L295 236ZM578 926L439 792H370L454 926H578Z" />
<glyph unicode="&#xde;" horiz-adv-x="597" d="M350 598Q404 598 448 585T523 544T571 480T588 393Q588 347 573 300T525 212T438 148T309 123H207L191 0H72L159 711H279L265 598H350ZM318 235Q360 235 388 250T434 287T459 334T467 376Q467 400 457 425T421 468T350
486H251L220 235H318Z" />
<glyph unicode="&#xdf;" horiz-adv-x="618" d="M353 -6Q319 -6 285 5T232 37L280 107Q295 93 315 86T349 78Q377 78 396 93T427 130T446 176T454 219Q456 256 445 283T413 325T359 342L354 343L365 440Q387 439 402 445T426 462T440 486T444 511Q444 541 427 558T373
576Q336 577 311 559T271 505T247 421L173 0H60L119 337H54L72 428H137L144 476Q155 541 188 583T273 647T389 668Q442 667 480 649T538 598T558 521Q558 496 550 472T523 427T473 394Q503 379 524 355T556 296T566 213Q564 176 552 137T516 64T451 12T353 -6Z"
/>
<glyph unicode="&#xe0;" horiz-adv-x="601" d="M221 -9Q176 -9 135 15T68 86T42 197Q42 242 58 285T105 363T180 420T279 442Q323 442 353 431T402 401T433 359L424 340L446 423H549L498 0H386L398 101L405 74Q401 69 387 56T350 27T295 2T221 -9ZM283 81Q309
81 332 91T375 121T406 168L417 260Q412 287 396 307T355 339T299 350Q260 350 234 337T190 302T166 256T158 210Q158 172 173 143T217 98T283 81ZM313 647L378 513H308L189 647H313Z" />
<glyph unicode="&#xe1;" horiz-adv-x="601" d="M221 -9Q176 -9 135 15T68 86T42 197Q42 242 58 285T105 363T180 420T279 442Q323 442 353 431T402 401T433 359L424 340L446 423H549L498 0H386L398 101L405 74Q401 69 387 56T350 27T295 2T221 -9ZM283 81Q309
81 332 91T375 121T406 168L417 260Q412 287 396 307T355 339T299 350Q260 350 234 337T190 302T166 256T158 210Q158 172 173 143T217 98T283 81ZM510 647L371 513H302L386 647H510Z" />
<glyph unicode="&#xe2;" horiz-adv-x="601" d="M221 -9Q176 -9 135 15T68 86T42 197Q42 242 58 285T105 363T180 420T279 442Q323 442 353 431T402 401T433 359L424 340L446 423H549L498 0H386L398 101L405 74Q401 69 387 56T350 27T295 2T221 -9ZM283 81Q309
81 332 91T375 121T406 168L417 260Q412 287 396 307T355 339T299 350Q260 350 234 337T190 302T166 256T158 210Q158 172 173 143T217 98T283 81ZM418 513L345 606L374 614L276 513H175L367 696H368L519 513H418Z" />
<glyph unicode="&#xe3;" horiz-adv-x="601" d="M221 -9Q176 -9 135 15T68 86T42 197Q42 242 58 285T105 363T180 420T279 442Q323 442 353 431T402 401T433 359L424 340L446 423H549L498 0H386L398 101L405 74Q401 69 387 56T350 27T295 2T221 -9ZM283 81Q309
81 332 91T375 121T406 168L417 260Q412 287 396 307T355 339T299 350Q260 350 234 337T190 302T166 256T158 210Q158 172 173 143T217 98T283 81ZM419 478Q380 480 357 498T315 536Q303 549 292 559T264 570Q250 571 239 561T221 532T212 490L143 496Q145 541
163 578T211 636T282 655Q311 654 331 637T369 600Q384 584 397 572T425 559Q441 558 450 569T465 600T472 643L541 638Q542 589 525 552T480 496T419 478Z" />
<glyph unicode="&#xe4;" horiz-adv-x="601" d="M221 -9Q176 -9 135 15T68 86T42 197Q42 242 58 285T105 363T180 420T279 442Q323 442 353 431T402 401T433 359L424 340L446 423H549L498 0H386L398 101L405 74Q401 69 387 56T350 27T295 2T221 -9ZM283 81Q309
81 332 91T375 121T406 168L417 260Q412 287 396 307T355 339T299 350Q260 350 234 337T190 302T166 256T158 210Q158 172 173 143T217 98T283 81ZM196 567Q199 593 220 609T263 625Q284 624 301 606T315 560Q312 533 292 518T250 503Q227 504 210 522T196 567V567ZM388
567Q391 593 411 609T454 625Q476 624 492 605T506 560Q503 533 483 518T441 503Q418 504 402 522T388 567V567Z" />
<glyph unicode="&#xe5;" horiz-adv-x="601" d="M221 -9Q176 -9 135 15T68 86T42 197Q42 242 58 285T105 363T180 420T279 442Q323 442 353 431T402 401T433 359L424 340L446 423H549L498 0H386L398 101L405 74Q401 69 387 56T350 27T295 2T221 -9ZM283 81Q309
81 332 91T375 121T406 168L417 260Q412 287 396 307T355 339T299 350Q260 350 234 337T190 302T166 256T158 210Q158 172 173 143T217 98T283 81ZM256 575Q260 619 291 643T367 666Q410 663 435 636T456 566Q453 523 421 498T346 475Q303 477 277 505T256 575ZM315
570Q314 551 324 540T352 526Q371 525 383 536T398 568Q399 589 390 600T361 612Q343 613 330 603T315 570Z" />
<glyph unicode="&#xe6;" horiz-adv-x="818" d="M545 -11Q522 -10 491 -4T428 18T372 61T335 129T329 229Q336 291 372 339T465 414T585 441Q616 441 649 432T712 400T762 337T789 235L403 165L398 228L694 284L670 272Q663 300 648 318T613 344T569 353Q536 354
509 339T463 295T440 228Q434 187 445 160T475 116T517 93T557 85Q581 84 604 91T650 112L690 26Q657 9 619 -1T545 -11ZM197 -11Q157 -11 119 3T56 45T31 116Q31 147 49 179T107 232T216 253Q243 253 264 250T305 239T341 222T375 195L349 130Q331 147 312 157T272
171T233 176Q188 177 172 158T155 118Q156 99 167 87T196 71T234 66Q261 68 288 79T332 109L340 177L385 159L372 57Q350 34 323 19T263 -3T197 -11ZM318 218L323 258Q327 288 319 306T297 334T266 346T235 350Q199 350 168 333T115 293L67 367Q103 398 151 420T262
441Q280 440 304 436T353 422T398 394T429 349T435 282L432 262L318 218Z" />
<glyph unicode="&#xe7;" horiz-adv-x="448" d="M365 109Q379 92 390 75T414 39Q383 16 345 3T266 -11Q209 -11 164 16T93 89T67 190Q67 239 87 283T143 362T225 415T321 434Q364 434 398 421T460 385Q443 368 426 351T391 315Q376 328 356 335T310 343Q268 343
234 324T181 272T161 198Q161 166 175 140T215 97T278 81Q303 81 325 88T365 109V109ZM272 -8Q270 -27 276 -36T291 -50T308 -62Q323 -75 330 -92T337 -131Q337 -162 323 -192T280 -241T210 -260Q174 -260 146 -240T109 -180Q123 -173 138 -166T167 -151Q169 -166
180 -176T210 -186Q236 -186 250 -169T264 -128Q264 -111 255 -102T234 -84T215 -61T209 -23L212 0H273L272 -8Z" />
<glyph unicode="&#xe8;" horiz-adv-x="535" d="M281 85Q303 85 324 93T366 113L406 26Q375 9 339 0T269 -10Q201 -10 150 14T71 87T42 206Q42 246 57 287T102 362T179 418T289 440Q326 440 361 431T426 398T476 336T505 235L152 141L134 206L425 286L386 272Q376
309 349 331T285 353Q242 353 213 334T169 284T154 219Q154 170 173 141T221 98T281 85ZM267 655L332 521H262L143 655H267Z" />
<glyph unicode="&#xe9;" horiz-adv-x="445" d="M281 85Q303 85 324 93T366 113L406 26Q375 9 339 0T269 -10Q201 -10 150 14T71 87T42 206Q42 246 57 287T102 362T179 418T289 440Q326 440 361 431T426 398T476 336T505 235L152 141L134 206L425 286L386 272Q376
309 349 331T285 353Q242 353 213 334T169 284T154 219Q154 170 173 141T221 98T281 85ZM417 621L278 487H209L293 621H417Z" />
<glyph unicode="&#xea;" horiz-adv-x="535" d="M281 85Q303 85 324 93T366 113L406 26Q375 9 339 0T269 -10Q201 -10 150 14T71 87T42 206Q42 246 57 287T102 362T179 418T289 440Q326 440 361 431T426 398T476 336T505 235L152 141L134 206L425 286L386 272Q376
309 349 331T285 353Q242 353 213 334T169 284T154 219Q154 170 173 141T221 98T281 85ZM373 521L300 614L329 622L231 521H130L322 704H323L474 521H373Z" />
<glyph unicode="&#xeb;" horiz-adv-x="535" d="M281 85Q303 85 324 93T366 113L406 26Q375 9 339 0T269 -10Q201 -10 150 14T71 87T42 206Q42 246 57 287T102 362T179 418T289 440Q326 440 361 431T426 398T476 336T505 235L152 141L134 206L425 286L386 272Q376
309 349 331T285 353Q242 353 213 334T169 284T154 219Q154 170 173 141T221 98T281 85ZM151 575Q154 601 175 617T218 633Q239 632 256 614T270 568Q267 541 247 526T205 511Q182 512 165 530T151 575V575ZM343 575Q346 601 366 617T409 633Q431 632 447 613T461
568Q458 541 438 526T396 511Q373 512 357 530T343 575V575Z" />
<glyph unicode="&#xec;" horiz-adv-x="266" d="M103 423H215L163 0H51L103 423ZM389 621L454 487H384L265 621H389Z" />
<glyph unicode="&#xed;" horiz-adv-x="266" d="M103 423H215L163 0H51L103 423ZM586 621L447 487H378L462 621H586Z" />
<glyph unicode="&#xee;" horiz-adv-x="266" d="M103 423H215L163 0H51L103 423ZM495 487L422 580L451 588L353 487H252L444 670H445L596 487H495Z" />
<glyph unicode="&#xef;" horiz-adv-x="266" d="M103 423H215L163 0H51L103 423ZM273 541Q276 567 297 583T340 599Q361 598 378 580T392 534Q389 507 369 492T327 477Q304 478 287 496T273 541V541ZM465 541Q468 567 488 583T531 599Q553 598 569 579T583 534Q580
507 560 492T518 477Q495 478 479 496T465 541V541Z" />
<glyph unicode="&#xf0;" horiz-adv-x="556" d="M258 -9Q237 -9 209 -4T150 17T96 59T57 127T44 228Q46 267 60 305T103 374T171 424T264 443Q296 443 328 430T387 391T428 326T440 232L402 246Q410 324 400 388T364 506T299 610T208 708L299 777Q356 728 398 671T468
552T509 427T522 305Q522 249 507 193T460 91T378 18T258 -9ZM268 82Q298 82 321 93T361 124T386 166T398 213Q402 256 390 282T357 323T316 343T282 349Q247 350 223 336T183 299T160 253T152 206Q152 159 171 132T218 94T268 82ZM505 660L234 519L206 596L478
736L505 660Z" />
<glyph unicode="&#xf1;" horiz-adv-x="570" d="M204 423L205 332L199 346Q226 389 272 415T380 441Q441 441 476 406T505 314L467 0H355L388 274Q391 306 376 325T323 345Q289 345 260 325T212 269T187 187L164 0H52L103 423H204ZM401 501Q362 503 339 521T297
559Q285 572 274 582T246 593Q232 594 221 584T203 555T194 513L125 519Q127 564 145 601T193 659T264 678Q293 677 313 660T351 623Q366 607 379 595T407 582Q423 581 432 592T447 623T454 666L523 661Q524 612 507 575T462 519T401 501Z" />
<glyph unicode="&#xf2;" horiz-adv-x="557" d="M270 -11Q231 -11 191 2T117 40T63 105T42 198Q42 237 55 279T97 358T173 417T289 440Q347 440 398 416T483 346T516 232Q516 206 509 174T485 109T440 49T369 6T270 -11ZM273 82Q321 82 349 105T389 163T402 227Q402
262 391 285T361 323T322 343T285 349Q239 349 210 326T168 269T155 203Q155 158 174 132T220 94T273 82ZM266 631L331 497H261L142 631H266Z" />
<glyph unicode="&#xf3;" horiz-adv-x="557" d="M270 -11Q231 -11 191 2T117 40T63 105T42 198Q42 237 55 279T97 358T173 417T289 440Q347 440 398 416T483 346T516 232Q516 206 509 174T485 109T440 49T369 6T270 -11ZM273 82Q321 82 349 105T389 163T402 227Q402
262 391 285T361 323T322 343T285 349Q239 349 210 326T168 269T155 203Q155 158 174 132T220 94T273 82ZM463 631L324 497H255L339 631H463Z" />
<glyph unicode="&#xf4;" horiz-adv-x="557" d="M270 -11Q231 -11 191 2T117 40T63 105T42 198Q42 237 55 279T97 358T173 417T289 440Q347 440 398 416T483 346T516 232Q516 206 509 174T485 109T440 49T369 6T270 -11ZM273 82Q321 82 349 105T389 163T402 227Q402
262 391 285T361 323T322 343T285 349Q239 349 210 326T168 269T155 203Q155 158 174 132T220 94T273 82ZM372 497L299 590L328 598L230 497H129L321 680H322L473 497H372Z" />
<glyph unicode="&#xf5;" horiz-adv-x="557" d="M270 -11Q231 -11 191 2T117 40T63 105T42 198Q42 237 55 279T97 358T173 417T289 440Q347 440 398 416T483 346T516 232Q516 206 509 174T485 109T440 49T369 6T270 -11ZM273 82Q321 82 349 105T389 163T402 227Q402
262 391 285T361 323T322 343T285 349Q239 349 210 326T168 269T155 203Q155 158 174 132T220 94T273 82ZM629 462Q590 464 567 482T525 520Q513 533 502 543T474 554Q460 555 449 545T431 516T422 474L353 480Q355 525 373 562T421 620T492 639Q521 638 541 621T579
584Q594 568 607 556T635 543Q651 542 660 553T675 584T682 627L751 622Q752 573 735 536T690 480T629 462Z" />
<glyph unicode="&#xf6;" horiz-adv-x="557" d="M270 -11Q231 -11 191 2T117 40T63 105T42 198Q42 237 55 279T97 358T173 417T289 440Q347 440 398 416T483 346T516 232Q516 206 509 174T485 109T440 49T369 6T270 -11ZM273 82Q321 82 349 105T389 163T402 227Q402
262 391 285T361 323T322 343T285 349Q239 349 210 326T168 269T155 203Q155 158 174 132T220 94T273 82ZM150 551Q153 577 174 593T217 609Q238 608 255 590T269 544Q266 517 246 502T204 487Q181 488 164 506T150 551V551ZM342 551Q345 577 365 593T408 609Q430
608 446 589T460 544Q457 517 437 502T395 487Q372 488 356 506T342 551V551Z" />
<glyph unicode="&#xf7;" horiz-adv-x="508" d="M208 102Q208 132 230 151T276 170Q295 170 311 154T328 115Q328 95 318 80T292 57T262 48Q240 48 224 63T208 102V102ZM245 403Q245 432 267 451T313 471Q333 471 349 455T365 416Q365 386 343 368T298 349Q277
349 261 364T245 403V403ZM107 306H472L460 208H95L107 306Z" />
<glyph unicode="&#xf8;" horiz-adv-x="529" d="M526 413Q514 400 487 373T424 310T346 233T264 151T187 74T124 11T85 -29L44 13Q56 26 82 52T145 115T221 192T303 273T380 350T442 413T481 452L526 413ZM270 -11Q231 -11 191 2T117 40T63 105T42 198Q42 237 55
279T97 358T173 417T289 440Q347 440 398 416T483 346T516 232Q516 206 509 174T485 109T440 49T369 6T270 -11ZM273 82Q321 82 349 105T389 163T402 227Q402 262 391 285T361 323T322 343T285 349Q239 349 210 326T168 269T155 203Q155 158 174 132T220 94T273
82Z" />
<glyph unicode="&#xf9;" horiz-adv-x="561" d="M185 -18Q127 -18 93 17T65 108L103 423H215L181 148Q179 117 193 98T241 78Q275 78 303 98T351 155T375 236L398 423H510L458 0H357L359 94L363 79Q346 52 319 30T258 -5T185 -18ZM290 670L355 536H285L166 670H290Z" />
<glyph unicode="&#xfa;" horiz-adv-x="561" d="M185 -18Q127 -18 93 17T65 108L103 423H215L181 148Q179 117 193 98T241 78Q275 78 303 98T351 155T375 236L398 423H510L458 0H357L359 94L363 79Q346 52 319 30T258 -5T185 -18ZM487 626L348 492H279L363 626H487Z" />
<glyph unicode="&#xfb;" horiz-adv-x="561" d="M185 -18Q127 -18 93 17T65 108L103 423H215L181 148Q179 117 193 98T241 78Q275 78 303 98T351 155T375 236L398 423H510L458 0H357L359 94L363 79Q346 52 319 30T258 -5T185 -18ZM395 536L322 629L351 637L253
536H152L344 719H345L496 536H395Z" />
<glyph unicode="&#xfc;" horiz-adv-x="561" d="M185 -18Q127 -18 93 17T65 108L103 423H215L181 148Q179 117 193 98T241 78Q275 78 303 98T351 155T375 236L398 423H510L458 0H357L359 94L363 79Q346 52 319 30T258 -5T185 -18ZM173 590Q176 616 197 632T240
648Q261 647 278 629T292 583Q289 556 269 541T227 526Q204 527 187 545T173 590V590ZM365 590Q368 616 388 632T431 648Q453 647 469 628T483 583Q480 556 460 541T418 526Q395 527 379 545T365 590V590Z" />
<glyph unicode="&#xfd;" horiz-adv-x="546" d="M73 -203L430 423H533L183 -203H73ZM207 -3L54 423H180L300 54L207 -3ZM464 621L325 487H256L340 621H464Z" />
<glyph unicode="&#xfe;" horiz-adv-x="574" d="M241 780L188 345L187 368Q199 383 221 398T273 423T340 434Q399 434 442 411T509 345T533 241Q533 159 500 103T409 18T281 -11Q231 -11 196 8T148 49L152 55L120 -203H26L147 780H241ZM430 230Q430 262 417 287T380
328T320 343Q278 343 244 324T190 272T170 198Q170 166 184 139T226 97T288 81Q331 81 363 99T412 151T430 230Z" />
<glyph unicode="&#xff;" horiz-adv-x="481" d="M73 -203L430 423H533L183 -203H73ZM207 -3L54 423H180L300 54L207 -3ZM142 541Q145 567 166 583T209 599Q230 598 247 580T261 534Q258 507 238 492T196 477Q173 478 156 496T142 541V541ZM334 541Q337 567 357
583T400 599Q422 598 438 579T452 534Q449 507 429 492T387 477Q364 478 348 496T334 541V541Z" />
<glyph unicode="&#x2013;" horiz-adv-x="517" d="M134 266H440L428 168H122L134 266Z" />
<glyph unicode="&#x2014;" horiz-adv-x="711" d="M133 266H643L631 168H121L133 266Z" />
<glyph unicode="&#x2018;" horiz-adv-x="166" d="M197 599Q184 593 171 587T144 574Q119 602 112 641T118 722Q133 721 148 719T177 715Q166 680 172 650T197 599V599Z" />
<glyph unicode="&#x2019;" horiz-adv-x="166" d="M150 574Q139 580 128 586T104 599Q128 619 141 649T152 715Q166 717 182 719T213 722Q216 680 199 641T150 574V574Z" />
<glyph unicode="&#x201a;" horiz-adv-x="148" d="M62 -56Q50 -48 39 -42T15 -30Q39 -9 52 21T63 87Q78 89 93 91T124 94Q127 51 110 12T62 -56V-56Z" />
<glyph unicode="&#x201c;" horiz-adv-x="252" d="M199 599Q186 593 173 587T145 574Q121 602 114 641T120 722Q135 721 150 719T179 715Q168 680 174 650T199 599V599ZM304 599Q291 593 278 587T251 574Q227 602 220 641T225 722Q240 721 255 719T284 715Q274
680 279 650T304 599V599Z" />
<glyph unicode="&#x201d;" horiz-adv-x="252" d="M123 574Q112 580 101 586T77 599Q101 619 114 649T125 715Q139 717 155 719T186 722Q189 680 172 641T123 574V574ZM229 574Q218 580 207 586T183 599Q207 619 220 649T231 715Q245 717 261 719T292 722Q295 680
278 641T229 574V574Z" />
<glyph unicode="&#x201e;" horiz-adv-x="371" d="M62 -56Q50 -48 39 -42T15 -30Q39 -9 52 21T63 87Q78 89 93 91T124 94Q127 51 110 12T62 -56V-56ZM168 -56Q156 -48 145 -42T121 -30Q145 -9 158 21T169 87Q184 89 199 91T230 94Q233 51 216 12T168 -56V-56Z" />
<glyph unicode="&#x2022;" horiz-adv-x="486" d="M137 290Q137 333 159 369T219 427T298 449Q335 449 364 432T409 386T425 319Q425 276 403 240T343 183T263 162Q226 162 198 179T154 225T137 290V290Z" />
<glyph unicode="&#x2039;" horiz-adv-x="397" d="M148 243Q152 246 167 260T203 296T247 340T291 384T327 420T346 437L332 323Q327 319 317 308T295 283T273 259T258 243Q262 239 269 228T284 202T300 177T311 161L298 47L148 243Z" />
<glyph unicode="&#x203a;" horiz-adv-x="398" d="M263 243Q259 246 245 260T209 296T165 340T120 384T84 420T66 437L79 323Q84 319 94 308T116 283T138 259T153 243Q150 239 143 228T127 202T111 177T100 161L113 47L263 243Z" />
</font>
</defs>
</svg>
