<?xml version="1.0" standalone="no"?>
<!DOCTYPE svg PUBLIC "-//W3C//DTD SVG 1.1//EN" "http://www.w3.org/Graphics/SVG/1.1/DTD/svg11.dtd">
<svg xmlns="http://www.w3.org/2000/svg">
<defs >
<font id="JosefinSans" horiz-adv-x="550" ><font-face
    font-family="Josefin Sans Thin ExtraLight"
    units-per-em="1000"
    panose-1="0 0 0 0 0 0 0 0 0 0"
    ascent="750"
    descent="-250"
    alphabetic="0" />
<glyph unicode=" " horiz-adv-x="300" />
<glyph unicode="!" horiz-adv-x="200" d="M153 723H185L113 142H82L153 723ZM69 13Q63 21 66 29T77 44Q84 48 92 47T106 39Q112 31 109 22T98 8Q89 3 82 5T69 13Z" />
<glyph unicode="&quot;" horiz-adv-x="304" d="M186 723Q177 660 169 598T152 473H122L152 723H186ZM319 723Q311 660 302 598T285 473H255L285 723H319Z" />
<glyph unicode="#" horiz-adv-x="573" d="M303 645Q289 592 276 538T250 430H402Q415 484 428 538T455 645H487Q474 592 461 538T434 430H562Q561 423 559 415T556 399H427Q417 361 409 323T390 247H518Q516 240 514 232T511 216H382Q370 162 357 108T331 0H299Q312
54 325 108T351 216H198Q185 162 172 108T146 0H114Q127 54 140 108T166 216H55Q56 224 58 232T63 247H174Q183 285 192 323T210 399H100Q101 407 103 415T107 430H218Q231 484 244 538T271 645H303ZM242 399Q233 361 224 323T206 247H358Q368 285 376 323T395
399H242Z" />
<glyph unicode="$" horiz-adv-x="570" d="M250 -68L304 373L306 391L352 771H378L330 382L328 364L276 -68H250ZM501 628Q471 643 424 659T328 677Q279 677 247 663T197 626T171 582T162 544Q162 507 184 481T242 435T318 395Q361 376 401 353T466 293T491 200Q490
168 477 132T437 64T367 12T262 -7Q208 -6 165 7T90 39T37 79L57 106Q77 86 109 68T181 37T264 24Q328 24 370 51T433 118T455 199Q455 245 432 276T372 329T294 369Q263 382 233 398T178 434T139 480T127 541Q128 592 155 629T228 687T328 707Q361 707 395 700T460
681T518 653L501 628Z" />
<glyph unicode="%" horiz-adv-x="769" d="M229 232Q213 233 194 239T157 261T130 302T121 369Q123 413 139 448T185 504T253 525Q267 524 285 518T321 496T348 455T357 388Q355 345 339 310T294 253T229 232ZM230 258Q258 258 279 276T312 323T326 387Q328 419
321 440T302 474T275 492T249 498Q220 498 199 481T166 434T152 369Q150 326 162 302T194 268T230 258ZM547 -1Q531 0 513 6T477 28T451 70T442 135Q444 179 461 215T506 272T574 292Q590 292 608 285T643 262T670 220T678 155Q676 112 659 77T614 20T547 -1ZM550
25Q580 25 601 44T634 93T647 156Q650 198 637 221T606 255T571 265Q542 266 521 249T487 202T472 136Q470 93 483 69T514 36T550 25ZM611 527L219 -1L184 0L576 527H611Z" />
<glyph unicode="&amp;" horiz-adv-x="703" d="M572 0Q569 0 563 0T549 0T536 0T530 0L221 497Q212 511 205 526T195 557T191 590Q192 637 214 673T276 730T373 751Q417 751 452 735T511 699L491 676Q463 696 434 708T374 720Q301 720 265 681T228 588Q228 576
232 563T242 538T254 515L572 0ZM308 363Q274 365 237 354T168 319T116 261T96 183Q95 137 120 101T188 45T283 23Q324 23 361 35T428 69T471 117L491 91Q462 47 405 20T276 -8Q211 -7 161 19T84 89T57 185Q59 232 81 271T139 338T219 380T309 394L308 363ZM611
394H646L497 97L475 119L611 394Z" />
<glyph unicode="&apos;" horiz-adv-x="151" d="M184 723Q176 660 167 598T150 473H119L149 723H184Z" />
<glyph unicode="(" horiz-adv-x="334" d="M105 232Q107 318 127 395T180 539T252 659T332 749L349 723Q299 674 252 601T174 436T141 234Q139 154 153 83T191 -45T244 -140L220 -164Q188 -124 161 -64T119 71T105 232V232Z" />
<glyph unicode=")" horiz-adv-x="334" d="M254 354Q252 267 232 190T179 47T107 -73T27 -164L10 -138Q59 -88 106 -16T185 150T218 352Q219 431 206 502T168 631T115 726L139 750Q171 711 198 651T240 515T254 354V354Z" />
<glyph unicode="*" horiz-adv-x="335" d="M221 552Q193 537 166 523T112 493Q109 499 106 505T100 518Q128 533 155 547T211 576Q187 591 163 606T115 637Q118 642 122 647T130 658Q154 643 178 628T226 598L241 720H270Q266 690 262 660T253 598Q282 613 310
628T367 657Q369 652 371 647T377 636Q348 621 320 606T264 575V575Q288 560 312 545T361 515Q357 510 353 504T343 491Q319 506 295 521T247 552Q243 523 240 494T231 434H206L221 552Z" />
<glyph unicode="+" horiz-adv-x="545" d="M302 412H334L314 248H479L475 217H310L290 51H258L278 217H113L117 248H282L302 412Z" />
<glyph unicode="," horiz-adv-x="201" d="M23 -185L6 -171Q36 -152 50 -119T63 -44L96 -45Q97 -71 91 -98T68 -149T23 -185Z" />
<glyph unicode="-" horiz-adv-x="301" d="M80 212H265L261 181H76L80 212Z" />
<glyph unicode="." horiz-adv-x="164" d="M61 25Q61 38 71 47T94 57Q103 57 110 50T118 31Q118 23 114 16T102 5T86 0Q76 0 69 7T61 25V25Z" />
<glyph unicode="/" horiz-adv-x="337" d="M419 739Q325 549 233 360T47 -19H15Q109 171 201 360T387 739H419Z" />
<glyph unicode="0" horiz-adv-x="624" d="M290 -4Q225 0 178 27T102 101T61 207T56 331Q60 368 71 407T99 484T142 553T201 609T276 645T367 656Q431 652 478 624T555 549T596 443T600 318Q593 253 570 194T507 89T413 18T290 -4ZM293 29Q345 25 390 44T471 103T532
197T565 321Q575 414 550 480T476 583T362 623Q312 626 267 607T185 549T124 455T91 331Q82 238 106 172T179 69T293 29Z" />
<glyph unicode="1" horiz-adv-x="318" d="M119 652H258L177 0H142L218 618H114L119 652Z" />
<glyph unicode="2" horiz-adv-x="543" d="M64 0Q168 90 235 157T342 273T401 359T425 422T430 474Q430 528 409 562T354 611T280 627Q231 627 199 609T148 564T123 507T115 457Q115 428 121 404T141 362L119 343Q108 358 99 375T86 412T81 455Q81 485 90 520T123
587T184 639T282 660Q330 660 372 640T441 580T466 478Q465 438 452 396T403 303T303 184T137 25L125 33H478L474 0H64Z" />
<glyph unicode="3" horiz-adv-x="502" d="M437 652L212 379L184 388Q206 399 229 402T276 404Q326 403 364 382T425 322T448 229Q448 197 438 158T402 82T333 21T222 -6Q192 -7 161 -1T101 23T49 72L68 94Q99 54 140 40T220 27Q275 28 312 48T371 98T403 164T413
230Q413 294 372 333T259 376Q233 378 206 373T162 358L158 362L378 627L388 619H107L111 652H437Z" />
<glyph unicode="4" horiz-adv-x="507" d="M27 177V178L460 660H461L406 206H500L496 177H402L381 0H346L368 177H27ZM427 583L80 192L73 206H371L419 594L427 583Z" />
<glyph unicode="5" horiz-adv-x="535" d="M234 -7Q214 -6 188 0T134 21T84 63L107 87Q125 63 147 51T192 33T233 27Q292 26 333 50T397 113T424 199Q426 236 414 267T380 322T327 359T261 376Q228 378 198 368T146 340L141 341L185 652H478L473 619H210L178 372L176
387Q194 397 221 402T274 405Q314 403 348 388T408 344T447 280T459 200Q457 168 443 132T402 64T333 13T234 -7Z" />
<glyph unicode="6" horiz-adv-x="529" d="M245 -7Q188 -6 143 22T74 96T52 201Q56 256 80 310T151 417T266 525T429 633L449 605Q360 559 293 510T183 410T120 313L112 321Q143 362 189 382T288 401Q327 400 361 385T421 342T461 279T472 201Q470 159 452 121T404
54T333 9T245 -7ZM246 24Q293 23 328 39T387 81T423 138T438 199Q440 246 420 284T361 346T275 371Q227 372 192 356T134 313T99 256T85 197Q82 150 102 112T160 50T246 24Z" />
<glyph unicode="7" horiz-adv-x="472" d="M484 652L119 0H74L429 629L448 619H71L76 652H484Z" />
<glyph unicode="8" horiz-adv-x="519" d="M50 196Q52 246 75 287T136 357T219 395Q182 411 161 444T145 518Q148 548 160 574T193 619T242 650T306 660Q351 659 383 639T432 587T447 514Q444 469 416 436T345 387Q383 374 412 347T457 283T471 201Q469 169 457
139T425 81T376 34T314 3T242 -7Q185 -6 141 22T72 96T50 196ZM85 197Q82 152 102 113T158 49T243 23Q293 22 336 46T407 110T437 201Q439 246 419 285T360 348T274 374Q224 375 182 352T114 288T85 197ZM178 515Q173 470 205 438T289 403Q329 403 356 419T397
461T412 512Q415 564 386 596T307 630Q258 631 222 601T178 515Z" />
<glyph unicode="9" horiz-adv-x="531" d="M258 227Q218 229 183 246T123 292T85 358T77 438Q82 479 101 515T151 579T223 622T310 635Q368 633 413 606T481 531T498 420Q491 350 456 291T367 180T248 84T115 -1L95 28Q188 78 255 128T365 224T426 307L443 301Q404
261 362 243T258 227ZM268 258Q349 253 401 293T464 427Q468 476 449 515T393 577T309 603Q259 606 216 584T146 524T112 438Q107 390 126 350T183 285T268 258Z" />
<glyph unicode=":" horiz-adv-x="176" d="M60 25Q60 38 70 47T93 57Q102 57 109 50T117 31Q117 22 113 16T101 5T86 0Q75 0 68 7T60 25V25ZM91 281Q91 293 101 302T124 312Q134 312 141 305T148 286Q148 277 144 271T132 260T117 256Q107 256 99 262T91 281V281Z" />
<glyph unicode=";" horiz-adv-x="202" d="M116 276Q116 285 120 292T132 303T148 307Q158 307 165 300T172 282Q172 269 163 260T141 251Q130 251 123 258T116 276V276ZM132 87Q104 35 76 -16T21 -121H-9Q17 -68 42 -17T94 87H132Z" />
<glyph unicode="&lt;" horiz-adv-x="661" d="M533 -15Q431 49 330 112T125 239Q243 302 360 365T595 492L590 452Q491 399 392 346T194 239Q280 186 366 133T538 26V26L533 -15Z" />
<glyph unicode="=" horiz-adv-x="711" d="M121 172H629L625 141H117L121 172ZM145 366H653L649 336H141L145 366Z" />
<glyph unicode="&gt;" horiz-adv-x="635" d="M110 26Q210 79 309 132T507 239Q422 292 335 345T162 452L167 492Q270 429 371 366T575 239Q458 176 341 113T105 -15V-15L110 26Z" />
<glyph unicode="?" horiz-adv-x="451" d="M219 262Q223 293 236 312T270 346T315 374T366 409Q406 441 425 478T445 557Q445 599 427 632T375 684T299 703Q260 703 226 689T166 649T124 587V587Q117 589 110 591T97 596Q110 623 129 647T175 691T234 723T303 735Q354
735 393 711T454 648T476 559Q476 498 444 453T357 369Q330 352 308 339T270 306T249 243L239 165H207L219 262ZM205 19Q196 19 189 26T181 44Q181 58 191 66T212 75Q221 75 229 68T237 50Q237 37 227 28T205 19V19Z" />
<glyph unicode="@" horiz-adv-x="973" d="M404 -210Q322 -210 257 -187T145 -119T73 -9T48 139Q48 192 66 254T122 377T221 488T367 569T564 600Q645 600 711 575T826 504T900 398T927 266Q927 213 911 163T865 75T798 14T714 -9Q677 -9 655 8T626 59T628 137L635
118Q618 84 587 56T519 10T441 -7Q387 -7 346 15T281 78T259 171Q259 231 288 282T368 364T479 395Q523 395 557 380T614 340T648 280L667 385H697L658 109Q656 88 659 68T676 35T719 21Q753 21 784 41T840 96T879 175T893 266Q893 352 851 421T734 530T560 571Q454
571 375 542T240 463T149 357T98 243T81 142Q81 65 103 5T167 -97T271 -160T409 -181Q470 -181 527 -162T636 -110L651 -133Q614 -158 574 -175T491 -201T404 -210ZM450 22Q491 22 530 42T597 98T633 179L640 228Q637 267 616 298T560 347T481 366Q432 366 390
340T321 271T295 173Q295 131 314 97T369 42T450 22Z" />
<glyph unicode="A" horiz-adv-x="707" d="M68 0H32L418 738H422L627 0H588L402 678L428 689L68 0ZM201 281H530L533 249H189L201 281Z" />
<glyph unicode="B" horiz-adv-x="584" d="M326 706Q418 706 467 672T516 560Q516 520 503 476T459 398T371 353V357Q409 351 440 332T490 280T509 205Q509 154 493 116T447 52T376 13T285 0H92L179 706H326ZM315 370Q369 370 401 390T451 440T474 500T480 549Q480
615 440 644T324 673H210L173 370H315ZM287 32Q354 32 395 57T455 121T474 204Q474 251 449 280T387 324T312 339H168L132 32H287Z" />
<glyph unicode="C" horiz-adv-x="697" d="M604 31Q580 19 553 9T494 -6T429 -12Q357 -12 295 12T188 80T117 185T91 319Q91 369 103 422T143 527T215 619T323 684T472 708Q532 708 584 691T678 644L658 614Q622 641 574 657T473 675Q379 675 313 644T206 560T145
445T126 321Q126 254 149 199T214 105T311 43T429 21Q460 21 488 26T542 41T590 61L604 31Z" />
<glyph unicode="D" horiz-adv-x="735" d="M92 0L179 706H334Q435 706 503 680T611 608T667 504T682 382Q680 289 649 218T564 98T437 25T281 0H92ZM131 34H287Q360 34 424 56T539 122T617 231T647 382Q648 443 632 495T580 587T485 649T344 671H209L131 34Z" />
<glyph unicode="E" horiz-adv-x="635" d="M179 706H608L603 673H210L173 372H527L523 339H168L132 34H539L535 0H92L179 706Z" />
<glyph unicode="F" horiz-adv-x="575" d="M179 706H567L563 672H210L172 363H486L481 329H167L128 0H92L179 706Z" />
<glyph unicode="G" horiz-adv-x="743" d="M627 32Q603 19 570 9T501 -6T430 -11Q376 -11 330 1T245 36T178 88T129 156T99 236T90 325Q92 375 107 429T153 533T229 622T337 685T480 708Q537 707 588 691T681 645L663 615Q626 642 578 658T478 674Q402 674 344
652T245 593T178 510T140 417T126 325Q125 277 137 233T173 152T233 88T313 43T414 23Q458 21 508 28T595 53L622 276H456L460 309H662L627 32Z" />
<glyph unicode="H" horiz-adv-x="745" d="M690 706L604 0H568L611 339H169L128 0H92L179 706H214L173 372H614L655 706H690Z" />
<glyph unicode="I" horiz-adv-x="268" d="M179 706H214L128 0H92L179 706Z" />
<glyph unicode="J" horiz-adv-x="321" d="M193 100Q183 23 149 -31T66 -113T-40 -144V-144L-35 -110Q13 -107 54 -82T123 -10T159 103L233 706H267L193 100Z" />
<glyph unicode="K" horiz-adv-x="648" d="M173 378L167 343L168 349L579 706H624L297 421L575 0H531L269 399L164 310L127 0H92L179 706H214L173 378Z" />
<glyph unicode="L" horiz-adv-x="570" d="M179 706H213L131 34H527L523 0H92L179 706Z" />
<glyph unicode="M" horiz-adv-x="903" d="M126 0H92L181 720H182L465 235L447 237L849 720H850L761 0H727L805 639L806 623L451 196H449L198 623L205 637L126 0Z" />
<glyph unicode="N" horiz-adv-x="819" d="M677 -15H675L196 642L205 650L126 0H92L180 719H182L663 56L652 57L731 706H765L677 -15Z" />
<glyph unicode="O" horiz-adv-x="867" d="M430 -7Q360 -7 298 17T190 85T117 190T91 326Q91 392 116 460T189 585T309 678T475 713Q545 713 606 689T714 621T787 516T814 380Q814 314 789 246T716 121T596 29T430 -7ZM431 26Q514 26 579 58T688 142T756 256T779
378Q779 439 756 493T692 590T595 656T473 680Q390 680 326 648T217 564T149 450T126 327Q126 266 148 212T212 116T309 50T431 26Z" />
<glyph unicode="P" horiz-adv-x="540" d="M332 706Q364 706 397 697T459 667T505 613T523 534Q523 493 509 453T464 380T386 327T275 307H165L128 0H92L179 706H332ZM281 341Q341 341 380 361T443 410T477 472T487 530Q487 571 467 603T409 653T322 672H210L169 341H281Z" />
<glyph unicode="Q" horiz-adv-x="921" d="M600 28L833 34L829 0H527L600 28ZM474 -7Q404 -7 342 17T234 85T161 190T135 326Q135 392 160 460T233 585T353 678T519 713Q589 713 650 689T758 621T831 516T858 380Q858 314 833 246T760 121T640 29T474 -7ZM475 26Q558
26 623 58T732 142T800 256T823 378Q823 439 800 493T736 590T639 656T517 680Q434 680 370 648T261 564T193 450T170 327Q170 266 193 212T257 116T353 50T475 26Z" />
<glyph unicode="R" horiz-adv-x="625" d="M332 706Q367 706 403 696T468 662T512 601T521 512Q516 473 500 437T455 371T381 325T275 307H164L126 0H92L179 706H332ZM276 341Q351 341 395 367T461 433T486 510Q490 545 481 574T451 626T400 660T331 673H209L169
341H276ZM371 329L530 0H490L330 328L371 329Z" />
<glyph unicode="S" horiz-adv-x="544" d="M501 628Q471 643 424 659T328 677Q279 677 247 663T197 626T171 582T162 544Q162 507 184 481T242 435T318 395Q361 376 401 353T466 293T491 200Q490 168 477 132T437 64T367 12T262 -7Q208 -6 165 7T90 39T37 79L57
106Q77 86 109 68T181 37T264 24Q328 24 370 51T433 118T455 199Q455 245 432 276T372 329T294 369Q263 382 233 398T178 434T139 480T127 541Q128 592 155 629T228 687T328 707Q361 707 395 700T460 681T518 653L501 628Z" />
<glyph unicode="T" horiz-adv-x="576" d="M120 706H581L576 672H363L281 0H246L328 672H116L120 706Z" />
<glyph unicode="U" horiz-adv-x="706" d="M157 235Q149 169 169 122T231 50T332 25Q396 25 444 50T521 122T559 235L616 706H651L594 233Q584 156 550 102T460 20T328 -8V-8Q261 -8 211 20T136 102T121 233L179 706H214L157 235Z" />
<glyph unicode="V" horiz-adv-x="693" d="M319 -29L112 706H152L338 28L318 30L667 706H706L320 -29H319Z" />
<glyph unicode="W" horiz-adv-x="984" d="M112 705H151L316 39L307 41L507 447L519 404L300 -33L112 705ZM434 705H469L639 37L627 41L961 705H998L623 -32L434 705Z" />
<glyph unicode="X" horiz-adv-x="597" d="M116 706H159L532 0H488L116 706ZM20 0L300 370L319 342L63 0H20ZM317 380L561 706H604L336 353L317 380Z" />
<glyph unicode="Y" horiz-adv-x="652" d="M315 257L108 706H148L344 286L331 285L627 706H671L351 257L320 0H284L315 257Z" />
<glyph unicode="Z" horiz-adv-x="636" d="M12 0L595 682L603 673H183Q165 673 152 677T132 691T127 721L130 741H164L162 729Q161 719 167 713T190 706H655L73 27L69 33H601L597 0H12Z" />
<glyph unicode="[" horiz-adv-x="352" d="M185 749H356L352 717H214L111 -118H250L246 -150H74L185 749Z" />
<glyph unicode="\" horiz-adv-x="337" d="M137 739Q184 549 230 360T323 -19H288Q242 171 196 360T103 739H137Z" />
<glyph unicode="]" horiz-adv-x="389" d="M169 749H340L230 -150H59L63 -118H201L303 717H166L169 749Z" />
<glyph unicode="^" horiz-adv-x="471" d="M385 481Q374 502 361 525T334 572T309 618Q292 596 273 573T235 526T198 481H172Q207 526 243 571T314 662V662Q339 617 363 572T412 481H385Z" />
<glyph unicode="_" horiz-adv-x="602" d="M105 31H506L502 0H101L105 31Z" />
<glyph unicode="`" horiz-adv-x="201" d="M94 614L166 481H139L56 614H94Z" />
<glyph unicode="a" horiz-adv-x="553" d="M235 -6Q183 -6 142 18T76 85T52 180Q52 213 64 250T101 320T167 374T264 395Q309 395 345 379T406 335T442 271L435 258L456 385H484L438 0H405L419 117L423 100Q412 79 393 60T350 26T297 3T235 -6ZM249 23Q293 23 330
41T392 93T426 169L431 219Q428 260 406 293T348 346T267 365Q217 365 183 347T127 300T97 240T87 184Q87 139 108 103T165 45T249 23Z" />
<glyph unicode="b" horiz-adv-x="554" d="M289 -6Q223 -6 175 30T109 122L118 143L101 0H68L160 756H194L135 273L133 292Q160 337 208 365T315 394Q371 394 413 371T478 306T502 207Q502 155 481 106T412 26T289 -6ZM289 23Q340 23 374 40T428 85T458 144T467
205Q467 251 448 287T394 344T306 366Q244 366 196 330T131 237L122 175Q124 159 132 134T158 83T208 41T289 23Z" />
<glyph unicode="c" horiz-adv-x="430" d="M365 28Q339 11 308 2T244 -8Q206 -8 172 5T110 42T68 101T52 179Q52 221 68 259T113 326T180 373T264 391Q308 391 343 377T404 338L383 315Q362 335 332 348T266 362Q219 362 178 338T112 272T87 180Q87 136 107 100T164
43T249 21Q277 21 302 29T349 51L365 28Z" />
<glyph unicode="d" horiz-adv-x="556" d="M231 -4Q176 -2 134 26T70 101T54 201Q58 245 77 282T126 345T195 384T278 395Q340 392 385 356T448 268L437 255L499 756H533L439 0H405L420 117L424 100Q395 51 343 21T231 -4ZM239 24Q284 22 324 40T392 94T427 173L432
216Q429 256 409 289T356 344T280 366Q231 369 190 350T121 293T88 204Q83 156 101 117T156 53T239 24Z" />
<glyph unicode="e" horiz-adv-x="479" d="M247 22Q278 22 307 32T359 61L374 35Q347 16 314 5T245 -7Q188 -7 145 17T77 85T52 182Q52 224 68 262T113 330T181 377T266 394Q301 394 329 384T381 355T419 309T443 245L85 132L79 159L419 266L405 254Q391 300 355
332T266 365Q216 365 175 341T110 276T86 185Q86 141 106 104T162 45T247 22Z" />
<glyph unicode="f" horiz-adv-x="308" d="M92 0L134 352H68L72 383H138L163 586Q174 681 209 721T304 761Q316 761 329 758T353 749L335 725Q330 729 323 731T304 733Q259 733 233 702T197 588L172 383H302L299 352H168L125 0H92Z" />
<glyph unicode="g" horiz-adv-x="556" d="M234 -186Q202 -186 171 -180T110 -155T45 -98L68 -76Q100 -112 128 -128T184 -150T235 -155Q293 -155 327 -136T380 -86T403 -15L420 116L428 109Q404 56 353 25T240 -6Q186 -6 144 18T77 86T52 184Q52 212 63 247T100
316T165 372T264 394Q330 394 379 360T444 273L436 260L459 385H488L438 -20Q433 -64 411 -102T345 -163T234 -186ZM269 365Q217 365 182 346T126 297T96 238T87 184Q87 139 107 103T164 45T248 23Q292 23 330 42T394 95T427 167L433 218Q430 259 408 293T350 346T269
365Z" />
<glyph unicode="h" horiz-adv-x="500" d="M134 296Q159 338 207 366T312 394Q367 394 395 362T419 279L385 0H351L385 276Q388 312 368 337T306 363Q262 363 224 344T160 291T128 213L101 0H68L160 756H194L136 283L134 296Z" />
<glyph unicode="i" horiz-adv-x="217" d="M115 385H149L101 0H68L115 385ZM375 1019Q376 1031 386 1039T409 1047Q420 1047 427 1040T434 1021Q433 1008 423 1000T402 992Q390 992 383 1000T375 1019Z" />
<glyph unicode="j" horiz-adv-x="231" d="M-9 -170Q27 -144 49 -106T80 -15L130 385H163L116 -3Q108 -69 81 -116T8 -190L-9 -170ZM383 1019Q384 1031 394 1039T417 1047Q428 1047 435 1040T442 1021Q441 1008 431 1000T410 992Q398 992 391 1000T383 1019Z" />
<glyph unicode="k" horiz-adv-x="437" d="M68 0L160 756H195L101 0H68ZM218 248L368 0H329L192 229L218 248ZM107 145L105 180L366 392L389 374L107 145Z" />
<glyph unicode="l" horiz-adv-x="217" d="M160 756H195L101 0H68L160 756Z" />
<glyph unicode="m" horiz-adv-x="777" d="M143 385L134 279L132 292Q160 338 207 366T311 394Q359 394 388 368T417 299L415 297Q442 341 489 367T590 394Q644 394 672 363T696 282L662 0H627L661 276Q664 311 645 336T585 363Q542 363 505 344T442 293T409 219L382
0H347L381 276Q384 311 365 336T304 363Q262 363 224 344T160 290T128 214L101 0H68L115 385H143Z" />
<glyph unicode="n" horiz-adv-x="500" d="M143 385L137 283L130 291Q155 337 201 365T307 394Q365 394 395 363T419 279L385 0H351L384 273Q390 312 366 337T296 363Q254 363 218 344T157 291T128 213L101 0H68L115 385H143Z" />
<glyph unicode="o" horiz-adv-x="511" d="M244 -7Q205 -7 170 6T109 44T67 103T52 180Q52 217 65 255T104 324T170 374T267 394Q321 394 364 370T432 304T458 208Q458 179 450 149T426 91T385 41T324 6T244 -7ZM246 22Q307 22 346 49T405 119T424 206Q424 240
412 269T378 319T327 353T265 365Q204 365 165 338T106 268T87 182Q87 136 108 100T165 43T246 22Z" />
<glyph unicode="p" horiz-adv-x="551" d="M272 -7Q212 -7 167 25T106 106L110 88L79 -185H46L115 386H146L132 252L126 281Q156 331 210 363T323 395Q374 395 414 372T477 310T500 220Q500 158 469 107T387 24T272 -7ZM272 22Q324 22 368 48T438 119T465 215Q465
258 446 292T392 346T314 366Q269 366 229 346T161 291T126 209L122 175Q120 157 126 132T150 81T197 39T272 22Z" />
<glyph unicode="q" horiz-adv-x="552" d="M228 -7Q179 -7 139 16T75 79T51 170Q51 215 68 255T117 327T189 377T275 395Q338 395 383 362T443 278L434 255L451 385H483L414 -185H380L416 119L427 109Q414 86 395 65T349 28T293 3T228 -7ZM236 22Q281 22 320 42T387
98T424 177L429 210Q430 230 424 256T400 308T353 349T278 366Q226 366 182 339T111 268T84 171Q84 129 104 95T158 42T236 22Z" />
<glyph unicode="r" horiz-adv-x="332" d="M143 385L132 279Q149 316 177 341T241 379T312 394L308 361Q263 361 224 341T159 288T128 212L101 0H68L115 385H143Z" />
<glyph unicode="s" horiz-adv-x="358" d="M160 -8Q140 -7 117 -2T71 16T34 51L54 71Q65 55 82 44T119 27T162 21Q201 20 228 41T258 98Q259 126 246 142T210 169T163 189Q127 204 102 226T79 288Q80 310 89 328T114 361T151 383T198 391Q209 390 228 386T269 372T308
340L289 317Q273 342 246 351T198 362Q176 362 158 354T127 330T114 294Q113 272 123 257T152 233T191 214Q217 202 241 190T279 157T292 102Q291 84 284 65T261 29T221 2T160 -8Z" />
<glyph unicode="t" horiz-adv-x="315" d="M174 553H208L187 378H311L307 349H183L140 0H107L149 349H63L67 378H153L174 553Z" />
<glyph unicode="u" horiz-adv-x="498" d="M187 -10Q134 -10 105 20T81 102L115 385H149L115 108Q110 73 132 48T200 20Q240 20 277 40T339 94T370 172L397 385H430L383 0H354L365 112L368 103Q355 73 327 47T262 6T187 -10Z" />
<glyph unicode="v" horiz-adv-x="443" d="M194 -16L54 385H92L211 25H192L397 385H435L199 -16H194Z" />
<glyph unicode="w" horiz-adv-x="663" d="M423 -21L333 255L188 -20H184L54 385H88L201 33L189 37L322 287L289 385H321L434 37L425 36L620 385H654L426 -21H423Z" />
<glyph unicode="x" horiz-adv-x="378" d="M348 0H309L70 385H112L348 0ZM211 213L352 384H390L225 188L211 213ZM208 172L66 0H27L192 196L208 172Z" />
<glyph unicode="y" horiz-adv-x="436" d="M92 -185L411 385H447L130 -185H92ZM199 -4L66 385H104L227 14L199 -4Z" />
<glyph unicode="z" horiz-adv-x="386" d="M122 355Q90 355 76 366T64 408L65 421H92V409Q92 398 98 392T121 385H371L70 22L60 29H323L319 0H15L317 366L324 355H122Z" />
<glyph unicode="{" horiz-adv-x="290" d="M278 717Q258 717 245 707T225 673T212 608L195 462Q188 405 175 374T144 326T109 300Q124 290 137 274T156 226T154 138L137 -8Q132 -48 133 -72T145 -107T176 -118H230L226 -149H182Q161 -149 144 -147T116 -133T102
-90T106 -4L124 145Q127 172 125 203T108 256T61 280V280L65 319Q98 321 118 343T148 396T161 454L183 630Q189 676 200 700T225 735T257 747T293 749H336L332 717H278Z" />
<glyph unicode="|" horiz-adv-x="263" d="M182 703H214L99 -233H67L182 703Z" />
<glyph unicode="}" horiz-adv-x="329" d="M118 -118Q138 -118 150 -108T170 -73T183 -8L204 166Q210 209 224 236T256 278T287 300Q272 310 259 326T240 373T241 462L258 608Q264 649 263 673T251 707T220 717H166L170 749H213Q232 749 248 747T277 735T294 701T293
630L275 481Q273 463 271 437T273 384T291 339T334 319V319L329 280Q300 279 282 260T253 215T238 163T230 118L212 -31Q206 -77 196 -101T171 -136T139 -147T103 -149H60L64 -118H118Z" />
<glyph unicode="~" horiz-adv-x="483" d="M270 449Q240 451 224 466T193 501Q182 516 170 529T137 544Q125 545 112 538T86 511T68 455L44 459Q49 498 64 524T99 562T140 573Q169 572 185 556T214 521Q226 504 239 491T272 477Q286 476 299 483T322 511T338 566L362
563Q357 523 344 497T311 460T270 449Z" />
<glyph unicode="&#xa0;" horiz-adv-x="300" />
<glyph unicode="&#xa1;" horiz-adv-x="200" d="M86 -181H54L126 400H157L86 -181ZM170 529Q176 521 174 513T162 498Q155 493 147 494T132 503Q127 511 130 520T141 533Q150 539 157 537T170 529Z" />
<glyph unicode="&#xa2;" horiz-adv-x="430" d="M270 449H295L232 -68H206L270 449ZM365 28Q339 11 308 2T244 -8Q206 -8 172 5T110 42T68 101T52 179Q52 221 68 259T113 326T180 373T264 391Q308 391 343 377T404 338L383 315Q362 335 332 348T266 362Q219 362
178 338T112 272T87 180Q87 136 107 100T164 43T249 21Q277 21 302 29T349 51L365 28Z" />
<glyph unicode="&#xa3;" horiz-adv-x="568" d="M310 340L306 306H75L80 340H310ZM165 510Q171 556 196 587T262 634T354 650Q422 650 456 625T507 558L480 542Q469 567 454 583T415 608T350 616Q297 616 266 601T219 561T199 504L156 156L153 126Q151 113 147
95T136 60T119 34H113H354Q408 34 433 44T461 84L468 137H499L494 93Q491 69 483 48T447 13T361 0H6L11 34H55Q79 34 91 46T110 88T124 172L165 510Z" />
<glyph unicode="&#xa4;" horiz-adv-x="501" d="M405 444Q415 429 420 410T425 370Q425 341 413 316T381 271L414 233L395 215Q386 225 378 234T361 254Q320 224 271 224Q247 224 226 232T189 255V255L147 216L130 235L173 273Q162 289 156 309T151 351V351Q151
379 162 403T192 448Q185 457 178 466T162 484L181 501L212 465Q232 480 255 489T305 498Q330 498 351 489T389 463V463L429 498L445 480L405 444ZM176 352Q175 309 203 279T274 249Q308 249 336 265T382 308T400 370Q401 413 373 443T302 473Q269 473 241 457T194
413T176 352V352Z" />
<glyph unicode="&#xa5;" horiz-adv-x="652" d="M156 283H496L494 253H154L156 283ZM154 124H493L490 94H151L154 124ZM318 282L108 706H148L347 310L334 308L627 706H671L355 282L320 0H284L318 282Z" />
<glyph unicode="&#xa6;" horiz-adv-x="216" d="M108 118H140L97 -234H65L108 118ZM180 703H212L169 351H137L180 703Z" />
<glyph unicode="&#xa7;" horiz-adv-x="563" d="M346 130L337 142Q373 131 402 113T446 66T457 -4Q452 -49 419 -84T336 -137T225 -152Q171 -149 130 -133T60 -98T18 -67L38 -40Q58 -57 87 -75T151 -105T225 -120Q270 -123 313 -111T386 -71T420 -3Q426 37 405
62T346 103T265 132Q231 144 198 158T140 191T101 238T92 306Q97 352 126 385T200 436T292 449L287 439Q248 453 217 473T169 522T157 594Q162 630 190 661T263 710T365 724Q406 721 454 706T536 670L517 645Q490 662 449 676T365 694Q316 697 278 683T218 645T193
593Q188 554 207 530T264 488T351 456Q385 445 418 431T476 398T515 349T523 280Q516 219 467 179T346 130ZM488 278Q494 320 472 348T409 394T322 429Q240 434 187 400T127 310Q121 265 143 238T210 191T315 151Q348 152 386 166T454 209T488 278Z" />
<glyph unicode="&#xa8;" horiz-adv-x="371" d="M128 508Q128 520 137 528T157 536Q168 535 176 527T184 507Q183 495 174 487T154 479Q143 479 135 488T128 508V508ZM298 508Q299 520 307 528T328 536Q339 535 347 527T354 507Q354 495 345 487T324 479Q313 479
305 487T298 508V508Z" />
<glyph unicode="&#xa9;" horiz-adv-x="806" d="M513 221Q492 210 467 203T412 196Q364 200 329 225T278 289T268 373Q274 422 301 459T370 516T456 533Q480 532 503 525T544 503L527 477Q511 490 493 496T454 504Q419 506 387 490T331 443T302 371Q298 333 311
302T353 250T419 227Q441 226 461 231T500 246L513 221ZM391 89Q333 92 286 115T205 178T157 269T149 380Q156 439 183 488T253 571T347 623T458 638Q515 634 562 611T643 548T691 457T699 345Q692 287 666 238T600 155T506 103T391 89ZM394 119Q462 115 521 143T620
224T668 346Q677 418 651 475T573 568T453 608Q386 613 327 584T229 502T180 377Q172 307 194 250T267 159T394 119Z" />
<glyph unicode="&#xaa;" horiz-adv-x="413" d="M211 416Q172 416 142 434T97 486T86 562Q92 609 115 641T173 691T247 709Q291 709 321 687T363 628L375 702H399L365 420H337L349 511L350 500Q339 477 318 458T269 428T211 416ZM220 440Q252 440 281 454T329 494T353
552L358 586Q354 627 324 655T249 684Q200 684 162 651T115 562Q111 528 123 501T161 457T220 440Z" />
<glyph unicode="&#xab;" horiz-adv-x="603" d="M147 240Q160 251 175 264T208 293T242 324T277 354T309 382T339 408L334 371Q318 356 300 339T264 305T227 272T192 240Q204 225 218 208T246 174T275 139T302 107L297 71L147 240ZM318 240Q332 251 347 264T380
293T414 324T449 354T481 382T511 408L506 371Q489 356 471 339T435 305T398 272T363 240Q376 225 390 208T418 174T446 139T473 107L469 71L318 240Z" />
<glyph unicode="&#xac;" horiz-adv-x="545" d="M120 255H480L466 139H432L442 221H115L120 255Z" />
<glyph unicode="&#xad;" horiz-adv-x="600" d="M80 212H265L261 181H76L80 212Z" />
<glyph unicode="&#xae;" horiz-adv-x="382" d="M217 398Q174 401 142 422T93 479T83 559Q88 603 112 636T174 687T253 702Q296 699 328 678T377 621T387 540Q382 497 358 464T297 414T217 398ZM218 421Q254 419 285 434T338 477T363 542Q367 579 354 609T313 658T251
679Q215 681 184 666T133 623T108 557Q103 521 116 491T157 442T218 421ZM192 644L245 641Q266 641 282 627T294 586Q292 561 277 548T232 536L201 537L193 470H170L192 644ZM229 555Q249 554 259 563T271 587Q273 604 263 611T240 620L214 622L206 557L229 555ZM255
540L286 465L260 466L231 541L255 540Z" />
<glyph unicode="&#xaf;" horiz-adv-x="400" d="M148 514H379L376 490H145L148 514Z" />
<glyph unicode="&#xb0;" horiz-adv-x="283" d="M112 555Q113 581 126 601T160 633T206 644Q239 644 259 622T279 567Q278 542 265 522T231 491T186 479Q152 480 132 501T112 555V555ZM189 503Q216 503 235 521T255 566Q256 589 241 604T203 620Q177 621 157 603T136
557Q136 534 151 519T189 503V503Z" />
<glyph unicode="&#xb1;" horiz-adv-x="526" d="M321 573H353L333 409H498L495 377H330L309 212H277L298 377H133L136 409H301L321 573ZM106 156H467L463 124H102L106 156Z" />
<glyph unicode="&#xb2;" horiz-adv-x="398" d="M155 652Q165 665 180 675T213 692T252 699Q300 698 325 673T343 595Q340 564 320 534T271 474T209 418T147 364L149 387H333L329 358H114L116 371Q149 398 181 426T241 482T287 537T308 589Q313 633 293 651T242
669Q215 669 197 659T165 632L155 652Z" />
<glyph unicode="&#xb3;" horiz-adv-x="408" d="M187 358Q154 358 133 371T99 399L113 420Q120 411 130 403T155 388T189 383Q228 383 254 409T285 474Q290 511 269 529T216 548Q194 548 181 544T153 535L152 539L275 682L285 670H141L145 697H318L194 551L169
552Q180 560 196 564T229 569Q254 571 275 559T309 525T317 473Q313 440 296 414T250 373T187 358Z" />
<glyph unicode="&#xb4;" horiz-adv-x="233" d="M289 614L177 481H150L252 614H289Z" />
<glyph unicode="&#xb5;" horiz-adv-x="498" d="M187 -10Q143 -10 116 13T82 73L109 90L74 -201H44L82 109L115 385H149L116 114Q112 75 133 49T200 20Q240 20 277 40T339 94T370 172L397 385H430L383 0H354L364 103Q350 72 323 47T261 6T187 -10Z" />
<glyph unicode="&#xb6;" horiz-adv-x="505" d="M254 424Q212 424 180 443T129 496T110 571Q110 621 135 662T203 728T294 753H489L396 0H365L454 722H322L233 0H202L254 424Z" />
<glyph unicode="&#xb7;" horiz-adv-x="176" d="M94 278Q94 291 104 300T127 310Q136 310 143 303T151 284Q151 276 147 269T135 258T119 253Q109 253 102 260T94 278V278Z" />
<glyph unicode="&#xb8;" horiz-adv-x="453" d="M129 -170Q139 -182 157 -190T201 -201Q239 -202 264 -189T293 -148Q296 -123 279 -105T221 -84Q205 -83 183 -86T149 -94L136 -73L218 4L244 -3L166 -83L150 -74Q162 -68 185 -64T230 -61Q279 -64 304 -87T324 -150Q321
-177 304 -194T260 -219T201 -224Q172 -222 150 -212T114 -189L129 -170Z" />
<glyph unicode="&#xb9;" horiz-adv-x="256" d="M128 655H209L171 337H138L173 624H125L128 655Z" />
<glyph unicode="&#xba;" horiz-adv-x="382" d="M88 567Q93 608 116 640T176 690T253 706Q295 703 326 681T373 625T384 548Q379 508 355 476T296 426T217 411Q176 414 145 434T99 489T88 567ZM116 565Q113 531 125 503T163 457T221 436Q253 434 282 449T331 490T355
550Q359 584 347 612T309 659T250 680Q216 682 187 666T139 624T116 565Z" />
<glyph unicode="&#xbb;" horiz-adv-x="603" d="M431 240Q418 251 402 264T370 293T335 324T301 354T268 382T239 408L244 371Q260 356 278 339T314 305T351 272T386 240Q373 225 359 208T331 174T303 139T276 107L281 71L431 240ZM260 240Q246 251 231 264T198
293T164 324T129 354T97 382T67 408L72 371Q89 356 106 339T143 305T180 272T215 240Q202 225 188 208T160 174T131 139T105 107L109 71L260 240Z" />
<glyph unicode="&#xbc;" horiz-adv-x="788" d="M601 757Q508 568 416 379T229 0H198Q291 190 384 379T570 757H601ZM128 655H209L171 337H138L173 624H125L128 655ZM724 131L720 108H486L488 120L692 328H709L669 1H638L674 289L681 284L518 120L513 131H724Z" />
<glyph unicode="&#xbd;" horiz-adv-x="785" d="M132 655H213L175 337H142L177 624H129L132 655ZM576 758Q482 568 390 379T203 0H171Q265 190 358 379T544 758H576ZM492 294Q502 307 517 317T550 334T589 341Q637 340 662 315T680 237Q677 206 657 176T608 116T546
60T484 6L486 29H670L666 0H451L453 13Q486 40 518 68T578 124T624 179T645 231Q650 275 630 293T579 311Q552 311 534 301T502 274L492 294Z" />
<glyph unicode="&#xbe;" horiz-adv-x="766" d="M420 358Q387 358 366 371T332 399L346 420Q353 411 363 403T388 388T422 383Q461 383 487 409T518 474Q523 511 502 529T449 548Q427 548 414 544T386 535L385 539L508 682L518 670H374L378 697H551L427 551L402
552Q413 560 429 564T462 569Q487 571 508 559T542 525T550 473Q546 440 529 414T483 373T420 358ZM605 758Q511 568 419 379T232 0H200Q294 190 387 379T573 758H605ZM702 130L699 107H464L466 119L670 327H687L647 0H616L652 289L660 283L496 119L491 130H702Z"
/>
<glyph unicode="&#xbf;" horiz-adv-x="416" d="M285 277Q281 246 268 227T234 193T190 165T139 130Q98 98 79 61T60 -18Q60 -60 78 -93T129 -145T205 -164Q244 -164 278 -150T339 -110T381 -48V-48Q387 -50 394 -52T407 -57Q394 -84 375 -108T329 -152T271 -184T201
-196Q150 -196 111 -172T50 -108T28 -20Q28 41 60 87T147 170Q174 187 196 200T234 234T255 296L265 374H297L285 277ZM300 520Q309 520 316 513T324 495Q324 481 314 473T293 464Q283 464 275 471T267 489Q267 503 277 511T300 520V520Z" />
<glyph unicode="&#xc0;" horiz-adv-x="707" d="M68 0H32L418 738H422L627 0H588L402 678L428 689L68 0ZM201 281H530L533 249H189L201 281ZM375 958L447 825H420L337 958H375Z" />
<glyph unicode="&#xc1;" horiz-adv-x="707" d="M68 0H32L418 738H422L627 0H588L402 678L428 689L68 0ZM201 281H530L533 249H189L201 281ZM570 958L458 825H431L533 958H570Z" />
<glyph unicode="&#xc2;" horiz-adv-x="707" d="M68 0H32L418 738H422L627 0H588L402 678L428 689L68 0ZM201 281H530L533 249H189L201 281ZM524 825L439 971L451 973L330 825H296L448 1006V1006L557 825H524Z" />
<glyph unicode="&#xc3;" horiz-adv-x="707" d="M68 0H32L418 738H422L627 0H588L402 678L428 689L68 0ZM201 281H530L533 249H189L201 281ZM510 789Q481 791 464 806T433 841Q422 856 410 869T377 884Q366 885 352 877T327 850T308 795L284 799Q290 838 305 864T340
902T381 912Q409 911 425 895T454 860Q466 844 479 831T513 816Q526 815 539 822T562 850T578 906L602 903Q597 862 584 837T551 800T510 789Z" />
<glyph unicode="&#xc4;" horiz-adv-x="707" d="M68 0H32L418 738H422L627 0H588L402 678L428 689L68 0ZM201 281H530L533 249H189L201 281ZM326 852Q326 864 335 872T355 880Q366 879 374 871T382 851Q381 839 372 831T352 823Q341 823 333 832T326 852V852ZM496
852Q497 864 505 872T526 880Q537 879 545 871T552 851Q552 839 543 831T522 823Q511 823 503 831T496 852V852Z" />
<glyph unicode="&#xc5;" horiz-adv-x="707" d="M68 0H32L418 738H422L627 0H588L402 678L428 689L68 0ZM201 281H530L533 249H189L201 281ZM365 825Q366 859 388 878T441 898Q471 897 490 879T508 832Q507 798 485 778T432 759Q402 760 384 778T365 825ZM389 826Q389
807 401 794T433 780Q453 780 468 793T484 829Q485 849 473 862T441 876Q421 876 406 863T389 826Z" />
<glyph unicode="&#xc6;" horiz-adv-x="929" d="M529 706H901L897 672H559L522 372H821L817 338H518L481 34H833L829 0H442L529 706ZM539 679Q536 672 532 665T526 651L37 0H-2L529 706L539 679ZM183 230H480L477 201H173L183 230Z" />
<glyph unicode="&#xc7;" horiz-adv-x="697" d="M604 31Q580 19 553 9T494 -6T429 -12Q357 -12 295 12T188 80T117 185T91 319Q91 369 103 422T143 527T215 619T323 684T472 708Q532 708 584 691T678 644L658 614Q622 641 574 657T473 675Q379 675 313 644T206
560T145 445T126 321Q126 254 149 199T214 105T311 43T429 21Q460 21 488 26T542 41T590 61L604 31ZM321 -173Q331 -185 349 -193T393 -204Q431 -205 456 -192T485 -151Q488 -126 471 -108T413 -87Q397 -86 375 -89T341 -97L328 -76L410 1L436 -6L358 -86L342 -77Q354
-71 377 -67T422 -64Q471 -67 496 -90T516 -153Q513 -180 496 -197T452 -222T393 -227Q364 -225 342 -215T306 -192L321 -173Z" />
<glyph unicode="&#xc8;" horiz-adv-x="635" d="M179 706H608L603 673H210L173 372H527L523 339H168L132 34H539L535 0H92L179 706ZM333 934L405 801H378L295 934H333Z" />
<glyph unicode="&#xc9;" horiz-adv-x="635" d="M179 706H608L603 673H210L173 372H527L523 339H168L132 34H539L535 0H92L179 706ZM528 934L416 801H389L491 934H528Z" />
<glyph unicode="&#xca;" horiz-adv-x="635" d="M179 706H608L603 673H210L173 372H527L523 339H168L132 34H539L535 0H92L179 706ZM481 801L396 947L408 949L287 801H253L405 982V982L514 801H481Z" />
<glyph unicode="&#xcb;" horiz-adv-x="635" d="M179 706H608L603 673H210L173 372H527L523 339H168L132 34H539L535 0H92L179 706ZM284 828Q284 840 293 848T313 856Q324 855 332 847T340 827Q339 815 330 807T310 799Q299 799 291 808T284 828V828ZM454 828Q455
840 463 848T484 856Q495 855 503 847T510 827Q510 815 501 807T480 799Q469 799 461 807T454 828V828Z" />
<glyph unicode="&#xcc;" horiz-adv-x="268" d="M179 706H214L128 0H92L179 706ZM148 934L220 801H193L110 934H148Z" />
<glyph unicode="&#xcd;" horiz-adv-x="268" d="M179 706H214L128 0H92L179 706ZM343 934L231 801H204L306 934H343Z" />
<glyph unicode="&#xce;" horiz-adv-x="268" d="M179 706H214L128 0H92L179 706ZM296 801L211 947L223 949L102 801H68L220 982V982L329 801H296Z" />
<glyph unicode="&#xcf;" horiz-adv-x="268" d="M179 706H214L128 0H92L179 706ZM99 828Q99 840 108 848T128 856Q139 855 147 847T155 827Q154 815 145 807T125 799Q114 799 106 808T99 828V828ZM269 828Q270 840 278 848T299 856Q310 855 318 847T325 827Q325
815 316 807T295 799Q284 799 276 807T269 828V828Z" />
<glyph unicode="&#xd0;" horiz-adv-x="735" d="M92 0L179 706H334Q435 706 503 680T611 608T667 504T682 382Q680 289 649 218T564 98T437 25T281 0H92ZM131 34H287Q360 34 424 56T539 122T617 231T647 382Q648 443 632 495T580 587T485 649T344 671H209L131 34ZM291
367H528L524 332H286L291 367Z" />
<glyph unicode="&#xd1;" horiz-adv-x="819" d="M677 -15H675L196 642L205 650L126 0H92L180 719H182L663 56L652 57L731 706H765L677 -15ZM557 760Q528 762 511 777T480 812Q469 827 457 840T424 855Q413 856 399 848T374 821T355 766L331 770Q337 809 352 835T387
873T428 883Q456 882 472 866T501 831Q513 815 526 802T560 787Q573 786 586 793T609 821T625 877L649 874Q644 833 631 808T598 771T557 760Z" />
<glyph unicode="&#xd2;" horiz-adv-x="867" d="M430 -7Q360 -7 298 17T190 85T117 190T91 326Q91 392 116 460T189 585T309 678T475 713Q545 713 606 689T714 621T787 516T814 380Q814 314 789 246T716 121T596 29T430 -7ZM431 26Q514 26 579 58T688 142T756 256T779
378Q779 439 756 493T692 590T595 656T473 680Q390 680 326 648T217 564T149 450T126 327Q126 266 148 212T212 116T309 50T431 26ZM445 934L517 801H490L407 934H445Z" />
<glyph unicode="&#xd3;" horiz-adv-x="867" d="M430 -7Q360 -7 298 17T190 85T117 190T91 326Q91 392 116 460T189 585T309 678T475 713Q545 713 606 689T714 621T787 516T814 380Q814 314 789 246T716 121T596 29T430 -7ZM431 26Q514 26 579 58T688 142T756 256T779
378Q779 439 756 493T692 590T595 656T473 680Q390 680 326 648T217 564T149 450T126 327Q126 266 148 212T212 116T309 50T431 26ZM640 934L528 801H501L603 934H640Z" />
<glyph unicode="&#xd4;" horiz-adv-x="867" d="M430 -7Q360 -7 298 17T190 85T117 190T91 326Q91 392 116 460T189 585T309 678T475 713Q545 713 606 689T714 621T787 516T814 380Q814 314 789 246T716 121T596 29T430 -7ZM431 26Q514 26 579 58T688 142T756 256T779
378Q779 439 756 493T692 590T595 656T473 680Q390 680 326 648T217 564T149 450T126 327Q126 266 148 212T212 116T309 50T431 26ZM593 801L508 947L520 949L399 801H365L517 982V982L626 801H593Z" />
<glyph unicode="&#xd5;" horiz-adv-x="867" d="M430 -7Q360 -7 298 17T190 85T117 190T91 326Q91 392 116 460T189 585T309 678T475 713Q545 713 606 689T714 621T787 516T814 380Q814 314 789 246T716 121T596 29T430 -7ZM431 26Q514 26 579 58T688 142T756 256T779
378Q779 439 756 493T692 590T595 656T473 680Q390 680 326 648T217 564T149 450T126 327Q126 266 148 212T212 116T309 50T431 26ZM580 765Q551 767 534 782T503 817Q492 832 480 845T447 860Q436 861 422 853T397 826T378 771L354 775Q360 814 375 840T410 878T451
888Q479 887 495 871T524 836Q536 820 549 807T583 792Q596 791 609 798T632 826T648 882L672 879Q667 838 654 813T621 776T580 765Z" />
<glyph unicode="&#xd6;" horiz-adv-x="867" d="M430 -7Q360 -7 298 17T190 85T117 190T91 326Q91 392 116 460T189 585T309 678T475 713Q545 713 606 689T714 621T787 516T814 380Q814 314 789 246T716 121T596 29T430 -7ZM431 26Q514 26 579 58T688 142T756 256T779
378Q779 439 756 493T692 590T595 656T473 680Q390 680 326 648T217 564T149 450T126 327Q126 266 148 212T212 116T309 50T431 26ZM395 828Q395 840 404 848T424 856Q435 855 443 847T451 827Q450 815 441 807T421 799Q410 799 402 808T395 828V828ZM565 828Q566
840 574 848T595 856Q606 855 614 847T621 827Q621 815 612 807T591 799Q580 799 572 807T565 828V828Z" />
<glyph unicode="&#xd7;" horiz-adv-x="504" d="M286 167Q319 196 351 224T416 282Q422 277 427 270T438 257Q405 228 373 200T308 142Q334 113 359 84T410 25L381 0Q356 29 331 58T280 116Q247 87 215 58T150 1Q145 6 140 12T128 25Q160 55 192 83T257 141L157
257L185 282L286 167Z" />
<glyph unicode="&#xd8;" horiz-adv-x="840" d="M808 703L127 -4L111 13L792 720L808 703ZM430 -7Q360 -7 298 17T190 85T117 190T91 326Q91 392 116 460T189 585T309 678T475 713Q545 713 606 689T714 621T787 516T814 380Q814 314 789 246T716 121T596 29T430
-7ZM431 26Q514 26 579 58T688 142T756 256T779 378Q779 439 756 493T692 590T595 656T473 680Q390 680 326 648T217 564T149 450T126 327Q126 266 148 212T212 116T309 50T431 26Z" />
<glyph unicode="&#xd9;" horiz-adv-x="706" d="M157 235Q149 169 169 122T231 50T332 25Q396 25 444 50T521 122T559 235L616 706H651L594 233Q584 156 550 102T460 20T328 -8V-8Q261 -8 211 20T136 102T121 233L179 706H214L157 235ZM368 934L440 801H413L330 934H368Z" />
<glyph unicode="&#xda;" horiz-adv-x="706" d="M157 235Q149 169 169 122T231 50T332 25Q396 25 444 50T521 122T559 235L616 706H651L594 233Q584 156 550 102T460 20T328 -8V-8Q261 -8 211 20T136 102T121 233L179 706H214L157 235ZM563 934L451 801H424L526 934H563Z" />
<glyph unicode="&#xdb;" horiz-adv-x="706" d="M157 235Q149 169 169 122T231 50T332 25Q396 25 444 50T521 122T559 235L616 706H651L594 233Q584 156 550 102T460 20T328 -8V-8Q261 -8 211 20T136 102T121 233L179 706H214L157 235ZM516 801L431 947L443 949L322
801H288L440 982V982L549 801H516Z" />
<glyph unicode="&#xdc;" horiz-adv-x="706" d="M157 235Q149 169 169 122T231 50T332 25Q396 25 444 50T521 122T559 235L616 706H651L594 233Q584 156 550 102T460 20T328 -8V-8Q261 -8 211 20T136 102T121 233L179 706H214L157 235ZM318 828Q318 840 327 848T347
856Q358 855 366 847T374 827Q373 815 364 807T344 799Q333 799 325 808T318 828V828ZM488 828Q489 840 497 848T518 856Q529 855 537 847T544 827Q544 815 535 807T514 799Q503 799 495 807T488 828V828Z" />
<glyph unicode="&#xdd;" horiz-adv-x="652" d="M315 257L108 706H148L344 286L331 285L627 706H671L351 257L320 0H284L315 257ZM543 935L431 802H404L506 935H543Z" />
<glyph unicode="&#xde;" horiz-adv-x="540" d="M313 548Q345 548 379 538T441 508T486 456T504 376Q504 335 489 295T444 222T367 169T256 149H146L128 0H92L179 703H214L195 548H313ZM262 183Q322 183 361 203T424 252T458 314T468 372Q468 413 448 445T391 495T304
514H191L150 183H262Z" />
<glyph unicode="&#xdf;" horiz-adv-x="560" d="M289 -5Q264 -5 234 3T175 33L191 55Q219 34 247 29T290 23Q324 23 355 36T411 72T451 125T472 190Q478 239 460 279T407 346T324 376H320L323 407Q360 405 385 416T424 447T445 485T452 519Q452 562 427 595T341
633Q292 635 258 610T204 537T176 428L120 0H86L134 363H69L74 393H139L147 453Q156 520 180 567T246 639T344 662Q396 660 427 640T472 589T486 525Q486 505 480 479T452 430T383 390Q423 377 453 348T497 277T505 187Q500 144 481 109T433 49T367 9T289 -5Z"
/>
<glyph unicode="&#xe0;" horiz-adv-x="553" d="M235 -6Q183 -6 142 18T76 85T52 180Q52 213 64 250T101 320T167 374T264 395Q309 395 345 379T406 335T442 271L435 258L456 385H484L438 0H405L419 117L423 100Q412 79 393 60T350 26T297 3T235 -6ZM249 23Q293
23 330 41T392 93T426 169L431 219Q428 260 406 293T348 346T267 365Q217 365 183 347T127 300T97 240T87 184Q87 139 108 103T165 45T249 23ZM231 620L303 487H276L193 620H231Z" />
<glyph unicode="&#xe1;" horiz-adv-x="553" d="M235 -6Q183 -6 142 18T76 85T52 180Q52 213 64 250T101 320T167 374T264 395Q309 395 345 379T406 335T442 271L435 258L456 385H484L438 0H405L419 117L423 100Q412 79 393 60T350 26T297 3T235 -6ZM249 23Q293
23 330 41T392 93T426 169L431 219Q428 260 406 293T348 346T267 365Q217 365 183 347T127 300T97 240T87 184Q87 139 108 103T165 45T249 23ZM426 620L314 487H287L389 620H426Z" />
<glyph unicode="&#xe2;" horiz-adv-x="553" d="M235 -6Q183 -6 142 18T76 85T52 180Q52 213 64 250T101 320T167 374T264 395Q309 395 345 379T406 335T442 271L435 258L456 385H484L438 0H405L419 117L423 100Q412 79 393 60T350 26T297 3T235 -6ZM249 23Q293
23 330 41T392 93T426 169L431 219Q428 260 406 293T348 346T267 365Q217 365 183 347T127 300T97 240T87 184Q87 139 108 103T165 45T249 23ZM634 487L549 633L561 635L440 487H406L558 668V668L667 487H634Z" />
<glyph unicode="&#xe3;" horiz-adv-x="553" d="M235 -6Q183 -6 142 18T76 85T52 180Q52 213 64 250T101 320T167 374T264 395Q309 395 345 379T406 335T442 271L435 258L456 385H484L438 0H405L419 117L423 100Q412 79 393 60T350 26T297 3T235 -6ZM249 23Q293
23 330 41T392 93T426 169L431 219Q428 260 406 293T348 346T267 365Q217 365 183 347T127 300T97 240T87 184Q87 139 108 103T165 45T249 23ZM621 451Q592 453 575 468T544 503Q533 518 521 531T488 546Q477 547 463 539T438 512T419 457L395 461Q401 500 416
526T451 564T492 574Q520 573 536 557T565 522Q577 506 590 493T624 478Q637 477 650 484T673 512T689 568L713 565Q708 524 695 499T662 462T621 451Z" />
<glyph unicode="&#xe4;" horiz-adv-x="553" d="M235 -6Q183 -6 142 18T76 85T52 180Q52 213 64 250T101 320T167 374T264 395Q309 395 345 379T406 335T442 271L435 258L456 385H484L438 0H405L419 117L423 100Q412 79 393 60T350 26T297 3T235 -6ZM249 23Q293
23 330 41T392 93T426 169L431 219Q428 260 406 293T348 346T267 365Q217 365 183 347T127 300T97 240T87 184Q87 139 108 103T165 45T249 23ZM181 514Q181 526 190 534T210 542Q221 541 229 533T237 513Q236 501 227 493T207 485Q196 485 188 494T181 514V514ZM351
514Q352 526 360 534T381 542Q392 541 400 533T407 513Q407 501 398 493T377 485Q366 485 358 493T351 514V514Z" />
<glyph unicode="&#xe5;" horiz-adv-x="553" d="M235 -6Q183 -6 142 18T76 85T52 180Q52 213 64 250T101 320T167 374T264 395Q309 395 345 379T406 335T442 271L435 258L456 385H484L438 0H405L419 117L423 100Q412 79 393 60T350 26T297 3T235 -6ZM249 23Q293
23 330 41T392 93T426 169L431 219Q428 260 406 293T348 346T267 365Q217 365 183 347T127 300T97 240T87 184Q87 139 108 103T165 45T249 23ZM220 487Q221 521 243 540T296 560Q326 559 345 541T363 494Q362 460 340 440T287 421Q257 422 239 440T220 487ZM244
488Q244 469 256 456T288 442Q308 442 323 455T339 491Q340 511 328 524T296 538Q276 538 261 525T244 488Z" />
<glyph unicode="&#xe6;" horiz-adv-x="769" d="M519 -7Q491 -6 464 3T413 30T372 72T346 130T343 205Q350 260 382 303T462 371T566 394Q594 393 620 384T668 356T707 310T733 245L368 136L365 163L705 265L696 254Q684 291 663 315T616 351T561 365Q515 367 476
346T410 288T377 204Q372 161 383 128T415 72T465 37T524 22Q557 22 587 32T643 61L659 35Q629 14 593 3T519 -7ZM198 -10Q152 -10 117 3T62 41T42 99Q42 132 58 160T107 207T195 223Q213 222 236 217T282 200T325 170T358 125L348 102Q324 138 297 157T244 185T197
193Q141 195 110 167T80 97Q81 68 100 50T147 25T205 18Q234 18 268 26T326 58L343 202L363 151L350 44Q330 22 302 10T247 -6T198 -10ZM343 202L350 256Q354 288 346 309T323 341T290 357T256 362Q218 363 182 351T106 305L91 330Q124 360 166 377T264 393Q289
391 309 385T345 369T371 343T384 308T385 264L382 243L343 202Z" />
<glyph unicode="&#xe7;" horiz-adv-x="393" d="M353 60Q357 54 361 49T369 38Q341 16 308 5T237 -7Q186 -7 146 17T83 81T60 172Q60 217 78 257T128 328T200 376T286 393Q323 393 354 382T408 349Q403 344 397 338T385 326Q366 344 340 354T283 364Q232 364 188
338T117 270T90 176Q90 133 109 99T162 44T241 23Q272 23 300 33T353 60V60ZM236 -7Q234 -25 239 -34T253 -49T271 -61Q288 -74 295 -91T303 -124Q303 -157 290 -181T253 -218T202 -231Q173 -231 151 -216T121 -168Q127 -166 134 -163T147 -159Q149 -179 164 -191T203
-204Q235 -204 255 -182T276 -128Q276 -105 266 -93T241 -71T218 -49T210 -17L213 0H237L236 -7Z" />
<glyph unicode="&#xe8;" horiz-adv-x="479" d="M247 22Q278 22 307 32T359 61L374 35Q347 16 314 5T245 -7Q188 -7 145 17T77 85T52 182Q52 224 68 262T113 330T181 377T266 394Q301 394 329 384T381 355T419 309T443 245L85 132L79 159L419 266L405 254Q391 300
355 332T266 365Q216 365 175 341T110 276T86 185Q86 141 106 104T162 45T247 22ZM215 621L287 488H260L177 621H215Z" />
<glyph unicode="&#xe9;" horiz-adv-x="429" d="M247 22Q278 22 307 32T359 61L374 35Q347 16 314 5T245 -7Q188 -7 145 17T77 85T52 182Q52 224 68 262T113 330T181 377T266 394Q301 394 329 384T381 355T419 309T443 245L85 132L79 159L419 266L405 254Q391 300
355 332T266 365Q216 365 175 341T110 276T86 185Q86 141 106 104T162 45T247 22ZM414 614L302 481H275L377 614H414Z" />
<glyph unicode="&#xea;" horiz-adv-x="479" d="M247 22Q278 22 307 32T359 61L374 35Q347 16 314 5T245 -7Q188 -7 145 17T77 85T52 182Q52 224 68 262T113 330T181 377T266 394Q301 394 329 384T381 355T419 309T443 245L85 132L79 159L419 266L405 254Q391 300
355 332T266 365Q216 365 175 341T110 276T86 185Q86 141 106 104T162 45T247 22ZM619 488L534 634L546 636L425 488H391L543 669V669L652 488H619Z" />
<glyph unicode="&#xeb;" horiz-adv-x="479" d="M247 22Q278 22 307 32T359 61L374 35Q347 16 314 5T245 -7Q188 -7 145 17T77 85T52 182Q52 224 68 262T113 330T181 377T266 394Q301 394 329 384T381 355T419 309T443 245L85 132L79 159L419 266L405 254Q391 300
355 332T266 365Q216 365 175 341T110 276T86 185Q86 141 106 104T162 45T247 22ZM166 515Q166 527 175 535T195 543Q206 542 214 534T222 514Q221 502 212 494T192 486Q181 486 173 495T166 515V515ZM336 515Q337 527 345 535T366 543Q377 542 385 534T392 514Q392
502 383 494T362 486Q351 486 343 494T336 515V515Z" />
<glyph unicode="&#xec;" horiz-adv-x="217" d="M115 385H149L101 0H68L115 385ZM342 614L414 481H387L304 614H342Z" />
<glyph unicode="&#xed;" horiz-adv-x="217" d="M115 385H149L101 0H68L115 385ZM537 614L425 481H398L500 614H537Z" />
<glyph unicode="&#xee;" horiz-adv-x="217" d="M115 385H149L101 0H68L115 385ZM234 481L149 627L161 629L40 481H6L158 662V662L267 481H234Z" />
<glyph unicode="&#xef;" horiz-adv-x="217" d="M115 385H149L101 0H68L115 385ZM293 508Q293 520 302 528T322 536Q333 535 341 527T349 507Q348 495 339 487T319 479Q308 479 300 488T293 508V508ZM463 508Q464 520 472 528T493 536Q504 535 512 527T519 507Q519
495 510 487T489 479Q478 479 470 487T463 508V508Z" />
<glyph unicode="&#xf0;" horiz-adv-x="514" d="M238 -6Q212 -5 186 2T135 23T93 61T64 117T53 193Q54 234 68 271T109 336T175 381T268 395Q291 394 316 387T365 364T408 325T439 266L429 242Q430 303 412 370T362 502T289 623T201 719L225 740Q274 697 318 639T395
512T447 373T465 235Q463 187 449 144T405 67T335 13T238 -6ZM242 23Q293 22 328 41T385 90T416 150T426 202Q427 251 409 282T364 332T311 357T270 365Q224 366 190 352T133 313T99 257T87 194Q86 134 110 97T171 42T242 23ZM400 677L204 570L193 593L392 700L400
677Z" />
<glyph unicode="&#xf1;" horiz-adv-x="500" d="M143 385L137 283L130 291Q155 337 201 365T307 394Q365 394 395 363T419 279L385 0H351L384 273Q390 312 366 337T296 363Q254 363 218 344T157 291T128 213L101 0H68L115 385H143ZM617 455Q588 457 571 472T540
507Q529 522 517 535T484 550Q473 551 459 543T434 516T415 461L391 465Q397 504 412 530T447 568T488 578Q516 577 532 561T561 526Q573 510 586 497T620 482Q633 481 646 488T669 516T685 572L709 569Q704 528 691 503T658 466T617 455Z" />
<glyph unicode="&#xf2;" horiz-adv-x="511" d="M244 -7Q205 -7 170 6T109 44T67 103T52 180Q52 217 65 255T104 324T170 374T267 394Q321 394 364 370T432 304T458 208Q458 179 450 149T426 91T385 41T324 6T244 -7ZM246 22Q307 22 346 49T405 119T424 206Q424
240 412 269T378 319T327 353T265 365Q204 365 165 338T106 268T87 182Q87 136 108 100T165 43T246 22ZM220 617L292 484H265L182 617H220Z" />
<glyph unicode="&#xf3;" horiz-adv-x="511" d="M244 -7Q205 -7 170 6T109 44T67 103T52 180Q52 217 65 255T104 324T170 374T267 394Q321 394 364 370T432 304T458 208Q458 179 450 149T426 91T385 41T324 6T244 -7ZM246 22Q307 22 346 49T405 119T424 206Q424
240 412 269T378 319T327 353T265 365Q204 365 165 338T106 268T87 182Q87 136 108 100T165 43T246 22ZM415 617L303 484H276L378 617H415Z" />
<glyph unicode="&#xf4;" horiz-adv-x="511" d="M244 -7Q205 -7 170 6T109 44T67 103T52 180Q52 217 65 255T104 324T170 374T267 394Q321 394 364 370T432 304T458 208Q458 179 450 149T426 91T385 41T324 6T244 -7ZM246 22Q307 22 346 49T405 119T424 206Q424
240 412 269T378 319T327 353T265 365Q204 365 165 338T106 268T87 182Q87 136 108 100T165 43T246 22ZM624 484L539 630L551 632L430 484H396L548 665V665L657 484H624Z" />
<glyph unicode="&#xf5;" horiz-adv-x="511" d="M244 -7Q205 -7 170 6T109 44T67 103T52 180Q52 217 65 255T104 324T170 374T267 394Q321 394 364 370T432 304T458 208Q458 179 450 149T426 91T385 41T324 6T244 -7ZM246 22Q307 22 346 49T405 119T424 206Q424
240 412 269T378 319T327 353T265 365Q204 365 165 338T106 268T87 182Q87 136 108 100T165 43T246 22ZM611 448Q582 450 565 465T534 500Q523 515 511 528T478 543Q467 544 453 536T428 509T409 454L385 458Q391 497 406 523T441 561T482 571Q510 570 526 554T555
519Q567 503 580 490T614 475Q627 474 640 481T663 509T679 565L703 562Q698 521 685 496T652 459T611 448Z" />
<glyph unicode="&#xf6;" horiz-adv-x="511" d="M244 -7Q205 -7 170 6T109 44T67 103T52 180Q52 217 65 255T104 324T170 374T267 394Q321 394 364 370T432 304T458 208Q458 179 450 149T426 91T385 41T324 6T244 -7ZM246 22Q307 22 346 49T405 119T424 206Q424
240 412 269T378 319T327 353T265 365Q204 365 165 338T106 268T87 182Q87 136 108 100T165 43T246 22ZM170 511Q170 523 179 531T199 539Q210 538 218 530T226 510Q225 498 216 490T196 482Q185 482 177 491T170 511V511ZM340 511Q341 523 349 531T370 539Q381
538 389 530T396 510Q396 498 387 490T366 482Q355 482 347 490T340 511V511Z" />
<glyph unicode="&#xf7;" horiz-adv-x="502" d="M235 92Q235 105 245 114T268 123Q277 123 284 116T292 97Q292 89 288 82T276 70T261 66Q250 66 243 73T235 92V92ZM267 352Q267 365 277 374T300 383Q309 383 316 376T324 358Q324 345 314 336T292 327Q282 327
275 334T267 352V352ZM99 241H460L455 209H94L99 241Z" />
<glyph unicode="&#xf8;" horiz-adv-x="481" d="M444 376Q428 359 404 335T351 280T291 218T228 153T167 90T114 36T74 -6L60 11Q75 27 99 52T152 106T212 168T275 233T336 295T389 349T429 390L444 376ZM244 -7Q205 -7 170 6T109 44T67 103T52 180Q52 217 65 255T104
324T170 374T267 394Q321 394 364 370T432 304T458 208Q458 179 450 149T426 91T385 41T324 6T244 -7ZM246 22Q307 22 346 49T405 119T424 206Q424 240 412 269T378 319T327 353T265 365Q204 365 165 338T106 268T87 182Q87 136 108 100T165 43T246 22Z" />
<glyph unicode="&#xf9;" horiz-adv-x="498" d="M187 -10Q134 -10 105 20T81 102L115 385H149L115 108Q110 73 132 48T200 20Q240 20 277 40T339 94T370 172L397 385H430L383 0H354L365 112L368 103Q355 73 327 47T262 6T187 -10ZM226 624L298 491H271L188 624H226Z" />
<glyph unicode="&#xfa;" horiz-adv-x="498" d="M187 -10Q134 -10 105 20T81 102L115 385H149L115 108Q110 73 132 48T200 20Q240 20 277 40T339 94T370 172L397 385H430L383 0H354L365 112L368 103Q355 73 327 47T262 6T187 -10ZM421 624L309 491H282L384 624H421Z" />
<glyph unicode="&#xfb;" horiz-adv-x="498" d="M187 -10Q134 -10 105 20T81 102L115 385H149L115 108Q110 73 132 48T200 20Q240 20 277 40T339 94T370 172L397 385H430L383 0H354L365 112L368 103Q355 73 327 47T262 6T187 -10ZM630 491L545 637L557 639L436
491H402L554 672V672L663 491H630Z" />
<glyph unicode="&#xfc;" horiz-adv-x="498" d="M187 -10Q134 -10 105 20T81 102L115 385H149L115 108Q110 73 132 48T200 20Q240 20 277 40T339 94T370 172L397 385H430L383 0H354L365 112L368 103Q355 73 327 47T262 6T187 -10ZM177 518Q177 530 186 538T206
546Q217 545 225 537T233 517Q232 505 223 497T203 489Q192 489 184 498T177 518V518ZM347 518Q348 530 356 538T377 546Q388 545 396 537T403 517Q403 505 394 497T373 489Q362 489 354 497T347 518V518Z" />
<glyph unicode="&#xfd;" horiz-adv-x="474" d="M92 -185L411 385H447L130 -185H92ZM199 -4L66 385H104L227 14L199 -4ZM430 614L318 481H291L393 614H430Z" />
<glyph unicode="&#xfe;" horiz-adv-x="547" d="M191 756L130 260L128 282Q145 314 174 339T240 378T320 393Q371 393 411 370T473 307T496 215Q496 144 464 95T381 19T269 -7Q208 -7 164 24T105 103L113 116L75 -185H45L160 756H191ZM464 212Q464 255 445 289T391
343T314 364Q262 364 218 338T148 270T121 176Q121 131 140 97T194 43T272 23Q325 23 368 46T437 111T464 212Z" />
<glyph unicode="&#xff;" horiz-adv-x="461" d="M92 -185L411 385H447L130 -185H92ZM199 -4L66 385H104L227 14L199 -4ZM199 508Q199 520 208 528T228 536Q239 535 247 527T255 507Q254 495 245 487T225 479Q214 479 206 488T199 508V508ZM369 508Q370 520 378
528T399 536Q410 535 418 527T425 507Q425 495 416 487T395 479Q384 479 376 487T369 508V508Z" />
<glyph unicode="&#x2013;" horiz-adv-x="511" d="M126 208H428L424 176H122L126 208Z" />
<glyph unicode="&#x2014;" horiz-adv-x="703" d="M125 208H629L625 176H121L125 208Z" />
<glyph unicode="&#x2018;" horiz-adv-x="165" d="M171 592Q167 587 163 583T153 573Q128 600 120 637T125 714Q132 712 139 710T152 707Q141 672 147 642T171 592V592Z" />
<glyph unicode="&#x2019;" horiz-adv-x="165" d="M138 573Q135 578 132 582T126 592Q150 612 163 642T173 707Q179 708 187 710T201 714Q205 674 188 637T138 573V573Z" />
<glyph unicode="&#x201a;" horiz-adv-x="147" d="M28 -49Q26 -44 23 -39T16 -29Q39 -9 52 21T63 86Q70 88 77 90T91 93Q94 52 78 15T28 -49V-49Z" />
<glyph unicode="&#x201c;" horiz-adv-x="250" d="M164 592Q160 587 156 583T146 573Q121 600 114 637T119 714Q125 712 132 710T145 707Q134 672 140 642T164 592V592ZM268 592Q264 587 260 583T251 573Q226 600 218 637T223 714Q229 712 236 710T249 707Q239
672 244 642T268 592V592Z" />
<glyph unicode="&#x201d;" horiz-adv-x="249" d="M121 573Q118 578 115 582T108 592Q132 612 145 642T155 707Q162 708 169 710T184 714Q188 674 171 637T121 573V573ZM225 573Q222 578 219 582T212 592Q236 612 249 642T260 707Q267 708 274 710T288 714Q292
674 275 637T225 573V573Z" />
<glyph unicode="&#x201e;" horiz-adv-x="262" d="M28 -49Q26 -44 23 -39T16 -29Q39 -9 52 21T63 86Q70 88 77 90T91 93Q94 52 78 15T28 -49V-49ZM133 -49Q130 -44 127 -39T120 -29Q144 -9 157 21T168 86Q174 88 181 90T196 93Q199 52 182 15T133 -49V-49Z" />
<glyph unicode="&#x2022;" horiz-adv-x="480" d="M195 292Q195 317 208 337T242 370T287 383Q308 383 324 373T349 347T359 310Q359 284 346 264T313 232T267 220Q246 220 230 230T205 256T195 292V292Z" />
<glyph unicode="&#x2039;" horiz-adv-x="393" d="M147 240Q160 251 175 264T208 293T242 324T277 354T309 382T339 408L334 371Q318 356 300 339T264 305T227 272T192 240Q204 225 218 208T246 174T275 139T302 107L297 71L147 240Z" />
<glyph unicode="&#x203a;" horiz-adv-x="393" d="M260 240Q246 251 231 264T198 293T164 324T129 354T97 382T67 408L72 371Q88 356 106 339T143 305T180 272T215 240Q202 225 188 208T160 174T131 139T105 107L109 71L260 240Z" />
</font>
</defs>
</svg>
