<?xml version="1.0" standalone="no"?>
<!DOCTYPE svg PUBLIC "-//W3C//DTD SVG 1.1//EN" "http://www.w3.org/Graphics/SVG/1.1/DTD/svg11.dtd">
<svg xmlns="http://www.w3.org/2000/svg">
<defs >
<font id="JosefinSans" horiz-adv-x="550" ><font-face
    font-family="Josefin Sans Thin"
    units-per-em="1000"
    panose-1="0 0 0 0 0 0 0 0 0 0"
    ascent="750"
    descent="-250"
    alphabetic="0" />
<glyph unicode=" " horiz-adv-x="300" />
<glyph unicode="!" horiz-adv-x="201" d="M130 746H214L143 174H60L130 746ZM72 -2Q49 3 39 18T34 54Q40 73 58 83T99 90Q120 86 130 69T134 33Q128 12 111 4T72 -2Z" />
<glyph unicode="&quot;" horiz-adv-x="339" d="M236 729Q228 666 219 604T202 477H122L153 729H236ZM371 729Q363 666 354 604T337 477H257L288 729H371Z" />
<glyph unicode="#" horiz-adv-x="578" d="M339 651Q327 602 315 554T291 457H393Q405 506 417 554T441 651H526Q513 602 501 554T477 457H580Q576 437 572 417T562 376H458Q452 351 446 325T433 272H537Q532 252 527 232T517 190H413Q402 143 391 96T367 0H283Q294
48 305 95T329 190H227Q216 143 204 96T181 0H96Q108 48 119 95T142 190H49Q54 211 59 231T69 272H162Q169 298 175 324T187 376H95Q100 397 104 417T113 457H206Q219 506 230 554T255 651H339ZM272 376Q265 351 260 325T247 272H349Q355 298 361 324T373 376H272Z"
/>
<glyph unicode="$" horiz-adv-x="579" d="M223 -68L276 371L304 403L352 789H410L360 380L331 347L281 -68H223ZM516 581Q481 603 437 620T350 638Q315 639 291 631T250 608T225 576T216 541Q214 510 233 486T286 444T355 408Q397 389 435 364T497 298T514 194Q511
157 494 120T445 54T367 8T258 -7Q211 -5 169 7T90 39T24 84L76 157Q98 137 128 120T192 92T260 79Q303 79 336 93T390 135T414 199Q416 231 399 255T353 298T290 332Q259 346 227 364T167 405T126 461T116 538Q121 596 152 638T233 702T347 724Q394 722 433 712T504
686T562 653L516 581Z" />
<glyph unicode="%" horiz-adv-x="814" d="M219 267Q192 268 168 278T126 308T99 359T91 432Q95 481 113 521T166 586T250 608Q275 607 298 597T340 567T368 517T375 444Q372 395 354 355T302 290T219 267ZM225 333Q248 333 262 349T284 392T294 447Q295 476 291
494T279 522T261 536T242 541Q219 541 204 526T182 486T173 429Q171 393 179 372T200 343T225 333ZM592 -16Q566 -14 542 -5T501 25T474 76T467 148Q470 197 489 238T542 303T626 325Q652 324 676 314T717 283T744 233T751 160Q748 113 729 72T676 7T592 -16ZM600
50Q624 50 638 67T660 110T669 165Q671 203 663 222T643 250T618 258Q595 259 580 244T558 203T548 146Q547 110 555 89T575 60T600 50ZM719 609L227 -1L135 0L625 609H719Z" />
<glyph unicode="&amp;" horiz-adv-x="712" d="M626 0Q617 0 599 0T561 0T527 0T513 0L226 463Q217 477 208 497T193 542T189 590Q192 634 216 672T283 733T387 757Q446 757 490 734T560 680L503 615Q475 643 448 659T392 676Q342 676 316 648T288 582Q287 569
291 554T302 526T313 506L626 0ZM317 346Q288 348 260 339T208 310T169 265T152 208Q150 170 168 141T219 94T292 75Q328 74 357 84T409 112T444 152L499 94Q467 47 408 17T270 -10Q202 -7 151 22T73 100T51 209Q55 258 80 297T144 365T230 409T324 423L317 346ZM575
424H664L508 119L444 163L575 424Z" />
<glyph unicode="&apos;" horiz-adv-x="164" d="M216 729Q208 666 199 604T182 477H101L132 729H216Z" />
<glyph unicode="(" horiz-adv-x="376" d="M95 273Q101 353 122 425T175 559T244 670T320 754L387 709Q341 664 299 599T228 451T191 269Q185 182 195 108T230 -27T285 -130L207 -167Q173 -123 144 -56T101 94T95 273V273Z" />
<glyph unicode=")" horiz-adv-x="376" d="M303 316Q297 236 276 164T223 30T154 -81T78 -165L10 -120Q57 -75 99 -10T170 139T206 321Q213 407 203 482T168 617T113 720L191 756Q226 712 254 645T297 495T303 316V316Z" />
<glyph unicode="*" horiz-adv-x="335" d="M204 525Q183 514 162 503T119 480Q113 493 108 506T96 531Q118 542 139 553T181 576Q164 588 146 600T108 624Q116 636 124 647T140 671Q159 660 178 648T216 624L228 720H287Q284 696 281 672T274 624Q296 636 318 647T363
670Q368 658 373 647T385 623Q362 611 340 599T296 575V575Q315 563 333 552T371 528Q362 516 354 503T336 477Q317 489 298 501T260 525Q257 502 255 480T248 434H193L204 525Z" />
<glyph unicode="+" d="M278 416H363L346 274H485L475 193H336L318 51H233L251 193H111L121 274H261L278 416Z" />
<glyph unicode="," horiz-adv-x="203" d="M39 -201L-8 -168Q17 -148 28 -111T36 -36L118 -37Q122 -64 114 -95T87 -155T39 -201Z" />
<glyph unicode="-" horiz-adv-x="304" d="M85 256H272L262 174H76L85 256Z" />
<glyph unicode="." horiz-adv-x="165" d="M40 47Q40 72 59 89T100 106Q117 106 131 92T145 58Q145 41 136 28T114 8T86 0Q68 0 54 13T40 47V47Z" />
<glyph unicode="/" horiz-adv-x="384" d="M476 745Q381 554 288 363T100 -19H15Q109 172 202 363T391 745H476Z" />
<glyph unicode="0" horiz-adv-x="642" d="M303 -1Q248 0 202 20T123 79T72 172T58 298Q60 323 66 359T86 437T122 519T179 593T261 645T372 663Q427 661 474 640T555 577T605 478T613 346Q608 275 586 212T525 100T431 24T303 -1ZM315 91Q359 89 394 111T454 171T494
257T512 357Q517 432 497 479T439 548T358 571Q313 573 279 551T219 491T179 405T160 305Q156 231 176 184T233 114T315 91Z" />
<glyph unicode="1" horiz-adv-x="349" d="M125 658H298L216 0H119L188 565H113L125 658Z" />
<glyph unicode="2" horiz-adv-x="567" d="M45 0Q148 92 215 158T322 271T381 351T406 409T412 456Q412 497 396 522T353 560T292 573Q255 573 231 560T192 527T173 486T167 447Q167 420 173 398T194 359L128 305Q115 321 102 344T81 395T72 452Q72 484 83 520T120
590T191 644T302 666Q365 666 412 644T487 580T513 476Q513 435 502 396T463 312T385 211T256 79L212 93H505L493 0H45Z" />
<glyph unicode="3" horiz-adv-x="503" d="M461 658L261 377L205 405Q231 413 252 415T289 416Q336 414 375 392T438 330T462 235Q462 196 450 154T409 77T336 18T226 -6Q195 -7 160 1T93 27T37 76L94 150Q118 117 154 102T225 86Q259 87 285 99T328 131T353 178T362
233Q362 287 324 318T226 350Q203 351 180 346T145 335L141 339L316 578L345 565H104L116 658H461Z" />
<glyph unicode="4" horiz-adv-x="515" d="M3 159V160L466 666H467L414 233H500L491 159H405L386 0H289L308 159H3ZM355 453L146 217L135 233H317L346 465L355 453Z" />
<glyph unicode="5" horiz-adv-x="522" d="M235 -7Q213 -7 180 0T113 25T54 72L113 146Q130 123 152 110T195 92T232 87Q281 87 311 106T355 155T369 220Q369 255 357 279T323 319T277 342T229 351Q200 352 168 343T105 313H103L168 658H476L466 565H229L200 397L195
419Q208 424 228 427T270 430Q304 429 339 417T403 379T451 316T469 225Q469 189 457 149T418 74T346 16T235 -7Z" />
<glyph unicode="6" horiz-adv-x="561" d="M275 -7Q211 -7 161 21T83 100T54 222Q54 270 70 322T125 431T234 544T409 659L464 584Q379 550 318 503T221 406T173 309L149 318Q181 367 225 393T334 419Q364 419 396 408T455 372T500 312T517 225Q517 186 502 145T456
70T380 14T275 -7ZM276 79Q317 79 345 94T388 131T411 177T418 220Q418 256 401 282T355 324T289 340Q246 340 219 325T177 288T155 243T149 204Q149 169 165 141T210 96T276 79Z" />
<glyph unicode="7" horiz-adv-x="489" d="M517 658L175 0H60L367 579L403 565H74L86 658H517Z" />
<glyph unicode="8" horiz-adv-x="549" d="M42 197Q42 250 63 290T119 359T194 402Q169 421 154 447T140 510Q141 537 152 564T184 615T238 652T315 666Q365 666 403 647T464 597T486 525Q486 476 463 445T401 390Q428 376 452 352T493 295T509 220Q509 194 500
164T471 103T423 48T354 8T264 -7Q198 -7 148 21T70 96T42 197ZM141 202Q141 168 156 139T199 92T266 74Q307 74 340 94T393 147T413 220Q413 255 397 284T351 330T286 348Q241 348 209 327T159 272T141 202ZM232 505Q230 473 253 451T309 429Q339 429 357 442T383
474T392 509Q392 543 371 564T318 585Q282 585 259 563T232 505Z" />
<glyph unicode="9" horiz-adv-x="554" d="M254 218Q218 219 185 233T124 274T82 337T68 421Q70 460 86 499T134 572T210 625T314 644Q380 643 430 614T508 536T533 424Q530 360 504 303T430 194T313 94T153 -3L97 72Q186 109 252 151T359 238T410 324L438 315Q403
267 361 242T254 218ZM290 298Q352 296 389 326T435 425Q438 461 423 490T380 538T313 558Q268 559 237 539T188 488T168 424Q166 388 181 360T225 315T290 298Z" />
<glyph unicode=":" horiz-adv-x="177" d="M39 47Q39 72 58 89T100 106Q117 106 130 92T144 58Q144 41 135 28T113 8T86 0Q68 0 54 13T39 47V47ZM73 319Q73 344 92 361T133 378Q150 378 164 365T178 330Q178 313 169 300T147 280T120 272Q101 272 87 285T73 319V319Z" />
<glyph unicode=";" horiz-adv-x="203" d="M103 300Q103 317 112 330T134 351T161 359Q179 359 193 346T207 311Q207 285 188 269T148 253Q130 253 117 266T103 300V300ZM162 87Q133 35 105 -16T49 -121H-27Q0 -68 25 -17T77 87H162Z" />
<glyph unicode="&lt;" horiz-adv-x="601" d="M479 -15Q376 50 274 114T68 241Q186 305 304 369T541 496L527 382Q463 347 397 312T266 241Q323 206 380 171T493 100V100L479 -15Z" />
<glyph unicode="=" horiz-adv-x="717" d="M125 195H637L627 114H115L125 195ZM149 392H661L651 310H139L149 392Z" />
<glyph unicode="&gt;" horiz-adv-x="591" d="M95 100Q161 135 226 170T357 241Q301 277 244 312T130 382L144 496Q247 432 349 369T555 241Q436 177 318 114T81 -15V-15L95 100Z" />
<glyph unicode="?" horiz-adv-x="447" d="M157 264Q161 296 174 317T205 353T247 381T296 413Q340 445 362 481T384 557Q384 587 372 610T338 646T285 659Q247 659 221 648T176 615T143 560V560Q126 566 108 573T73 587Q83 609 99 635T142 686T205 725T295 741Q347
741 386 717T447 653T470 564Q470 501 438 454T348 369Q328 355 305 340T263 303T240 245L230 166H145L157 264ZM166 1Q148 1 134 14T119 47Q119 72 138 89T179 106Q196 106 210 92T224 58Q224 33 206 17T166 1V1Z" />
<glyph unicode="@" horiz-adv-x="1017" d="M434 -219Q352 -219 281 -195T156 -124T72 -5T42 161Q42 222 61 288T120 418T226 533T381 614T592 645Q683 645 755 618T877 543T953 430T980 292Q980 232 962 178T911 82T834 16T735 -9Q694 -9 666 10T625 65T621 145L637
102Q621 76 591 50T522 7T444 -10Q389 -10 346 13T279 80T255 182Q255 251 286 307T370 397T493 431Q537 431 567 419T617 387T647 342L665 414H753L715 144Q713 126 715 111T728 86T757 77Q782 77 806 93T850 139T880 208T892 292Q892 369 856 432T750 533T578
571Q472 571 395 542T266 465T184 362T140 255T127 164Q127 85 151 27T218 -70T320 -127T448 -146Q507 -146 563 -128T670 -78L708 -132Q670 -161 623 -180T528 -209T434 -219ZM479 67Q512 67 540 80T590 116T623 173L635 254Q631 284 614 306T569 341T508 354Q466
354 431 332T375 274T354 194Q354 158 370 129T414 84T479 67Z" />
<glyph unicode="A" horiz-adv-x="701" d="M99 0H4L412 753H418L641 0H530L366 598L441 643L99 0ZM223 274H492L514 190H185L223 274Z" />
<glyph unicode="B" horiz-adv-x="614" d="M351 723Q450 723 505 687T560 565Q560 526 548 484T507 410T426 365L423 369Q457 363 486 344T534 294T553 217Q553 161 533 120T477 52T396 13T299 0H77L166 723H351ZM332 406Q369 406 394 419T433 454T453 498T459
539Q459 588 429 610T342 633H254L226 406H332ZM302 90Q352 90 386 107T437 153T455 221Q455 258 435 280T384 312T320 322H216L188 90H302Z" />
<glyph unicode="C" horiz-adv-x="698" d="M617 37Q600 28 571 16T505 -4T424 -12Q361 -12 300 8T188 69T108 173T78 324Q78 381 91 438T133 547T206 639T314 702T459 726Q532 726 589 704T684 654L634 567Q606 590 563 610T467 633Q395 635 341 611T251 545T197
447T179 331Q179 276 197 230T248 151T327 100T428 81Q465 81 494 89T547 107T587 126L617 37Z" />
<glyph unicode="D" horiz-adv-x="752" d="M77 0L166 723H377Q478 723 545 693T650 612T702 498T711 367Q705 281 672 213T585 97T463 25T319 0H77ZM185 93H317Q377 93 429 111T521 164T585 251T613 373Q618 440 601 488T550 568T472 615T376 630H250L185 93Z" />
<glyph unicode="E" horiz-adv-x="653" d="M166 723H635L624 633H254L227 408H557L545 317H215L188 93H572L561 0H77L166 723Z" />
<glyph unicode="F" horiz-adv-x="589" d="M166 723H594L582 631H254L226 399H514L502 307H214L177 0H77L166 723Z" />
<glyph unicode="G" horiz-adv-x="759" d="M655 45Q634 30 596 17T514 -4T430 -11Q393 -10 353 -2T273 24T198 69T135 134T92 220T77 329Q79 382 94 437T139 545T216 637T327 702T474 725Q534 724 594 708T702 659L659 572Q621 598 571 613T472 628Q407 628 358
610T275 560T220 491T189 411T178 332Q177 282 192 243T235 174T295 126T366 97T437 85Q470 83 504 88T564 106L582 258H438L450 350H692L655 45Z" />
<glyph unicode="H" horiz-adv-x="781" d="M737 723L649 0H549L589 317H216L177 0H77L166 723H265L227 411H600L638 723H737Z" />
<glyph unicode="I" horiz-adv-x="309" d="M166 723H265L177 0H77L166 723Z" />
<glyph unicode="J" horiz-adv-x="368" d="M251 131Q241 43 200 -19T97 -113T-40 -149V-149L-29 -55Q18 -52 56 -32T121 30T155 134L227 723H324L251 131Z" />
<glyph unicode="K" horiz-adv-x="678" d="M227 432L220 396L235 414L569 723H694L357 413L622 0H500L278 351L210 292L175 0H77L166 723H263L227 432Z" />
<glyph unicode="L" horiz-adv-x="608" d="M166 723H262L185 93H553L541 0H77L166 723Z" />
<glyph unicode="M" horiz-adv-x="928" d="M170 0H77L169 746H170L483 208L442 216L886 746H887L795 0H699L764 526V477L444 91H442L212 477L234 522L170 0Z" />
<glyph unicode="N" horiz-adv-x="838" d="M703 -23H700L211 546L237 537L173 0H77L168 745H172L655 174L634 181L698 723H794L703 -23Z" />
<glyph unicode="O" horiz-adv-x="859" d="M425 -7Q359 -7 297 15T186 80T107 187T78 335Q78 401 103 470T177 598T300 693T471 730Q537 730 599 708T711 643T789 536T818 387Q818 321 793 252T719 124T597 29T425 -7ZM427 86Q502 86 557 113T647 185T700 281T718
382Q718 434 700 479T647 560T568 616T467 637Q392 637 338 610T248 538T195 442T178 340Q178 289 196 243T247 162T326 107T427 86Z" />
<glyph unicode="P" horiz-adv-x="584" d="M358 723Q407 723 448 710T520 672T568 611T585 526Q585 481 570 436T523 352T438 290T313 266H209L177 0H77L166 723H358ZM322 359Q368 359 399 375T448 415T475 466T484 512Q484 540 471 567T430 611T356 629H254L221 359H322Z" />
<glyph unicode="Q" horiz-adv-x="942" d="M635 71L883 95L871 0H500L635 71ZM468 -7Q402 -7 340 15T228 80T150 187T121 335Q121 401 145 470T219 598T342 693T514 730Q580 730 642 708T753 643T831 536T860 387Q860 321 836 252T762 124T640 29T468 -7ZM469 86Q544
86 599 113T690 185T743 281T761 382Q761 434 742 479T690 560T610 616T510 637Q434 637 380 610T290 538T237 442T220 340Q220 289 238 243T290 162T368 107T469 86Z" />
<glyph unicode="R" horiz-adv-x="660" d="M358 723Q412 723 456 709T532 666T578 596T586 499Q580 456 563 415T512 341T430 287T313 266H206L173 0H77L166 723H358ZM323 359Q380 359 414 381T465 435T486 495Q489 517 484 540T465 584T426 617T362 630H250L218
359H323ZM434 304L587 0H474L319 301L434 304Z" />
<glyph unicode="S" horiz-adv-x="565" d="M516 581Q481 603 437 620T350 638Q315 639 291 631T250 608T225 576T216 541Q214 510 233 486T286 444T355 408Q397 389 435 364T497 298T514 194Q511 157 494 120T445 54T367 8T258 -7Q211 -5 169 7T90 39T24 84L76
157Q98 137 128 120T192 92T260 79Q303 79 336 93T390 135T414 199Q416 231 399 255T353 298T290 332Q259 346 227 364T167 405T126 461T116 538Q121 596 152 638T233 702T347 724Q394 722 433 712T504 686T562 653L516 581Z" />
<glyph unicode="T" horiz-adv-x="581" d="M112 723H592L580 628H388L311 0H211L288 628H100L112 723Z" />
<glyph unicode="U" horiz-adv-x="752" d="M208 256Q202 207 219 169T273 108T358 86Q409 86 450 108T518 168T551 256L608 723H707L650 253Q640 174 598 115T491 24T346 -8V-8Q271 -8 214 24T128 115T108 253L166 723H265L208 256Z" />
<glyph unicode="V" horiz-adv-x="719" d="M329 -29L104 723H219L385 130L330 140L628 723H742L333 -29H329Z" />
<glyph unicode="W" horiz-adv-x="1008" d="M104 719H216L344 169L328 175L516 544L546 413L299 -33L104 719ZM452 719H548L694 176L674 180L927 719H1030L654 -32L452 719Z" />
<glyph unicode="X" horiz-adv-x="644" d="M96 723H218L601 0H477L96 723ZM-2 0L296 393L332 299L117 0H-2ZM351 428L561 723H679L393 347L351 428Z" />
<glyph unicode="Y" horiz-adv-x="691" d="M300 241L92 723H210L376 324L346 322L608 723H727L397 241L368 0H271L300 241Z" />
<glyph unicode="Z" horiz-adv-x="658" d="M5 0L524 656L537 630H204Q184 630 166 637T138 658T130 691L138 759H228L227 746Q226 734 232 729T255 723H689L178 81L169 93H623L612 0H5Z" />
<glyph unicode="[" horiz-adv-x="351" d="M170 755H364L354 673H244L153 -69H263L253 -151H59L170 755Z" />
<glyph unicode="\" horiz-adv-x="389" d="M186 745Q233 554 280 363T373 -19H279Q232 172 185 363T91 745H186Z" />
<glyph unicode="]" horiz-adv-x="371" d="M137 755H332L221 -151H26L36 -69H147L237 673H127L137 755Z" />
<glyph unicode="^" horiz-adv-x="475" d="M357 485Q352 495 342 511T321 544T305 571Q297 561 283 545T255 512T232 485H173Q208 531 244 576T317 668V668Q342 622 366 577T416 485H357Z" />
<glyph unicode="_" horiz-adv-x="607" d="M111 81H516L506 0H101L111 81Z" />
<glyph unicode="`" horiz-adv-x="203" d="M145 619L211 485H152L42 619H145Z" />
<glyph unicode="a" horiz-adv-x="589" d="M224 -8Q178 -8 137 16T70 86T44 193Q44 235 59 276T104 353T176 409T275 431Q320 431 351 418T403 385T436 338L427 320L448 414H533L483 0H390L403 105L410 81Q404 72 389 57T351 26T296 2T224 -8ZM275 67Q305 67 332
79T379 114T411 169L420 250Q416 281 399 304T353 340T291 354Q250 354 222 339T175 301T149 252T141 204Q141 164 158 133T205 85T275 67Z" />
<glyph unicode="b" horiz-adv-x="595" d="M312 -9Q252 -9 211 17T148 84L162 111L148 0H55L150 774H243L188 323V357Q215 389 258 409T355 430Q409 430 453 407T524 338T551 224Q551 165 523 111T442 24T312 -9ZM303 70Q345 70 374 84T421 120T447 169T455 218Q455
260 439 291T393 340T322 357Q273 357 236 330T181 260L170 176Q174 160 183 142T208 107T246 80T303 70Z" />
<glyph unicode="c" horiz-adv-x="460" d="M397 28Q368 10 332 0T258 -11Q226 -11 189 0T119 34T65 95T44 189Q44 231 59 272T104 348T176 402T274 422Q331 422 372 405T440 360L386 303Q370 319 343 332T280 345Q243 345 211 326T158 272T138 195Q138 159 155
130T202 83T274 65Q297 65 318 71T356 90L397 28Z" />
<glyph unicode="d" horiz-adv-x="595" d="M243 -8Q184 -7 138 21T67 97T45 201Q47 245 64 287T114 361T190 413T290 431Q347 429 390 403T454 339L435 315L491 774H584L488 0H395L407 99L415 75Q381 38 338 14T243 -8ZM271 70Q303 69 332 81T383 117T417 173L426
251Q422 281 405 304T361 342T298 357Q255 358 220 341T164 291T140 213Q138 173 154 141T200 91T271 70Z" />
<glyph unicode="e" horiz-adv-x="521" d="M272 70Q297 70 320 78T364 100L398 29Q368 11 333 1T263 -9Q198 -9 149 15T73 87T45 200Q45 241 60 281T105 354T179 408T283 429Q320 429 353 420T415 388T462 329T490 238L136 138L121 195L423 282L390 267Q380 306
351 331T280 356Q236 356 204 336T155 282T138 211Q138 163 157 132T207 86T272 70Z" />
<glyph unicode="f" horiz-adv-x="380" d="M88 0L128 331H57L68 414H138L159 589Q170 679 217 727T343 775Q364 775 388 769T431 749L383 682Q375 691 365 694T343 698Q307 698 284 673T253 588L231 414H363L352 331H221L181 0H88Z" />
<glyph unicode="g" horiz-adv-x="600" d="M252 -205Q202 -205 165 -195T99 -164T42 -118L105 -55Q127 -78 150 -93T200 -116T260 -123Q301 -123 331 -109T378 -68T400 -6L414 106L421 89Q400 46 355 19T247 -9Q189 -9 144 16T72 89T45 202Q45 235 58 274T100 349T173
407T280 430Q342 430 386 407T447 346L436 327L460 414H545L491 -21Q485 -77 454 -118T371 -182T252 -205ZM297 354Q253 354 223 339T175 299T148 250T140 202Q140 162 157 132T205 84T278 67Q309 67 338 80T388 115T422 167L432 250Q427 280 408 303T361 340T297
354Z" />
<glyph unicode="h" horiz-adv-x="553" d="M184 335Q211 377 258 403T365 430Q424 430 457 396T485 306L447 0H354L387 276Q389 308 374 328T321 350Q284 350 252 330T200 274T173 194L149 0H56L150 774H242L186 315L184 335Z" />
<glyph unicode="i" horiz-adv-x="254" d="M106 414H199L148 0H55L106 414ZM369 1064Q369 1087 386 1103T428 1119Q447 1119 464 1107T481 1070Q480 1047 463 1031T421 1015Q402 1015 385 1027T369 1064Z" />
<glyph unicode="j" horiz-adv-x="266" d="M-24 -147Q14 -123 36 -89T66 -5L118 414H211L160 0Q151 -72 118 -124T22 -205L-24 -147ZM377 1064Q377 1087 394 1103T436 1119Q455 1119 472 1107T489 1070Q488 1047 471 1031T429 1015Q410 1015 393 1027T377 1064Z" />
<glyph unicode="k" horiz-adv-x="499" d="M56 0L150 774H244L149 0H56ZM283 275L439 0H330L214 223L283 275ZM136 132L135 221L411 423L465 374L136 132Z" />
<glyph unicode="l" horiz-adv-x="255" d="M150 774H244L149 0H56L150 774Z" />
<glyph unicode="m" horiz-adv-x="826" d="M190 414L187 319L184 334Q214 379 258 404T359 430Q410 430 440 408T475 342L472 339Q502 380 546 405T639 430Q700 430 731 396T757 306L720 0H627L660 273Q663 305 651 326T605 349Q567 349 536 328T485 272T459 197L435
0H341L375 273Q377 305 365 326T317 349Q280 349 249 328T198 271T173 196L149 0H56L106 414H190Z" />
<glyph unicode="n" horiz-adv-x="553" d="M190 414L189 320L182 333Q209 376 255 403T363 430Q423 430 456 396T485 306L447 0H354L387 274Q391 308 374 329T317 350Q280 350 249 330T198 274T173 194L149 0H56L106 414H190Z" />
<glyph unicode="o" horiz-adv-x="546" d="M263 -10Q224 -10 185 3T114 41T63 105T44 193Q44 232 57 273T99 350T172 407T283 429Q340 429 389 405T470 336T502 226Q502 200 495 168T471 104T427 47T359 6T263 -10ZM266 67Q317 67 348 91T393 152T407 222Q407 257
396 281T365 322T323 345T280 353Q230 353 199 329T153 269T138 198Q138 153 157 124T207 81T266 67Z" />
<glyph unicode="p" horiz-adv-x="585" d="M288 -10Q240 -10 196 14T134 74L156 98L123 -199H31L108 420H188L184 314L164 343Q204 382 253 406T352 431Q405 431 448 407T517 341T543 243Q543 175 511 118T422 25T288 -10ZM286 69Q334 69 370 91T427 150T448 228Q448
266 431 295T384 340T320 356Q287 356 259 343T209 306T174 250L165 175Q168 158 176 140T198 105T234 79T286 69Z" />
<glyph unicode="q" horiz-adv-x="588" d="M235 -8Q187 -9 143 15T72 83T44 188Q44 236 61 279T111 356T186 411T279 431Q344 431 383 404T439 341L428 324L446 414H533L457 -199H364L401 106L426 84Q419 74 404 59T364 28T308 2T235 -8ZM262 66Q294 66 323 79T374
115T409 171L420 245Q417 263 409 282T386 317T349 343T295 353Q248 353 212 331T155 272T134 192Q134 155 151 127T198 82T262 66Z" />
<glyph unicode="r" horiz-adv-x="378" d="M189 414L182 313Q203 351 234 377T300 416T364 430L349 338Q302 341 264 320T201 264T172 189L148 0H56L106 414H189Z" />
<glyph unicode="s" horiz-adv-x="408" d="M184 -8Q164 -8 135 -3T76 18T23 64L69 115Q89 91 109 79T149 63T184 59Q220 59 236 77T252 113Q252 134 239 146T206 167T163 184Q118 202 95 229T71 296Q71 316 79 338T104 381T149 414T219 427Q238 427 263 424T316
409T367 373L324 318Q304 342 279 351T230 361Q208 361 194 354T174 334T167 310Q167 291 180 279T213 259T253 242Q281 231 303 216T337 178T347 121Q345 100 335 77T306 35T257 4T184 -8Z" />
<glyph unicode="t" horiz-adv-x="359" d="M166 596H259L237 412H351L342 339H228L187 0H94L135 339H59L67 412H144L166 596Z" />
<glyph unicode="u" horiz-adv-x="546" d="M186 -16Q129 -16 96 17T69 106L106 414H199L165 138Q163 107 178 86T231 64Q266 64 296 84T348 140T374 221L398 414H491L440 0H356L361 99L365 85Q349 57 322 34T260 -2T186 -16Z" />
<glyph unicode="v" horiz-adv-x="494" d="M220 -12L42 414H152L267 88L211 90L394 414H498L225 -12H220Z" />
<glyph unicode="w" horiz-adv-x="675" d="M433 -15L336 264L184 -14H178L42 414H133L226 129L193 135L312 344L289 414H369L457 141L438 140L587 414H678L439 -15H433Z" />
<glyph unicode="x" horiz-adv-x="456" d="M427 0H315L52 414H166L427 0ZM249 261L366 414H463L276 193L249 261ZM228 154L101 0H5L191 217L228 154Z" />
<glyph unicode="y" horiz-adv-x="494" d="M77 -199L425 414H513L170 -199H77ZM205 -3L57 414H162L283 44L205 -3Z" />
<glyph unicode="z" horiz-adv-x="463" d="M137 337Q103 337 84 356T68 414L73 453H144L143 440Q141 424 148 419T173 414H438L146 57L129 77H393L384 0H2L299 365L311 337H137Z" />
<glyph unicode="{" horiz-adv-x="343" d="M317 673Q297 673 284 666T264 636T251 570L236 439Q231 398 217 371T185 327T153 301Q165 293 178 277T199 233T202 166L186 35Q181 -8 182 -30T195 -61T226 -69H271L261 -151H197Q173 -151 152 -150T116 -139T94 -104T93
-31L112 123Q116 150 113 181T96 235T48 259V259L58 341Q91 343 111 365T142 419T155 478L175 636Q181 683 193 708T223 743T262 754T308 755H372L362 673H317Z" />
<glyph unicode="|" horiz-adv-x="287" d="M179 709H263L147 -235H63L179 709Z" />
<glyph unicode="}" horiz-adv-x="355" d="M84 -69Q105 -69 117 -61T136 -31T149 35L165 166Q170 208 184 235T217 278T248 301Q236 311 223 327T202 370T198 439L214 570Q220 614 219 636T207 665T175 673H130L140 755H204Q228 755 249 754T285 743T307 708T308
636L289 478Q286 458 287 435T294 390T314 356T352 341V341L342 259Q318 259 301 245T272 211T254 167T245 122L226 -31Q220 -78 208 -103T178 -138T139 -149T93 -151H29L39 -69H84Z" />
<glyph unicode="~" horiz-adv-x="465" d="M310 431Q273 433 252 451T212 488Q201 501 189 512T160 524Q146 525 134 515T115 487T104 442L46 447Q49 491 66 525T110 578T174 595Q204 594 223 577T259 540Q272 525 285 513T315 499Q330 498 340 508T357 538T366
584L425 580Q424 533 408 499T366 448T310 431Z" />
<glyph unicode="&#xa0;" horiz-adv-x="300" />
<glyph unicode="&#xa1;" horiz-adv-x="201" d="M96 -199H12L83 373H166L96 -199ZM154 549Q177 544 187 529T192 493Q186 474 168 464T128 457Q106 462 97 478T92 514Q98 535 115 543T154 549Z" />
<glyph unicode="&#xa2;" horiz-adv-x="460" d="M272 481H330L263 -68H205L272 481ZM397 28Q368 10 332 0T258 -11Q226 -11 189 0T119 34T65 95T44 189Q44 231 59 272T104 348T176 402T274 422Q331 422 372 405T440 360L386 303Q370 319 343 332T280 345Q243 345
211 326T158 272T138 195Q138 159 155 130T202 83T274 65Q297 65 318 71T356 90L397 28Z" />
<glyph unicode="&#xa3;" horiz-adv-x="577" d="M399 384L388 290H87L98 384H399ZM182 538Q188 585 219 621T299 678T411 699Q483 699 527 672T589 597L513 549Q505 564 492 577T458 598T402 606Q361 606 335 594T294 559T276 504L238 197L235 177Q233 163 229
146T218 114T202 89L195 93H402Q438 93 455 103T476 137L481 179L566 180L558 115Q554 82 540 56T494 15T411 0H19L31 93H76Q97 93 109 100T128 130T141 195L182 538Z" />
<glyph unicode="&#xa4;" horiz-adv-x="504" d="M413 438Q422 420 426 401T429 360Q427 335 417 313T391 271L417 240L373 202Q366 210 359 218T345 233Q306 211 260 212Q237 213 218 220T182 239V239L147 209L111 252L145 281Q136 298 132 319T129 362V362Q131
387 140 408T164 448Q158 456 152 463T140 478L184 516L210 486Q230 497 251 504T297 510Q320 509 340 501T376 480V480L409 507L445 465L413 438ZM186 359Q184 323 208 296T268 268Q294 267 317 279T355 313T372 362Q374 399 351 425T290 454Q264 454 241 442T203
408T186 359V359Z" />
<glyph unicode="&#xa5;" horiz-adv-x="691" d="M173 301H541L532 225H164L173 301ZM163 154H530L521 77H154L163 154ZM307 297L92 723H210L383 380L353 377L608 723H727L404 297L368 0H271L307 297Z" />
<glyph unicode="&#xa6;" horiz-adv-x="217" d="M85 118H169L125 -236H41L85 118ZM157 709H242L198 354H114L157 709Z" />
<glyph unicode="&#xa7;" horiz-adv-x="572" d="M362 131L332 169Q375 162 409 143T462 90T474 10Q467 -44 434 -86T347 -151T230 -170Q186 -167 146 -155T72 -124T15 -82L72 -5Q97 -28 123 -45T178 -72T235 -83Q269 -85 298 -76T348 -47T371 3Q375 33 358 52T312
85T248 109Q216 120 184 134T127 170T88 220T79 289Q86 341 116 374T188 421T275 430L263 397Q215 415 186 441T144 499T136 568Q142 611 169 649T245 711T365 730Q419 726 467 706T549 656L499 586Q467 614 433 628T365 646Q325 648 298 639T256 612T238 575Q235
546 251 527T298 493T367 467Q398 456 429 442T486 408T524 358T532 286Q525 228 481 185T362 131ZM436 275Q441 304 423 325T376 360T316 383Q257 388 220 365T176 306Q171 274 187 252T233 215T302 186Q329 186 358 196T410 226T436 275Z" />
<glyph unicode="&#xa8;" horiz-adv-x="375" d="M85 533Q87 556 105 570T143 584Q162 583 176 567T188 528Q186 504 169 491T132 478Q112 479 97 494T85 533V533ZM271 533Q274 556 291 570T329 584Q348 583 362 567T375 528Q372 504 354 491T318 478Q298 479 284
494T271 533V533Z" />
<glyph unicode="&#xa9;" horiz-adv-x="848" d="M566 194Q541 175 504 160T420 147Q368 151 331 179T275 252T262 346Q269 401 298 443T372 507T473 526Q502 525 534 515T587 485L540 415Q526 431 508 437T470 444Q442 446 418 433T378 396T358 343Q355 314 364
290T394 249T445 231Q467 230 489 236T531 259L566 194ZM399 -1Q329 4 271 32T172 109T112 220T101 355Q110 428 144 487T230 588T346 652T481 670Q551 665 609 637T708 560T768 449T778 313Q770 242 737 183T652 81T536 17T399 -1ZM408 76Q480 71 542 101T646
187T696 318Q706 393 679 454T598 552T471 594Q399 599 337 569T233 482T181 350Q173 275 198 215T278 118T408 76Z" />
<glyph unicode="&#xaa;" horiz-adv-x="400" d="M191 422Q154 422 126 439T85 489T77 571Q83 619 105 653T159 705T226 724Q266 724 289 708T323 667L333 714H399L365 428H293L302 498L305 484Q299 474 284 459T245 433T191 422ZM220 480Q241 480 259 489T289 514T308
551L315 600Q311 628 292 647T242 666Q208 666 182 641T149 574Q146 548 154 527T179 493T220 480Z" />
<glyph unicode="&#xab;" horiz-adv-x="608" d="M148 242Q154 247 169 261T204 295T246 336T288 377T323 411T344 430L333 335Q325 328 313 316T288 289T262 262T242 242Q248 235 257 223T275 195T294 168T309 148L297 53L148 242ZM321 242Q327 247 342 261T377
295T419 336T461 377T496 411T517 430L506 335Q498 329 486 316T461 289T435 262T415 242Q421 235 430 223T449 195T468 168T482 148L471 53L321 242Z" />
<glyph unicode="&#xac;" horiz-adv-x="501" d="M89 296H453L430 112H333L344 203H76L89 296Z" />
<glyph unicode="&#xad;" horiz-adv-x="600" d="M85 256H272L262 174H76L85 256Z" />
<glyph unicode="&#xae;" horiz-adv-x="486" d="M255 303Q197 307 153 337T86 416T70 525Q77 585 111 630T196 699T306 720Q364 717 408 687T476 608T491 499Q485 440 451 395T365 325T255 303ZM261 356Q305 353 342 371T405 423T435 502Q441 548 425 584T376 643T300
669Q256 671 219 653T157 601T126 521Q121 477 137 440T185 381T261 356ZM219 626L302 624Q338 624 355 603T368 547Q366 521 349 502T294 483H254L245 413H193L219 626ZM279 523Q297 522 304 529T314 549Q315 562 309 571T288 581L267 582L260 524L279 523ZM324
491L351 411L293 412L270 493L324 491Z" />
<glyph unicode="&#xaf;" horiz-adv-x="404" d="M152 537H385L379 484H145L152 537Z" />
<glyph unicode="&#xb0;" horiz-adv-x="285" d="M62 568Q65 598 81 620T123 656T178 668Q219 666 244 637T266 566Q264 537 248 514T206 478T153 466Q111 468 85 497T62 568V568ZM159 517Q181 517 197 531T215 566Q216 587 204 601T171 616Q150 617 134 602T116
565Q115 546 127 532T159 517V517Z" />
<glyph unicode="&#xb1;" horiz-adv-x="531" d="M298 578H383L365 436H505L495 355H356L338 213H253L271 355H131L140 436H280L298 578ZM108 171H472L463 89H98L108 171Z" />
<glyph unicode="&#xb2;" horiz-adv-x="403" d="M121 636Q135 653 157 666T205 687T258 695Q319 694 352 661T378 569Q373 529 348 494T287 428T215 370T149 321L169 384H369L360 306H88L95 357Q122 375 152 396T209 442T256 492T278 544Q282 583 268 599T224 616Q200
616 178 604T142 575L121 636Z" />
<glyph unicode="&#xb3;" horiz-adv-x="390" d="M176 303Q136 303 111 318T72 350L106 404Q111 397 120 387T143 370T173 365Q205 368 225 386T250 436Q254 469 235 486T187 504Q173 504 161 501T139 494L135 503L240 636L259 620H118L127 688H348L221 509L162
525Q175 535 193 542T233 549Q257 550 282 535T323 494T334 434Q330 397 309 368T254 321T176 303Z" />
<glyph unicode="&#xb4;" horiz-adv-x="277" d="M315 619L182 485H123L212 619H315Z" />
<glyph unicode="&#xb5;" horiz-adv-x="546" d="M186 -16Q133 -16 103 15T73 95L152 146L109 -201H32L69 109L106 414H199L166 141Q164 107 179 86T231 64Q266 64 296 84T348 140T374 221L398 414H491L440 0H356L360 85Q344 57 318 34T258 -2T186 -16Z" />
<glyph unicode="&#xb6;" horiz-adv-x="554" d="M256 428Q213 428 181 447T129 501T110 577Q110 627 136 668T204 734T297 759H546L452 0H369L453 678H371L287 0H203L256 428Z" />
<glyph unicode="&#xb7;" horiz-adv-x="213" d="M74 280Q74 305 93 322T134 339Q151 339 165 325T179 291Q179 274 170 261T148 241T120 233Q102 233 88 246T74 280V280Z" />
<glyph unicode="&#xb8;" horiz-adv-x="457" d="M108 -148Q117 -160 133 -168T171 -179Q197 -180 219 -170T244 -137Q247 -120 235 -105T185 -88Q169 -87 151 -90T119 -97L108 -50L179 4L250 0L173 -78L154 -53Q166 -50 182 -48T213 -46Q266 -48 297 -72T323 -141Q319
-174 297 -194T243 -223T174 -230Q137 -227 113 -215T74 -186L108 -148Z" />
<glyph unicode="&#xb9;" horiz-adv-x="271" d="M102 669H249L204 297H117L152 585H93L102 669Z" />
<glyph unicode="&#xba;" horiz-adv-x="378" d="M79 580Q84 624 108 657T170 707T253 722Q298 719 330 697T378 640T388 561Q383 518 360 485T299 435T215 419Q171 422 138 443T89 499T79 580ZM151 575Q148 551 156 530T182 497T222 482Q246 481 266 491T299 521T316
565Q319 590 311 611T285 645T244 659Q220 661 200 650T167 619T151 575Z" />
<glyph unicode="&#xbb;" horiz-adv-x="608" d="M435 242Q429 247 414 261T379 295T338 336T296 377T261 411T239 430L251 335Q259 328 271 316T296 289T322 262T341 242Q336 235 327 223T308 195T289 168T275 148L286 53L435 242ZM262 242Q256 247 241 261T206
295T164 336T122 377T87 411T66 430L77 335Q85 329 97 316T123 289T149 262T168 242Q163 235 154 223T135 195T116 168T101 148L112 53L262 242Z" />
<glyph unicode="&#xbc;" horiz-adv-x="870" d="M676 764Q581 573 488 382T300 0H215Q309 191 403 382T591 764H676ZM102 669H249L204 297H117L152 585H93L102 669ZM817 159L810 106H512L514 130L744 386H801L754 6H673L708 289L728 290L583 126L574 159H817Z" />
<glyph unicode="&#xbd;" horiz-adv-x="881" d="M118 669H265L220 297H133L168 585H109L118 669ZM644 764Q550 573 457 382T268 0H184Q278 191 372 382T560 764H644ZM533 329Q547 346 569 359T617 380T670 388Q731 387 764 354T790 262Q785 222 760 187T699 121T627
63T561 14L581 77H781L772 -1H500L507 50Q534 68 564 89T621 135T668 185T690 237Q694 276 680 292T636 309Q612 309 590 297T554 268L533 329Z" />
<glyph unicode="&#xbe;" horiz-adv-x="883" d="M427 303Q387 303 362 318T323 350L357 404Q362 397 371 387T394 370T424 365Q456 368 476 386T501 436Q505 469 486 486T438 504Q424 504 412 501T390 494L386 503L491 636L510 620H369L378 688H599L472 509L413
525Q426 535 444 542T484 549Q508 550 533 535T574 494T585 434Q581 397 560 368T505 321T427 303ZM695 764Q601 573 508 382T319 0H235Q329 191 423 382T611 764H695ZM829 153L822 99H525L527 124L756 380H813L766 0H685L720 282L740 284L595 120L586 153H829Z"
/>
<glyph unicode="&#xbf;" horiz-adv-x="431" d="M314 275Q310 243 298 222T266 186T224 158T176 126Q132 94 110 58T88 -18Q88 -48 100 -71T134 -107T187 -120Q225 -120 251 -109T296 -76T329 -21V-21Q346 -27 364 -33T399 -48Q389 -70 372 -96T329 -147T266 -186T177
-202Q126 -202 87 -178T25 -114T2 -25Q2 39 34 85T124 170Q144 185 168 199T210 236T232 294L242 373H326L314 275ZM306 538Q324 538 338 526T352 492Q352 467 333 450T293 433Q276 433 262 447T248 481Q248 507 267 522T306 538V538Z" />
<glyph unicode="&#xc0;" horiz-adv-x="701" d="M99 0H4L412 753H418L641 0H530L366 598L441 643L99 0ZM223 274H492L514 190H185L223 274ZM385 943L451 809H392L282 943H385Z" />
<glyph unicode="&#xc1;" horiz-adv-x="701" d="M99 0H4L412 753H418L641 0H530L366 598L441 643L99 0ZM223 274H492L514 190H185L223 274ZM580 943L447 809H388L477 943H580Z" />
<glyph unicode="&#xc2;" horiz-adv-x="701" d="M99 0H4L412 753H418L641 0H530L366 598L441 643L99 0ZM223 274H492L514 190H185L223 274ZM500 809L424 915L450 922L346 809H261L444 992V992L585 809H500Z" />
<glyph unicode="&#xc3;" horiz-adv-x="701" d="M99 0H4L412 753H418L641 0H530L366 598L441 643L99 0ZM223 274H492L514 190H185L223 274ZM498 774Q462 776 440 794T401 831Q389 844 378 855T349 867Q335 868 323 859T304 830T293 785L234 790Q237 834 254 868T299
922T363 939Q392 938 411 921T447 884Q461 868 474 856T504 843Q519 842 529 852T546 882T555 928L613 923Q613 876 597 842T554 791T498 774Z" />
<glyph unicode="&#xc4;" horiz-adv-x="701" d="M99 0H4L412 753H418L641 0H530L366 598L441 643L99 0ZM223 274H492L514 190H185L223 274ZM285 857Q287 880 305 894T343 908Q362 907 376 891T388 852Q386 828 369 815T332 802Q312 803 297 818T285 857V857ZM471
857Q474 880 491 894T529 908Q548 907 562 891T575 852Q572 828 554 815T518 802Q498 803 484 818T471 857V857Z" />
<glyph unicode="&#xc5;" horiz-adv-x="701" d="M99 0H4L412 753H418L641 0H530L366 598L441 643L99 0ZM223 274H492L514 190H185L223 274ZM339 857Q343 899 372 922T442 943Q482 941 506 916T526 852Q523 810 494 787T424 765Q384 767 360 792T339 857ZM390 853Q389
834 399 822T429 809Q448 808 461 820T476 852Q477 873 467 885T438 897Q419 898 406 887T390 853Z" />
<glyph unicode="&#xc6;" horiz-adv-x="952" d="M540 723H935L923 629H625L598 408H856L844 315H587L560 93H872L860 0H451L540 723ZM541 615Q537 606 533 593T526 577L98 0H-13L540 723L541 615ZM237 256H497L487 179H199L237 256Z" />
<glyph unicode="&#xc7;" horiz-adv-x="698" d="M617 37Q600 28 571 16T505 -4T424 -12Q361 -12 300 8T188 69T108 173T78 324Q78 381 91 438T133 547T206 639T314 702T459 726Q532 726 589 704T684 654L634 567Q606 590 563 610T467 633Q395 635 341 611T251 545T197
447T179 331Q179 276 197 230T248 151T327 100T428 81Q465 81 494 89T547 107T587 126L617 37ZM327 -150Q336 -162 352 -170T390 -181Q416 -182 438 -172T463 -139Q466 -122 454 -107T404 -90Q388 -89 370 -92T338 -99L327 -52L398 2L469 -2L392 -80L373 -55Q385
-52 401 -50T432 -48Q485 -50 516 -74T542 -143Q538 -176 516 -196T462 -225T393 -232Q356 -229 332 -217T293 -188L327 -150Z" />
<glyph unicode="&#xc8;" horiz-adv-x="653" d="M166 723H635L624 633H254L227 408H557L545 317H215L188 93H572L561 0H77L166 723ZM361 924L427 790H368L258 924H361Z" />
<glyph unicode="&#xc9;" horiz-adv-x="653" d="M166 723H635L624 633H254L227 408H557L545 317H215L188 93H572L561 0H77L166 723ZM556 924L423 790H364L453 924H556Z" />
<glyph unicode="&#xca;" horiz-adv-x="653" d="M166 723H635L624 633H254L227 408H557L545 317H215L188 93H572L561 0H77L166 723ZM476 790L400 896L426 903L322 790H237L420 973V973L561 790H476Z" />
<glyph unicode="&#xcb;" horiz-adv-x="653" d="M166 723H635L624 633H254L227 408H557L545 317H215L188 93H572L561 0H77L166 723ZM260 838Q262 861 280 875T318 889Q337 888 351 872T363 833Q361 809 344 796T307 783Q287 784 272 799T260 838V838ZM446 838Q449
861 466 875T504 889Q523 888 537 872T550 833Q547 809 529 796T493 783Q473 784 459 799T446 838V838Z" />
<glyph unicode="&#xcc;" horiz-adv-x="309" d="M166 723H265L177 0H77L166 723ZM184 924L250 790H191L81 924H184Z" />
<glyph unicode="&#xcd;" horiz-adv-x="309" d="M166 723H265L177 0H77L166 723ZM379 924L246 790H187L276 924H379Z" />
<glyph unicode="&#xce;" horiz-adv-x="309" d="M166 723H265L177 0H77L166 723ZM299 790L223 896L249 903L145 790H60L243 973V973L384 790H299Z" />
<glyph unicode="&#xcf;" horiz-adv-x="309" d="M166 723H265L177 0H77L166 723ZM84 838Q86 861 104 875T142 889Q161 888 175 872T187 833Q185 809 168 796T131 783Q111 784 96 799T84 838V838ZM270 838Q273 861 290 875T328 889Q347 888 361 872T374 833Q371
809 353 796T317 783Q297 784 283 799T270 838V838Z" />
<glyph unicode="&#xd0;" horiz-adv-x="752" d="M77 0L166 723H377Q478 723 545 693T650 612T702 498T711 367Q705 281 672 213T585 97T463 25T319 0H77ZM185 93H317Q377 93 429 111T521 164T585 251T613 373Q618 440 601 488T550 568T472 615T376 630H250L185
93ZM303 397H561L549 304H291L303 397Z" />
<glyph unicode="&#xd1;" horiz-adv-x="838" d="M703 -23H700L211 546L237 537L173 0H77L168 745H172L655 174L634 181L698 723H794L703 -23ZM556 736Q520 738 498 756T459 793Q447 806 436 817T407 829Q393 830 381 821T362 792T351 747L292 752Q295 796 312 830T357
884T421 901Q450 900 469 883T505 846Q519 830 532 818T562 805Q577 804 587 814T604 844T613 890L671 885Q671 838 655 804T612 753T556 736Z" />
<glyph unicode="&#xd2;" horiz-adv-x="859" d="M425 -7Q359 -7 297 15T186 80T107 187T78 335Q78 401 103 470T177 598T300 693T471 730Q537 730 599 708T711 643T789 536T818 387Q818 321 793 252T719 124T597 29T425 -7ZM427 86Q502 86 557 113T647 185T700
281T718 382Q718 434 700 479T647 560T568 616T467 637Q392 637 338 610T248 538T195 442T178 340Q178 289 196 243T247 162T326 107T427 86ZM447 924L513 790H454L344 924H447Z" />
<glyph unicode="&#xd3;" horiz-adv-x="859" d="M425 -7Q359 -7 297 15T186 80T107 187T78 335Q78 401 103 470T177 598T300 693T471 730Q537 730 599 708T711 643T789 536T818 387Q818 321 793 252T719 124T597 29T425 -7ZM427 86Q502 86 557 113T647 185T700
281T718 382Q718 434 700 479T647 560T568 616T467 637Q392 637 338 610T248 538T195 442T178 340Q178 289 196 243T247 162T326 107T427 86ZM642 924L509 790H450L539 924H642Z" />
<glyph unicode="&#xd4;" horiz-adv-x="859" d="M425 -7Q359 -7 297 15T186 80T107 187T78 335Q78 401 103 470T177 598T300 693T471 730Q537 730 599 708T711 643T789 536T818 387Q818 321 793 252T719 124T597 29T425 -7ZM427 86Q502 86 557 113T647 185T700
281T718 382Q718 434 700 479T647 560T568 616T467 637Q392 637 338 610T248 538T195 442T178 340Q178 289 196 243T247 162T326 107T427 86ZM562 790L486 896L512 903L408 790H323L506 973V973L647 790H562Z" />
<glyph unicode="&#xd5;" horiz-adv-x="859" d="M425 -7Q359 -7 297 15T186 80T107 187T78 335Q78 401 103 470T177 598T300 693T471 730Q537 730 599 708T711 643T789 536T818 387Q818 321 793 252T719 124T597 29T425 -7ZM427 86Q502 86 557 113T647 185T700
281T718 382Q718 434 700 479T647 560T568 616T467 637Q392 637 338 610T248 538T195 442T178 340Q178 289 196 243T247 162T326 107T427 86ZM560 755Q524 757 502 775T463 812Q451 825 440 836T411 848Q397 849 385 840T366 811T355 766L296 771Q299 815 316 849T361
903T425 920Q454 919 473 902T509 865Q523 849 536 837T566 824Q581 823 591 833T608 863T617 909L675 904Q675 857 659 823T616 772T560 755Z" />
<glyph unicode="&#xd6;" horiz-adv-x="859" d="M425 -7Q359 -7 297 15T186 80T107 187T78 335Q78 401 103 470T177 598T300 693T471 730Q537 730 599 708T711 643T789 536T818 387Q818 321 793 252T719 124T597 29T425 -7ZM427 86Q502 86 557 113T647 185T700
281T718 382Q718 434 700 479T647 560T568 616T467 637Q392 637 338 610T248 538T195 442T178 340Q178 289 196 243T247 162T326 107T427 86ZM347 838Q349 861 367 875T405 889Q424 888 438 872T450 833Q448 809 431 796T394 783Q374 784 359 799T347 838V838ZM533
838Q536 861 553 875T591 889Q610 888 624 872T637 833Q634 809 616 796T580 783Q560 784 546 799T533 838V838Z" />
<glyph unicode="&#xd7;" horiz-adv-x="517" d="M307 240Q334 264 360 287T414 335Q429 318 444 299T474 263Q449 240 422 217T370 169Q391 145 411 121T453 72L371 0Q351 24 329 47T286 95Q260 72 234 49T181 1Q165 19 150 36T119 72Q145 96 171 119T225 167L140
263L221 337L307 240Z" />
<glyph unicode="&#xd8;" horiz-adv-x="850" d="M834 687L148 -14L106 28L792 730L834 687ZM425 -7Q359 -7 297 15T186 80T107 187T78 335Q78 401 103 470T177 598T300 693T471 730Q537 730 599 708T711 643T789 536T818 387Q818 321 793 252T719 124T597 29T425
-7ZM427 86Q502 86 557 113T647 185T700 281T718 382Q718 434 700 479T647 560T568 616T467 637Q392 637 338 610T248 538T195 442T178 340Q178 289 196 243T247 162T326 107T427 86Z" />
<glyph unicode="&#xd9;" horiz-adv-x="752" d="M208 256Q202 207 219 169T273 108T358 86Q409 86 450 108T518 168T551 256L608 723H707L650 253Q640 174 598 115T491 24T346 -8V-8Q271 -8 214 24T128 115T108 253L166 723H265L208 256ZM409 924L475 790H416L306
924H409Z" />
<glyph unicode="&#xda;" horiz-adv-x="752" d="M208 256Q202 207 219 169T273 108T358 86Q409 86 450 108T518 168T551 256L608 723H707L650 253Q640 174 598 115T491 24T346 -8V-8Q271 -8 214 24T128 115T108 253L166 723H265L208 256ZM604 924L471 790H412L501
924H604Z" />
<glyph unicode="&#xdb;" horiz-adv-x="752" d="M208 256Q202 207 219 169T273 108T358 86Q409 86 450 108T518 168T551 256L608 723H707L650 253Q640 174 598 115T491 24T346 -8V-8Q271 -8 214 24T128 115T108 253L166 723H265L208 256ZM524 790L448 896L474 903L370
790H285L468 973V973L609 790H524Z" />
<glyph unicode="&#xdc;" horiz-adv-x="752" d="M208 256Q202 207 219 169T273 108T358 86Q409 86 450 108T518 168T551 256L608 723H707L650 253Q640 174 598 115T491 24T346 -8V-8Q271 -8 214 24T128 115T108 253L166 723H265L208 256ZM309 838Q311 861 329 875T367
889Q386 888 400 872T412 833Q410 809 393 796T356 783Q336 784 321 799T309 838V838ZM495 838Q498 861 515 875T553 889Q572 888 586 872T599 833Q596 809 578 796T542 783Q522 784 508 799T495 838V838Z" />
<glyph unicode="&#xdd;" horiz-adv-x="691" d="M300 241L92 723H210L376 324L346 322L608 723H727L397 241L368 0H271L300 241ZM568 928L435 794H376L465 928H568Z" />
<glyph unicode="&#xde;" horiz-adv-x="583" d="M341 586Q390 586 431 573T504 535T551 474T568 389Q568 344 553 299T506 215T421 153T296 129H192L176 0H77L164 709H264L249 586H341ZM305 223Q351 223 382 239T432 279T459 329T467 375Q467 403 454 430T413 475T339
493H237L204 223H305Z" />
<glyph unicode="&#xdf;" horiz-adv-x="604" d="M338 -6Q305 -6 272 5T218 36L259 94Q277 79 299 72T336 65Q365 65 386 79T423 115T447 162T458 211Q462 251 450 282T412 331T351 350L346 351L355 432Q381 431 398 438T426 459T441 486T446 513Q446 546 427 567T365
590Q325 591 298 571T255 513T230 423L160 0H67L123 343H58L73 420H138L145 470Q155 536 186 579T266 645T378 666Q432 665 468 646T522 595T541 522Q541 498 534 474T507 428T452 393Q484 378 507 353T542 291T551 205Q549 167 535 129T495 59T431 11T338 -6Z"
/>
<glyph unicode="&#xe0;" horiz-adv-x="589" d="M224 -8Q178 -8 137 16T70 86T44 193Q44 235 59 276T104 353T176 409T275 431Q320 431 351 418T403 385T436 338L427 320L448 414H533L483 0H390L403 105L410 81Q404 72 389 57T351 26T296 2T224 -8ZM275 67Q305
67 332 79T379 114T411 169L420 250Q416 281 399 304T353 340T291 354Q250 354 222 339T175 301T149 252T141 204Q141 164 158 133T205 85T275 67ZM293 640L359 506H300L190 640H293Z" />
<glyph unicode="&#xe1;" horiz-adv-x="589" d="M224 -8Q178 -8 137 16T70 86T44 193Q44 235 59 276T104 353T176 409T275 431Q320 431 351 418T403 385T436 338L427 320L448 414H533L483 0H390L403 105L410 81Q404 72 389 57T351 26T296 2T224 -8ZM275 67Q305
67 332 79T379 114T411 169L420 250Q416 281 399 304T353 340T291 354Q250 354 222 339T175 301T149 252T141 204Q141 164 158 133T205 85T275 67ZM488 640L355 506H296L385 640H488Z" />
<glyph unicode="&#xe2;" horiz-adv-x="589" d="M224 -8Q178 -8 137 16T70 86T44 193Q44 235 59 276T104 353T176 409T275 431Q320 431 351 418T403 385T436 338L427 320L448 414H533L483 0H390L403 105L410 81Q404 72 389 57T351 26T296 2T224 -8ZM275 67Q305
67 332 79T379 114T411 169L420 250Q416 281 399 304T353 340T291 354Q250 354 222 339T175 301T149 252T141 204Q141 164 158 133T205 85T275 67ZM408 506L332 612L358 619L254 506H169L352 689V689L493 506H408Z" />
<glyph unicode="&#xe3;" horiz-adv-x="589" d="M224 -8Q178 -8 137 16T70 86T44 193Q44 235 59 276T104 353T176 409T275 431Q320 431 351 418T403 385T436 338L427 320L448 414H533L483 0H390L403 105L410 81Q404 72 389 57T351 26T296 2T224 -8ZM275 67Q305
67 332 79T379 114T411 169L420 250Q416 281 399 304T353 340T291 354Q250 354 222 339T175 301T149 252T141 204Q141 164 158 133T205 85T275 67ZM662 471Q626 473 604 491T565 528Q553 541 542 552T513 564Q499 565 487 556T468 527T457 482L398 487Q401 531
418 565T463 619T527 636Q556 635 575 618T611 581Q625 565 638 553T668 540Q683 539 693 549T710 579T719 625L777 620Q777 573 761 539T718 488T662 471Z" />
<glyph unicode="&#xe4;" horiz-adv-x="589" d="M224 -8Q178 -8 137 16T70 86T44 193Q44 235 59 276T104 353T176 409T275 431Q320 431 351 418T403 385T436 338L427 320L448 414H533L483 0H390L403 105L410 81Q404 72 389 57T351 26T296 2T224 -8ZM275 67Q305
67 332 79T379 114T411 169L420 250Q416 281 399 304T353 340T291 354Q250 354 222 339T175 301T149 252T141 204Q141 164 158 133T205 85T275 67ZM193 554Q195 577 213 591T251 605Q270 604 284 588T296 549Q294 525 277 512T240 499Q220 500 205 515T193 554V554ZM379
554Q382 577 399 591T437 605Q456 604 470 588T483 549Q480 525 462 512T426 499Q406 500 392 515T379 554V554Z" />
<glyph unicode="&#xe5;" horiz-adv-x="589" d="M224 -8Q178 -8 137 16T70 86T44 193Q44 235 59 276T104 353T176 409T275 431Q320 431 351 418T403 385T436 338L427 320L448 414H533L483 0H390L403 105L410 81Q404 72 389 57T351 26T296 2T224 -8ZM275 67Q305
67 332 79T379 114T411 169L420 250Q416 281 399 304T353 340T291 354Q250 354 222 339T175 301T149 252T141 204Q141 164 158 133T205 85T275 67ZM247 554Q251 596 280 619T350 640Q390 638 414 613T434 549Q431 507 402 484T332 462Q292 464 268 489T247 554ZM298
550Q297 531 307 519T337 506Q356 505 369 517T384 549Q385 570 375 582T346 594Q327 595 314 584T298 550Z" />
<glyph unicode="&#xe6;" horiz-adv-x="806" d="M538 -10Q511 -9 480 -1T420 24T369 68T337 133T332 223Q339 284 375 331T465 405T582 430Q614 429 645 419T704 387T750 328T775 238L394 158L390 213L697 280L676 267Q669 296 653 315T616 344T568 356Q531 358
501 341T450 294T424 222Q419 183 429 155T458 109T502 81T549 70Q575 69 600 77T649 100L683 29Q651 10 613 0T538 -10ZM198 -10Q156 -10 119 3T58 44T34 112Q34 144 51 175T108 227T212 246Q238 245 260 241T302 228T339 207T371 178L348 123Q330 142 310 155T269
174T226 180Q176 182 156 160T137 113Q138 92 150 79T183 60T228 54Q255 56 283 67T329 97L340 185L379 157L366 54Q345 31 318 17T259 -4T198 -10ZM324 214L330 257Q334 287 327 306T305 335T274 348T242 353Q205 354 173 338T113 296L73 358Q109 389 156 410T264
429Q285 428 308 423T354 408T393 380T418 338T423 278L420 257L324 214Z" />
<glyph unicode="&#xe7;" horiz-adv-x="435" d="M362 97Q374 83 383 69T403 38Q373 16 336 3T259 -10Q203 -10 159 16T90 87T65 185Q65 234 85 277T139 354T219 405T313 424Q354 424 387 411T447 376Q433 362 419 348T389 318Q373 332 352 340T304 348Q259 348
223 327T165 271T144 193Q144 158 159 130T203 84T269 67Q295 67 319 75T362 97V97ZM263 -7Q261 -26 267 -35T282 -50T299 -61Q314 -74 321 -91T329 -129Q329 -161 315 -189T273 -235T208 -253Q174 -253 148 -234T112 -177Q124 -171 137 -165T162 -153Q164 -169
176 -180T208 -191Q236 -191 251 -172T267 -128Q267 -109 258 -99T236 -80T215 -58T210 -21L213 0H264L263 -7Z" />
<glyph unicode="&#xe8;" horiz-adv-x="521" d="M272 70Q297 70 320 78T364 100L398 29Q368 11 333 1T263 -9Q198 -9 149 15T73 87T45 200Q45 241 60 281T105 354T179 408T283 429Q320 429 353 420T415 388T462 329T490 238L136 138L121 195L423 282L390 267Q380
306 351 331T280 356Q236 356 204 336T155 282T138 211Q138 163 157 132T207 86T272 70ZM255 646L321 512H262L152 646H255Z" />
<glyph unicode="&#xe9;" horiz-adv-x="441" d="M272 70Q297 70 320 78T364 100L398 29Q368 11 333 1T263 -9Q198 -9 149 15T73 87T45 200Q45 241 60 281T105 354T179 408T283 429Q320 429 353 420T415 388T462 329T490 238L136 138L121 195L423 282L390 267Q380
306 351 331T280 356Q236 356 204 336T155 282T138 211Q138 163 157 132T207 86T272 70ZM417 619L284 485H225L314 619H417Z" />
<glyph unicode="&#xea;" horiz-adv-x="521" d="M272 70Q297 70 320 78T364 100L398 29Q368 11 333 1T263 -9Q198 -9 149 15T73 87T45 200Q45 241 60 281T105 354T179 408T283 429Q320 429 353 420T415 388T462 329T490 238L136 138L121 195L423 282L390 267Q380
306 351 331T280 356Q236 356 204 336T155 282T138 211Q138 163 157 132T207 86T272 70ZM370 512L294 618L320 625L216 512H131L314 695V695L455 512H370Z" />
<glyph unicode="&#xeb;" horiz-adv-x="521" d="M272 70Q297 70 320 78T364 100L398 29Q368 11 333 1T263 -9Q198 -9 149 15T73 87T45 200Q45 241 60 281T105 354T179 408T283 429Q320 429 353 420T415 388T462 329T490 238L136 138L121 195L423 282L390 267Q380
306 351 331T280 356Q236 356 204 336T155 282T138 211Q138 163 157 132T207 86T272 70ZM154 560Q156 583 174 597T212 611Q231 610 245 594T257 555Q255 531 238 518T201 505Q181 506 166 521T154 560V560ZM340 560Q343 583 360 597T398 611Q417 610 431 594T444
555Q441 531 423 518T387 505Q367 506 353 521T340 560V560Z" />
<glyph unicode="&#xec;" horiz-adv-x="254" d="M106 414H199L148 0H55L106 414ZM378 619L444 485H385L275 619H378Z" />
<glyph unicode="&#xed;" horiz-adv-x="254" d="M106 414H199L148 0H55L106 414ZM573 619L440 485H381L470 619H573Z" />
<glyph unicode="&#xee;" horiz-adv-x="254" d="M106 414H199L148 0H55L106 414ZM493 485L417 591L443 598L339 485H254L437 668V668L578 485H493Z" />
<glyph unicode="&#xef;" horiz-adv-x="254" d="M106 414H199L148 0H55L106 414ZM278 533Q280 556 298 570T336 584Q355 583 369 567T381 528Q379 504 362 491T325 478Q305 479 290 494T278 533V533ZM464 533Q467 556 484 570T522 584Q541 583 555 567T568 528Q565
504 547 491T511 478Q491 479 477 494T464 533V533Z" />
<glyph unicode="&#xf0;" horiz-adv-x="545" d="M252 -8Q229 -8 201 -2T145 20T93 61T57 126T46 220Q48 259 62 297T105 365T173 414T266 431Q296 431 326 420T382 385T423 326T440 243L408 245Q415 319 403 383T364 505T296 614T206 711L281 768Q337 720 379 663T451
542T494 413T508 287Q507 233 492 180T446 84T366 16T252 -8ZM261 68Q296 68 322 81T366 115T393 162T405 210Q408 254 395 282T360 325T316 347T279 353Q242 354 216 340T172 304T146 255T136 204Q136 154 156 124T206 81T261 68ZM480 664L227 531L203 595L457
727L480 664Z" />
<glyph unicode="&#xf1;" horiz-adv-x="553" d="M190 414L189 320L182 333Q209 376 255 403T363 430Q423 430 456 396T485 306L447 0H354L387 274Q391 308 374 329T317 350Q280 350 249 330T198 274T173 194L149 0H56L106 414H190ZM647 490Q611 492 589 510T550
547Q538 560 527 571T498 583Q484 584 472 575T453 546T442 501L383 506Q386 550 403 584T448 638T512 655Q541 654 560 637T596 600Q610 584 623 572T653 559Q668 558 678 568T695 598T704 644L762 639Q762 592 746 558T703 507T647 490Z" />
<glyph unicode="&#xf2;" horiz-adv-x="546" d="M263 -10Q224 -10 185 3T114 41T63 105T44 193Q44 232 57 273T99 350T172 407T283 429Q340 429 389 405T470 336T502 226Q502 200 495 168T471 104T427 47T359 6T263 -10ZM266 67Q317 67 348 91T393 152T407 222Q407
257 396 281T365 322T323 345T280 353Q230 353 199 329T153 269T138 198Q138 153 157 124T207 81T266 67ZM255 627L321 493H262L152 627H255Z" />
<glyph unicode="&#xf3;" horiz-adv-x="546" d="M263 -10Q224 -10 185 3T114 41T63 105T44 193Q44 232 57 273T99 350T172 407T283 429Q340 429 389 405T470 336T502 226Q502 200 495 168T471 104T427 47T359 6T263 -10ZM266 67Q317 67 348 91T393 152T407 222Q407
257 396 281T365 322T323 345T280 353Q230 353 199 329T153 269T138 198Q138 153 157 124T207 81T266 67ZM450 627L317 493H258L347 627H450Z" />
<glyph unicode="&#xf4;" horiz-adv-x="546" d="M263 -10Q224 -10 185 3T114 41T63 105T44 193Q44 232 57 273T99 350T172 407T283 429Q340 429 389 405T470 336T502 226Q502 200 495 168T471 104T427 47T359 6T263 -10ZM266 67Q317 67 348 91T393 152T407 222Q407
257 396 281T365 322T323 345T280 353Q230 353 199 329T153 269T138 198Q138 153 157 124T207 81T266 67ZM370 493L294 599L320 606L216 493H131L314 676V676L455 493H370Z" />
<glyph unicode="&#xf5;" horiz-adv-x="546" d="M263 -10Q224 -10 185 3T114 41T63 105T44 193Q44 232 57 273T99 350T172 407T283 429Q340 429 389 405T470 336T502 226Q502 200 495 168T471 104T427 47T359 6T263 -10ZM266 67Q317 67 348 91T393 152T407 222Q407
257 396 281T365 322T323 345T280 353Q230 353 199 329T153 269T138 198Q138 153 157 124T207 81T266 67ZM624 458Q588 460 566 478T527 515Q515 528 504 539T475 551Q461 552 449 543T430 514T419 469L360 474Q363 518 380 552T425 606T489 623Q518 622 537 605T573
568Q587 552 600 540T630 527Q645 526 655 536T672 566T681 612L739 607Q739 560 723 526T680 475T624 458Z" />
<glyph unicode="&#xf6;" horiz-adv-x="546" d="M263 -10Q224 -10 185 3T114 41T63 105T44 193Q44 232 57 273T99 350T172 407T283 429Q340 429 389 405T470 336T502 226Q502 200 495 168T471 104T427 47T359 6T263 -10ZM266 67Q317 67 348 91T393 152T407 222Q407
257 396 281T365 322T323 345T280 353Q230 353 199 329T153 269T138 198Q138 153 157 124T207 81T266 67ZM155 541Q157 564 175 578T213 592Q232 591 246 575T258 536Q256 512 239 499T202 486Q182 487 167 502T155 541V541ZM341 541Q344 564 361 578T399 592Q418
591 432 575T445 536Q442 512 424 499T388 486Q368 487 354 502T341 541V541Z" />
<glyph unicode="&#xf7;" horiz-adv-x="506" d="M214 100Q214 125 233 142T274 159Q291 159 305 145T319 110Q319 93 310 80T288 60T261 53Q243 53 229 66T214 100V100ZM250 391Q250 416 269 433T310 450Q327 450 341 436T355 402Q355 376 336 360T296 344Q278
344 264 357T250 391V391ZM105 290H469L459 209H94L105 290Z" />
<glyph unicode="&#xf8;" horiz-adv-x="517" d="M506 404Q493 390 467 364T406 303T333 229T255 152T182 78T122 17T82 -23L48 12Q61 26 87 52T147 112T219 186T296 263T369 336T430 397T469 437L506 404ZM263 -10Q224 -10 185 3T114 41T63 105T44 193Q44 232 57
273T99 350T172 407T283 429Q340 429 389 405T470 336T502 226Q502 200 495 168T471 104T427 47T359 6T263 -10ZM266 67Q317 67 348 91T393 152T407 222Q407 257 396 281T365 322T323 345T280 353Q230 353 199 329T153 269T138 198Q138 153 157 124T207 81T266
67Z" />
<glyph unicode="&#xf9;" horiz-adv-x="546" d="M186 -16Q129 -16 96 17T69 106L106 414H199L165 138Q163 107 178 86T231 64Q266 64 296 84T348 140T374 221L398 414H491L440 0H356L361 99L365 85Q349 57 322 34T260 -2T186 -16ZM275 659L341 525H282L172 659H275Z" />
<glyph unicode="&#xfa;" horiz-adv-x="546" d="M186 -16Q129 -16 96 17T69 106L106 414H199L165 138Q163 107 178 86T231 64Q266 64 296 84T348 140T374 221L398 414H491L440 0H356L361 99L365 85Q349 57 322 34T260 -2T186 -16ZM470 628L337 494H278L367 628H470Z" />
<glyph unicode="&#xfb;" horiz-adv-x="546" d="M186 -16Q129 -16 96 17T69 106L106 414H199L165 138Q163 107 178 86T231 64Q266 64 296 84T348 140T374 221L398 414H491L440 0H356L361 99L365 85Q349 57 322 34T260 -2T186 -16ZM390 525L314 631L340 638L236
525H151L334 708V708L475 525H390Z" />
<glyph unicode="&#xfc;" horiz-adv-x="546" d="M186 -16Q129 -16 96 17T69 106L106 414H199L165 138Q163 107 178 86T231 64Q266 64 296 84T348 140T374 221L398 414H491L440 0H356L361 99L365 85Q349 57 322 34T260 -2T186 -16ZM174 573Q176 596 194 610T232
624Q251 623 265 607T277 568Q275 544 258 531T221 518Q201 519 186 534T174 573V573ZM360 573Q363 596 380 610T418 624Q437 623 451 607T464 568Q461 544 443 531T407 518Q387 519 373 534T360 573V573Z" />
<glyph unicode="&#xfd;" horiz-adv-x="529" d="M77 -199L425 414H513L170 -199H77ZM205 -3L57 414H162L283 44L205 -3ZM456 619L323 485H264L353 619H456Z" />
<glyph unicode="&#xfe;" horiz-adv-x="567" d="M229 774L174 324L172 348Q186 366 209 383T265 412T335 424Q392 424 434 401T500 335T524 234Q524 155 491 101T402 18T278 -10Q225 -10 188 12T137 62L143 70L109 -199H31L150 774H229ZM438 225Q438 260 424 288T383
332T318 348Q274 348 238 327T180 271T158 193Q158 158 174 129T218 84T284 67Q329 67 364 86T418 141T438 225Z" />
<glyph unicode="&#xff;" horiz-adv-x="476" d="M77 -199L425 414H513L170 -199H77ZM205 -3L57 414H162L283 44L205 -3ZM156 533Q158 556 176 570T214 584Q233 583 247 567T259 528Q257 504 240 491T203 478Q183 479 168 494T156 533V533ZM342 533Q345 556 362
570T400 584Q419 583 433 567T446 528Q443 504 425 491T389 478Q369 479 355 494T342 533V533Z" />
<glyph unicode="&#x2013;" horiz-adv-x="515" d="M132 252H437L427 170H122L132 252Z" />
<glyph unicode="&#x2014;" horiz-adv-x="709" d="M131 252H639L629 170H121L131 252Z" />
<glyph unicode="&#x2018;" horiz-adv-x="166" d="M190 597Q180 591 169 585T146 573Q122 601 115 639T120 720Q132 719 145 717T171 713Q160 678 166 648T190 597V597Z" />
<glyph unicode="&#x2019;" horiz-adv-x="166" d="M147 573Q138 579 129 585T109 597Q133 617 146 647T157 713Q169 715 183 717T210 720Q213 678 196 640T147 573V573Z" />
<glyph unicode="&#x201a;" horiz-adv-x="148" d="M54 -54Q44 -47 35 -41T16 -29Q39 -9 52 21T63 86Q76 88 89 90T116 93Q119 52 102 13T54 -54V-54Z" />
<glyph unicode="&#x201c;" horiz-adv-x="251" d="M190 597Q180 591 169 585T146 573Q121 601 114 639T119 720Q132 719 145 717T171 713Q160 678 166 648T190 597V597ZM295 597Q285 591 274 585T251 573Q226 601 219 639T224 720Q237 719 250 717T276 713Q265
678 271 648T295 597V597Z" />
<glyph unicode="&#x201d;" horiz-adv-x="251" d="M122 573Q114 579 105 585T85 597Q109 617 122 647T132 713Q145 715 159 717T185 720Q189 678 172 640T122 573V573ZM228 573Q219 579 210 585T190 597Q214 617 227 647T238 713Q250 715 264 717T291 720Q294 678
277 640T228 573V573Z" />
<glyph unicode="&#x201e;" horiz-adv-x="345" d="M54 -54Q44 -47 35 -41T16 -29Q39 -9 52 21T63 86Q76 88 89 90T116 93Q119 52 102 13T54 -54V-54ZM159 -54Q150 -47 140 -41T120 -29Q144 -9 157 21T168 86Q181 88 195 90T222 93Q225 52 208 13T159 -54V-54Z" />
<glyph unicode="&#x2022;" horiz-adv-x="484" d="M151 290Q151 329 171 362T224 414T296 433Q329 433 354 418T394 376T409 317Q409 278 389 246T336 195T264 176Q231 176 206 191T166 232T151 290V290Z" />
<glyph unicode="&#x2039;" horiz-adv-x="396" d="M148 242Q154 247 169 261T204 295T246 336T288 377T323 411T344 430L333 335Q325 328 313 316T288 289T262 262T242 242Q248 235 257 223T275 195T294 168T309 148L297 53L148 242Z" />
<glyph unicode="&#x203a;" horiz-adv-x="397" d="M262 242Q256 247 241 261T206 295T164 336T122 377T87 411T66 430L77 335Q85 328 97 316T122 289T148 262T168 242Q162 235 153 223T135 195T116 168T101 148L112 53L262 242Z" />
</font>
</defs>
</svg>
