<?xml version="1.0" standalone="no"?>
<!DOCTYPE svg PUBLIC "-//W3C//DTD SVG 1.1//EN" "http://www.w3.org/Graphics/SVG/1.1/DTD/svg11.dtd">
<svg xmlns="http://www.w3.org/2000/svg">
<defs >
<font id="JosefinSans" horiz-adv-x="550" ><font-face
    font-family="Josefin Sans Thin Thin"
    units-per-em="1000"
    panose-1="0 0 0 0 0 0 0 0 0 0"
    ascent="750"
    descent="-250"
    alphabetic="0" />
<glyph unicode=" " horiz-adv-x="300" />
<glyph unicode="!" horiz-adv-x="199" d="M159 717H178L106 134H87L159 717ZM68 17Q67 25 72 32T87 41Q94 42 100 38T108 27Q110 18 104 11T89 2Q79 1 75 6T68 17Z" />
<glyph unicode="&quot;" horiz-adv-x="296" d="M174 721Q165 658 157 597T140 472H121L151 721H174ZM307 721Q299 658 290 597T273 472H254L284 721H307Z" />
<glyph unicode="#" horiz-adv-x="572" d="M294 644Q280 589 267 534T240 424H405Q418 479 431 534T459 644H478Q464 589 451 534T424 424H558Q557 419 556 415T554 405H419Q409 364 400 323T380 241H513Q512 236 511 232T509 223H375Q362 167 349 112T322 0H303Q317
56 330 111T356 223H191Q177 167 164 112T137 0H118Q132 56 145 111T172 223H57Q57 228 58 232T61 241H177Q187 282 196 323T216 405H102Q102 410 103 414T106 424H221Q234 479 247 534T275 644H294ZM235 405Q225 364 216 323T196 241H361Q371 282 380 323T400
405H235Z" />
<glyph unicode="$" horiz-adv-x="568" d="M254 -68L309 379L310 388L356 766H373L326 381L325 372L272 -68H254ZM500 639Q472 653 424 669T326 686Q273 686 240 670T187 631T161 584T153 545Q153 506 175 480T234 433T312 392Q355 373 395 350T462 291T488 202Q488
171 477 135T439 67T371 14T266 -7Q211 -7 168 6T93 40T44 78L56 94Q75 74 107 55T181 24T268 11Q337 11 381 40T446 114T468 200Q468 249 444 281T380 336T298 378Q267 391 238 406T184 441T146 484T133 542Q133 591 159 627T230 683T327 703Q356 703 389 697T453
679T511 654L500 639Z" />
<glyph unicode="%" horiz-adv-x="758" d="M225 223Q205 225 186 234T153 261T132 305T129 367Q133 411 151 442T196 489T257 505Q276 504 295 495T328 468T348 424T352 362Q347 318 329 287T284 239T225 223ZM227 240Q254 239 276 253T314 296T333 362Q336 392
331 415T315 454T288 478T254 488Q227 489 205 475T167 434T147 365Q143 324 153 297T183 256T227 240ZM533 3Q512 4 494 13T461 40T441 84T437 146Q441 190 459 221T504 269T565 284Q585 283 603 274T636 246T657 202T660 141Q656 97 637 66T591 18T533 3ZM535
19Q562 18 585 33T623 76T641 142Q646 181 636 208T606 251T562 267Q535 269 513 255T475 213T455 145Q451 104 461 77T491 35T535 19ZM586 508L217 0H196L565 508H586Z" />
<glyph unicode="&amp;" horiz-adv-x="701" d="M559 0Q558 0 555 0T546 0T538 0T534 0L220 505Q211 519 205 533T195 561T192 589Q192 638 213 673T274 729T369 749Q410 749 443 735T500 704L488 690Q460 708 431 719T369 731Q291 731 253 690T214 590Q214 578
217 566T227 541T240 518L559 0ZM306 367Q270 369 231 357T158 321T103 260T82 177Q82 129 109 92T181 33T280 11Q323 11 362 24T432 59T478 108L489 90Q460 47 403 20T278 -7Q213 -7 164 18T87 86T59 179Q60 226 81 264T137 331T216 373T305 387L306 367ZM620
387H642L494 92L482 108L620 387Z" />
<glyph unicode="&apos;" horiz-adv-x="148" d="M176 721Q168 658 159 597T142 472H123L153 721H176Z" />
<glyph unicode="(" horiz-adv-x="324" d="M108 222Q108 309 128 388T181 534T254 656T335 748L340 727Q289 676 241 602T161 432T129 225Q128 147 142 77T181 -49T234 -143L223 -163Q192 -125 166 -67T123 65T108 222V222Z" />
<glyph unicode=")" horiz-adv-x="324" d="M242 363Q241 275 221 197T169 51T96 -71T15 -163L10 -142Q60 -92 108 -17T188 153T221 359Q221 437 207 507T168 634T116 728L127 748Q158 710 184 652T226 519T242 363V363Z" />
<glyph unicode="*" horiz-adv-x="335" d="M225 559Q196 543 168 528T110 497Q108 501 106 505T102 514Q131 530 160 545T218 576Q193 592 168 608T117 641Q119 644 122 648T127 655Q153 639 178 624T229 592L245 720H266Q261 688 257 656T248 592Q278 607 308
623T368 654Q369 651 371 647T375 640Q345 624 315 608T256 575V575Q281 559 306 544T358 512Q355 508 352 504T345 495Q320 511 295 527T244 559Q240 528 236 497T227 434H210L225 559Z" />
<glyph unicode="+" horiz-adv-x="544" d="M308 411H327L306 242H477L474 223H304L283 51H264L285 223H114L116 242H287L308 411Z" />
<glyph unicode="," horiz-adv-x="200" d="M19 -181L10 -172Q40 -154 55 -122T70 -46L91 -47Q91 -73 85 -99T63 -147T19 -181Z" />
<glyph unicode="-" horiz-adv-x="300" d="M79 202H263L260 183H76L79 202Z" />
<glyph unicode="." horiz-adv-x="163" d="M66 20Q66 30 74 37T92 45Q100 45 106 39T112 25Q112 18 108 13T99 4T86 0Q78 0 72 6T66 20V20Z" />
<glyph unicode="/" horiz-adv-x="326" d="M405 737Q312 548 220 359T34 -19H15Q108 170 200 359T386 737H405Z" />
<glyph unicode="0" horiz-adv-x="619" d="M286 -5Q220 -1 173 29T97 107T58 216T55 339Q60 379 72 419T103 495T148 561T207 613T279 646T366 654Q432 650 479 620T555 542T594 434T597 311Q589 248 565 190T502 86T408 16T286 -5ZM288 14Q341 10 389 29T476 87T541
182T577 312Q588 409 563 480T485 592T364 635Q311 639 263 620T176 562T111 467T75 338Q64 240 89 169T166 57T288 14Z" />
<glyph unicode="1" horiz-adv-x="310" d="M118 651H248L168 0H148L225 631H115L118 651Z" />
<glyph unicode="2" horiz-adv-x="537" d="M69 0Q170 86 237 152T346 267T408 353T435 418T442 472Q442 532 420 569T361 623T283 640Q236 640 202 623T146 578T114 519T103 461Q103 431 109 407T129 363L116 352Q106 367 99 383T87 417T83 459Q83 493 95 528T132
592T195 640T285 659Q335 659 375 638T439 577T462 477Q462 434 446 390T390 293T282 172T109 12L105 19H472L469 0H69Z" />
<glyph unicode="3" horiz-adv-x="511" d="M436 651L201 380L185 383Q205 394 229 397T279 400Q330 399 368 378T429 318T451 225Q451 196 441 157T407 81T337 20T223 -6Q193 -6 163 0T106 24T57 71L69 83Q98 42 140 27T222 13Q285 13 326 36T390 93T422 163T431
226Q431 295 389 336T272 383Q245 384 218 379T171 364L167 368L402 639L404 632H113L115 651H436Z" />
<glyph unicode="4" horiz-adv-x="505" d="M33 181V182L459 659H460L404 199H500L498 181H401L380 0H360L382 181H33ZM438 611L65 192L61 199H384L435 616L438 611Z" />
<glyph unicode="5" horiz-adv-x="542" d="M232 -6Q207 -4 183 3T136 25T95 60L109 73Q124 53 144 41T186 21T232 13Q286 10 331 34T405 99T440 189Q444 227 433 261T398 321T343 363T273 382Q238 384 208 374T159 347L154 348L193 651H482L479 632H209L176 366L175
379Q195 390 224 395T279 399Q320 397 355 380T415 334T452 268T460 189Q455 150 437 114T388 50T318 7T232 -6Z" />
<glyph unicode="6" horiz-adv-x="521" d="M234 -7Q178 -4 135 25T69 101T52 205Q60 274 94 333T181 443T299 540T434 627L445 610Q355 561 287 511T174 411T107 314L103 318Q135 360 183 379T282 397Q323 394 357 377T417 332T454 266T461 187Q457 145 438 109T387
46T317 5T234 -7ZM235 11Q277 9 312 22T376 60T421 117T442 187Q447 237 427 280T367 350T277 379Q234 381 199 368T136 331T92 274T71 203Q65 152 85 110T145 41T235 11Z" />
<glyph unicode="7" horiz-adv-x="468" d="M476 651L106 0H81L447 641L459 632H70L73 651H476Z" />
<glyph unicode="8" horiz-adv-x="512" d="M52 205Q57 252 81 291T142 357T225 393Q186 409 164 444T147 520Q150 551 163 577T197 622T246 650T308 659Q352 656 382 635T427 580T437 505Q432 463 403 431T332 386Q373 373 404 344T451 275T462 188Q458 155 445
125T410 70T360 27T300 0T233 -7Q177 -4 134 25T69 101T52 205ZM72 204Q67 155 86 112T144 41T233 11Q285 8 330 31T406 96T442 189Q447 238 427 280T366 350T275 380Q224 382 180 360T106 297T72 204ZM165 518Q159 470 193 435T281 397Q318 396 347 410T395 449T417
506Q423 564 392 601T308 641Q254 643 214 611T165 518Z" />
<glyph unicode="9" horiz-adv-x="525" d="M259 229Q217 232 182 249T123 296T87 363T80 442Q85 484 104 519T155 581T226 621T309 633Q365 630 408 603T474 529T489 419Q481 348 444 288T352 176T233 82T106 0L94 18Q189 70 257 122T367 220T430 303L445 305Q404
263 362 245T259 229ZM263 248Q348 243 403 286T471 428Q475 480 455 521T396 586T308 614Q256 617 211 595T136 533T99 442Q93 391 113 348T173 278T263 248Z" />
<glyph unicode=":" horiz-adv-x="175" d="M65 20Q65 30 73 37T91 45Q99 45 105 39T111 25Q111 18 107 13T98 4T85 0Q77 0 71 6T65 20V20ZM96 272Q96 282 104 289T122 296Q130 296 135 290T141 276Q141 269 138 264T129 255T116 252Q108 252 102 257T96 272V272Z" />
<glyph unicode=";" horiz-adv-x="201" d="M120 270Q120 277 123 282T132 291T144 295Q153 295 158 289T164 275Q164 265 157 258T139 250Q130 250 125 256T120 270V270ZM125 86Q97 34 69 -17T14 -120H-5Q21 -68 46 -17T98 86H125Z" />
<glyph unicode="&lt;" horiz-adv-x="675" d="M546 -15Q444 48 343 111T139 238Q256 301 373 364T608 491L605 469Q498 411 391 354T177 238Q269 181 362 124T549 8V8L546 -15Z" />
<glyph unicode="=" horiz-adv-x="709" d="M120 166H627L624 148H118L120 166ZM144 360H651L648 342H142L144 360Z" />
<glyph unicode="&gt;" horiz-adv-x="646" d="M114 8Q221 66 328 123T542 238Q450 296 356 353T170 469L173 491Q275 428 376 365T580 238Q463 175 346 112T111 -15V-15L114 8Z" />
<glyph unicode="?" horiz-adv-x="452" d="M234 261Q238 292 251 311T285 344T331 372T383 408Q422 440 440 477T459 557Q459 602 439 637T384 693T303 714Q263 714 227 699T163 657T119 594V594Q115 595 111 596T103 598Q116 627 136 651T183 693T241 722T305
733Q356 733 395 710T456 646T478 558Q478 497 446 452T359 370Q331 351 309 339T272 307T251 242L241 164H222L234 261ZM214 23Q207 23 201 29T195 43Q195 54 203 61T220 68Q227 68 233 63T240 48Q240 38 232 31T214 23V23Z" />
<glyph unicode="@" horiz-adv-x="963" d="M398 -208Q315 -208 251 -185T143 -118T75 -10T51 134Q51 185 68 246T123 368T220 478T364 559T558 589Q636 589 701 564T814 495T888 390T915 260Q915 208 899 160T855 73T789 12T710 -10Q673 -10 653 7T627 57T631 135L635
122Q617 86 587 57T519 11T441 -6Q387 -6 346 16T282 78T261 168Q261 226 290 275T368 355T476 386Q520 386 555 371T614 328T649 266L669 378H684L645 100Q643 79 646 58T665 23T710 8Q747 8 780 29T838 86T879 167T894 260Q894 348 851 418T731 530T556 571Q450
571 371 541T234 462T141 355T88 240T71 137Q71 60 92 -1T156 -104T260 -168T400 -190Q462 -190 519 -170T628 -118L638 -134Q602 -157 563 -173T483 -199T398 -208ZM444 11Q486 11 528 33T600 93T637 181L642 222Q640 263 618 296T559 349T475 369Q424 369 380
342T309 270T282 168Q281 124 301 89T359 32T444 11Z" />
<glyph unicode="A" horiz-adv-x="709" d="M60 0H39L420 734H423L623 0H602L411 700L425 703L60 0ZM195 281H539L538 263H191L195 281Z" />
<glyph unicode="B" horiz-adv-x="577" d="M320 702Q410 702 457 669T505 559Q505 518 492 474T447 395T358 350L359 354Q397 348 429 328T480 276T499 202Q499 152 484 115T440 52T371 13T281 0H96L182 702H320ZM311 361Q369 361 403 382T455 436T479 500T485
552Q485 622 442 652T319 683H199L160 361H311ZM283 18Q355 18 398 45T460 113T479 200Q479 249 453 280T388 327T310 343H157L118 18H283Z" />
<glyph unicode="C" horiz-adv-x="697" d="M600 29Q575 16 548 7T492 -7T431 -12Q354 -12 292 13T186 84T118 189T94 318Q94 367 106 420T147 524T219 615T327 680T476 704Q532 704 583 687T676 641L664 625Q626 653 577 669T475 685Q375 685 306 652T195 563T133
444T114 318Q114 249 138 192T206 93T307 30T430 7Q459 7 487 12T541 26T591 46L600 29Z" />
<glyph unicode="D" horiz-adv-x="731" d="M96 0L182 702H328Q428 702 495 677T602 607T658 506T675 386Q674 291 644 219T560 99T434 25T276 0H96ZM118 20H283Q359 20 426 43T544 112T625 226T655 384Q655 444 639 497T587 592T489 657T336 681H199L118 20Z" />
<glyph unicode="E" horiz-adv-x="631" d="M182 702H601L598 682H199L160 363H520L517 344H157L118 20H531L529 0H96L182 702Z" />
<glyph unicode="F" horiz-adv-x="571" d="M182 702H561L558 682H199L159 354H479L476 334H156L116 0H96L182 702Z" />
<glyph unicode="G" horiz-adv-x="740" d="M621 28Q596 16 565 7T499 -7T433 -12Q380 -12 334 0T251 33T184 85T134 153T104 232T94 319Q94 366 108 418T150 521T224 613T332 679T478 704Q534 703 584 687T677 641L665 625Q627 653 578 669T476 685Q396 685 336
661T234 597T166 509T127 411T114 319Q113 270 126 225T164 142T225 75T308 29T411 8Q457 6 510 14T603 41L632 280H461L464 299H655L621 28Z" />
<glyph unicode="H" horiz-adv-x="736" d="M679 702L593 0H573L616 344H158L116 0H96L182 702H202L160 363H618L659 702H679Z" />
<glyph unicode="I" horiz-adv-x="258" d="M182 702H202L116 0H96L182 702Z" />
<glyph unicode="J" horiz-adv-x="310" d="M179 93Q169 18 137 -34T59 -113T-40 -142V-142L-37 -123Q12 -120 53 -94T123 -19T160 96L235 702H253L179 93Z" />
<glyph unicode="K" horiz-adv-x="641" d="M160 365L155 331L152 334L582 702H608L283 423L564 0H539L266 410L153 314L116 0H96L182 702H202L160 365Z" />
<glyph unicode="L" horiz-adv-x="561" d="M182 702H202L118 20H521L518 0H96L182 702Z" />
<glyph unicode="M" horiz-adv-x="896" d="M115 0H96L184 714H185L460 242H448L840 714H841L752 0H733L814 665L816 657L453 220H451L194 657L197 664L115 0Z" />
<glyph unicode="N" horiz-adv-x="813" d="M670 -13H669L192 666L198 676L115 0H96L183 713H184L665 26L655 28L738 702H757L670 -13Z" />
<glyph unicode="O" horiz-adv-x="869" d="M432 -7Q360 -7 299 17T191 86T120 190T94 324Q94 390 119 457T192 582T312 674T476 709Q547 709 608 685T716 616T787 511T813 378Q813 312 788 245T715 120T595 28T432 -7ZM432 12Q517 12 584 45T698 132T769 250T793
377Q793 441 769 497T702 597T601 665T475 690Q389 690 322 657T209 570T138 451T114 324Q114 261 137 205T204 105T305 37T432 12Z" />
<glyph unicode="P" horiz-adv-x="530" d="M326 702Q354 702 385 693T445 665T490 614T508 536Q508 496 494 457T449 387T374 336T266 317H154L116 0H96L182 702H326ZM271 337Q334 337 376 357T442 409T477 474T488 534Q488 579 466 612T404 663T314 682H199L157 337H271Z" />
<glyph unicode="Q" horiz-adv-x="903" d="M591 18L805 20L803 0H533L591 18ZM476 -7Q404 -7 343 17T235 86T164 190T138 324Q138 390 163 457T236 582T356 674T520 709Q591 709 652 685T760 616T831 511T857 378Q857 312 832 245T759 120T639 28T476 -7ZM476 12Q561
12 628 45T742 132T813 250T837 377Q837 441 813 497T746 597T645 665T519 690Q433 690 366 657T253 570T182 451T158 324Q158 261 181 205T248 105T349 37T476 12Z" />
<glyph unicode="R" horiz-adv-x="617" d="M326 702Q356 702 390 692T452 660T496 603T506 515Q501 477 486 442T441 378T369 334T266 317H154L115 0H96L182 702H326ZM265 336Q344 336 390 363T459 432T486 514Q491 551 481 582T448 636T394 671T324 683H199L157
336H265ZM356 335L516 0H494L333 335H356Z" />
<glyph unicode="S" horiz-adv-x="546" d="M500 639Q472 653 424 669T326 686Q273 686 240 670T187 631T161 584T153 545Q153 506 175 480T234 433T312 392Q355 373 395 350T462 291T488 202Q488 171 477 135T439 67T371 14T266 -7Q211 -7 168 6T93 40T44 78L56
94Q75 74 107 55T181 24T268 11Q337 11 381 40T446 114T468 200Q468 249 444 281T380 336T298 378Q267 391 238 406T184 441T146 484T133 542Q133 591 159 627T230 683T327 703Q356 703 389 697T453 679T511 654L500 639Z" />
<glyph unicode="T" horiz-adv-x="575" d="M122 702H578L575 683H357L274 0H254L337 683H120L122 702Z" />
<glyph unicode="U" horiz-adv-x="695" d="M145 230Q136 160 156 111T221 37T326 11Q392 11 441 36T521 111T561 230L618 702H638L580 228Q571 151 539 99T452 19T324 -8V-8Q258 -8 210 19T138 98T124 228L182 702H202L145 230Z" />
<glyph unicode="V" horiz-adv-x="691" d="M318 -30L116 702H138L329 2H317L679 702H700L319 -30H318Z" />
<glyph unicode="W" horiz-adv-x="983" d="M116 701H138L311 9L304 10L506 424L514 401L302 -32L116 701ZM431 701H452L628 4L618 8L971 701H992L617 -32L431 701Z" />
<glyph unicode="X" horiz-adv-x="586" d="M121 702H145L516 0H491L121 702ZM25 0L302 364L315 352L50 0H25ZM309 369L561 702H586L322 355L309 369Z" />
<glyph unicode="Y" horiz-adv-x="643" d="M319 261L112 702H134L336 277L327 276L632 702H657L340 261L309 0H287L319 261Z" />
<glyph unicode="Z" horiz-adv-x="631" d="M14 0L612 689L619 683H178Q160 683 148 686T130 699T126 728L128 737H149L147 725Q146 715 152 709T175 702H647L48 14L45 19H595L593 0H14Z" />
<glyph unicode="[" horiz-adv-x="352" d="M188 747H353L351 728H206L101 -130H246L243 -149H78L188 747Z" />
<glyph unicode="\" horiz-adv-x="325" d="M126 737Q172 548 218 359T311 -19H291Q245 170 199 359T106 737H126Z" />
<glyph unicode="]" horiz-adv-x="393" d="M177 747H342L232 -149H67L70 -130H214L319 728H175L177 747Z" />
<glyph unicode="^" horiz-adv-x="470" d="M392 480Q379 504 365 529T337 579T310 629Q290 604 270 579T230 529T190 480H171Q206 525 242 570T313 661V661Q338 616 362 571T411 480H392Z" />
<glyph unicode="_" horiz-adv-x="601" d="M103 19H503L501 0H100L103 19Z" />
<glyph unicode="`" horiz-adv-x="200" d="M82 613L155 480H136L60 613H82Z" />
<glyph unicode="a" horiz-adv-x="545" d="M238 -5Q185 -5 144 19T79 85T55 177Q55 207 66 243T101 311T164 365T261 386Q306 386 343 369T405 323T442 255L437 243L458 378H473L428 0H409L423 120L424 105Q411 81 392 61T348 26T296 3T238 -5ZM243 12Q290 12 330
32T396 88T430 170L434 211Q431 255 408 290T347 347T262 368Q210 368 174 349T116 299T85 237T75 179Q75 133 96 95T156 35T243 12Z" />
<glyph unicode="b" horiz-adv-x="544" d="M283 -5Q217 -5 168 34T103 131L108 151L90 0H71L163 752H183L122 261L123 277Q149 325 198 355T306 385Q362 385 403 362T467 298T490 203Q490 152 470 105T405 26T283 -5ZM285 12Q338 12 374 30T431 76T461 138T470
202Q470 248 451 285T394 345T302 368Q237 368 187 330T119 231L111 174Q112 158 119 131T146 77T198 31T285 12Z" />
<glyph unicode="c" horiz-adv-x="423" d="M358 28Q332 11 303 2T241 -7Q202 -7 168 6T109 45T69 103T55 176Q55 218 71 255T116 321T182 366T262 383Q303 383 337 370T395 332L382 318Q360 339 329 352T263 366Q213 366 170 341T101 272T75 176Q75 131 96 93T156
33T243 10Q272 10 298 18T347 42L358 28Z" />
<glyph unicode="d" horiz-adv-x="547" d="M229 -3Q174 0 133 28T72 101T57 201Q62 245 81 280T131 340T198 377T276 386Q337 383 383 344T444 252L439 241L502 752H522L428 0H409L424 121L425 106Q397 54 344 23T229 -3ZM232 13Q280 10 323 30T395 88T431 174L434
207Q432 250 411 286T355 344T276 369Q226 372 183 352T112 293T77 201Q71 152 90 111T146 43T232 13Z" />
<glyph unicode="e" horiz-adv-x="470" d="M242 11Q274 11 304 22T358 52L369 37Q342 17 309 6T241 -6Q186 -6 144 18T79 84T55 177Q55 220 71 257T116 324T182 369T262 385Q297 385 324 375T373 347T409 303T432 247L74 130L70 148L418 260L410 251Q395 299 358
333T263 367Q212 367 169 342T101 274T75 179Q75 136 95 98T152 35T242 11Z" />
<glyph unicode="f" horiz-adv-x="291" d="M93 0L136 357H71L73 375H138L164 585Q176 682 208 719T295 757Q304 757 314 755T334 749L324 735Q319 738 312 740T295 742Q247 742 221 709T184 589L158 375H288L286 357H156L112 0H93Z" />
<glyph unicode="g" horiz-adv-x="546" d="M230 -181Q203 -181 174 -176T113 -152T47 -93L60 -81Q94 -120 124 -137T180 -158T230 -163Q291 -163 327 -143T381 -90T405 -17L423 119L429 114Q402 60 350 28T239 -5Q186 -5 145 19T79 85T55 179Q55 206 66 241T101
309T164 363T261 385Q327 385 376 349T441 256L438 246L460 378H475L426 -19Q421 -61 401 -98T339 -158T230 -181ZM263 368Q209 368 173 348T115 297T84 234T75 179Q75 133 96 95T155 35T242 12Q288 12 328 33T396 90T429 167L435 210Q432 254 409 290T348 347T263
368Z" />
<glyph unicode="h" horiz-adv-x="487" d="M123 287Q147 329 195 357T300 385Q353 385 380 354T403 273L370 0H350L384 277Q387 313 366 339T302 367Q257 367 217 348T150 295T117 218L90 0H71L163 752H183L125 277L123 287Z" />
<glyph unicode="i" horiz-adv-x="208" d="M117 378H137L90 0H71L117 378ZM378 1012Q378 1022 386 1029T404 1036Q413 1036 418 1030T424 1016Q424 1006 416 999T399 992Q389 992 384 998T378 1012Z" />
<glyph unicode="j" horiz-adv-x="226" d="M9 -171Q40 -143 60 -103T88 -12L136 378H155L108 -6Q101 -65 78 -109T21 -181L9 -171ZM134 1012Q134 1022 142 1029T160 1036Q169 1036 174 1030T180 1016Q180 1006 172 999T155 992Q145 992 140 998T134 1012Z" />
<glyph unicode="k" horiz-adv-x="423" d="M71 0L163 752H183L90 0H71ZM203 242L351 0H328L187 231L203 242ZM100 148L101 170L358 385L371 374L100 148Z" />
<glyph unicode="l" horiz-adv-x="208" d="M163 752H183L90 0H71L163 752Z" />
<glyph unicode="m" horiz-adv-x="766" d="M132 378L122 272L121 281Q148 328 195 356T300 385Q348 385 378 357T404 285L403 286Q429 330 476 357T578 385Q631 385 659 355T682 278L648 0H628L662 277Q665 312 644 338T580 367Q536 367 497 349T431 298T397 224L369
0H349L383 277Q386 312 365 338T301 367Q257 367 217 348T150 295T117 218L90 0H71L117 378H132Z" />
<glyph unicode="n" horiz-adv-x="487" d="M132 378L125 274L120 281Q144 327 190 356T294 385Q351 385 380 354T403 273L370 0H350L383 272Q389 314 364 340T291 367Q248 367 210 348T147 295T117 218L90 0H71L117 378H132Z" />
<glyph unicode="o" horiz-adv-x="502" d="M240 -6Q200 -6 167 7T108 45T69 103T55 176Q55 213 67 250T105 317T170 366T263 385Q317 385 358 362T424 297T448 203Q448 174 440 144T416 87T375 39T317 6T240 -6ZM241 11Q305 11 346 39T408 111T428 202Q428 236
416 266T382 319T329 355T262 368Q198 368 157 340T95 268T75 178Q75 132 96 94T155 34T241 11Z" />
<glyph unicode="p" horiz-adv-x="543" d="M268 -6Q207 -6 162 27T102 114L98 64L69 -181H50L117 378H136L120 237V266Q147 319 201 352T317 386Q367 386 406 364T467 302T490 214Q490 154 459 104T378 24T268 -6ZM269 11Q322 11 368 38T442 111T470 211Q470 256
450 292T395 348T313 369Q265 369 222 347T151 287T115 199L112 175Q109 156 115 129T139 75T188 30T269 11Z" />
<glyph unicode="q" horiz-adv-x="544" d="M227 -6Q178 -6 139 16T77 77T54 165Q54 210 71 250T120 320T190 368T274 386Q336 386 381 351T442 263L436 239L453 378H472L405 -181H385L421 122L425 115Q411 89 391 67T345 29T289 3T227 -6ZM230 11Q278 11 320 33T391
94T429 179L432 201Q434 222 428 250T405 306T356 351T274 369Q221 369 175 341T101 267T73 166Q73 123 93 88T149 32T230 11Z" />
<glyph unicode="r" horiz-adv-x="321" d="M132 378L120 271Q136 307 164 332T227 370T300 385L298 367Q254 366 215 347T149 294T117 218L90 0H71L117 378H132Z" />
<glyph unicode="s" horiz-adv-x="346" d="M150 -7Q131 -6 110 -1T70 16T37 47L50 59Q59 45 74 35T110 18T153 10Q189 8 221 26T260 92Q262 122 249 140T212 169T164 191Q129 205 103 226T81 290Q84 313 94 330T120 359T155 377T195 382Q209 381 226 376T262 361T294
332L281 319Q266 341 240 352T194 364Q175 365 155 358T119 334T102 292Q99 268 109 253T137 227T176 207Q202 195 227 183T268 150T279 96Q277 73 268 54T242 20T203 -1T150 -7Z" />
<glyph unicode="t" horiz-adv-x="304" d="M176 543H196L175 370H301L298 352H172L129 0H110L153 352H65L67 370H155L176 543Z" />
<glyph unicode="u" horiz-adv-x="487" d="M188 -8Q135 -8 107 21T84 101L117 378H137L103 101Q98 64 121 38T193 10Q233 10 272 29T337 83T369 160L396 378H416L369 0H353L366 115L367 108Q355 77 327 51T262 8T188 -8Z" />
<glyph unicode="v" horiz-adv-x="431" d="M188 -17L57 378H78L198 7H187L398 378H420L193 -17H188Z" />
<glyph unicode="w" horiz-adv-x="659" d="M420 -22L332 252L189 -22H186L57 378H77L196 8L189 12L325 272L290 378H310L429 10H422L628 378H648L423 -22H420Z" />
<glyph unicode="x" horiz-adv-x="359" d="M329 0H307L74 378H99L329 0ZM204 202L350 377H373L213 187L204 202ZM202 176L56 0H32L193 191L202 176Z" />
<glyph unicode="y" horiz-adv-x="422" d="M97 -181L409 378H431L120 -181H97ZM197 -5L68 378H90L214 7L197 -5Z" />
<glyph unicode="z" horiz-adv-x="368" d="M118 359Q87 359 74 368T63 407V413H80V401Q80 391 86 385T109 378H355L52 13L44 18H307L304 0H18L322 367L327 359H118Z" />
<glyph unicode="{" horiz-adv-x="277" d="M269 728Q248 728 236 717T216 682T203 617L185 468Q178 407 165 374T134 325T98 299Q114 289 127 273T145 224T143 131L125 -18Q120 -58 121 -82T133 -118T164 -129H220L217 -148H178Q158 -148 142 -146T116 -131T104
-87T109 3L127 150Q130 177 128 208T111 261T64 285V285L67 313Q100 315 120 337T150 390T163 448L185 629Q191 674 201 698T226 733T256 745T289 747H327L325 728H269Z" />
<glyph unicode="|" horiz-adv-x="257" d="M183 701H202L88 -232H69L183 701Z" />
<glyph unicode="}" horiz-adv-x="323" d="M126 -129Q146 -129 158 -118T178 -83T191 -18L213 165Q219 210 233 236T265 277T296 299Q280 309 267 325T249 374T251 468L269 617Q274 657 273 681T261 717T231 728H175L177 747H216Q233 747 248 745T275 733T291 699T289
629L271 482Q269 464 267 437T267 382T285 335T330 313V313L326 285Q295 284 277 264T248 217T234 162T226 117L208 -30Q203 -76 193 -100T168 -135T139 -146T106 -148H67L70 -129H126Z" />
<glyph unicode="~" horiz-adv-x="487" d="M260 453Q232 455 217 470T188 504Q177 520 165 534T131 549Q120 550 106 543T79 516T59 459L43 462Q49 500 63 523T96 557T132 567Q161 566 176 550T203 516Q215 499 228 486T262 471Q276 470 289 477T313 504T331 562L347
559Q341 520 328 497T298 463T260 453Z" />
<glyph unicode="&#xa0;" horiz-adv-x="300" />
<glyph unicode="&#xa1;" horiz-adv-x="199" d="M83 -177H64L136 407H155L83 -177ZM174 524Q175 515 170 508T155 500Q147 498 141 502T134 514Q132 522 138 529T153 538Q163 540 167 535T174 524Z" />
<glyph unicode="&#xa2;" horiz-adv-x="423" d="M269 441H286L224 -68H207L269 441ZM358 28Q332 11 303 2T241 -7Q202 -7 168 6T109 45T69 103T55 176Q55 218 71 255T116 321T182 366T262 383Q303 383 337 370T395 332L382 318Q360 339 329 352T263 366Q213 366
170 341T101 272T75 176Q75 131 96 93T156 33T243 10Q272 10 298 18T347 42L358 28Z" />
<glyph unicode="&#xa3;" horiz-adv-x="566" d="M289 329L287 310H72L75 329H289ZM161 503Q167 549 191 579T253 624T340 639Q407 639 439 614T488 549L472 540Q460 570 444 587T403 611T338 619Q282 619 249 603T201 561T181 504L137 151L134 114Q131 97 127 79T116
45T99 20H94H343Q401 20 427 30T457 71L464 127H483L479 88Q476 66 469 46T436 13T349 0H3L6 20H50Q74 20 86 33T106 78T120 166L161 503Z" />
<glyph unicode="&#xa4;" horiz-adv-x="500" d="M403 446Q413 432 418 413T424 373Q424 343 412 318T378 271L413 231L400 219Q391 229 382 239T365 259Q324 227 274 227Q249 227 228 235T191 259V259L146 218L135 231L180 271Q168 286 162 306T156 348V348Q156
377 167 402T199 448Q191 458 183 467T167 486L180 497L213 460Q232 476 256 485T307 495Q333 495 355 486T392 459V459L434 496L445 484L403 446ZM173 350Q173 305 202 275T276 244Q311 244 340 261T388 307T407 372Q407 417 378 447T305 478Q271 478 241 461T192
414T173 350V350Z" />
<glyph unicode="&#xa5;" horiz-adv-x="643" d="M152 279H485V260H151L152 279ZM151 117H484L483 98H150L151 117ZM321 278L112 702H134L338 294L329 292L632 702H657L343 278L309 0H287L321 278Z" />
<glyph unicode="&#xa6;" horiz-adv-x="215" d="M114 117H133L90 -233H71L114 117ZM186 701H205L162 350H143L186 701Z" />
<glyph unicode="&#xa7;" horiz-adv-x="560" d="M342 129L339 136Q372 123 400 105T443 60T453 -8Q448 -50 416 -83T333 -134T224 -148Q167 -144 126 -127T57 -91T19 -63L30 -48Q49 -64 78 -82T145 -113T222 -129Q270 -132 316 -119T395 -77T432 -5Q438 38 416
64T354 107T269 138Q235 150 202 164T143 196T104 242T95 310Q100 355 129 388T203 439T296 454L293 449Q256 462 225 481T175 528T162 601Q167 635 195 664T267 709T365 723Q402 720 450 706T533 674L522 659Q496 673 454 688T365 706Q313 708 273 694T210 653T182
597Q177 556 197 530T256 487T347 453Q381 442 414 428T473 395T512 347T521 279Q513 217 463 178T342 129ZM500 279Q506 324 483 353T417 402T324 440Q236 445 180 408T116 311Q109 262 133 234T205 186T318 143Q353 144 393 159T464 204T500 279Z" />
<glyph unicode="&#xa8;" horiz-adv-x="370" d="M138 502Q138 512 145 518T161 525Q170 524 176 518T183 502Q182 493 176 487T160 480Q151 480 145 486T138 502V502ZM305 502Q305 512 311 518T327 525Q336 524 342 518T349 502Q349 493 342 487T326 480Q317 480
311 486T305 502V502Z" />
<glyph unicode="&#xa9;" horiz-adv-x="796" d="M500 228Q481 218 459 213T410 208Q362 211 329 235T280 298T270 380Q275 427 302 463T369 518T452 535Q475 534 496 527T534 507L524 492Q508 504 490 510T450 518Q413 520 379 503T320 454T289 378Q284 338 298
305T343 250T413 226Q435 225 455 229T493 243L500 228ZM389 110Q334 113 289 135T213 195T168 281T161 386Q167 442 193 488T258 567T347 616T452 630Q507 627 551 605T627 545T673 458T680 353Q673 297 649 251T587 172T499 123T389 110ZM390 129Q457 125 515
153T613 233T661 353Q670 424 644 480T567 572T449 612Q383 616 325 588T227 506T179 384Q171 314 192 258T264 168T390 129Z" />
<glyph unicode="&#xaa;" horiz-adv-x="416" d="M216 414Q176 414 146 433T100 485T89 559Q95 606 118 638T177 688T252 705Q297 705 329 682T372 619L385 699H399L365 418H348L360 514L361 504Q348 478 326 458T275 426T216 414ZM220 430Q255 430 286 446T338
489T364 553L368 582Q364 627 332 658T251 689Q198 689 157 654T107 559Q103 523 116 494T157 448T220 430Z" />
<glyph unicode="&#xab;" horiz-adv-x="602" d="M146 239Q161 252 177 265T209 293T242 321T274 348T306 375T338 402L335 380Q316 362 297 345T258 310T219 274T180 239Q194 222 209 204T239 168T270 132T300 97L297 75L146 239ZM317 239Q333 252 348 265T380
293T413 321T445 348T477 375T509 402L506 380Q487 362 468 345T429 310T390 274T351 239Q366 222 381 204T411 168T441 132T471 97L468 75L317 239Z" />
<glyph unicode="&#xac;" horiz-adv-x="555" d="M127 245H487L475 146H455L465 225H124L127 245Z" />
<glyph unicode="&#xad;" horiz-adv-x="600" d="M79 202H263L260 183H76L79 202Z" />
<glyph unicode="&#xae;" horiz-adv-x="358" d="M208 420Q168 423 139 442T96 494T86 567Q90 607 112 637T168 684T241 698Q280 695 309 676T353 624T363 550Q358 510 336 480T281 434T208 420ZM208 436Q242 434 272 448T322 490T346 551Q350 587 337 615T298 662T239
682Q205 684 176 670T127 628T103 566Q98 531 111 503T149 456T208 436ZM185 648L231 645Q249 645 265 633T277 595Q275 571 260 559T217 549L189 550L181 483L164 484L185 648ZM217 563Q237 562 248 571T261 596Q263 614 252 621T229 629L201 631L193 565L217
563ZM239 552L270 478L252 479L222 553L239 552Z" />
<glyph unicode="&#xaf;" horiz-adv-x="399" d="M147 508H378L375 492H145L147 508Z" />
<glyph unicode="&#xb0;" horiz-adv-x="282" d="M124 552Q124 577 136 596T169 627T213 638Q244 638 263 618T282 568Q282 544 270 525T237 494T194 483Q162 483 143 502T124 552V552ZM196 499Q224 499 244 518T265 566Q265 590 250 606T211 622Q183 622 162 603T141
555Q141 531 157 515T196 499V499Z" />
<glyph unicode="&#xb1;" horiz-adv-x="525" d="M327 572H346L325 402H496L494 383H324L302 211H283L305 383H134L135 402H306L327 572ZM105 152H466L463 133H103L105 152Z" />
<glyph unicode="&#xb2;" horiz-adv-x="397" d="M163 656Q172 668 185 678T215 694T251 700Q295 700 318 676T335 602Q332 572 313 543T267 485T207 429T146 374L144 388H324L322 370H121V375Q156 404 189 433T249 491T294 547T315 600Q321 645 300 663T246 682Q219
682 202 672T171 645L163 656Z" />
<glyph unicode="&#xb3;" horiz-adv-x="412" d="M190 371Q159 371 139 383T106 411L115 424Q122 415 132 407T158 393T193 387Q234 387 261 415T294 483Q298 521 277 540T223 559Q199 559 185 555T157 545L156 548L284 693L292 682H147L149 699H311L188 561L171
559Q181 566 197 570T228 574Q253 576 274 565T305 533T313 482Q309 450 292 425T249 385T190 371Z" />
<glyph unicode="&#xb4;" horiz-adv-x="222" d="M283 613L176 480H157L261 613H283Z" />
<glyph unicode="&#xb5;" horiz-adv-x="487" d="M188 -8Q145 -8 119 12T85 68L99 77L65 -201H47L85 108L117 378H137L104 108Q100 67 122 40T193 10Q233 10 272 29T337 83T369 160L396 378H416L369 0H353L365 107Q352 76 325 50T261 8T188 -8Z" />
<glyph unicode="&#xb6;" horiz-adv-x="494" d="M253 423Q211 423 179 442T128 495T109 570Q109 619 134 660T202 726T293 751H475L383 0H364L455 732H311L220 0H201L253 423Z" />
<glyph unicode="&#xb7;" horiz-adv-x="167" d="M98 278Q98 288 106 295T124 303Q132 303 138 297T144 283Q144 276 140 271T131 262T118 258Q110 258 104 264T98 278V278Z" />
<glyph unicode="&#xb8;" horiz-adv-x="452" d="M134 -175Q144 -187 163 -195T208 -206Q249 -208 275 -194T305 -151Q308 -124 290 -105T230 -82Q213 -82 191 -85T156 -93L143 -79L227 5L242 -4L164 -84L149 -79Q161 -72 186 -68T234 -65Q282 -68 305 -91T325 -152Q322
-178 306 -194T264 -217T208 -222Q180 -221 158 -212T123 -190L134 -175Z" />
<glyph unicode="&#xb9;" horiz-adv-x="252" d="M135 651H200L163 347H143L178 633H133L135 651Z" />
<glyph unicode="&#xba;" horiz-adv-x="383" d="M90 563Q95 604 118 636T177 686T254 702Q294 699 325 677T372 621T383 545Q377 505 354 473T295 424T218 409Q178 411 147 432T101 487T90 563ZM108 562Q104 526 117 496T158 447T220 425Q255 423 286 439T339 483T364
546Q369 583 355 613T314 663T252 685Q215 687 184 670T133 625T108 562Z" />
<glyph unicode="&#xbb;" horiz-adv-x="602" d="M430 239Q415 252 399 265T367 293T335 321T302 348T270 375T239 402L242 380Q261 362 280 345T319 310T358 274T397 239Q382 222 367 204T337 168T307 132T277 97L280 75L430 239ZM259 239Q244 252 228 265T196
293T164 321T131 348T99 375T68 402L71 380Q90 362 109 345T148 310T187 274T226 239Q211 222 196 204T166 168T135 132T106 97L108 75L259 239Z" />
<glyph unicode="&#xbc;" horiz-adv-x="769" d="M584 755Q491 566 399 378T213 0H194Q287 189 379 377T565 755H584ZM135 651H200L163 347H143L178 633H133L135 651ZM702 125L699 109H480L482 118L680 314H688L649 0H630L666 290L670 282L503 119L499 125H702Z" />
<glyph unicode="&#xbd;" horiz-adv-x="763" d="M136 651H201L164 347H144L179 633H134L136 651ZM559 756Q466 567 373 378T187 0H168Q261 189 354 378T540 756H559ZM482 286Q491 298 504 308T534 324T570 330Q614 330 637 306T654 232Q651 202 632 173T586 115T526
59T465 4L463 18H643L641 0H440V5Q475 34 508 63T568 121T613 177T634 230Q640 275 619 293T565 312Q538 312 521 302T490 275L482 286Z" />
<glyph unicode="&#xbe;" horiz-adv-x="739" d="M418 371Q387 371 367 383T334 411L343 424Q350 415 360 407T386 393T421 387Q462 387 489 415T522 483Q526 521 505 540T451 559Q427 559 413 555T385 545L384 548L512 693L520 682H375L377 699H539L416 561L399
559Q409 566 425 570T456 574Q481 576 502 565T533 533T541 482Q537 450 520 425T477 385T418 371ZM583 756Q490 567 397 378T211 0H192Q285 189 378 378T564 756H583ZM672 124L670 109H451L452 118L650 314H658L619 0H601L637 290L641 282L473 118L469 124H672Z"
/>
<glyph unicode="&#xbf;" horiz-adv-x="412" d="M278 278Q274 247 261 228T227 195T181 167T130 131Q90 99 72 62T53 -18Q53 -63 73 -98T128 -154T209 -175Q249 -175 285 -160T349 -118T393 -54V-54Q397 -56 401 -57T409 -59Q396 -88 376 -112T329 -154T271 -183T207
-194Q156 -194 117 -171T56 -107T34 -18Q34 42 66 87T153 169Q181 188 203 200T240 232T261 297L271 375H290L278 278ZM298 516Q305 516 311 510T317 496Q317 485 309 478T292 471Q285 471 279 476T272 491Q272 501 280 508T298 516V516Z" />
<glyph unicode="&#xc0;" horiz-adv-x="709" d="M60 0H39L420 734H423L623 0H602L411 700L425 703L60 0ZM195 281H539L538 263H191L195 281ZM373 962L446 829H427L351 962H373Z" />
<glyph unicode="&#xc1;" horiz-adv-x="709" d="M60 0H39L420 734H423L623 0H602L411 700L425 703L60 0ZM195 281H539L538 263H191L195 281ZM574 962L467 829H448L552 962H574Z" />
<glyph unicode="&#xc2;" horiz-adv-x="709" d="M60 0H39L420 734H423L623 0H602L411 700L425 703L60 0ZM195 281H539L538 263H191L195 281ZM529 829L442 985H451L325 829H304L449 1010V1010L550 829H529Z" />
<glyph unicode="&#xc3;" horiz-adv-x="709" d="M60 0H39L420 734H423L623 0H602L411 700L425 703L60 0ZM195 281H539L538 263H191L195 281ZM512 793Q485 794 470 809T440 843Q429 859 417 873T384 888Q373 889 359 882T332 856T312 798L296 801Q302 839 316 863T349
897T385 906Q413 905 428 889T456 855Q467 839 480 826T515 810Q528 809 541 816T566 843T583 901L599 898Q593 859 580 836T550 802T512 793Z" />
<glyph unicode="&#xc4;" horiz-adv-x="709" d="M60 0H39L420 734H423L623 0H602L411 700L425 703L60 0ZM195 281H539L538 263H191L195 281ZM335 851Q335 861 342 867T358 874Q367 873 373 867T380 851Q379 842 373 836T357 829Q348 829 342 835T335 851V851ZM502
851Q502 861 508 867T524 874Q533 873 539 867T546 851Q546 842 539 836T523 829Q514 829 508 835T502 851V851Z" />
<glyph unicode="&#xc5;" horiz-adv-x="709" d="M60 0H39L420 734H423L623 0H602L411 700L425 703L60 0ZM195 281H539L538 263H191L195 281ZM371 818Q371 850 391 868T440 887Q468 887 486 870T503 827Q503 795 483 776T434 758Q406 758 389 774T371 818ZM389 820Q389
800 402 787T433 774Q453 774 469 787T486 824Q486 844 473 857T441 871Q421 871 405 858T389 820Z" />
<glyph unicode="&#xc6;" horiz-adv-x="923" d="M526 702H893L891 682H543L504 363H812L811 344H502L462 20H824L821 0H440L526 702ZM538 694Q535 688 532 681T526 668L23 0H1L526 702L538 694ZM170 224H476L474 206H167L170 224Z" />
<glyph unicode="&#xc7;" horiz-adv-x="697" d="M600 29Q575 16 548 7T492 -7T431 -12Q354 -12 292 13T186 84T118 189T94 318Q94 367 106 420T147 524T219 615T327 680T476 704Q532 704 583 687T676 641L664 625Q626 653 577 669T475 685Q375 685 306 652T195
563T133 444T114 318Q114 249 138 192T206 93T307 30T430 7Q459 7 487 12T541 26T591 46L600 29ZM320 -179Q330 -191 349 -199T394 -210Q435 -212 461 -198T491 -155Q494 -128 476 -109T416 -86Q399 -86 377 -89T342 -97L329 -83L413 1L428 -8L350 -88L335 -83Q347
-76 372 -72T420 -69Q468 -72 491 -95T511 -156Q508 -182 492 -198T450 -221T394 -226Q366 -225 344 -216T309 -194L320 -179Z" />
<glyph unicode="&#xc8;" horiz-adv-x="631" d="M182 702H601L598 682H199L160 363H520L517 344H157L118 20H531L529 0H96L182 702ZM327 937L400 804H381L305 937H327Z" />
<glyph unicode="&#xc9;" horiz-adv-x="631" d="M182 702H601L598 682H199L160 363H520L517 344H157L118 20H531L529 0H96L182 702ZM528 937L421 804H402L506 937H528Z" />
<glyph unicode="&#xca;" horiz-adv-x="631" d="M182 702H601L598 682H199L160 363H520L517 344H157L118 20H531L529 0H96L182 702ZM482 804L395 960H404L278 804H257L402 985V985L503 804H482Z" />
<glyph unicode="&#xcb;" horiz-adv-x="631" d="M182 702H601L598 682H199L160 363H520L517 344H157L118 20H531L529 0H96L182 702ZM289 826Q289 836 296 842T312 849Q321 848 327 842T334 826Q333 817 327 811T311 804Q302 804 296 810T289 826V826ZM456 826Q456
836 462 842T478 849Q487 848 493 842T500 826Q500 817 493 811T477 804Q468 804 462 810T456 826V826Z" />
<glyph unicode="&#xcc;" horiz-adv-x="258" d="M182 702H202L116 0H96L182 702ZM140 937L213 804H194L118 937H140Z" />
<glyph unicode="&#xcd;" horiz-adv-x="258" d="M182 702H202L116 0H96L182 702ZM341 937L234 804H215L319 937H341Z" />
<glyph unicode="&#xce;" horiz-adv-x="258" d="M182 702H202L116 0H96L182 702ZM295 804L208 960H217L91 804H70L215 985V985L316 804H295Z" />
<glyph unicode="&#xcf;" horiz-adv-x="258" d="M182 702H202L116 0H96L182 702ZM102 826Q102 836 109 842T125 849Q134 848 140 842T147 826Q146 817 140 811T124 804Q115 804 109 810T102 826V826ZM269 826Q269 836 275 842T291 849Q300 848 306 842T313 826Q313
817 306 811T290 804Q281 804 275 810T269 826V826Z" />
<glyph unicode="&#xd0;" horiz-adv-x="731" d="M96 0L182 702H328Q428 702 495 677T602 607T658 506T675 386Q674 291 644 219T560 99T434 25T276 0H96ZM118 20H283Q359 20 426 43T544 112T625 226T655 384Q655 444 639 497T587 592T489 657T336 681H199L118 20ZM32
360H264L261 340H29L32 360Z" />
<glyph unicode="&#xd1;" horiz-adv-x="813" d="M670 -13H669L192 666L198 676L115 0H96L183 713H184L665 26L655 28L738 702H757L670 -13ZM556 766Q529 767 514 782T484 816Q473 832 461 846T428 861Q417 862 403 855T376 829T356 771L340 774Q346 812 360 836T393
870T429 879Q457 878 472 862T500 828Q511 812 524 799T559 783Q572 782 585 789T610 816T627 874L643 871Q637 832 624 809T594 775T556 766Z" />
<glyph unicode="&#xd2;" horiz-adv-x="869" d="M432 -7Q360 -7 299 17T191 86T120 190T94 324Q94 390 119 457T192 582T312 674T476 709Q547 709 608 685T716 616T787 511T813 378Q813 312 788 245T715 120T595 28T432 -7ZM432 12Q517 12 584 45T698 132T769 250T793
377Q793 441 769 497T702 597T601 665T475 690Q389 690 322 657T209 570T138 451T114 324Q114 261 137 205T204 105T305 37T432 12ZM445 937L518 804H499L423 937H445Z" />
<glyph unicode="&#xd3;" horiz-adv-x="869" d="M432 -7Q360 -7 299 17T191 86T120 190T94 324Q94 390 119 457T192 582T312 674T476 709Q547 709 608 685T716 616T787 511T813 378Q813 312 788 245T715 120T595 28T432 -7ZM432 12Q517 12 584 45T698 132T769 250T793
377Q793 441 769 497T702 597T601 665T475 690Q389 690 322 657T209 570T138 451T114 324Q114 261 137 205T204 105T305 37T432 12ZM646 937L539 804H520L624 937H646Z" />
<glyph unicode="&#xd4;" horiz-adv-x="869" d="M432 -7Q360 -7 299 17T191 86T120 190T94 324Q94 390 119 457T192 582T312 674T476 709Q547 709 608 685T716 616T787 511T813 378Q813 312 788 245T715 120T595 28T432 -7ZM432 12Q517 12 584 45T698 132T769 250T793
377Q793 441 769 497T702 597T601 665T475 690Q389 690 322 657T209 570T138 451T114 324Q114 261 137 205T204 105T305 37T432 12ZM600 804L513 960H522L396 804H375L520 985V985L621 804H600Z" />
<glyph unicode="&#xd5;" horiz-adv-x="869" d="M432 -7Q360 -7 299 17T191 86T120 190T94 324Q94 390 119 457T192 582T312 674T476 709Q547 709 608 685T716 616T787 511T813 378Q813 312 788 245T715 120T595 28T432 -7ZM432 12Q517 12 584 45T698 132T769 250T793
377Q793 441 769 497T702 597T601 665T475 690Q389 690 322 657T209 570T138 451T114 324Q114 261 137 205T204 105T305 37T432 12ZM583 768Q556 769 541 784T511 818Q500 834 488 848T455 863Q444 864 430 857T403 831T383 773L367 776Q373 814 387 838T420 872T456
881Q484 880 499 864T527 830Q538 814 551 801T586 785Q599 784 612 791T637 818T654 876L670 873Q664 834 651 811T621 777T583 768Z" />
<glyph unicode="&#xd6;" horiz-adv-x="869" d="M432 -7Q360 -7 299 17T191 86T120 190T94 324Q94 390 119 457T192 582T312 674T476 709Q547 709 608 685T716 616T787 511T813 378Q813 312 788 245T715 120T595 28T432 -7ZM432 12Q517 12 584 45T698 132T769 250T793
377Q793 441 769 497T702 597T601 665T475 690Q389 690 322 657T209 570T138 451T114 324Q114 261 137 205T204 105T305 37T432 12ZM407 826Q407 836 414 842T430 849Q439 848 445 842T452 826Q451 817 445 811T429 804Q420 804 414 810T407 826V826ZM574 826Q574
836 580 842T596 849Q605 848 611 842T618 826Q618 817 611 811T595 804Q586 804 580 810T574 826V826Z" />
<glyph unicode="&#xd7;" horiz-adv-x="501" d="M281 150Q315 180 349 210T417 270Q420 267 423 263T429 256Q395 225 362 196T294 136Q320 105 346 75T400 14L384 0Q358 30 331 60T278 121Q244 91 211 61T143 0Q140 3 137 7T130 14Q164 45 197 75T265 135L161
255L176 269L281 150Z" />
<glyph unicode="&#xd8;" horiz-adv-x="837" d="M802 707L122 -1L113 9L792 717L802 707ZM432 -7Q360 -7 299 17T191 86T120 190T94 324Q94 390 119 457T192 582T312 674T476 709Q547 709 608 685T716 616T787 511T813 378Q813 312 788 245T715 120T595 28T432
-7ZM432 12Q517 12 584 45T698 132T769 250T793 377Q793 441 769 497T702 597T601 665T475 690Q389 690 322 657T209 570T138 451T114 324Q114 261 137 205T204 105T305 37T432 12Z" />
<glyph unicode="&#xd9;" horiz-adv-x="695" d="M145 230Q136 160 156 111T221 37T326 11Q392 11 441 36T521 111T561 230L618 702H638L580 228Q571 151 539 99T452 19T324 -8V-8Q258 -8 210 19T138 98T124 228L182 702H202L145 230ZM358 937L431 804H412L336 937H358Z" />
<glyph unicode="&#xda;" horiz-adv-x="695" d="M145 230Q136 160 156 111T221 37T326 11Q392 11 441 36T521 111T561 230L618 702H638L580 228Q571 151 539 99T452 19T324 -8V-8Q258 -8 210 19T138 98T124 228L182 702H202L145 230ZM559 937L452 804H433L537 937H559Z" />
<glyph unicode="&#xdb;" horiz-adv-x="695" d="M145 230Q136 160 156 111T221 37T326 11Q392 11 441 36T521 111T561 230L618 702H638L580 228Q571 151 539 99T452 19T324 -8V-8Q258 -8 210 19T138 98T124 228L182 702H202L145 230ZM514 804L427 960H436L310 804H289L434
985V985L535 804H514Z" />
<glyph unicode="&#xdc;" horiz-adv-x="695" d="M145 230Q136 160 156 111T221 37T326 11Q392 11 441 36T521 111T561 230L618 702H638L580 228Q571 151 539 99T452 19T324 -8V-8Q258 -8 210 19T138 98T124 228L182 702H202L145 230ZM320 826Q320 836 327 842T343
849Q352 848 358 842T365 826Q364 817 358 811T342 804Q333 804 327 810T320 826V826ZM487 826Q487 836 493 842T509 849Q518 848 524 842T531 826Q531 817 524 811T508 804Q499 804 493 810T487 826V826Z" />
<glyph unicode="&#xdd;" horiz-adv-x="643" d="M319 261L112 702H134L336 277L327 276L632 702H657L340 261L309 0H287L319 261ZM543 937L436 804H417L521 937H543Z" />
<glyph unicode="&#xde;" horiz-adv-x="530" d="M306 539Q334 539 366 530T425 502T470 451T488 373Q488 333 474 294T429 224T354 173T246 154H135L116 0H96L182 701H202L182 539H306ZM251 174Q314 174 356 194T422 246T457 311T468 371Q468 416 446 449T385 500T295
519H180L137 174H251Z" />
<glyph unicode="&#xdf;" horiz-adv-x="549" d="M275 -4Q255 -4 225 2T164 32L174 46Q204 24 232 19T276 13Q312 13 346 26T407 64T452 119T475 188Q481 237 462 280T406 350T317 382H313L315 401Q354 399 380 411T423 443T446 484T453 521Q453 566 426 602T335
643Q283 646 248 619T192 543T163 430L110 0H90L136 368H71L74 387H139L147 449Q155 516 178 564T240 638T335 661Q385 658 415 638T458 587T472 525Q472 507 465 481T436 429T366 389Q408 376 439 347T485 276T494 186Q489 145 470 110T420 50T353 10T275 -4Z"
/>
<glyph unicode="&#xe0;" horiz-adv-x="545" d="M238 -5Q185 -5 144 19T79 85T55 177Q55 207 66 243T101 311T164 365T261 386Q306 386 343 369T405 323T442 255L437 243L458 378H473L428 0H409L423 120L424 105Q411 81 392 61T348 26T296 3T238 -5ZM243 12Q290
12 330 32T396 88T430 170L434 211Q431 255 408 290T347 347T262 368Q210 368 174 349T116 299T85 237T75 179Q75 133 96 95T156 35T243 12ZM216 615L289 482H270L194 615H216Z" />
<glyph unicode="&#xe1;" horiz-adv-x="545" d="M238 -5Q185 -5 144 19T79 85T55 177Q55 207 66 243T101 311T164 365T261 386Q306 386 343 369T405 323T442 255L437 243L458 378H473L428 0H409L423 120L424 105Q411 81 392 61T348 26T296 3T238 -5ZM243 12Q290
12 330 32T396 88T430 170L434 211Q431 255 408 290T347 347T262 368Q210 368 174 349T116 299T85 237T75 179Q75 133 96 95T156 35T243 12ZM417 615L310 482H291L395 615H417Z" />
<glyph unicode="&#xe2;" horiz-adv-x="545" d="M238 -5Q185 -5 144 19T79 85T55 177Q55 207 66 243T101 311T164 365T261 386Q306 386 343 369T405 323T442 255L437 243L458 378H473L428 0H409L423 120L424 105Q411 81 392 61T348 26T296 3T238 -5ZM243 12Q290
12 330 32T396 88T430 170L434 211Q431 255 408 290T347 347T262 368Q210 368 174 349T116 299T85 237T75 179Q75 133 96 95T156 35T243 12ZM627 482L540 638H549L423 482H402L547 663V663L648 482H627Z" />
<glyph unicode="&#xe3;" horiz-adv-x="545" d="M238 -5Q185 -5 144 19T79 85T55 177Q55 207 66 243T101 311T164 365T261 386Q306 386 343 369T405 323T442 255L437 243L458 378H473L428 0H409L423 120L424 105Q411 81 392 61T348 26T296 3T238 -5ZM243 12Q290
12 330 32T396 88T430 170L434 211Q431 255 408 290T347 347T262 368Q210 368 174 349T116 299T85 237T75 179Q75 133 96 95T156 35T243 12ZM610 446Q583 447 568 462T538 496Q527 512 515 526T482 541Q471 542 457 535T430 509T410 451L394 454Q400 492 414 516T447
550T483 559Q511 558 526 542T554 508Q565 492 578 479T613 463Q626 462 639 469T664 496T681 554L697 551Q691 512 678 489T648 455T610 446Z" />
<glyph unicode="&#xe4;" horiz-adv-x="545" d="M238 -5Q185 -5 144 19T79 85T55 177Q55 207 66 243T101 311T164 365T261 386Q306 386 343 369T405 323T442 255L437 243L458 378H473L428 0H409L423 120L424 105Q411 81 392 61T348 26T296 3T238 -5ZM243 12Q290
12 330 32T396 88T430 170L434 211Q431 255 408 290T347 347T262 368Q210 368 174 349T116 299T85 237T75 179Q75 133 96 95T156 35T243 12ZM178 504Q178 514 185 520T201 527Q210 526 216 520T223 504Q222 495 216 489T200 482Q191 482 185 488T178 504V504ZM345
504Q345 514 351 520T367 527Q376 526 382 520T389 504Q389 495 382 489T366 482Q357 482 351 488T345 504V504Z" />
<glyph unicode="&#xe5;" horiz-adv-x="545" d="M238 -5Q185 -5 144 19T79 85T55 177Q55 207 66 243T101 311T164 365T261 386Q306 386 343 369T405 323T442 255L437 243L458 378H473L428 0H409L423 120L424 105Q411 81 392 61T348 26T296 3T238 -5ZM243 12Q290
12 330 32T396 88T430 170L434 211Q431 255 408 290T347 347T262 368Q210 368 174 349T116 299T85 237T75 179Q75 133 96 95T156 35T243 12ZM470 471Q470 503 490 521T539 540Q567 540 585 523T602 480Q602 448 582 429T533 411Q505 411 488 427T470 471ZM488 473Q488
453 501 440T532 427Q552 427 568 440T585 477Q585 497 572 510T540 524Q520 524 504 511T488 473Z" />
<glyph unicode="&#xe6;" horiz-adv-x="761" d="M516 -6Q497 -6 473 0T424 21T381 59T352 118T347 201Q354 254 383 296T458 362T558 385Q579 385 603 379T650 358T693 316T724 247L363 131L360 149L709 260L702 251Q687 297 662 322T608 357T555 367Q508 368 468
346T400 286T367 200Q361 147 375 111T414 53T467 22T518 11Q552 11 583 21T639 52L650 37Q621 16 587 5T516 -6ZM195 -10Q150 -10 116 2T63 38T44 93Q44 125 59 153T105 200T186 217Q197 217 219 213T266 198T315 166T354 112L347 99Q318 145 286 165T226 192T186
198Q134 199 100 171T66 93Q67 60 88 42T140 16T197 9Q227 9 265 16T330 48L347 198L360 149L347 41Q327 19 299 8T243 -6T195 -10ZM347 199L354 255Q359 290 350 312T323 345T288 360T254 365Q217 365 181 354T104 307L95 323Q127 352 167 368T259 384Q281 383
300 378T334 364T360 340T375 305T376 260L373 239L347 199Z" />
<glyph unicode="&#xe7;" horiz-adv-x="383" d="M350 51Q353 47 355 44T361 37Q333 17 301 6T232 -6Q182 -6 143 17T81 80T59 169Q59 213 76 252T125 322T196 369T280 386Q315 386 345 375T399 343Q396 339 392 336T384 328Q364 347 337 357T278 368Q225 368 179
341T105 270T77 172Q77 127 97 91T152 34T234 12Q266 12 295 22T350 51V51ZM230 -6Q227 -24 232 -34T246 -49T264 -61Q282 -74 289 -91T297 -122Q297 -156 284 -179T248 -213T200 -225Q173 -225 152 -211T124 -166Q128 -165 133 -163T143 -160Q145 -181 161 -194T202
-208Q234 -208 256 -185T279 -128Q279 -104 268 -91T243 -68T219 -47T211 -16L213 0H231L230 -6Z" />
<glyph unicode="&#xe8;" horiz-adv-x="470" d="M242 11Q274 11 304 22T358 52L369 37Q342 17 309 6T241 -6Q186 -6 144 18T79 84T55 177Q55 220 71 257T116 324T182 369T262 385Q297 385 324 375T373 347T409 303T432 247L74 130L70 148L418 260L410 251Q395 299
358 333T263 367Q212 367 169 342T101 274T75 179Q75 136 95 98T152 35T242 11ZM207 615L280 482H261L185 615H207Z" />
<glyph unicode="&#xe9;" horiz-adv-x="426" d="M242 11Q274 11 304 22T358 52L369 37Q342 17 309 6T241 -6Q186 -6 144 18T79 84T55 177Q55 220 71 257T116 324T182 369T262 385Q297 385 324 375T373 347T409 303T432 247L74 130L70 148L418 260L410 251Q395 299
358 333T263 367Q212 367 169 342T101 274T75 179Q75 136 95 98T152 35T242 11ZM414 613L307 480H288L392 613H414Z" />
<glyph unicode="&#xea;" horiz-adv-x="470" d="M242 11Q274 11 304 22T358 52L369 37Q342 17 309 6T241 -6Q186 -6 144 18T79 84T55 177Q55 220 71 257T116 324T182 369T262 385Q297 385 324 375T373 347T409 303T432 247L74 130L70 148L418 260L410 251Q395 299
358 333T263 367Q212 367 169 342T101 274T75 179Q75 136 95 98T152 35T242 11ZM618 482L531 638H540L414 482H393L538 663V663L639 482H618Z" />
<glyph unicode="&#xeb;" horiz-adv-x="470" d="M242 11Q274 11 304 22T358 52L369 37Q342 17 309 6T241 -6Q186 -6 144 18T79 84T55 177Q55 220 71 257T116 324T182 369T262 385Q297 385 324 375T373 347T409 303T432 247L74 130L70 148L418 260L410 251Q395 299
358 333T263 367Q212 367 169 342T101 274T75 179Q75 136 95 98T152 35T242 11ZM169 504Q169 514 176 520T192 527Q201 526 207 520T214 504Q213 495 207 489T191 482Q182 482 176 488T169 504V504ZM336 504Q336 514 342 520T358 527Q367 526 373 520T380 504Q380
495 373 489T357 482Q348 482 342 488T336 504V504Z" />
<glyph unicode="&#xec;" horiz-adv-x="208" d="M117 378H137L90 0H71L117 378ZM334 613L407 480H388L312 613H334Z" />
<glyph unicode="&#xed;" horiz-adv-x="208" d="M117 378H137L90 0H71L117 378ZM535 613L428 480H409L513 613H535Z" />
<glyph unicode="&#xee;" horiz-adv-x="208" d="M117 378H137L90 0H71L117 378ZM233 480L146 636H155L29 480H8L153 661V661L254 480H233Z" />
<glyph unicode="&#xef;" horiz-adv-x="208" d="M117 378H137L90 0H71L117 378ZM296 502Q296 512 303 518T319 525Q328 524 334 518T341 502Q340 493 334 487T318 480Q309 480 303 486T296 502V502ZM463 502Q463 512 469 518T485 525Q494 524 500 518T507 502Q507
493 500 487T484 480Q475 480 469 486T463 502V502Z" />
<glyph unicode="&#xf0;" horiz-adv-x="507" d="M237 -5Q213 -5 188 1T139 21T97 57T67 112T56 187Q56 227 69 263T108 327T173 372T267 386Q286 386 310 380T358 359T404 321T439 261L434 241Q434 299 415 366T362 501T287 625T200 721L212 733Q259 692 303 634T381
507T435 366T455 226Q454 181 441 140T400 66T332 14T237 -5ZM239 12Q294 11 331 32T391 84T422 147T432 200Q432 252 412 285T363 336T307 360T267 368Q217 369 181 354T122 313T87 254T76 189Q75 125 101 87T165 31T239 12ZM381 680L199 579L191 592L377 693L381
680Z" />
<glyph unicode="&#xf1;" horiz-adv-x="487" d="M132 378L125 274L120 281Q144 327 190 356T294 385Q351 385 380 354T403 273L370 0H350L383 272Q389 314 364 340T291 367Q248 367 210 348T147 295T117 218L90 0H71L117 378H132ZM609 447Q582 448 567 463T537
497Q526 513 514 527T481 542Q470 543 456 536T429 510T409 452L393 455Q399 493 413 517T446 551T482 560Q510 559 525 543T553 509Q564 493 577 480T612 464Q625 463 638 470T663 497T680 555L696 552Q690 513 677 490T647 456T609 447Z" />
<glyph unicode="&#xf2;" horiz-adv-x="502" d="M240 -6Q200 -6 167 7T108 45T69 103T55 176Q55 213 67 250T105 317T170 366T263 385Q317 385 358 362T424 297T448 203Q448 174 440 144T416 87T375 39T317 6T240 -6ZM241 11Q305 11 346 39T408 111T428 202Q428
236 416 266T382 319T329 355T262 368Q198 368 157 340T95 268T75 178Q75 132 96 94T155 34T241 11ZM212 614L285 481H266L190 614H212Z" />
<glyph unicode="&#xf3;" horiz-adv-x="502" d="M240 -6Q200 -6 167 7T108 45T69 103T55 176Q55 213 67 250T105 317T170 366T263 385Q317 385 358 362T424 297T448 203Q448 174 440 144T416 87T375 39T317 6T240 -6ZM241 11Q305 11 346 39T408 111T428 202Q428
236 416 266T382 319T329 355T262 368Q198 368 157 340T95 268T75 178Q75 132 96 94T155 34T241 11ZM414 614L307 481H288L392 614H414Z" />
<glyph unicode="&#xf4;" horiz-adv-x="502" d="M240 -6Q200 -6 167 7T108 45T69 103T55 176Q55 213 67 250T105 317T170 366T263 385Q317 385 358 362T424 297T448 203Q448 174 440 144T416 87T375 39T317 6T240 -6ZM241 11Q305 11 346 39T408 111T428 202Q428
236 416 266T382 319T329 355T262 368Q198 368 157 340T95 268T75 178Q75 132 96 94T155 34T241 11ZM624 481L537 637H546L420 481H399L544 662V662L645 481H624Z" />
<glyph unicode="&#xf5;" horiz-adv-x="502" d="M240 -6Q200 -6 167 7T108 45T69 103T55 176Q55 213 67 250T105 317T170 366T263 385Q317 385 358 362T424 297T448 203Q448 174 440 144T416 87T375 39T317 6T240 -6ZM241 11Q305 11 346 39T408 111T428 202Q428
236 416 266T382 319T329 355T262 368Q198 368 157 340T95 268T75 178Q75 132 96 94T155 34T241 11ZM607 445Q580 446 565 461T535 495Q524 511 512 525T479 540Q468 541 454 534T427 508T407 450L391 453Q397 491 411 515T444 549T480 558Q508 557 523 541T551
507Q562 491 575 478T610 462Q623 461 636 468T661 495T678 553L694 550Q688 511 675 488T645 454T607 445Z" />
<glyph unicode="&#xf6;" horiz-adv-x="502" d="M240 -6Q200 -6 167 7T108 45T69 103T55 176Q55 213 67 250T105 317T170 366T263 385Q317 385 358 362T424 297T448 203Q448 174 440 144T416 87T375 39T317 6T240 -6ZM241 11Q305 11 346 39T408 111T428 202Q428
236 416 266T382 319T329 355T262 368Q198 368 157 340T95 268T75 178Q75 132 96 94T155 34T241 11ZM174 503Q174 513 181 519T197 526Q206 525 212 519T219 503Q218 494 212 488T196 481Q187 481 181 487T174 503V503ZM341 503Q341 513 347 519T363 526Q372 525
378 519T385 503Q385 494 378 488T362 481Q353 481 347 487T341 503V503Z" />
<glyph unicode="&#xf7;" horiz-adv-x="501" d="M240 90Q240 100 248 107T266 114Q274 114 280 109T286 94Q286 87 282 82T273 73T260 70Q252 70 246 75T240 90V90ZM271 343Q271 353 279 360T297 367Q305 367 310 362T316 347Q316 337 309 330T291 323Q283 323
277 328T271 343V343ZM97 229H457L454 210H94L97 229Z" />
<glyph unicode="&#xf8;" horiz-adv-x="472" d="M429 369Q412 351 389 327T338 274T280 214T221 153T163 93T112 40T72 -2L63 10Q79 27 102 51T153 104T211 164T270 225T328 285T379 338T419 379L429 369ZM240 -6Q200 -6 167 7T108 45T69 103T55 176Q55 213 67
250T105 317T170 366T263 385Q317 385 358 362T424 297T448 203Q448 174 440 144T416 87T375 39T317 6T240 -6ZM241 11Q305 11 346 39T408 111T428 202Q428 236 416 266T382 319T329 355T262 368Q198 368 157 340T95 268T75 178Q75 132 96 94T155 34T241 11Z" />
<glyph unicode="&#xf9;" horiz-adv-x="487" d="M188 -8Q135 -8 107 21T84 101L117 378H137L103 101Q98 64 121 38T193 10Q233 10 272 29T337 83T369 160L396 378H416L369 0H353L366 115L367 108Q355 77 327 51T262 8T188 -8ZM215 616L288 483H269L193 616H215Z" />
<glyph unicode="&#xfa;" horiz-adv-x="487" d="M188 -8Q135 -8 107 21T84 101L117 378H137L103 101Q98 64 121 38T193 10Q233 10 272 29T337 83T369 160L396 378H416L369 0H353L366 115L367 108Q355 77 327 51T262 8T188 -8ZM416 616L309 483H290L394 616H416Z" />
<glyph unicode="&#xfb;" horiz-adv-x="487" d="M188 -8Q135 -8 107 21T84 101L117 378H137L103 101Q98 64 121 38T193 10Q233 10 272 29T337 83T369 160L396 378H416L369 0H353L366 115L367 108Q355 77 327 51T262 8T188 -8ZM626 483L539 639H548L422 483H401L546
664V664L647 483H626Z" />
<glyph unicode="&#xfc;" horiz-adv-x="487" d="M188 -8Q135 -8 107 21T84 101L117 378H137L103 101Q98 64 121 38T193 10Q233 10 272 29T337 83T369 160L396 378H416L369 0H353L366 115L367 108Q355 77 327 51T262 8T188 -8ZM177 505Q177 515 184 521T200 528Q209
527 215 521T222 505Q221 496 215 490T199 483Q190 483 184 489T177 505V505ZM344 505Q344 515 350 521T366 528Q375 527 381 521T388 505Q388 496 381 490T365 483Q356 483 350 489T344 505V505Z" />
<glyph unicode="&#xfd;" horiz-adv-x="461" d="M97 -181L409 378H431L120 -181H97ZM197 -5L68 378H90L214 7L197 -5ZM424 613L317 480H298L402 613H424Z" />
<glyph unicode="&#xfe;" horiz-adv-x="542" d="M182 752L120 246L118 267Q135 301 165 328T235 370T316 386Q366 386 405 363T466 300T489 210Q489 141 458 93T376 19T267 -6Q204 -6 159 27T99 113L104 126L67 -181H49L163 752H182ZM470 208Q470 253 450 289T394
346T313 368Q259 368 214 341T140 270T112 172Q112 123 132 87T188 32T269 12Q323 12 368 37T442 106T470 208Z" />
<glyph unicode="&#xff;" horiz-adv-x="457" d="M97 -181L409 378H431L120 -181H97ZM197 -5L68 378H90L214 7L197 -5ZM209 502Q209 512 216 518T232 525Q241 524 247 518T254 502Q253 493 247 487T231 480Q222 480 216 486T209 502V502ZM376 502Q376 512 382 518T398
525Q407 524 413 518T420 502Q420 493 413 487T397 480Q388 480 382 486T376 502V502Z" />
<glyph unicode="&#x2013;" horiz-adv-x="510" d="M125 197H426L423 178H122L125 197Z" />
<glyph unicode="&#x2014;" horiz-adv-x="701" d="M124 197H626L624 178H121L124 197Z" />
<glyph unicode="&#x2018;" horiz-adv-x="164" d="M166 591Q164 586 161 582T155 572Q130 599 122 635T127 712Q132 710 137 708T147 705Q136 670 142 641T166 591V591Z" />
<glyph unicode="&#x2019;" horiz-adv-x="164" d="M136 572Q134 577 133 581T130 591Q154 611 167 640T177 705Q182 706 188 708T199 712Q203 672 186 636T136 572V572Z" />
<glyph unicode="&#x201a;" horiz-adv-x="146" d="M22 -47Q21 -43 19 -39T16 -29Q39 -9 52 21T63 85Q68 87 74 89T85 92Q88 52 72 16T22 -47V-47Z" />
<glyph unicode="&#x201c;" horiz-adv-x="249" d="M158 591Q155 586 153 582T147 572Q121 599 113 635T118 712Q123 710 128 708T139 705Q128 670 134 641T158 591V591ZM262 591Q259 586 257 582T251 572Q226 599 218 635T222 712Q227 710 232 708T243 705Q232
670 238 641T262 591V591Z" />
<glyph unicode="&#x201d;" horiz-adv-x="248" d="M120 572Q119 577 118 581T114 591Q138 611 151 640T161 705Q167 706 172 708T183 712Q187 672 170 636T120 572V572ZM224 572Q223 577 222 581T218 591Q242 611 255 640T265 705Q271 706 276 708T287 712Q291
672 274 636T224 572V572Z" />
<glyph unicode="&#x201e;" horiz-adv-x="242" d="M22 -47Q21 -43 19 -39T16 -29Q39 -9 52 21T63 85Q68 87 74 89T85 92Q88 52 72 16T22 -47V-47ZM127 -47Q125 -43 123 -39T120 -29Q143 -9 156 21T167 85Q172 87 178 89T190 92Q193 52 176 16T127 -47V-47Z" />
<glyph unicode="&#x2022;" horiz-adv-x="479" d="M206 293Q206 314 217 332T246 360T285 371Q303 371 317 363T339 340T347 308Q347 286 336 269T307 241T268 231Q250 231 236 239T214 262T206 293V293Z" />
<glyph unicode="&#x2039;" horiz-adv-x="392" d="M146 239Q161 252 177 265T209 293T242 321T274 348T306 375T338 402L335 380Q316 362 297 345T258 310T219 274T180 239Q194 222 209 204T239 168T270 132T300 97L297 75L146 239Z" />
<glyph unicode="&#x203a;" horiz-adv-x="392" d="M259 239Q244 252 228 265T196 293T164 321T131 348T99 375T68 402L71 380Q89 362 108 345T148 310T187 274T226 239Q211 222 196 204T166 168T135 132T106 97L108 75L259 239Z" />
</font>
</defs>
</svg>
