<?xml version="1.0" standalone="no"?>
<!DOCTYPE svg PUBLIC "-//W3C//DTD SVG 1.1//EN" "http://www.w3.org/Graphics/SVG/1.1/DTD/svg11.dtd">
<svg xmlns="http://www.w3.org/2000/svg">
<defs >
<font id="JosefinSans" horiz-adv-x="550" ><font-face
    font-family="Josefin Sans Thin"
    units-per-em="1000"
    panose-1="0 0 0 0 0 0 0 0 0 0"
    ascent="750"
    descent="-250"
    alphabetic="0" />
<glyph unicode=" " horiz-adv-x="300" />
<glyph unicode="!" horiz-adv-x="202" d="M112 765H237L167 199H42L112 765ZM74 -14Q38 -12 18 9T1 62Q5 93 31 112T92 130Q127 128 146 106T162 52Q158 20 134 2T74 -14Z" />
<glyph unicode="&quot;" horiz-adv-x="366" d="M276 734Q268 671 259 608T241 481H123L154 734H276ZM412 734Q404 671 395 608T377 481H259L290 734H412Z" />
<glyph unicode="#" horiz-adv-x="582" d="M368 656Q356 611 345 568T323 479H385Q396 524 407 567T429 656H556Q544 611 533 568T511 479H595Q588 449 582 419T568 358H483Q479 342 475 326T467 292H552Q545 261 537 231T522 170H437Q427 127 417 85T396 0H270Q280
43 290 85T311 170H250Q240 127 229 85T209 0H82Q92 43 102 85T123 170H44Q52 201 59 231T74 292H153Q158 309 161 325T169 358H90Q98 388 104 418T118 479H197Q208 524 219 567T242 656H368ZM295 358Q291 342 288 326T279 292H341Q345 309 348 325T356 358H295Z"
/>
<glyph unicode="$" horiz-adv-x="587" d="M199 -68L252 374L307 413L355 804H439L387 376L332 337L283 -68H199ZM531 545Q492 571 451 588T371 608Q347 609 328 606T295 594T272 571T261 538Q258 512 275 491T323 451T388 418Q429 400 466 373T524 303T536 189Q531
147 510 110T454 46T369 4T258 -6Q216 -3 174 8T92 38T16 88L94 197Q117 177 146 161T205 134T261 122Q287 121 314 126T361 149T385 198Q388 220 375 239T340 274T290 303Q258 318 224 337T162 382T118 446T110 536Q118 600 152 645T241 714T365 737Q424 734 466
722T541 691T600 652L531 545Z" />
<glyph unicode="%" horiz-adv-x="850" d="M206 294Q164 297 136 313T91 356T70 418T69 494Q76 548 98 589T158 653T252 673Q293 670 321 654T366 611T388 549T389 474Q383 420 361 379T300 314T206 294ZM218 392Q234 391 243 402T258 434T267 482Q270 506 270
523T268 551T259 567T240 574Q225 575 215 566T200 538T190 486Q187 459 188 438T196 405T218 392ZM624 -28Q582 -25 554 -9T509 34T488 96T487 172Q494 226 516 267T576 331T670 351Q711 348 739 332T784 289T806 227T807 152Q801 98 779 57T718 -8T624 -28ZM636
70Q652 69 661 80T676 112T685 160Q689 192 689 211T681 241T658 252Q643 253 633 244T618 216T608 164Q605 137 606 116T614 83T636 70ZM802 673L234 -2L97 0L663 673H802Z" />
<glyph unicode="&amp;" horiz-adv-x="720" d="M668 0Q654 0 627 0T570 0T521 0T500 0L230 436Q221 450 210 474T191 529T187 591Q192 631 217 670T288 736T399 763Q470 763 520 734T598 664L513 567Q485 601 460 621T407 641Q373 641 356 621T335 577Q333 563
338 547T350 517T359 498L668 0ZM324 333Q300 335 278 327T239 303T210 269T196 227Q192 196 205 172T243 133T300 116Q332 114 355 122T394 145T422 179L505 97Q472 48 412 16T264 -12Q195 -8 143 24T65 109T46 228Q52 278 79 318T148 388T239 432T337 446L324
333ZM547 448H679L517 136L420 198L547 448Z" />
<glyph unicode="&apos;" horiz-adv-x="175" d="M242 734Q234 671 225 608T207 481H87L118 734H242Z" />
<glyph unicode="(" horiz-adv-x="409" d="M86 305Q95 381 117 449T171 576T238 680T310 758L417 698Q373 656 335 597T270 463T231 296Q220 204 228 127T260 -13T317 -122L196 -169Q160 -121 130 -49T87 113T86 305V305Z" />
<glyph unicode=")" horiz-adv-x="409" d="M342 287Q333 211 311 143T257 16T190 -88T118 -166L11 -106Q55 -64 93 -5T158 129T197 296Q208 388 200 465T168 605T111 714L232 761Q269 713 298 641T341 479T342 287V287Z" />
<glyph unicode="*" horiz-adv-x="335" d="M190 504Q174 495 158 487T125 469Q117 487 109 505T92 542Q109 550 125 559T158 576Q145 585 131 594T102 613Q114 630 125 647T149 682Q164 673 178 664T208 645L217 720H301Q299 701 296 683T291 645Q308 654 325 663T359
681Q367 664 375 647T391 612Q373 603 356 594T321 575V575Q336 566 350 557T380 539Q367 521 355 503T329 466Q314 475 300 484T271 503Q269 486 267 469T262 434H182L190 504Z" />
<glyph unicode="+" horiz-adv-x="554" d="M259 419H386L371 295H491L476 174H356L341 52H214L229 174H109L124 295H244L259 419Z" />
<glyph unicode="," horiz-adv-x="205" d="M52 -214L-20 -166Q2 -145 11 -105T14 -29L136 -30Q142 -58 133 -93T103 -161T52 -214Z" />
<glyph unicode="-" horiz-adv-x="306" d="M90 290H278L263 168H75L90 290Z" />
<glyph unicode="." horiz-adv-x="167" d="M23 64Q23 99 49 122T105 145Q128 145 147 126T166 79Q166 55 154 38T123 10T87 0Q62 0 43 17T23 64V64Z" />
<glyph unicode="/" horiz-adv-x="421" d="M520 751Q425 558 331 366T141 -19H15Q110 174 204 366T394 751H520Z" />
<glyph unicode="0" horiz-adv-x="657" d="M314 1Q266 1 221 15T139 60T82 144T60 272Q60 288 63 322T75 402T106 493T161 580T249 644T377 669Q423 669 470 652T555 599T612 506T624 369Q620 293 599 227T539 109T445 30T314 1ZM332 139Q371 139 397 163T440 224T463
305T471 386Q471 447 454 478T410 520T354 531Q315 531 289 507T246 446T222 365T214 284Q214 224 231 193T276 150T332 139Z" />
<glyph unicode="1" horiz-adv-x="373" d="M130 663H329L247 0H101L165 523H112L130 663Z" />
<glyph unicode="2" horiz-adv-x="586" d="M30 0Q129 90 196 153T304 261T367 336T397 390T405 437Q405 469 393 489T360 520T308 531Q284 531 266 524T234 505T214 476T207 440Q207 414 214 394T235 356L136 275Q120 292 104 320T76 383T65 453Q65 490 80 528T128
598T209 651T326 671Q405 671 456 646T532 575T558 472Q558 429 548 390T513 311T448 225T348 121L280 140H526L509 0H30Z" />
<glyph unicode="3" horiz-adv-x="513" d="M486 663L301 375L227 418Q256 423 275 424T305 425Q349 422 388 399T453 335T478 239Q478 193 464 150T420 71T343 14T231 -7Q200 -7 163 2T91 31T33 80L121 196Q138 168 169 150T231 132Q253 132 271 139T301 160T321
192T328 232Q328 279 293 304T206 330Q184 330 165 326T136 317L133 321L277 540L317 523H108L125 663H486Z" />
<glyph unicode="4" horiz-adv-x="522" d="M-16 145V146L471 671H472L421 255H500L487 145H408L390 0H244L262 145H-16ZM293 351L198 242L187 255H275L288 357L293 351Z" />
<glyph unicode="5" horiz-adv-x="515" d="M235 -8Q206 -8 168 2T94 32T33 80L122 192Q135 173 153 160T191 141T230 134Q264 134 286 148T319 184T330 232Q330 267 317 286T284 316T243 328T207 331Q181 331 148 323T77 291H76L157 663H479L463 523H248L221 416L213
444Q222 446 237 447T270 449Q300 449 336 439T405 406T459 342T480 239Q480 193 466 149T421 70T344 13T235 -8Z" />
<glyph unicode="6" horiz-adv-x="586" d="M294 -8Q225 -8 172 22T87 109T56 248Q56 302 73 358T130 470T234 579T393 679L477 568Q394 542 338 497T251 401T214 306L179 312Q211 370 255 402T374 434Q397 434 427 425T485 392T533 331T552 236Q552 200 538 158T492
78T412 16T294 -8ZM295 122Q326 122 346 133T379 161T396 196T401 230Q401 258 389 276T354 305T304 315Q273 315 253 306T221 281T204 249T199 216Q199 190 211 169T245 135T295 122Z" />
<glyph unicode="7" horiz-adv-x="503" d="M543 663L218 0H52L321 540L368 523H77L95 663H543Z" />
<glyph unicode="8" horiz-adv-x="573" d="M36 207Q36 259 56 297T108 363T175 408Q159 429 147 450T135 503Q135 528 145 557T177 612T236 654T326 671Q379 671 422 652T491 600T517 528Q517 479 498 450T445 392Q465 377 486 355T523 301T538 227Q538 206 530
177T504 115T455 55T380 10T277 -8Q204 -8 150 22T66 102T36 207ZM185 214Q185 187 195 164T227 128T279 114Q314 114 339 129T379 171T394 228Q394 256 382 278T348 314T298 328Q258 328 233 310T197 265T185 214ZM275 496Q275 477 290 463T322 449Q338 449 349
456T368 474T375 500Q375 522 361 535T329 549Q302 549 289 534T275 496Z" />
<glyph unicode="9" horiz-adv-x="573" d="M250 210Q219 210 186 222T125 259T78 321T60 408Q60 444 74 486T120 566T200 628T318 652Q389 652 443 622T529 541T561 427Q561 368 542 313T480 206T364 101T183 -5L99 106Q183 133 248 170T353 250T398 338L433 332Q401
274 359 242T250 210ZM308 329Q355 329 381 351T412 423Q415 448 404 470T370 507T317 522Q276 522 253 504T221 460T212 413Q212 386 224 367T259 339T308 329Z" />
<glyph unicode=":" horiz-adv-x="179" d="M23 64Q23 99 49 122T105 145Q128 145 147 126T166 79Q166 55 154 38T123 10T87 0Q62 0 43 17T23 64V64ZM58 349Q58 384 84 407T140 430Q163 430 182 411T201 364Q201 340 189 323T158 295T122 285Q97 285 78 302T58 349V349Z" />
<glyph unicode=";" horiz-adv-x="205" d="M92 319Q92 342 104 360T135 389T172 400Q196 400 215 381T234 334Q234 298 208 277T154 255Q130 255 111 272T92 319V319ZM185 88Q156 35 128 -17T71 -122H-41Q-14 -69 11 -17T64 88H185Z" />
<glyph unicode="&lt;" horiz-adv-x="555" d="M436 -14Q333 51 230 115T23 243Q142 307 261 371T499 499L478 328Q440 307 400 286T322 243Q356 222 390 201T458 158V158L436 -14Z" />
<glyph unicode="=" horiz-adv-x="722" d="M128 214H644L629 92H113L128 214ZM152 412H668L653 290H137L152 412Z" />
<glyph unicode="&gt;" horiz-adv-x="556" d="M83 158Q123 179 162 200T241 243Q207 264 173 285T104 328L125 499Q229 435 332 371T539 243Q419 179 301 115T62 -14V-14L83 158Z" />
<glyph unicode="?" horiz-adv-x="444" d="M109 266Q113 299 125 321T155 358T195 387T241 417Q288 449 312 484T336 558Q336 577 329 592T308 616T273 625Q237 625 217 616T184 588T158 538V538Q133 548 107 558T54 579Q62 597 76 625T116 681T183 728T288 747Q340
747 379 723T442 659T465 568Q465 504 432 456T341 368Q325 357 301 341T257 301T232 247L222 167H97L109 266ZM135 -14Q110 -14 91 3T71 50Q71 84 97 107T153 130Q176 130 195 111T214 64Q214 29 189 8T135 -14V-14Z" />
<glyph unicode="@" horiz-adv-x="1052" d="M459 -226Q377 -226 301 -202T166 -129T72 -3T37 178Q37 245 57 315T120 451T231 567T394 649T614 680Q714 680 790 652T917 573T995 456T1022 312Q1022 247 1003 190T948 88T863 18T752 -8Q709 -8 676 13T626 70T616
152L640 90Q625 69 595 46T527 5T447 -12Q392 -12 348 11T278 80T252 191Q252 267 284 327T373 423T506 459Q550 459 576 449T619 424T648 390L664 437H798L761 172Q759 155 761 143T770 126T788 120Q806 120 824 133T858 172T883 233T893 312Q893 382 861 440T763
535T594 571Q487 571 412 542T288 467T212 367T174 265T163 182Q163 101 188 44T258 -48T359 -101T480 -118Q537 -118 593 -101T698 -52L754 -131Q714 -164 663 -185T558 -216T459 -226ZM503 102Q530 102 550 109T586 131T616 168L631 275Q626 297 612 312T578
336T530 345Q493 345 464 326T418 276T401 210Q401 180 414 156T450 117T503 102Z" />
<glyph unicode="A" horiz-adv-x="696" d="M124 0H-19L407 765H415L653 0H485L339 538L453 610L124 0ZM241 266H462L498 144H181L241 266Z" />
<glyph unicode="B" horiz-adv-x="638" d="M371 736Q475 736 535 698T595 570Q595 531 584 491T545 420T469 374L464 379Q495 372 523 354T569 305T587 227Q587 166 564 123T501 52T412 13T310 0H65L155 736H371ZM346 435Q370 435 388 443T418 465T436 496T442
531Q442 566 419 583T357 601H289L268 435H346ZM315 135Q350 135 378 146T423 179T440 234Q440 264 424 280T381 302T326 309H253L232 135H315Z" />
<glyph unicode="C" horiz-adv-x="700" d="M628 43Q616 35 586 22T513 -2T420 -13Q363 -13 302 4T187 60T101 165T68 329Q68 392 82 452T125 564T200 656T307 718T448 741Q531 741 592 716T689 663L615 530Q593 550 554 573T462 600Q408 603 364 586T287 533T238
449T220 340Q220 293 234 254T274 187T339 144T426 128Q469 128 500 137T552 158T584 177L628 43Z" />
<glyph unicode="D" horiz-adv-x="767" d="M65 0L155 736H415Q514 736 579 703T681 615T729 492T734 355Q725 273 691 208T604 96T487 25T353 0H65ZM227 140H345Q394 140 435 154T508 197T560 267T586 365Q595 437 577 482T527 553T461 587T401 597H283L227 140Z" />
<glyph unicode="E" horiz-adv-x="667" d="M155 736H657L641 601H289L269 437H580L563 299H252L232 139H598L581 0H65L155 736Z" />
<glyph unicode="F" horiz-adv-x="600" d="M155 736H615L598 598H288L268 428H536L518 289H250L215 0H65L155 736Z" />
<glyph unicode="G" horiz-adv-x="772" d="M678 56Q659 40 618 24T527 -1T432 -11Q414 -11 381 -6T306 11T223 47T146 108T89 200T67 328Q67 379 80 435T123 546T199 644T312 714T466 739Q528 738 596 722T719 671L655 539Q616 565 563 579T464 593Q406 592 364
575T294 530T250 469T226 400T219 333Q219 280 238 245T287 187T351 153T413 137T459 133Q483 132 504 135T541 147L552 243H425L442 382H717L678 56Z" />
<glyph unicode="H" horiz-adv-x="810" d="M774 736L684 0H534L571 299H252L215 0H65L155 736H305L269 441H588L624 736H774Z" />
<glyph unicode="I" horiz-adv-x="341" d="M155 736H305L215 0H65L155 736Z" />
<glyph unicode="J" horiz-adv-x="404" d="M297 155Q286 59 240 -9T121 -113T-40 -153V-153L-23 -12Q23 -9 59 8T120 61T152 158L222 736H368L297 155Z" />
<glyph unicode="K" horiz-adv-x="701" d="M270 474L261 437L287 465L560 736H748L404 406L659 0H475L286 314L246 278L212 0H65L155 736H302L270 474Z" />
<glyph unicode="L" horiz-adv-x="638" d="M155 736H300L227 140H573L556 0H65L155 736Z" />
<glyph unicode="M" horiz-adv-x="948" d="M204 0H64L158 766H159L497 186L437 200L914 766H916L822 0H677L731 439V364L438 10H436L224 364L257 433L204 0Z" />
<glyph unicode="N" horiz-adv-x="853" d="M723 -30H719L223 474L263 450L211 0H64L158 765H164L648 263L618 277L671 736H817L723 -30Z" />
<glyph unicode="O" horiz-adv-x="852" d="M421 -7Q358 -7 296 13T182 75T99 184T68 343Q68 409 92 479T166 609T291 706T468 743Q531 743 593 723T707 661T790 552T821 393Q821 327 797 257T723 127T598 30T421 -7ZM423 133Q491 133 538 156T615 218T657 300T671
385Q671 429 656 468T612 537T546 585T462 603Q394 603 347 580T272 518T231 436T218 351Q218 308 233 269T275 199T339 151T423 133Z" />
<glyph unicode="P" horiz-adv-x="618" d="M378 736Q441 736 488 721T568 677T616 609T633 519Q633 471 618 421T568 329T479 260T343 233H244L215 0H65L155 736H378ZM354 374Q390 374 414 387T453 420T474 461T481 498Q481 515 474 538T446 578T382 596H288L261 374H354Z" />
<glyph unicode="Q" horiz-adv-x="945" d="M663 105L905 142L888 0H478L663 105ZM462 -7Q399 -7 337 13T223 75T140 184T109 343Q109 409 133 479T207 609T332 706T509 743Q572 743 634 723T748 661T831 552T862 393Q862 327 838 257T764 127T639 30T462 -7ZM464
133Q532 133 579 156T656 218T698 300T712 385Q712 429 697 468T653 537T587 585T503 603Q435 603 388 580T313 518T272 436T259 351Q259 308 274 269T316 199T380 151T464 133Z" />
<glyph unicode="R" horiz-adv-x="687" d="M378 736Q447 736 498 719T583 669T629 591T636 488Q630 443 611 398T557 316T470 257T343 234H239L210 0H65L155 736H378ZM359 374Q403 374 430 392T470 436T485 483Q487 495 486 513T476 551T446 583T387 596H283L256
374H359ZM484 284L631 0H462L310 280L484 284Z" />
<glyph unicode="S" horiz-adv-x="587" d="M531 545Q492 571 451 588T371 608Q347 609 328 606T295 594T272 571T261 538Q258 512 275 491T323 451T388 418Q429 400 466 373T524 303T536 189Q531 147 510 110T454 46T369 4T258 -6Q216 -3 174 8T92 38T16 88L94
197Q117 177 146 161T205 134T261 122Q287 121 314 126T361 149T385 198Q388 220 375 239T340 274T290 303Q258 318 224 337T162 382T118 446T110 536Q118 600 152 645T241 714T365 737Q424 734 466 722T541 691T600 652L531 545Z" />
<glyph unicode="T" horiz-adv-x="586" d="M105 736H601L583 593H407L334 0H184L257 593H87L105 736Z" />
<glyph unicode="U" horiz-adv-x="787" d="M248 272Q244 237 259 205T306 153T378 133Q419 133 455 153T515 205T544 272L601 736H751L694 269Q684 188 636 126T516 28T361 -8V-8Q279 -8 216 27T120 125T98 269L155 736H305L248 272Z" />
<glyph unicode="V" horiz-adv-x="744" d="M340 -28L100 736H274L424 206L342 223L600 736H772L345 -28H340Z" />
<glyph unicode="W" horiz-adv-x="1031" d="M99 731H269L369 269L347 279L526 620L569 421L301 -34L99 731ZM468 731H612L738 284L713 288L902 731H1058L680 -32L468 731Z" />
<glyph unicode="X" horiz-adv-x="681" d="M80 736H265L655 0H468L80 736ZM-20 0L292 412L343 266L160 0H-20ZM377 466L562 736H738L437 341L377 466Z" />
<glyph unicode="Y" horiz-adv-x="722" d="M288 229L79 736H258L401 354L358 351L592 736H771L433 229L405 0H260L288 229Z" />
<glyph unicode="Z" horiz-adv-x="676" d="M-2 0L469 636L486 596H221Q200 596 179 605T144 631T132 668L145 773H278L277 759Q276 746 282 741T306 736H715L259 124L246 140H641L624 0H-2Z" />
<glyph unicode="[" horiz-adv-x="350" d="M158 761H371L356 639H267L185 -31H274L259 -152H46L158 761Z" />
<glyph unicode="\" horiz-adv-x="430" d="M224 751Q271 558 318 366T413 -19H271Q224 174 177 366T82 751H224Z" />
<glyph unicode="]" horiz-adv-x="357" d="M112 761H325L213 -152H0L15 -31H104L186 639H97L112 761Z" />
<glyph unicode="^" horiz-adv-x="479" d="M334 489Q334 489 326 500T310 522T302 534Q302 534 292 523T270 500T259 489H174Q210 535 246 581T319 673V673Q344 627 369 581T419 489H334Z" />
<glyph unicode="_" horiz-adv-x="612" d="M117 121H525L510 0H102L117 121Z" />
<glyph unicode="`" horiz-adv-x="205" d="M185 624L247 489H162L30 624H185Z" />
<glyph unicode="a" horiz-adv-x="618" d="M216 -10Q173 -11 132 14T65 87T38 203Q38 252 56 297T107 379T185 437T284 459Q328 459 355 449T400 424T429 390L420 369L442 437H572L519 0H379L390 95L398 65Q396 65 384 54T350 27T294 1T216 -10ZM295 102Q315 102
333 109T369 131T399 168L412 275Q407 297 393 312T358 336T310 345Q276 345 252 333T213 302T190 262T183 220Q183 184 197 158T236 117T295 102Z" />
<glyph unicode="b" horiz-adv-x="626" d="M331 -12Q276 -12 241 6T181 55L196 85L185 0H45L142 789H281L229 362L234 407Q260 429 298 444T386 459Q439 459 485 436T560 363T589 238Q589 173 556 116T465 23T331 -12ZM314 106Q349 106 373 118T414 148T438 188T446
229Q446 268 432 295T393 335T335 349Q295 349 266 330T220 279L207 178Q214 162 224 149T247 126T276 111T314 106Z" />
<glyph unicode="c" horiz-adv-x="485" d="M422 28Q392 9 351 -2T269 -13Q242 -13 203 -5T126 26T63 90T37 197Q37 240 52 284T97 365T173 424T282 447Q349 447 394 427T469 378L390 293Q377 306 352 319T291 332Q262 332 236 316T194 272T178 207Q178 177 192
153T232 115T294 100Q314 100 331 105T363 120L422 28Z" />
<glyph unicode="d" horiz-adv-x="626" d="M253 -12Q191 -12 142 17T66 94T38 200Q38 246 54 291T104 375T187 436T300 459Q353 459 394 440T457 394L433 362L485 789H624L527 0H387L398 85L405 55Q368 27 333 8T253 -12ZM297 106Q319 106 338 113T376 135T409
172L422 279Q417 301 402 316T365 340T314 349Q275 349 245 334T199 290T182 221Q182 186 196 160T236 120T297 106Z" />
<glyph unicode="e" horiz-adv-x="555" d="M293 107Q313 107 331 114T369 131L418 23Q385 7 349 -2T278 -11Q206 -11 153 13T69 88T39 215Q39 254 53 296T98 374T178 434T298 457Q336 457 373 448T442 414T496 345T528 231L176 144L154 222L428 293L379 278Q371
312 348 330T293 348Q252 348 227 331T191 287T179 231Q179 181 197 154T242 117T293 107Z" />
<glyph unicode="f" horiz-adv-x="436" d="M84 0L122 315H48L64 439H138L156 591Q167 677 223 731T373 786Q401 786 434 778T492 750L420 649Q411 662 399 666T374 671Q344 671 323 651T296 587L278 439H410L394 315H262L224 0H84Z" />
<glyph unicode="g" horiz-adv-x="636" d="M267 -220Q203 -220 161 -206T90 -172T40 -134L134 -38Q149 -52 168 -66T214 -89T280 -98Q309 -98 334 -87T377 -53T398 2L409 98L413 73Q395 39 355 14T253 -12Q193 -12 145 14T68 92T39 217Q39 254 54 296T101 375T181
435T294 459Q352 459 391 443T449 402L438 381L462 437H591L533 -23Q526 -87 488 -131T392 -197T267 -220ZM319 345Q282 345 256 333T214 301T190 259T182 217Q182 180 196 155T238 116T302 102Q324 102 345 109T384 131T418 168L431 275Q424 297 409 312T371 336T319
345Z" />
<glyph unicode="h" horiz-adv-x="595" d="M224 366Q252 407 298 432T406 458Q468 458 504 422T536 327L496 0H356L389 275Q391 304 379 321T333 339Q301 339 275 318T231 261T208 178L186 0H46L142 789H279L225 341L224 366Z" />
<glyph unicode="i" horiz-adv-x="284" d="M99 437H239L185 0H45L99 437ZM364 1103Q364 1135 386 1157T444 1179Q469 1179 494 1165T519 1114Q519 1083 497 1061T439 1038Q414 1038 389 1052T364 1103Z" />
<glyph unicode="j" horiz-adv-x="297" d="M-20 -124Q12 -102 33 -70T59 8L112 437H252L198 0Q189 -72 154 -125T50 -211L-20 -124ZM376 1103Q376 1135 398 1157T456 1179Q481 1179 506 1165T531 1114Q531 1083 509 1061T451 1038Q426 1038 401 1052T376 1103Z" />
<glyph unicode="k" horiz-adv-x="547" d="M46 0L142 789H282L186 0H46ZM333 297L495 0H332L231 217L333 297ZM159 121L161 254L449 448L524 373L159 121Z" />
<glyph unicode="l" horiz-adv-x="285" d="M142 789H282L186 0H46L142 789Z" />
<glyph unicode="m" horiz-adv-x="864" d="M226 437L228 352L226 366Q257 410 299 434T397 459Q450 459 482 439T520 372L518 371Q550 409 592 434T678 459Q743 459 777 423T805 328L765 0H626L659 270Q661 299 656 317T621 338Q587 338 561 315T519 255T498 179L476
0H336L369 270Q371 299 364 317T328 338Q295 338 270 315T229 255T208 181L186 0H46L99 437H226Z" />
<glyph unicode="n" horiz-adv-x="595" d="M226 437L229 350L224 366Q252 407 298 432T406 458Q468 458 504 422T536 327L496 0H356L390 275Q392 304 380 321T333 339Q301 339 275 318T231 261T208 178L186 0H46L99 437H226Z" />
<glyph unicode="o" horiz-adv-x="573" d="M279 -12Q240 -12 198 0T120 39T61 106T38 204Q38 244 51 288T95 370T175 433T297 457Q356 457 410 433T500 360T536 241Q536 216 529 183T505 115T459 53T386 6T279 -12ZM283 103Q326 103 350 125T384 178T394 235Q394
270 383 291T354 324T320 339T292 343Q251 343 226 322T190 269T179 211Q179 166 197 143T240 112T283 103Z" />
<glyph unicode="p" horiz-adv-x="612" d="M302 -12Q263 -12 221 5T159 49L191 85L158 -210H19L102 447H222L226 362L196 392Q244 422 289 440T375 459Q430 459 476 435T549 366T577 261Q577 189 544 127T450 26T302 -12ZM298 105Q342 105 372 124T419 174T435
239Q435 272 419 296T378 334T325 348Q302 348 283 341T246 319T212 282L199 175Q205 159 214 146T236 124T263 110T298 105Z" />
<glyph unicode="q" horiz-adv-x="617" d="M242 -10Q194 -11 147 14T69 87T38 203Q38 252 56 297T107 379T185 437T284 459Q349 459 382 438T433 390L423 378L442 437H572L492 -210H352L390 95L424 65Q422 65 410 54T376 27T320 1T242 -10ZM283 100Q306 100 326
107T363 129T397 166L413 273Q407 289 397 302T374 324T345 338T310 343Q267 343 236 324T189 275T173 209Q173 176 189 152T230 114T283 100Z" />
<glyph unicode="r" horiz-adv-x="414" d="M225 437L221 340Q245 379 278 405T346 445T405 459L381 319Q333 325 295 303T234 245T206 171L185 0H46L99 437H225Z" />
<glyph unicode="s" horiz-adv-x="448" d="M199 -9Q181 -9 148 -4T79 20T14 75L81 148Q108 118 130 105T169 90T198 87Q229 87 238 100T247 124Q247 139 235 148T203 165T162 180Q110 200 88 233T65 305Q65 325 72 350T98 400T150 440T237 456Q267 456 297 452T357
435T414 399L351 320Q330 341 308 352T259 363Q240 363 229 358T213 343T208 324Q208 308 223 298T259 281T302 265Q332 253 353 235T383 193T389 135Q386 106 372 80T335 33T277 2T199 -9Z" />
<glyph unicode="t" horiz-adv-x="394" d="M159 629H299L276 439H382L369 330H263L223 0H83L123 330H55L68 439H136L159 629Z" />
<glyph unicode="u" horiz-adv-x="584" d="M184 -21Q125 -21 90 15T59 110L99 437H239L205 162Q204 133 214 116T256 98Q287 98 312 119T355 176T377 259L399 437H539L485 0H358L357 87L360 71Q342 44 316 23T256 -9T184 -21Z" />
<glyph unicode="v" horiz-adv-x="534" d="M241 -9L33 437H199L311 135L226 138L391 437H547L245 -9H241Z" />
<glyph unicode="w" horiz-adv-x="684" d="M441 -10L339 272L181 -9H173L33 437H169L246 202L198 209L305 387L288 437H407L476 220L450 218L561 437H697L449 -10H441Z" />
<glyph unicode="x" horiz-adv-x="517" d="M489 0H320L37 437H209L489 0ZM280 298L380 437H519L316 197L280 298ZM242 140L127 0H-12L190 234L242 140Z" />
<glyph unicode="y" horiz-adv-x="540" d="M67 -210L438 437H564L202 -210H67ZM210 -2L50 437H207L326 68L210 -2Z" />
<glyph unicode="z" horiz-adv-x="522" d="M150 323Q114 323 91 349T72 419L79 479H184L183 465Q180 444 187 441T213 437H490L205 85L183 114H448L434 0H-9L284 363L300 323H150Z" />
<glyph unicode="{" horiz-adv-x="384" d="M348 639Q327 639 315 633T295 607T282 540L268 420Q265 391 250 368T218 328T188 303Q198 296 211 280T233 240T239 188L224 69Q219 24 221 3T234 -25T266 -31H303L288 -153H209Q183 -153 159 -152T115 -144T87 -115T82
-53L102 105Q106 133 103 164T86 219T38 243V243L52 359Q85 361 105 383T136 437T150 497L168 641Q174 689 187 714T221 749T266 760T321 761H400L385 639H348Z" />
<glyph unicode="|" horiz-adv-x="306" d="M176 714H302L185 -237H59L176 714Z" />
<glyph unicode="}" horiz-adv-x="375" d="M57 -31Q78 -31 90 -25T109 2T122 69L134 167Q139 206 153 233T186 277T217 303Q208 312 194 328T171 367T165 420L180 540Q186 586 184 606T171 633T139 639H102L117 761H196Q224 761 249 760T292 750T318 715T320 641L300
476Q297 454 300 433T311 396T333 369T367 359V359L353 243Q332 243 316 233T287 207T268 170T257 126L238 -32Q232 -80 219 -105T185 -140T139 -151T84 -153H5L20 -31H57Z" />
<glyph unicode="~" horiz-adv-x="451" d="M341 417Q299 419 274 438T228 477Q216 489 205 498T179 508Q163 509 153 498T138 468T133 431L48 437Q49 484 67 525T120 591T201 613Q231 612 253 594T294 556Q309 541 322 530T349 517Q365 516 373 528T385 560T389
599L474 593Q477 541 459 500T409 437T341 417Z" />
<glyph unicode="&#xa0;" horiz-adv-x="300" />
<glyph unicode="&#xa1;" horiz-adv-x="202" d="M104 -214H-21L49 352H174L104 -214ZM142 565Q178 563 198 542T215 489Q211 458 185 439T124 421Q89 423 70 445T54 499Q58 531 82 549T142 565Z" />
<glyph unicode="&#xa2;" horiz-adv-x="485" d="M274 506H358L288 -68H204L274 506ZM422 28Q392 9 351 -2T269 -13Q242 -13 203 -5T126 26T63 90T37 197Q37 240 52 284T97 365T173 424T282 447Q349 447 394 427T469 378L390 293Q377 306 352 319T291 332Q262 332
236 316T194 272T178 207Q178 177 192 153T232 115T294 100Q314 100 331 105T363 120L422 28Z" />
<glyph unicode="&#xa3;" horiz-adv-x="585" d="M468 418L451 278H96L113 418H468ZM196 560Q202 608 237 648T328 713T456 737Q530 737 581 708T653 627L539 555Q532 563 520 572T489 589T442 597Q410 597 388 588T352 558T335 504L302 234L299 217Q296 198 291
182T280 153T266 132L260 140H439Q461 140 473 149T488 179L492 212L618 213L608 132Q603 93 584 63T531 17T450 0H30L47 140H92Q112 140 124 144T143 163T154 213L196 560Z" />
<glyph unicode="&#xa4;" horiz-adv-x="507" d="M420 432Q428 413 431 393T432 351Q430 329 422 309T400 272L420 246L355 191Q349 197 344 204T332 217Q295 201 251 202Q229 204 211 210T176 226V226L148 203L96 265L123 288Q115 306 112 327T111 371V371Q114
393 122 412T142 447Q137 454 132 460T122 473L187 528L208 503Q228 511 248 516T290 519Q311 518 330 511T366 493V493L393 515L445 453L420 432ZM195 365Q191 334 211 310T262 283Q283 282 302 291T334 317T349 355Q353 387 333 411T281 438Q260 439 242 430T211
404T195 365V365Z" />
<glyph unicode="&#xa5;" horiz-adv-x="722" d="M187 315H576L562 202H173L187 315ZM171 177H559L545 64H157L171 177ZM298 309L79 736H258L411 434L368 431L592 736H771L443 309L405 0H260L298 309Z" />
<glyph unicode="&#xa6;" horiz-adv-x="219" d="M66 119H192L148 -238H22L66 119ZM139 714H265L221 357H95L139 714Z" />
<glyph unicode="&#xa7;" horiz-adv-x="580" d="M375 133L327 190Q377 187 415 166T474 109T487 21Q480 -39 446 -87T357 -161T235 -184Q198 -181 159 -173T82 -145T12 -94L99 22Q128 -5 152 -21T198 -45T243 -54Q267 -55 286 -49T318 -28T333 8Q336 30 323 45T286
71T234 91Q204 100 173 115T117 153T78 205T69 275Q76 332 106 364T179 409T261 415L244 364Q188 386 160 416T124 480T120 548Q126 595 152 640T231 712T364 735Q430 730 477 706T559 644L484 541Q449 577 421 591T364 608Q333 610 314 604T285 587T274 560Q272
539 286 524T325 498T380 476Q409 466 439 452T494 417T532 366T539 291Q532 235 491 190T375 133ZM395 273Q399 291 385 307T350 334T310 347Q271 352 245 338T214 303Q210 282 221 264T251 233T291 213Q314 213 336 220T375 240T395 273Z" />
<glyph unicode="&#xa8;" horiz-adv-x="378" d="M51 552Q55 584 80 603T131 621Q156 620 176 598T192 544Q188 512 164 494T114 476Q87 478 67 499T51 552V552ZM250 552Q254 584 278 603T330 621Q355 620 375 598T391 544Q387 512 362 494T313 476Q286 478 266
499T250 552V552Z" />
<glyph unicode="&#xa9;" horiz-adv-x="881" d="M607 172Q579 147 532 126T426 108Q372 113 332 144T271 222T257 324Q265 385 295 430T374 500T487 520Q519 518 559 506T620 470L551 366Q538 384 520 390T483 398Q460 399 443 388T415 359T402 320Q399 298 405
279T426 248T465 234Q487 233 511 241T555 270L607 172ZM405 -70Q326 -65 259 -32T145 56T76 182T64 336Q74 419 113 486T212 602T346 675T499 695Q579 690 645 657T759 570T828 443T840 288Q830 207 791 139T692 23T559 -50T405 -70ZM419 42Q495 37 559 68T667
159T719 296Q729 374 702 437T618 540T485 583Q409 588 344 557T236 466T183 328Q174 250 202 187T286 86T419 42Z" />
<glyph unicode="&#xaa;" horiz-adv-x="389" d="M175 427Q140 427 114 443T75 493T69 579Q75 627 96 662T147 716T210 736Q247 736 264 724T292 697L300 724H400L365 434H259L266 488L269 471Q268 471 257 460T225 438T175 427ZM220 512Q232 512 241 516T258 529T273
550L281 611Q277 630 266 640T236 651Q214 651 197 632T176 583Q174 563 178 547T194 522T220 512Z" />
<glyph unicode="&#xab;" horiz-adv-x="613" d="M149 244Q149 244 163 258T200 296T248 346T296 395T333 433T348 448L331 306Q331 306 324 297T307 275T290 254T282 244Q282 244 287 235T298 213T310 191T315 181L298 39L149 244ZM323 244Q323 244 337 258T374
296T423 346T471 395T508 433T523 448L506 307Q506 307 499 298T481 276T464 254T456 244Q456 244 461 235T473 213T485 191T490 181L473 39L323 244Z" />
<glyph unicode="&#xac;" horiz-adv-x="467" d="M64 329H431L401 91H256L268 189H46L64 329Z" />
<glyph unicode="&#xad;" horiz-adv-x="600" d="M90 290H278L263 168H75L90 290Z" />
<glyph unicode="&#xae;" horiz-adv-x="567" d="M285 230Q215 235 161 271T79 367T59 498Q68 571 110 625T214 709T347 735Q417 731 471 695T553 599T572 466Q564 395 522 340T418 256T285 230ZM294 305Q344 302 386 322T457 381T491 471Q498 523 480 564T425 631T338
660Q288 663 246 643T176 584T141 493Q135 442 153 401T208 334T294 305ZM241 611H346Q394 611 412 583T426 517Q423 489 404 465T343 441H295L285 369H211L241 611ZM319 498Q334 497 340 503T347 520Q348 529 345 539T325 551H308L302 498H319ZM377 453L402 369H319L300
456L377 453Z" />
<glyph unicode="&#xaf;" horiz-adv-x="408" d="M155 556H390L381 479H146L155 556Z" />
<glyph unicode="&#xb0;" horiz-adv-x="287" d="M23 579Q27 611 46 636T94 675T155 687Q202 684 231 649T255 565Q252 533 233 507T186 467T127 455Q78 458 48 494T23 579V579ZM136 529Q153 528 167 539T183 567Q185 584 174 597T146 612Q129 613 116 601T100 572Q98
555 108 543T136 529V529Z" />
<glyph unicode="&#xb1;" horiz-adv-x="535" d="M279 582H406L391 458H511L496 337H376L361 215H234L249 337H129L144 458H264L279 582ZM110 183H477L462 61H95L110 183Z" />
<glyph unicode="&#xb2;" horiz-adv-x="408" d="M95 623Q111 643 138 658T198 683T263 691Q334 690 373 652T405 548Q399 502 370 463T301 391T220 333T151 287L185 381H398L384 265H68L78 346Q100 356 128 372T184 410T231 457T254 509Q258 543 248 559T210 575Q188
575 162 562T123 531L95 623Z" />
<glyph unicode="&#xb3;" horiz-adv-x="375" d="M167 260Q121 260 93 277T51 311L99 392Q104 386 113 375T134 356T160 350Q186 355 202 367T222 407Q226 436 209 453T164 470Q157 470 145 468T128 462L122 474L213 600L239 580H100L113 680H371L243 476L156 503Q171
515 190 524T237 533Q260 533 287 516T334 469T348 403Q343 364 319 332T256 280T167 260Z" />
<glyph unicode="&#xb4;" horiz-adv-x="312" d="M335 624L187 489H102L180 624H335Z" />
<glyph unicode="&#xb5;" horiz-adv-x="584" d="M184 -21Q125 -21 93 16T65 112L185 189L137 -201H22L59 110L99 437H239L205 162Q204 133 214 116T256 98Q287 98 312 119T355 176T377 259L399 437H539L485 0H358L357 71Q339 44 314 23T256 -9T184 -21Z" />
<glyph unicode="&#xb6;" horiz-adv-x="592" d="M258 431Q215 431 182 451T130 505T111 581Q111 632 137 673T206 740T299 765H590L496 0H372L451 644H409L330 0H205L258 431Z" />
<glyph unicode="&#xb7;" horiz-adv-x="242" d="M58 281Q58 316 84 339T140 362Q163 362 182 343T201 296Q201 272 189 255T158 227T122 217Q97 217 78 234T58 281V281Z" />
<glyph unicode="&#xb8;" horiz-adv-x="461" d="M91 -130Q99 -143 114 -151T148 -161Q164 -162 184 -154T206 -128Q208 -117 199 -106T157 -92Q141 -91 126 -93T96 -99L85 -32L149 3H255L179 -73L158 -37Q169 -35 179 -35T200 -34Q256 -36 291 -61T321 -133Q317
-171 292 -194T229 -227T153 -235Q109 -232 83 -217T42 -183L91 -130Z" />
<glyph unicode="&#xb9;" horiz-adv-x="284" d="M82 680H280L230 265H100L135 555H67L82 680Z" />
<glyph unicode="&#xba;" horiz-adv-x="374" d="M71 591Q77 636 101 669T165 720T252 735Q301 732 334 710T382 652T392 571Q387 527 364 493T302 441T213 426Q166 429 132 450T82 507T71 591ZM178 583Q176 566 181 552T198 528T223 518Q240 517 253 524T274 546T285
577Q287 595 282 609T266 633T239 643Q224 644 211 637T190 615T178 583Z" />
<glyph unicode="&#xbb;" horiz-adv-x="613" d="M439 244Q439 244 425 258T388 296T340 346T292 395T255 433T240 448L257 306Q257 306 264 297T281 275T298 254T306 244Q306 244 301 235T290 213T278 191T273 181L290 39L439 244ZM265 244Q265 244 251 258T214
296T165 346T117 395T80 433T65 448L82 307Q82 307 89 298T107 276T124 254T132 244Q132 244 127 235T115 213T103 191T98 181L115 39L265 244Z" />
<glyph unicode="&#xbc;" horiz-adv-x="934" d="M734 770Q639 577 545 385T355 0H229Q324 193 418 385T608 770H734ZM82 680H280L230 265H100L135 555H67L82 680ZM889 182L880 104H533L535 138L784 432H872L820 10H700L734 288L765 296L633 132L621 182H889Z" />
<glyph unicode="&#xbd;" horiz-adv-x="956" d="M107 680H305L255 265H125L160 555H92L107 680ZM699 770Q604 577 510 385T320 0H194Q289 193 383 385T573 770H699ZM565 356Q581 376 608 391T668 416T733 424Q804 423 843 385T875 281Q869 235 840 196T771 124T690
66T621 20L655 114H868L854 -2H538L548 79Q570 89 598 105T654 143T701 190T724 242Q728 276 718 292T680 308Q658 308 632 295T593 264L565 356Z" />
<glyph unicode="&#xbe;" horiz-adv-x="974" d="M177 260Q131 260 103 277T61 311L109 392Q114 386 123 375T144 356T170 350Q196 355 212 367T232 407Q236 436 219 453T174 470Q167 470 155 468T138 462L132 474L223 600L249 580H110L123 680H381L253 476L166
503Q181 515 200 524T247 533Q270 533 297 516T344 469T358 403Q353 364 329 332T266 280T177 260ZM766 770Q671 577 577 385T387 0H261Q356 193 450 385T640 770H766ZM928 172L919 94H572L574 128L823 422H911L859 0H739L773 278L804 286L672 122L660 172H928Z"
/>
<glyph unicode="&#xbf;" horiz-adv-x="444" d="M337 273Q333 240 321 218T291 181T251 152T205 122Q158 90 134 55T110 -19Q110 -38 117 -53T138 -77T173 -86Q210 -86 230 -77T262 -49T288 1V1Q314 -9 340 -19T392 -40Q384 -58 370 -86T330 -142T263 -189T158
-208Q107 -208 67 -184T4 -119T-19 -29Q-19 36 14 83T105 171Q121 182 145 198T190 238T214 292L224 372H349L337 273ZM311 553Q336 553 355 536T375 489Q375 455 349 432T293 409Q270 409 251 428T232 475Q232 510 257 531T311 553V553Z" />
<glyph unicode="&#xc0;" horiz-adv-x="696" d="M124 0H-19L407 765H415L653 0H485L339 538L453 610L124 0ZM241 266H462L498 144H181L241 266ZM393 932L455 797H370L238 932H393Z" />
<glyph unicode="&#xc1;" horiz-adv-x="696" d="M124 0H-19L407 765H415L653 0H485L339 538L453 610L124 0ZM241 266H462L498 144H181L241 266ZM593 932L445 797H360L438 932H593Z" />
<glyph unicode="&#xc2;" horiz-adv-x="696" d="M124 0H-19L407 765H415L653 0H485L339 538L453 610L124 0ZM241 266H462L498 144H181L241 266ZM483 797L414 871L449 881L360 797H234L441 981H442L609 797H483Z" />
<glyph unicode="&#xc3;" horiz-adv-x="696" d="M124 0H-19L407 765H415L653 0H485L339 538L453 610L124 0ZM241 266H462L498 144H181L241 266ZM489 763Q447 765 422 784T376 823Q364 835 353 844T327 854Q311 855 301 844T286 814T281 777L196 783Q197 830 215
871T268 937T349 959Q379 958 401 940T442 902Q457 887 470 876T497 863Q513 862 521 874T533 906T537 945L622 939Q625 887 607 846T557 783T489 763Z" />
<glyph unicode="&#xc4;" horiz-adv-x="696" d="M124 0H-19L407 765H415L653 0H485L339 538L453 610L124 0ZM241 266H462L498 144H181L241 266ZM253 860Q257 892 282 911T333 929Q358 928 378 906T394 852Q390 820 366 802T316 784Q289 786 269 807T253 860V860ZM452
860Q456 892 480 911T532 929Q557 928 577 906T593 852Q589 820 564 802T515 784Q488 786 468 807T452 860V860Z" />
<glyph unicode="&#xc5;" horiz-adv-x="696" d="M124 0H-19L407 765H415L653 0H485L339 538L453 610L124 0ZM241 266H462L498 144H181L241 266ZM320 881Q325 929 360 955T444 978Q491 975 519 945T541 867Q536 820 501 793T418 769Q371 772 343 803T320 881ZM392
874Q390 855 399 844T426 831Q444 830 456 840T470 870Q472 891 463 902T436 914Q418 915 406 905T392 874Z" />
<glyph unicode="&#xc6;" horiz-adv-x="971" d="M549 736H961L944 596H677L657 437H883L866 297H640L621 140H902L885 0H459L549 736ZM543 565Q539 554 533 537T527 519L146 0H-22L549 736L543 565ZM279 276H510L496 161H220L279 276Z" />
<glyph unicode="&#xc7;" horiz-adv-x="700" d="M628 43Q616 35 586 22T513 -2T420 -13Q363 -13 302 4T187 60T101 165T68 329Q68 392 82 452T125 564T200 656T307 718T448 741Q531 741 592 716T689 663L615 530Q593 550 554 573T462 600Q408 603 364 586T287 533T238
449T220 340Q220 293 234 254T274 187T339 144T426 128Q469 128 500 137T552 158T584 177L628 43ZM331 -130Q339 -143 354 -151T388 -161Q404 -162 424 -154T446 -128Q448 -117 439 -106T397 -92Q381 -91 366 -93T336 -99L325 -32L389 3H495L419 -73L398 -37Q409
-35 419 -35T440 -34Q496 -36 531 -61T561 -133Q557 -171 532 -194T469 -227T393 -235Q349 -232 323 -217T282 -183L331 -130Z" />
<glyph unicode="&#xc8;" horiz-adv-x="667" d="M155 736H657L641 601H289L269 437H580L563 299H252L232 139H598L581 0H65L155 736ZM382 917L444 782H359L227 917H382Z" />
<glyph unicode="&#xc9;" horiz-adv-x="667" d="M155 736H657L641 601H289L269 437H580L563 299H252L232 139H598L581 0H65L155 736ZM582 917L434 782H349L427 917H582Z" />
<glyph unicode="&#xca;" horiz-adv-x="667" d="M155 736H657L641 601H289L269 437H580L563 299H252L232 139H598L581 0H65L155 736ZM472 782L403 856L438 866L349 782H223L430 966H431L598 782H472Z" />
<glyph unicode="&#xcb;" horiz-adv-x="667" d="M155 736H657L641 601H289L269 437H580L563 299H252L232 139H598L581 0H65L155 736ZM242 845Q246 877 271 896T322 914Q347 913 367 891T383 837Q379 805 355 787T305 769Q278 771 258 792T242 845V845ZM441 845Q445
877 469 896T521 914Q546 913 566 891T582 837Q578 805 553 787T504 769Q477 771 457 792T441 845V845Z" />
<glyph unicode="&#xcc;" horiz-adv-x="341" d="M155 736H305L215 0H65L155 736ZM212 917L274 782H189L57 917H212Z" />
<glyph unicode="&#xcd;" horiz-adv-x="341" d="M155 736H305L215 0H65L155 736ZM412 917L264 782H179L257 917H412Z" />
<glyph unicode="&#xce;" horiz-adv-x="341" d="M155 736H305L215 0H65L155 736ZM302 782L233 856L268 866L179 782H53L260 966H261L428 782H302Z" />
<glyph unicode="&#xcf;" horiz-adv-x="341" d="M155 736H305L215 0H65L155 736ZM72 845Q76 877 101 896T152 914Q177 913 197 891T213 837Q209 805 185 787T135 769Q108 771 88 792T72 845V845ZM271 845Q275 877 299 896T351 914Q376 913 396 891T412 837Q408
805 383 787T334 769Q307 771 287 792T271 845V845Z" />
<glyph unicode="&#xd0;" horiz-adv-x="767" d="M65 0L155 736H415Q514 736 579 703T681 615T729 492T734 355Q725 273 691 208T604 96T487 25T353 0H65ZM227 140H345Q394 140 435 154T508 197T560 267T586 365Q595 437 577 482T527 553T461 587T401 597H283L227
140ZM57 421H332L314 281H39L57 421Z" />
<glyph unicode="&#xd1;" horiz-adv-x="853" d="M723 -30H719L223 474L263 450L211 0H64L158 765H164L648 263L618 277L671 736H817L723 -30ZM554 718Q512 720 487 739T441 778Q429 790 418 799T392 809Q376 810 366 799T351 769T346 732L261 738Q262 785 280 826T333
892T414 914Q444 913 466 895T507 857Q522 842 535 831T562 818Q578 817 586 829T598 861T602 900L687 894Q690 842 672 801T622 738T554 718Z" />
<glyph unicode="&#xd2;" horiz-adv-x="852" d="M421 -7Q358 -7 296 13T182 75T99 184T68 343Q68 409 92 479T166 609T291 706T468 743Q531 743 593 723T707 661T790 552T821 393Q821 327 797 257T723 127T598 30T421 -7ZM423 133Q491 133 538 156T615 218T657
300T671 385Q671 429 656 468T612 537T546 585T462 603Q394 603 347 580T272 518T231 436T218 351Q218 308 233 269T275 199T339 151T423 133ZM448 917L510 782H425L293 917H448Z" />
<glyph unicode="&#xd3;" horiz-adv-x="852" d="M421 -7Q358 -7 296 13T182 75T99 184T68 343Q68 409 92 479T166 609T291 706T468 743Q531 743 593 723T707 661T790 552T821 393Q821 327 797 257T723 127T598 30T421 -7ZM423 133Q491 133 538 156T615 218T657
300T671 385Q671 429 656 468T612 537T546 585T462 603Q394 603 347 580T272 518T231 436T218 351Q218 308 233 269T275 199T339 151T423 133ZM648 917L500 782H415L493 917H648Z" />
<glyph unicode="&#xd4;" horiz-adv-x="852" d="M421 -7Q358 -7 296 13T182 75T99 184T68 343Q68 409 92 479T166 609T291 706T468 743Q531 743 593 723T707 661T790 552T821 393Q821 327 797 257T723 127T598 30T421 -7ZM423 133Q491 133 538 156T615 218T657
300T671 385Q671 429 656 468T612 537T546 585T462 603Q394 603 347 580T272 518T231 436T218 351Q218 308 233 269T275 199T339 151T423 133ZM538 782L469 856L504 866L415 782H289L496 966H497L664 782H538Z" />
<glyph unicode="&#xd5;" horiz-adv-x="852" d="M421 -7Q358 -7 296 13T182 75T99 184T68 343Q68 409 92 479T166 609T291 706T468 743Q531 743 593 723T707 661T790 552T821 393Q821 327 797 257T723 127T598 30T421 -7ZM423 133Q491 133 538 156T615 218T657
300T671 385Q671 429 656 468T612 537T546 585T462 603Q394 603 347 580T272 518T231 436T218 351Q218 308 233 269T275 199T339 151T423 133ZM544 748Q502 750 477 769T431 808Q419 820 408 829T382 839Q366 840 356 829T341 799T336 762L251 768Q252 815 270
856T323 922T404 944Q434 943 456 925T497 887Q512 872 525 861T552 848Q568 847 576 859T588 891T592 930L677 924Q680 872 662 831T612 768T544 748Z" />
<glyph unicode="&#xd6;" horiz-adv-x="852" d="M421 -7Q358 -7 296 13T182 75T99 184T68 343Q68 409 92 479T166 609T291 706T468 743Q531 743 593 723T707 661T790 552T821 393Q821 327 797 257T723 127T598 30T421 -7ZM423 133Q491 133 538 156T615 218T657
300T671 385Q671 429 656 468T612 537T546 585T462 603Q394 603 347 580T272 518T231 436T218 351Q218 308 233 269T275 199T339 151T423 133ZM308 845Q312 877 337 896T388 914Q413 913 433 891T449 837Q445 805 421 787T371 769Q344 771 324 792T308 845V845ZM507
845Q511 877 535 896T587 914Q612 913 632 891T648 837Q644 805 619 787T570 769Q543 771 523 792T507 845V845Z" />
<glyph unicode="&#xd7;" horiz-adv-x="528" d="M323 296Q346 317 367 336T412 376Q435 350 457 322T503 268Q483 250 461 230T418 190Q436 171 452 151T487 109L363 0Q346 20 328 39T291 79Q271 60 249 41T206 2Q181 29 158 55T111 108Q133 128 155 147T200 187L127
269L249 380L323 296Z" />
<glyph unicode="&#xd8;" horiz-adv-x="858" d="M854 675L165 -23L101 40L792 739L854 675ZM421 -7Q358 -7 296 13T182 75T99 184T68 343Q68 409 92 479T166 609T291 706T468 743Q531 743 593 723T707 661T790 552T821 393Q821 327 797 257T723 127T598 30T421
-7ZM423 133Q491 133 538 156T615 218T657 300T671 385Q671 429 656 468T612 537T546 585T462 603Q394 603 347 580T272 518T231 436T218 351Q218 308 233 269T275 199T339 151T423 133Z" />
<glyph unicode="&#xd9;" horiz-adv-x="787" d="M248 272Q244 237 259 205T306 153T378 133Q419 133 455 153T515 205T544 272L601 736H751L694 269Q684 188 636 126T516 28T361 -8V-8Q279 -8 216 27T120 125T98 269L155 736H305L248 272ZM441 917L503 782H418L286
917H441Z" />
<glyph unicode="&#xda;" horiz-adv-x="787" d="M248 272Q244 237 259 205T306 153T378 133Q419 133 455 153T515 205T544 272L601 736H751L694 269Q684 188 636 126T516 28T361 -8V-8Q279 -8 216 27T120 125T98 269L155 736H305L248 272ZM641 917L493 782H408L486
917H641Z" />
<glyph unicode="&#xdb;" horiz-adv-x="787" d="M248 272Q244 237 259 205T306 153T378 133Q419 133 455 153T515 205T544 272L601 736H751L694 269Q684 188 636 126T516 28T361 -8V-8Q279 -8 216 27T120 125T98 269L155 736H305L248 272ZM531 782L462 856L497
866L408 782H282L489 966H490L657 782H531Z" />
<glyph unicode="&#xdc;" horiz-adv-x="787" d="M248 272Q244 237 259 205T306 153T378 133Q419 133 455 153T515 205T544 272L601 736H751L694 269Q684 188 636 126T516 28T361 -8V-8Q279 -8 216 27T120 125T98 269L155 736H305L248 272ZM301 845Q305 877 330
896T381 914Q406 913 426 891T442 837Q438 805 414 787T364 769Q337 771 317 792T301 845V845ZM500 845Q504 877 528 896T580 914Q605 913 625 891T641 837Q637 805 612 787T563 769Q536 771 516 792T500 845V845Z" />
<glyph unicode="&#xdd;" horiz-adv-x="722" d="M288 229L79 736H258L401 354L358 351L592 736H771L433 229L405 0H260L288 229ZM593 923L445 788H360L438 923H593Z" />
<glyph unicode="&#xde;" horiz-adv-x="617" d="M363 616Q425 616 472 601T552 557T601 489T618 399Q618 351 603 301T553 209T463 140T327 113H228L214 0H64L152 714H302L290 616H363ZM338 254Q374 254 398 267T438 300T459 341T466 378Q466 395 459 418T431 458T366
476H272L245 254H338Z" />
<glyph unicode="&#xdf;" horiz-adv-x="638" d="M374 -7Q339 -7 303 6T252 39L311 126Q321 115 338 107T369 98Q394 98 409 113T433 151T444 195T447 231Q448 263 440 285T414 318T372 330L366 331L380 452Q396 451 407 455T426 467T437 486T441 509Q441 533 427
544T384 556Q351 556 329 540T294 494T272 419L191 0H51L114 327H49L71 441H136L143 484Q154 548 190 589T283 650T405 670Q458 670 498 653T561 602T584 519Q584 493 575 469T547 426T505 395Q531 380 549 358T577 304T587 224Q587 190 578 149T546 72T482 13T374
-7Z" />
<glyph unicode="&#xe0;" horiz-adv-x="618" d="M216 -10Q173 -11 132 14T65 87T38 203Q38 252 56 297T107 379T185 437T284 459Q328 459 355 449T400 424T429 390L420 369L442 437H572L519 0H379L390 95L398 65Q396 65 384 54T350 27T294 1T216 -10ZM295 102Q315
102 333 109T369 131T399 168L412 275Q407 297 393 312T358 336T310 345Q276 345 252 333T213 302T190 262T183 220Q183 184 197 158T236 117T295 102ZM342 657L404 522H319L187 657H342Z" />
<glyph unicode="&#xe1;" horiz-adv-x="618" d="M216 -10Q173 -11 132 14T65 87T38 203Q38 252 56 297T107 379T185 437T284 459Q328 459 355 449T400 424T429 390L420 369L442 437H572L519 0H379L390 95L398 65Q396 65 384 54T350 27T294 1T216 -10ZM295 102Q315
102 333 109T369 131T399 168L412 275Q407 297 393 312T358 336T310 345Q276 345 252 333T213 302T190 262T183 220Q183 184 197 158T236 117T295 102ZM542 657L394 522H309L387 657H542Z" />
<glyph unicode="&#xe2;" horiz-adv-x="618" d="M216 -10Q173 -11 132 14T65 87T38 203Q38 252 56 297T107 379T185 437T284 459Q328 459 355 449T400 424T429 390L420 369L442 437H572L519 0H379L390 95L398 65Q396 65 384 54T350 27T294 1T216 -10ZM295 102Q315
102 333 109T369 131T399 168L412 275Q407 297 393 312T358 336T310 345Q276 345 252 333T213 302T190 262T183 220Q183 184 197 158T236 117T295 102ZM432 522L363 596L398 606L309 522H183L390 706H391L558 522H432Z" />
<glyph unicode="&#xe3;" horiz-adv-x="618" d="M216 -10Q173 -11 132 14T65 87T38 203Q38 252 56 297T107 379T185 437T284 459Q328 459 355 449T400 424T429 390L420 369L442 437H572L519 0H379L390 95L398 65Q396 65 384 54T350 27T294 1T216 -10ZM295 102Q315
102 333 109T369 131T399 168L412 275Q407 297 393 312T358 336T310 345Q276 345 252 333T213 302T190 262T183 220Q183 184 197 158T236 117T295 102ZM438 488Q396 490 371 509T325 548Q313 560 302 569T276 579Q260 580 250 569T235 539T230 502L145 508Q146
555 164 596T217 662T298 684Q328 683 350 665T391 627Q406 612 419 601T446 588Q462 587 470 599T482 631T486 670L571 664Q574 612 556 571T506 508T438 488Z" />
<glyph unicode="&#xe4;" horiz-adv-x="618" d="M216 -10Q173 -11 132 14T65 87T38 203Q38 252 56 297T107 379T185 437T284 459Q328 459 355 449T400 424T429 390L420 369L442 437H572L519 0H379L390 95L398 65Q396 65 384 54T350 27T294 1T216 -10ZM295 102Q315
102 333 109T369 131T399 168L412 275Q407 297 393 312T358 336T310 345Q276 345 252 333T213 302T190 262T183 220Q183 184 197 158T236 117T295 102ZM202 585Q206 617 231 636T282 654Q307 653 327 631T343 577Q339 545 315 527T265 509Q238 511 218 532T202
585V585ZM401 585Q405 617 429 636T481 654Q506 653 526 631T542 577Q538 545 513 527T464 509Q437 511 417 532T401 585V585Z" />
<glyph unicode="&#xe5;" horiz-adv-x="618" d="M216 -10Q173 -11 132 14T65 87T38 203Q38 252 56 297T107 379T185 437T284 459Q328 459 355 449T400 424T429 390L420 369L442 437H572L519 0H379L390 95L398 65Q396 65 384 54T350 27T294 1T216 -10ZM295 102Q315
102 333 109T369 131T399 168L412 275Q407 297 393 312T358 336T310 345Q276 345 252 333T213 302T190 262T183 220Q183 184 197 158T236 117T295 102ZM269 606Q274 654 309 680T393 703Q440 700 468 670T490 592Q485 545 450 518T367 494Q320 497 292 528T269
606ZM341 599Q339 580 348 569T375 556Q393 555 405 565T419 595Q421 616 412 627T385 639Q367 640 355 630T341 599Z" />
<glyph unicode="&#xe6;" horiz-adv-x="836" d="M555 -12Q537 -12 506 -8T440 9T376 50T332 123T324 238Q332 302 369 351T465 429T590 458Q619 458 654 451T723 420T780 351T809 231L416 176L411 250L691 290L661 278Q655 307 641 322T608 343T570 349Q542 349
520 336T483 297T463 237Q457 192 469 166T501 127T540 111T569 107Q590 107 610 113T651 130L700 23Q666 7 628 -2T555 -12ZM195 -11Q159 -11 120 3T54 46T27 121Q27 151 45 184T106 241T221 264Q249 264 270 262T308 256T343 243T381 220L349 141Q331 153 313
159T277 168T244 171Q205 171 194 155T182 125Q182 109 191 100T214 87T244 83Q270 85 296 98T336 127L341 165L393 162L380 62Q358 38 330 22T268 -2T195 -11ZM309 223L313 259Q317 289 309 306T285 332T254 342T226 345Q191 345 163 326T118 288L59 380Q95 412
145 435T259 458Q273 458 298 455T352 443T405 415T444 366T452 289L449 269L309 223Z" />
<glyph unicode="&#xe7;" horiz-adv-x="468" d="M370 127Q387 105 400 84T430 39Q398 16 359 2T277 -12Q217 -12 170 16T96 92T69 196Q69 247 90 293T149 374T234 429T334 449Q378 449 414 435T478 398Q457 376 436 355T393 311Q380 322 362 328T320 335Q281 335
251 318T203 272T186 206Q186 177 198 154T234 116T291 102Q314 102 334 108T370 127V127ZM285 -8Q283 -28 289 -37T304 -50T321 -62Q335 -75 342 -92T349 -133Q349 -164 334 -196T289 -249T213 -271Q175 -271 145 -250T104 -184Q121 -175 139 -166T174 -148Q176
-161 186 -170T213 -180Q237 -180 248 -164T259 -128Q259 -113 251 -105T231 -89T213 -66T209 -25L212 0H286L285 -8Z" />
<glyph unicode="&#xe8;" horiz-adv-x="555" d="M293 107Q313 107 331 114T369 131L418 23Q385 7 349 -2T278 -11Q206 -11 153 13T69 88T39 215Q39 254 53 296T98 374T178 434T298 457Q336 457 373 448T442 414T496 345T528 231L176 144L154 222L428 293L379 278Q371
312 348 330T293 348Q252 348 227 331T191 287T179 231Q179 181 197 154T242 117T293 107ZM286 667L348 532H263L131 667H286Z" />
<glyph unicode="&#xe9;" horiz-adv-x="451" d="M293 107Q313 107 331 114T369 131L418 23Q385 7 349 -2T278 -11Q206 -11 153 13T69 88T39 215Q39 254 53 296T98 374T178 434T298 457Q336 457 373 448T442 414T496 345T528 231L176 144L154 222L428 293L379 278Q371
312 348 330T293 348Q252 348 227 331T191 287T179 231Q179 181 197 154T242 117T293 107ZM418 624L270 489H185L263 624H418Z" />
<glyph unicode="&#xea;" horiz-adv-x="555" d="M293 107Q313 107 331 114T369 131L418 23Q385 7 349 -2T278 -11Q206 -11 153 13T69 88T39 215Q39 254 53 296T98 374T178 434T298 457Q336 457 373 448T442 414T496 345T528 231L176 144L154 222L428 293L379 278Q371
312 348 330T293 348Q252 348 227 331T191 287T179 231Q179 181 197 154T242 117T293 107ZM376 532L307 606L342 616L253 532H127L334 716H335L502 532H376Z" />
<glyph unicode="&#xeb;" horiz-adv-x="555" d="M293 107Q313 107 331 114T369 131L418 23Q385 7 349 -2T278 -11Q206 -11 153 13T69 88T39 215Q39 254 53 296T98 374T178 434T298 457Q336 457 373 448T442 414T496 345T528 231L176 144L154 222L428 293L379 278Q371
312 348 330T293 348Q252 348 227 331T191 287T179 231Q179 181 197 154T242 117T293 107ZM146 595Q150 627 175 646T226 664Q251 663 271 641T287 587Q283 555 259 537T209 519Q182 521 162 542T146 595V595ZM345 595Q349 627 373 646T425 664Q450 663 470 641T486
587Q482 555 457 537T408 519Q381 521 361 542T345 595V595Z" />
<glyph unicode="&#xec;" horiz-adv-x="284" d="M99 437H239L185 0H45L99 437ZM406 624L468 489H383L251 624H406Z" />
<glyph unicode="&#xed;" horiz-adv-x="284" d="M99 437H239L185 0H45L99 437ZM606 624L458 489H373L451 624H606Z" />
<glyph unicode="&#xee;" horiz-adv-x="284" d="M99 437H239L185 0H45L99 437ZM496 489L427 563L462 573L373 489H247L454 673H455L622 489H496Z" />
<glyph unicode="&#xef;" horiz-adv-x="284" d="M99 437H239L185 0H45L99 437ZM266 552Q270 584 295 603T346 621Q371 620 391 598T407 544Q403 512 379 494T329 476Q302 478 282 499T266 552V552ZM465 552Q469 584 493 603T545 621Q570 620 590 598T606 544Q602
512 577 494T528 476Q501 478 481 499T465 552V552Z" />
<glyph unicode="&#xf0;" horiz-adv-x="571" d="M266 -11Q248 -11 219 -6T158 13T99 56T55 129T41 241Q43 278 57 316T100 387T168 440T262 460Q297 460 332 446T394 401T435 325T441 215L392 248Q402 331 395 394T365 508T303 606T210 704L325 790Q385 739 426
683T493 567T531 448T543 332Q543 273 529 213T481 102T396 20T266 -11ZM278 103Q300 104 319 112T352 136T376 172T388 217Q393 258 383 283T354 321T317 339T286 344Q255 344 234 330T200 294T181 250T175 210Q175 166 193 143T236 112T278 103ZM542 654L245
501L211 597L508 749L542 654Z" />
<glyph unicode="&#xf1;" horiz-adv-x="595" d="M226 437L229 350L224 366Q252 407 298 432T406 458Q468 458 504 422T536 327L496 0H356L390 275Q392 304 380 321T333 339Q301 339 275 318T231 261T208 178L186 0H46L99 437H226ZM414 518Q372 520 347 539T301
578Q289 590 278 599T252 609Q236 610 226 599T211 569T206 532L121 538Q122 585 140 626T193 692T274 714Q304 713 326 695T367 657Q382 642 395 631T422 618Q438 617 446 629T458 661T462 700L547 694Q550 642 532 601T482 538T414 518Z" />
<glyph unicode="&#xf2;" horiz-adv-x="573" d="M279 -12Q240 -12 198 0T120 39T61 106T38 204Q38 244 51 288T95 370T175 433T297 457Q356 457 410 433T500 360T536 241Q536 216 529 183T505 115T459 53T386 6T279 -12ZM283 103Q326 103 350 125T384 178T394 235Q394
270 383 291T354 324T320 339T292 343Q251 343 226 322T190 269T179 211Q179 166 197 143T240 112T283 103ZM283 637L345 502H260L128 637H283Z" />
<glyph unicode="&#xf3;" horiz-adv-x="573" d="M279 -12Q240 -12 198 0T120 39T61 106T38 204Q38 244 51 288T95 370T175 433T297 457Q356 457 410 433T500 360T536 241Q536 216 529 183T505 115T459 53T386 6T279 -12ZM283 103Q326 103 350 125T384 178T394 235Q394
270 383 291T354 324T320 339T292 343Q251 343 226 322T190 269T179 211Q179 166 197 143T240 112T283 103ZM483 637L335 502H250L328 637H483Z" />
<glyph unicode="&#xf4;" horiz-adv-x="573" d="M279 -12Q240 -12 198 0T120 39T61 106T38 204Q38 244 51 288T95 370T175 433T297 457Q356 457 410 433T500 360T536 241Q536 216 529 183T505 115T459 53T386 6T279 -12ZM283 103Q326 103 350 125T384 178T394 235Q394
270 383 291T354 324T320 339T292 343Q251 343 226 322T190 269T179 211Q179 166 197 143T240 112T283 103ZM373 502L304 576L339 586L250 502H124L331 686H332L499 502H373Z" />
<glyph unicode="&#xf5;" horiz-adv-x="573" d="M279 -12Q240 -12 198 0T120 39T61 106T38 204Q38 244 51 288T95 370T175 433T297 457Q356 457 410 433T500 360T536 241Q536 216 529 183T505 115T459 53T386 6T279 -12ZM283 103Q326 103 350 125T384 178T394 235Q394
270 383 291T354 324T320 339T292 343Q251 343 226 322T190 269T179 211Q179 166 197 143T240 112T283 103ZM635 468Q593 470 568 489T522 528Q510 540 499 549T473 559Q457 560 447 549T432 519T427 482L342 488Q343 535 361 576T414 642T495 664Q525 663 547
645T588 607Q603 592 616 581T643 568Q659 567 667 579T679 611T683 650L768 644Q771 592 753 551T703 488T635 468Z" />
<glyph unicode="&#xf6;" horiz-adv-x="573" d="M279 -12Q240 -12 198 0T120 39T61 106T38 204Q38 244 51 288T95 370T175 433T297 457Q356 457 410 433T500 360T536 241Q536 216 529 183T505 115T459 53T386 6T279 -12ZM283 103Q326 103 350 125T384 178T394 235Q394
270 383 291T354 324T320 339T292 343Q251 343 226 322T190 269T179 211Q179 166 197 143T240 112T283 103ZM143 565Q147 597 172 616T223 634Q248 633 268 611T284 557Q280 525 256 507T206 489Q179 491 159 512T143 565V565ZM342 565Q346 597 370 616T422 634Q447
633 467 611T483 557Q479 525 454 507T405 489Q378 491 358 512T342 565V565Z" />
<glyph unicode="&#xf7;" horiz-adv-x="510" d="M198 106Q198 141 224 164T279 187Q302 187 321 168T341 121Q341 97 329 79T298 52T262 42Q237 42 218 59T198 106V106ZM237 421Q237 456 263 479T318 502Q341 502 360 483T380 436Q380 400 354 379T300 357Q275
357 256 374T237 421V421ZM110 329H477L462 208H95L110 329Z" />
<glyph unicode="&#xf8;" horiz-adv-x="546" d="M555 426Q544 415 516 387T449 321T366 238T278 151T195 69T128 2T89 -37L38 14Q49 25 76 52T142 118T225 200T313 287T395 369T461 435T500 474L555 426ZM279 -12Q240 -12 198 0T120 39T61 106T38 204Q38 244 51
288T95 370T175 433T297 457Q356 457 410 433T500 360T536 241Q536 216 529 183T505 115T459 53T386 6T279 -12ZM283 103Q326 103 350 125T384 178T394 235Q394 270 383 291T354 324T320 339T292 343Q251 343 226 322T190 269T179 211Q179 166 197 143T240 112T283
103Z" />
<glyph unicode="&#xf9;" horiz-adv-x="584" d="M184 -21Q125 -21 90 15T59 110L99 437H239L205 162Q204 133 214 116T256 98Q287 98 312 119T355 176T377 259L399 437H539L485 0H358L357 87L360 71Q342 44 316 23T256 -9T184 -21ZM312 687L374 552H289L157 687H312Z" />
<glyph unicode="&#xfa;" horiz-adv-x="584" d="M184 -21Q125 -21 90 15T59 110L99 437H239L205 162Q204 133 214 116T256 98Q287 98 312 119T355 176T377 259L399 437H539L485 0H358L357 87L360 71Q342 44 316 23T256 -9T184 -21ZM512 624L364 489H279L357 624H512Z" />
<glyph unicode="&#xfb;" horiz-adv-x="584" d="M184 -21Q125 -21 90 15T59 110L99 437H239L205 162Q204 133 214 116T256 98Q287 98 312 119T355 176T377 259L399 437H539L485 0H358L357 87L360 71Q342 44 316 23T256 -9T184 -21ZM402 552L333 626L368 636L279
552H153L360 736H361L528 552H402Z" />
<glyph unicode="&#xfc;" horiz-adv-x="584" d="M184 -21Q125 -21 90 15T59 110L99 437H239L205 162Q204 133 214 116T256 98Q287 98 312 119T355 176T377 259L399 437H539L485 0H358L357 87L360 71Q342 44 316 23T256 -9T184 -21ZM172 615Q176 647 201 666T252
684Q277 683 297 661T313 607Q309 575 285 557T235 539Q208 541 188 562T172 615V615ZM371 615Q375 647 399 666T451 684Q476 683 496 661T512 607Q508 575 483 557T434 539Q407 541 387 562T371 615V615Z" />
<glyph unicode="&#xfd;" horiz-adv-x="572" d="M67 -210L438 437H564L202 -210H67ZM210 -2L50 437H207L326 68L210 -2ZM476 624L328 489H243L321 624H476Z" />
<glyph unicode="&#xfe;" horiz-adv-x="583" d="M259 789L208 375V399Q218 407 237 418T285 439T348 449Q409 449 453 426T522 358T546 250Q546 164 512 106T419 18T285 -12Q240 -12 208 2T164 29L166 33L136 -210H19L142 789H259ZM418 236Q418 265 408 287T376
322T322 335Q284 335 254 318T206 272T188 206Q188 177 200 153T237 116T293 102Q333 102 361 119T403 167T418 236Z" />
<glyph unicode="&#xff;" horiz-adv-x="488" d="M67 -210L438 437H564L202 -210H67ZM210 -2L50 437H207L326 68L210 -2ZM122 552Q126 584 151 603T202 621Q227 620 247 598T263 544Q259 512 235 494T185 476Q158 478 138 499T122 552V552ZM321 552Q325 584 349
603T401 621Q426 620 446 598T462 544Q458 512 433 494T384 476Q357 478 337 499T321 552V552Z" />
<glyph unicode="&#x2013;" horiz-adv-x="519" d="M137 286H444L429 165H122L137 286Z" />
<glyph unicode="&#x2014;" horiz-adv-x="714" d="M136 286H648L633 165H121L136 286Z" />
<glyph unicode="&#x2018;" horiz-adv-x="167" d="M206 602Q190 595 174 588T140 574Q116 603 109 642T115 725Q133 724 151 722T186 718Q175 683 181 653T206 602V602Z" />
<glyph unicode="&#x2019;" horiz-adv-x="167" d="M154 574Q140 581 126 588T96 602Q120 622 133 652T144 718Q161 720 180 722T217 725Q220 682 203 643T154 574V574Z" />
<glyph unicode="&#x201a;" horiz-adv-x="149" d="M74 -58Q59 -50 45 -44T15 -30Q39 -9 52 21T63 87Q81 89 99 91T136 94Q139 51 122 11T74 -58V-58Z" />
<glyph unicode="&#x201c;" horiz-adv-x="253" d="M211 602Q195 595 179 588T145 574Q121 603 114 642T120 725Q138 724 156 722T191 718Q180 683 186 653T211 602V602ZM317 602Q301 595 285 588T251 574Q227 603 220 642T226 725Q244 724 262 722T297 718Q286
683 292 653T317 602V602Z" />
<glyph unicode="&#x201d;" horiz-adv-x="253" d="M124 574Q110 581 96 588T66 602Q90 622 103 652T114 718Q131 720 150 722T187 725Q190 682 173 643T124 574V574ZM230 574Q216 581 202 588T172 602Q196 622 209 652T220 718Q237 720 256 722T293 725Q296 682
279 643T230 574V574Z" />
<glyph unicode="&#x201e;" horiz-adv-x="410" d="M74 -58Q59 -50 45 -44T15 -30Q39 -9 52 21T63 87Q81 89 99 91T136 94Q139 51 122 11T74 -58V-58ZM180 -58Q165 -50 151 -44T121 -30Q145 -9 158 21T169 87Q187 89 205 91T242 94Q245 51 228 11T180 -58V-58Z" />
<glyph unicode="&#x2022;" horiz-adv-x="488" d="M116 289Q116 339 142 381T210 448T302 473Q345 473 378 453T430 399T449 323Q449 273 423 232T354 166T261 142Q219 142 187 161T135 214T116 289V289Z" />
<glyph unicode="&#x2039;" horiz-adv-x="399" d="M149 244Q149 244 163 258T200 296T248 346T296 395T333 433T348 448L331 306Q331 306 324 297T307 275T290 254T282 244Q282 244 287 235T298 213T310 191T315 181L298 39L149 244Z" />
<glyph unicode="&#x203a;" horiz-adv-x="400" d="M264 244Q264 244 250 258T213 296T165 346T117 395T80 433T65 448L82 306Q82 306 89 297T106 275T123 254T131 244Q131 244 126 235T115 213T103 191T98 181L115 39L264 244Z" />
</font>
</defs>
</svg>
