<?xml version="1.0" standalone="no"?>
<!DOCTYPE svg PUBLIC "-//W3C//DTD SVG 1.1//EN" "http://www.w3.org/Graphics/SVG/1.1/DTD/svg11.dtd">
<svg xmlns="http://www.w3.org/2000/svg">
<defs >
<font id="JosefinSans" horiz-adv-x="547" ><font-face
    font-family="Josefin Sans Thin Medium"
    units-per-em="1000"
    panose-1="0 0 0 0 0 0 0 0 0 0"
    ascent="750"
    descent="-250"
    alphabetic="0" />
<glyph unicode=" " horiz-adv-x="318" />
<glyph unicode="!" horiz-adv-x="202" d="M53 761H145V189H53V761ZM102 0Q74 0 56 16T37 57Q37 82 55 98T102 115Q129 115 146 99T164 57Q164 32 147 16T102 0Z" />
<glyph unicode="&quot;" horiz-adv-x="344" d="M155 730Q154 667 153 605T151 478H64V730H155ZM290 730Q289 667 288 605T286 478H199V730H290Z" />
<glyph unicode="#" horiz-adv-x="579" d="M265 652Q258 604 253 557T240 462H334Q340 510 346 557T358 652H451Q445 604 440 557T427 462H526Q524 440 523 418T518 372H417Q415 349 412 325T406 276H506Q503 254 500 232T495 186H395Q390 139 385 93T373 0H280Q285
47 291 93T302 186H209Q204 139 198 93T187 0H93Q99 47 104 93T115 186H25Q28 209 30 231T36 276H126Q129 301 132 325T138 372H48Q51 395 53 417T57 462H148Q154 510 159 557T171 652H265ZM231 372Q228 349 225 325T219 276H313Q316 301 318 325T324 372H231Z"
/>
<glyph unicode="$" horiz-adv-x="567" d="M254 -68V369L278 404V792H342V388L318 342V-68H254ZM480 587Q442 607 398 621T313 635Q257 635 224 610T191 540Q191 509 213 486T270 446T344 414Q377 402 409 386T468 345T510 286T526 199Q526 141 498 94T416 20T286
-8Q240 -8 197 2T115 30T45 69L93 152Q117 135 148 120T212 95T276 86Q309 86 341 97T394 133T415 198Q415 232 397 255T348 296T282 326Q248 339 213 355T148 393T100 449T81 532Q81 590 108 633T185 702T298 730Q371 730 425 712T521 669L480 587Z" />
<glyph unicode="%" horiz-adv-x="786" d="M203 272Q155 272 123 294T74 356T57 447Q57 498 73 537T122 599T203 621Q251 621 283 599T332 538T349 447Q349 396 332 357T283 295T203 272ZM147 447Q147 400 161 373T203 345Q231 345 244 372T258 447Q258 497 245
522T203 548Q175 548 161 524T147 447ZM587 -18Q539 -18 507 4T458 65T441 156Q441 208 457 247T506 308T587 331Q635 331 667 309T716 247T733 156Q733 105 717 66T668 4T587 -18ZM531 156Q531 109 545 82T587 54Q615 54 628 81T642 156Q642 207 629 232T587 257Q559
257 545 233T531 156ZM668 622L237 -2L136 0L565 622H668Z" />
<glyph unicode="&amp;" horiz-adv-x="728" d="M681 0Q671 0 651 0T610 0T573 0T557 0L215 454Q206 468 194 489T172 537T163 593Q163 635 183 672T244 734T343 759Q405 759 453 735T531 676L478 605Q447 634 418 651T360 669Q318 669 296 644T273 584Q273 567
280 549T295 517T305 500L681 0ZM307 345Q280 345 254 335T208 306T177 263T165 211Q165 173 184 145T237 101T309 85Q346 85 373 96T420 126T450 168L518 109Q492 59 436 25T295 -10Q227 -10 173 18T86 95T54 206Q54 253 75 293T133 363T213 410T305 429L307 345ZM551
429H649L530 126L453 174L551 429Z" />
<glyph unicode="&apos;" horiz-adv-x="167" d="M132 730Q131 667 130 605T128 478H40V730H132Z" />
<glyph unicode="(" horiz-adv-x="404" d="M96 295Q96 396 120 484T183 642T263 756L345 712Q306 668 274 606T223 466T203 295Q203 202 222 124T274 -15T345 -122L263 -166Q221 -121 183 -52T121 105T96 295V295Z" />
<glyph unicode=")" horiz-adv-x="406" d="M317 295Q317 194 293 106T231 -52T150 -166L68 -122Q107 -78 139 -16T190 124T210 295Q210 388 191 466T139 605T68 711L150 756Q193 711 230 642T292 484T317 295V295Z" />
<glyph unicode="*" horiz-adv-x="335" d="M137 521Q118 510 99 499T61 477Q54 491 46 505T29 534Q49 544 67 555T105 576Q87 587 68 598T30 621Q37 634 44 647T59 674Q79 663 98 652T137 629V720H202Q201 697 201 675T200 629Q220 640 239 651T279 673Q286 660
293 647T309 620Q289 609 270 598T230 575V575Q250 564 269 553T307 531Q300 517 292 503T275 475Q256 486 237 497T199 520Q199 499 199 478T198 434H137V521Z" />
<glyph unicode="+" horiz-adv-x="551" d="M223 417H317V279H452V189H317V52H223V189H88V279H223V417Z" />
<glyph unicode="," horiz-adv-x="203" d="M170 88Q148 35 127 -17T83 -122H0Q20 -69 39 -17T78 88H170Z" />
<glyph unicode="-" horiz-adv-x="304" d="M54 263H240V173H54V263Z" />
<glyph unicode="." horiz-adv-x="169" d="M30 57Q30 81 47 97T87 114Q107 114 124 98T142 57Q142 31 125 16T87 0Q65 0 48 15T30 57V57Z" />
<glyph unicode="/" horiz-adv-x="392" d="M392 747Q322 555 252 364T110 -19H17Q88 173 158 364T299 747H392Z" />
<glyph unicode="0" horiz-adv-x="624" d="M312 -3Q252 -3 202 19T114 85T56 190T35 332Q35 418 55 481T111 585T199 646T312 666Q373 666 423 644T511 579T568 474T589 332Q589 251 569 189T511 84T423 19T312 -3ZM311 100Q368 100 405 129T460 212T478 335Q478
402 460 453T405 534T311 563Q256 564 219 535T164 453T146 332Q146 265 164 212T219 130T311 100Z" />
<glyph unicode="1" horiz-adv-x="332" d="M52 659H230V0H123V556H52V659Z" />
<glyph unicode="2" horiz-adv-x="553" d="M54 0Q116 63 174 122T278 237T351 345T378 446Q378 476 369 498T342 535T304 557T259 565Q228 565 206 555T171 530T150 496T143 460Q143 427 153 401T182 356L117 296Q92 311 75 339T48 400T39 457Q39 512 66 559T147
637T277 667Q341 667 388 638T462 561T489 455Q489 406 470 359T420 267T350 177T273 87L225 103H508V0H54Z" />
<glyph unicode="3" horiz-adv-x="524" d="M441 659L270 375L208 405Q221 412 235 415T265 418Q302 419 337 410T400 377T444 315T461 219Q461 149 429 98T344 20T227 -8Q180 -8 131 11T50 64L105 152Q123 130 156 113T225 95Q259 95 287 110T333 155T351 226Q351
280 320 311T232 343Q203 343 184 339T150 330L146 333L294 570L326 557H92V659H441Z" />
<glyph unicode="4" horiz-adv-x="539" d="M12 156V157L418 667H419V238H503V156H419V0H312V156H12ZM318 428L168 233L153 238H312V444L318 428Z" />
<glyph unicode="5" horiz-adv-x="522" d="M244 -8Q190 -8 140 12T60 61L116 145Q136 122 169 108T235 94Q270 94 296 109T338 151T354 213Q354 251 340 280T298 327T230 344Q196 344 167 335T103 306H102V659H420V557H195V401L181 423Q198 428 217 431T255 434Q323
434 369 404T440 325T464 217Q464 154 436 103T357 22T244 -8Z" />
<glyph unicode="6" horiz-adv-x="548" d="M276 -8Q209 -8 155 24T68 116T36 259Q36 323 61 381T128 490T224 586T336 667L407 589Q326 551 272 501T189 399T156 301L129 305Q156 362 199 393T312 425Q362 425 407 398T481 323T509 214Q509 146 476 96T390 19T276
-8ZM272 88Q308 88 336 103T382 147T399 214Q399 251 382 278T336 320T272 335Q237 335 209 321T163 282T146 227V209Q146 177 162 149T208 105T272 88Z" />
<glyph unicode="7" horiz-adv-x="492" d="M467 659L207 0H87L318 571L354 557H33V659H467Z" />
<glyph unicode="8" horiz-adv-x="525" d="M25 209Q25 260 44 297T93 359T151 397Q123 417 105 444T86 515Q86 560 109 594T172 647T262 667Q312 667 352 648T415 595T439 520Q439 473 420 446T372 397Q402 383 431 358T480 296T499 209Q499 152 468 103T383 23T261
-8Q193 -8 140 22T56 102T25 209V209ZM134 213Q134 178 151 148T197 100T261 82Q297 82 327 100T375 148T393 213Q393 249 376 278T330 325T266 344Q231 345 201 328T153 280T134 213V213ZM189 502Q189 474 212 454T264 433Q293 433 315 453T337 502Q337 535 316
556T264 578Q235 578 212 557T189 502V502Z" />
<glyph unicode="9" horiz-adv-x="539" d="M233 214Q183 214 138 241T65 316T36 424Q36 497 69 549T155 629T269 658Q337 658 391 628T477 545T509 424Q509 345 480 281T403 164T297 68T181 -14L110 64Q193 105 254 151T349 245T389 334L418 333Q389 276 348 245T233
214ZM273 304Q328 304 364 336T400 419V439Q399 473 382 500T337 545T273 562Q238 562 209 546T164 501T147 431Q147 393 164 364T209 320T273 304Z" />
<glyph unicode=":" horiz-adv-x="178" d="M30 331Q30 356 47 372T86 389Q106 389 124 373T142 332Q142 306 124 291T86 275Q65 275 48 290T30 331V331ZM30 57Q30 81 47 97T86 114Q106 114 124 98T142 57Q142 31 124 16T86 0Q65 0 48 15T30 57V57Z" />
<glyph unicode=";" horiz-adv-x="204" d="M62 310Q62 334 80 351T119 368Q139 368 156 351T174 310Q174 284 157 269T119 253Q98 253 80 269T62 310V310ZM156 88Q134 35 112 -17T68 -122H-15Q5 -69 24 -17T63 88H156Z" />
<glyph unicode="&lt;" horiz-adv-x="592" d="M498 385L252 241L498 97V-14L55 241L498 497V385Z" />
<glyph unicode="=" horiz-adv-x="718" d="M102 396H614V306H102V396ZM102 199H614V109H102V199Z" />
<glyph unicode="&gt;" horiz-adv-x="583" d="M90 98L337 241L90 385V497L533 241L90 -14V-14V98Z" />
<glyph unicode="?" horiz-adv-x="460" d="M162 187V248Q162 298 175 328T208 379T250 419Q281 445 303 472T325 545Q325 576 311 598T273 634T224 647Q192 647 168 633T127 596T101 546L16 585Q23 606 39 633T81 685T146 726T234 743Q291 743 336 722T407 658T434
554Q434 505 420 472T385 415T338 369Q319 351 302 333T274 290T264 225V187H162ZM214 0Q186 0 168 16T150 57Q150 82 168 98T214 115Q241 115 259 99T277 57Q277 32 260 16T214 0Z" />
<glyph unicode="@" horiz-adv-x="1034" d="M442 -220Q360 -220 288 -197T160 -125T74 -5T43 164Q43 227 62 294T123 425T229 540T386 621T599 652Q692 652 764 625T887 549T964 436T991 296Q991 235 973 180T921 83T842 17T741 -8Q700 -8 671 11T628 66T622 147L640
100Q624 74 594 49T526 7T447 -10Q392 -10 349 13T281 80T257 184Q257 254 288 311T373 403T499 437Q543 437 572 425T620 394T650 352L667 419H765L727 150Q725 132 727 117T739 94T766 86Q789 86 812 101T854 146T884 213T895 296Q895 372 860 434T755 533T584
571Q477 571 401 542T273 466T192 364T149 258T136 168Q136 88 160 30T228 -65T330 -121T457 -140Q516 -140 572 -122T678 -72L720 -132Q681 -162 634 -181T537 -210T442 -220ZM487 74Q518 74 544 86T591 120T624 172L636 259Q632 287 616 307T574 340T515 352Q474
352 440 331T386 274T366 197Q366 163 381 135T423 91T487 74Z" />
<glyph unicode="A" horiz-adv-x="700" d="M28 0L347 755H353L672 0H550L318 588L395 639L133 0H28ZM222 272H480L517 180H190L222 272Z" />
<glyph unicode="B" horiz-adv-x="624" d="M295 726Q405 726 468 681T532 543Q532 483 505 440T429 374T314 347L298 404Q375 402 435 378T531 310T567 206Q567 151 547 112T492 48T414 12T323 0H102V726H295ZM314 412Q370 412 396 444T422 520Q422 574 389 598T300
623H209V412H314ZM318 99Q357 99 388 110T438 145T457 205Q457 245 436 267T381 299T311 309H209V99H318Z" />
<glyph unicode="C" horiz-adv-x="695" d="M637 55Q621 44 590 29T516 2T422 -8Q337 -7 270 22T155 101T83 217T57 357Q57 439 83 507T157 627T271 706T415 734Q482 734 536 716T627 674L585 574Q556 594 514 612T419 631Q368 631 323 611T243 554T188 469T168
363Q168 305 186 256T237 171T318 115T424 95Q480 95 522 112T592 151L637 55Z" />
<glyph unicode="D" horiz-adv-x="757" d="M102 0V726H304Q412 726 488 693T610 606T678 486T700 353Q700 272 671 207T592 96T477 25T339 0H102ZM209 103H319Q378 103 427 120T513 170T570 251T590 361Q590 428 568 477T508 559T426 607T333 623H209V103Z" />
<glyph unicode="E" horiz-adv-x="655" d="M102 726H579V623H209V416H538V313H209V103H593V0H102V726Z" />
<glyph unicode="F" horiz-adv-x="591" d="M102 726H537V623H209V405H496V303H209V0H102V726Z" />
<glyph unicode="G" horiz-adv-x="754" d="M675 64Q660 51 633 38T573 15T504 -1T438 -8Q350 -8 280 19T160 94T84 206T57 347Q57 440 87 512T168 633T287 708T429 734Q494 734 549 719T645 680L610 582Q590 593 561 603T500 620T443 626Q379 626 329 608T242 554T187
469T167 356Q167 299 187 252T243 170T329 117T440 98Q475 98 509 105T567 125V257H427V360H675V64Z" />
<glyph unicode="H" horiz-adv-x="786" d="M684 726V0H577V313H209V0H102V726H209V415H577V726H684Z" />
<glyph unicode="I" horiz-adv-x="311" d="M102 726H209V0H102V726Z" />
<glyph unicode="J" horiz-adv-x="372" d="M270 136Q270 47 236 -16T141 -113T3 -150V-150V-46Q73 -42 118 2T163 139V726H270V136Z" />
<glyph unicode="K" horiz-adv-x="684" d="M210 440L207 404L222 425L506 726H644L344 411L658 0H523L266 344L210 289V0H102V726H210V440Z" />
<glyph unicode="L" horiz-adv-x="626" d="M102 726H209V103H572V0H102V726Z" />
<glyph unicode="M" horiz-adv-x="931" d="M102 0V750H103L489 203L443 213L827 750H829V0H723V509L730 454L462 75H460L187 454L205 504V0H102Z" />
<glyph unicode="N" horiz-adv-x="841" d="M735 -25L176 530L207 520L210 0H102V749H107L659 193L634 200L632 726H738V-25H735Z" />
<glyph unicode="O" horiz-adv-x="856" d="M57 362Q57 437 85 504T165 623T283 704T427 734Q503 734 570 705T689 623T770 504T799 362Q799 285 770 218T690 100T571 21T427 -8Q350 -8 283 20T165 98T86 216T57 362ZM167 362Q167 306 187 258T244 173T327 116T430
95Q484 95 531 115T613 172T669 257T689 362Q689 418 669 466T613 552T530 610T428 631Q372 631 325 610T242 552T187 466T167 362Z" />
<glyph unicode="P" horiz-adv-x="603" d="M302 726Q383 726 440 699T528 620T559 496Q559 453 546 411T505 335T429 280T315 259H209V0H102V726H302ZM315 362Q355 362 382 375T424 410T446 453T453 494Q453 514 447 536T425 578T384 610T319 623H209V362H315Z" />
<glyph unicode="Q" horiz-adv-x="889" d="M587 104H831V0H446L587 104ZM57 362Q57 437 85 504T165 623T283 704T427 734Q503 734 570 705T689 623T770 504T799 362Q799 285 770 218T690 100T571 21T427 -8Q350 -8 283 20T165 98T86 216T57 362ZM167 361Q167 307
187 259T244 174T327 116T430 95Q484 95 531 116T613 173T669 257T689 362Q689 417 669 465T613 549T530 607T428 628Q372 628 325 607T242 549T187 464T167 361Z" />
<glyph unicode="R" horiz-adv-x="665" d="M301 726Q358 726 406 711T489 666T543 595T563 496Q563 453 550 411T508 335T432 281T315 260H209V0H102V726H301ZM313 362Q354 362 381 375T424 407T446 449T453 493Q453 513 447 535T425 577T383 610T319 623H209V362H313ZM436
300L624 0H500L309 297L436 300Z" />
<glyph unicode="S" horiz-adv-x="582" d="M480 587Q442 607 398 621T313 635Q257 635 224 610T191 540Q191 509 213 486T270 446T344 414Q377 402 409 386T468 345T510 286T526 199Q526 141 498 94T416 20T286 -8Q240 -8 197 2T115 30T45 69L93 152Q117 135 148
120T212 95T276 86Q309 86 341 97T394 133T415 198Q415 232 397 255T348 296T282 326Q248 339 213 355T148 393T100 449T81 532Q81 590 108 633T185 702T298 730Q371 730 425 712T521 669L480 587Z" />
<glyph unicode="T" horiz-adv-x="582" d="M49 726H533V623H342V0H235V623H49V726Z" />
<glyph unicode="U" horiz-adv-x="736" d="M198 259Q198 213 221 176T282 117T367 95Q417 95 456 117T517 176T540 259V726H645V256Q645 177 608 118T508 25T367 -8V-8Q291 -8 228 25T129 117T92 256V726H198V259Z" />
<glyph unicode="V" horiz-adv-x="722" d="M166 726L400 142L339 153L558 726H684L361 -34L39 726H166Z" />
<glyph unicode="W" horiz-adv-x="1011" d="M39 722H163L351 188L333 195L475 560L524 415L328 -34L39 722ZM391 722H497L703 197L682 201L858 722H972L688 -32L391 722Z" />
<glyph unicode="X" horiz-adv-x="683" d="M42 726H178L650 0H513L42 726ZM32 0L285 397L337 292L164 0H32ZM341 436L512 726H641L398 345L341 436Z" />
<glyph unicode="Y" horiz-adv-x="698" d="M294 239L25 726H157L366 330L334 328L541 726H672L401 239V0H294V239Z" />
<glyph unicode="Z" horiz-adv-x="714" d="M49 0Q59 13 80 44T131 121T195 219T266 327T338 435T402 532T453 608T484 652L497 623H178Q158 623 139 630T106 652T93 686V762H192V749Q192 730 199 728T223 726H652L224 90L218 103H661V0H49Z" />
<glyph unicode="[" horiz-adv-x="365" d="M102 757H315V661H210V-56H315V-151H102V757Z" />
<glyph unicode="\" horiz-adv-x="398" d="M102 747Q173 555 243 364T384 -19H280Q209 173 139 364T-2 747H102Z" />
<glyph unicode="]" horiz-adv-x="365" d="M263 -151H49V-55H156V662H49V757H263V-151Z" />
<glyph unicode="^" horiz-adv-x="476" d="M292 486Q287 494 276 509T252 540T235 563Q230 556 219 540T195 509T178 486H114Q144 532 174 577T235 669V669Q265 623 295 578T357 486H292Z" />
<glyph unicode="_" horiz-adv-x="608" d="M102 89H507V0H102V89Z" />
<glyph unicode="`" horiz-adv-x="283" d="M17 620H131L201 486H137L17 620Z" />
<glyph unicode="a" horiz-adv-x="592" d="M254 -10Q195 -10 147 14T71 88T43 209Q43 280 72 331T150 409T256 437Q316 437 354 412T415 352L408 336L418 419H513V0H410V105L421 80Q417 72 404 58T370 27T320 1T254 -10ZM282 74Q315 74 341 86T385 120T410 172V259Q402
287 383 307T338 340T279 352Q243 352 213 335T165 286T147 214Q147 175 165 143T215 93T282 74Z" />
<glyph unicode="b" horiz-adv-x="599" d="M339 -10Q282 -10 240 13T171 73L182 102V0H79V777H181V328L179 365Q203 397 249 417T352 437Q408 437 454 410T528 334T556 216Q556 146 526 95T447 17T339 -10ZM317 77Q355 77 385 95T434 145T452 217Q452 256 434 287T386
336T317 355Q284 355 256 343T209 310T182 261V172Q190 144 209 123T255 89T317 77Z" />
<glyph unicode="c" horiz-adv-x="461" d="M422 39Q394 16 355 3T275 -10Q206 -10 154 17T72 93T43 210Q43 277 74 326T156 402T264 429Q316 429 356 415T425 376L374 309Q357 323 332 334T273 345Q238 345 209 328T163 280T146 210Q146 173 163 142T212 92T283
74Q309 74 331 81T370 103L422 39Z" />
<glyph unicode="d" horiz-adv-x="599" d="M250 -10Q191 -10 144 17T70 96T43 215Q43 285 72 334T150 410T262 437Q310 437 353 418T421 363L418 328V777H520V0H417V99L428 72Q397 37 352 14T250 -10ZM282 77Q317 77 344 89T390 123T417 176V260Q410 288 391 309T343
343T282 355Q245 355 215 338T166 289T147 217Q147 178 165 146T215 96T282 77Z" />
<glyph unicode="e" horiz-adv-x="527" d="M276 -10Q203 -10 151 18T71 97T43 213Q43 275 74 325T159 406T278 436Q362 436 417 387T492 250L151 132L127 192L400 290L379 277Q367 308 341 331T270 355Q234 355 206 338T161 290T144 218Q144 176 161 145T209 95T278
77Q305 77 329 87T376 112L423 36Q390 15 352 3T276 -10Z" />
<glyph unicode="f" horiz-adv-x="391" d="M114 0V328H43V419H114V589Q114 679 157 728T282 777Q304 777 331 771T379 750L336 675Q327 685 316 689T292 693Q257 693 237 669T217 587V419H349V328H217V0H114Z" />
<glyph unicode="g" horiz-adv-x="605" d="M284 -208Q235 -208 199 -197T135 -167T80 -125L141 -54Q172 -83 205 -100T282 -118Q326 -118 357 -104T406 -63T423 -1L424 108L431 88Q414 47 368 19T255 -10Q198 -10 150 19T72 98T43 211Q43 277 73 327T154 407T261
437Q317 437 361 416T427 362L421 345L432 419H527V-2Q527 -60 497 -106T412 -180T284 -208ZM147 214Q147 175 165 143T214 93T285 74Q320 74 348 86T395 120T424 171V258Q415 287 395 307T347 340T285 352Q246 352 215 335T165 286T147 214Z" />
<glyph unicode="h" horiz-adv-x="561" d="M79 0V777H179V324L178 341Q199 382 242 409T345 436Q404 436 442 401T482 310V0H379V274Q378 306 360 326T304 348Q270 348 242 328T198 272T182 191V0H79Z" />
<glyph unicode="i" horiz-adv-x="260" d="M79 419H182V0H79V419ZM73 825Q73 849 92 865T133 881Q156 881 174 865T192 825Q192 801 174 786T133 770Q111 770 92 785T73 825Z" />
<glyph unicode="j" horiz-adv-x="267" d="M89 -202L29 -138Q57 -114 73 -80T89 2V419H193V-2Q193 -74 169 -123T89 -202ZM82 825Q82 849 101 865T142 881Q165 881 183 865T201 825Q201 801 183 786T142 770Q120 770 101 785T82 825Z" />
<glyph unicode="k" horiz-adv-x="508" d="M79 0V777H182V0H79ZM284 280L476 0H356L216 221L284 280ZM150 129L140 228L394 428L457 373L150 129Z" />
<glyph unicode="l" horiz-adv-x="260" d="M79 777H182V0H79V777Z" />
<glyph unicode="m" horiz-adv-x="833" d="M171 419L180 329L176 336Q200 383 242 409T339 436Q373 436 400 425T446 394T469 344L464 341Q489 385 530 410T619 436Q680 436 716 401T754 311V0H652V272Q651 303 638 324T590 347Q554 347 527 325T484 268T468 193V0H365V272Q364
303 350 324T301 347Q265 347 238 325T197 268T182 193V0H79V419H171Z" />
<glyph unicode="n" horiz-adv-x="561" d="M171 419L180 323L176 336Q197 381 241 408T345 436Q404 436 442 401T482 310V0H379V274Q378 306 360 326T304 348Q270 348 242 328T198 272T182 191V0H79V419H171Z" />
<glyph unicode="o" horiz-adv-x="550" d="M43 214Q43 277 73 327T156 407T277 436Q346 436 398 407T478 328T507 214Q507 151 479 100T398 20T276 -10Q209 -10 157 17T74 94T43 214ZM147 213Q147 174 164 143T210 93T275 74Q312 74 341 92T386 142T403 213Q403
252 387 283T341 333T275 352Q238 352 209 333T164 283T147 213Z" />
<glyph unicode="p" horiz-adv-x="599" d="M330 -10Q284 -10 242 10T175 66L181 97V-201H79V426H168L182 324L171 353Q202 389 247 413T349 437Q408 437 455 409T529 330T556 210Q556 142 527 93T446 17T330 -10ZM310 71Q348 71 380 89T432 138T452 209Q452 250
434 281T385 331T317 349Q282 349 255 337T209 302T182 249V172Q188 143 206 120T251 84T310 71Z" />
<glyph unicode="q" horiz-adv-x="599" d="M247 -10Q192 -10 146 16T71 92T43 210Q43 279 73 330T153 409T263 437Q319 437 360 414T428 353L417 324V426H520V-201H418V102L422 62Q397 30 351 10T247 -10ZM282 71Q316 71 344 84T392 120T417 172V249Q409 280 390
302T344 336T282 349Q246 349 215 331T166 281T147 209Q147 170 165 139T215 89T282 71Z" />
<glyph unicode="r" horiz-adv-x="383" d="M171 419L181 299L176 315Q193 353 224 380T288 421T345 436L340 334Q292 337 257 316T201 260T181 185V0H79V419H171Z" />
<glyph unicode="s" horiz-adv-x="415" d="M201 -9Q155 -9 112 7T41 56L85 114Q112 89 139 77T192 64Q212 64 228 68T254 84T264 113Q264 134 250 146T214 166T167 181Q114 198 87 229T60 304Q60 337 76 366T127 415T211 434Q257 434 292 424T357 388L317 326Q299
344 275 353T230 364Q212 364 197 359T173 343T164 318Q163 298 177 286T215 266T260 250Q291 241 315 226T353 188T367 132Q367 95 349 63T294 11T201 -9Z" />
<glyph unicode="t" horiz-adv-x="366" d="M119 603H222V418H334V337H222V0H119V337H45V418H119V603Z" />
<glyph unicode="u" horiz-adv-x="554" d="M213 -17Q155 -17 118 18T79 108V419H182V145Q184 113 200 93T254 71Q288 71 314 91T356 147T372 229V419H475V0H382L374 97L378 81Q365 53 341 31T284 -4T213 -17Z" />
<glyph unicode="v" horiz-adv-x="502" d="M254 -11L17 419H139L293 95L230 98L370 419H485L258 -11H254Z" />
<glyph unicode="w" horiz-adv-x="676" d="M354 419L471 150L451 149L558 419H659L467 -25L333 260L210 -25L17 419H118L242 137L206 143L296 351L265 419H354Z" />
<glyph unicode="x" horiz-adv-x="478" d="M244 268L340 419H443L281 193L244 268ZM460 0H337L17 419H144L460 0ZM232 151L126 0H22L184 220L232 151Z" />
<glyph unicode="y" horiz-adv-x="502" d="M114 -201L391 419H485L215 -201H114ZM220 -3L17 419H133L299 49L220 -3Z" />
<glyph unicode="z" horiz-adv-x="475" d="M124 335Q92 335 69 355T46 415V459H123V445Q123 428 131 424T157 419H425L178 63L158 84H421V0H26L279 364L295 335H124Z" />
<glyph unicode="{" horiz-adv-x="363" d="M273 666Q253 666 242 659T226 629T221 563V449Q221 404 210 375T184 329T155 303Q168 295 183 279T209 236T221 170V42Q221 -2 225 -24T241 -53T273 -61H316V-151H249Q224 -151 200 -150T156 -139T126 -101T114 -21V138Q114
167 106 195T80 241T33 260V260V349Q62 350 80 368T106 414T114 472V636Q114 684 125 709T156 744T199 755T249 757H316V666H273Z" />
<glyph unicode="|" horiz-adv-x="280" d="M91 710H184V-235H91V710Z" />
<glyph unicode="}" horiz-adv-x="377" d="M104 -61Q125 -61 136 -54T152 -24T157 42V167Q157 207 168 234T195 277T223 302Q211 311 195 327T168 369T157 435V564Q157 608 153 629T137 658T104 666H61V757H128Q153 757 176 756T220 745T251 710T263 637V478Q263
457 267 434T280 391T304 358T344 345V345V256Q320 255 305 242T280 210T267 167T263 123V-32Q263 -79 252 -104T222 -138T178 -149T128 -151H61V-61H104Z" />
<glyph unicode="~" horiz-adv-x="431" d="M301 433Q263 433 239 449T194 484Q181 496 168 506T138 516Q124 516 114 506T98 476T94 432L30 433Q27 477 40 514T79 573T144 595Q174 595 196 579T237 545Q253 530 267 519T298 508Q313 508 321 519T333 550T337 595L400
594Q406 546 394 510T357 453T301 433Z" />
<glyph unicode="&#xa0;" horiz-adv-x="318" />
<glyph unicode="&#xa1;" horiz-adv-x="203" d="M53 -213H145V358H53V-213ZM102 547Q74 547 56 532T37 491Q37 466 55 450T102 433Q129 433 146 449T164 491Q164 516 147 531T102 547Z" />
<glyph unicode="&#xa2;" horiz-adv-x="461" d="M237 486H301V-68H237V486ZM422 39Q394 16 355 3T275 -10Q206 -10 154 17T72 93T43 210Q43 277 74 326T156 402T264 429Q316 429 356 415T425 376L374 309Q357 323 332 334T273 345Q238 345 209 328T163 280T146
210Q146 173 163 142T212 92T283 74Q309 74 331 81T370 103L422 39Z" />
<glyph unicode="&#xa3;" horiz-adv-x="640" d="M404 391V288H92V391H404ZM158 542Q158 590 185 627T260 686T373 707Q444 707 493 679T567 603L490 550Q480 564 467 576T432 596T374 604Q335 604 311 593T275 559T264 504V207V185Q264 170 262 153T255 121T238
95L223 103H435Q469 103 484 113T499 146V186L592 187V118Q592 93 586 72T563 34T522 9T457 0H60V103H105Q126 103 137 109T153 136T158 199V542Z" />
<glyph unicode="&#xa4;" horiz-adv-x="504" d="M379 443Q405 405 405 361Q405 338 398 317T378 277L407 248L362 204Q354 211 347 218T332 234Q296 210 250 210Q228 210 208 216T170 233V233L140 203L96 247L124 276Q113 294 106 316T99 361V361Q99 384 105 404T123
442Q116 449 110 455T96 470L140 514L168 486Q187 497 207 504T251 512Q274 512 295 505T334 486V486L362 514L406 469L379 443ZM162 360Q162 336 174 316T206 283T252 271Q276 271 296 283T329 315T341 361Q341 386 329 406T297 438T252 450Q227 450 207 439T174
407T162 360V360Z" />
<glyph unicode="&#xa5;" horiz-adv-x="698" d="M167 304H539V220H167V304ZM168 159H539V74H168V159ZM294 304L25 726H157L366 396L334 393L541 726H672L401 304V0H294V304Z" />
<glyph unicode="&#xa6;" horiz-adv-x="218" d="M66 710H159V355H66V710ZM66 119H159V-236H66V119Z" />
<glyph unicode="&#xa7;" horiz-adv-x="573" d="M373 137L334 176Q380 173 417 155T477 105T500 24Q500 -30 471 -75T392 -147T277 -174Q234 -174 193 -165T115 -140T50 -99L103 -11Q132 -33 160 -48T215 -71T271 -79Q303 -79 329 -69T372 -38T388 10Q388 38 370
55T322 84T257 103Q225 112 192 124T130 156T85 204T67 273Q67 326 93 360T161 411T245 425L236 387Q184 404 152 428T104 484T89 553Q89 585 101 617T140 675T205 716T300 732Q357 732 407 714T496 666L450 588Q413 615 379 627T311 640Q274 640 250 630T213 603T201
567Q201 540 219 523T269 494T337 472Q369 464 402 452T462 421T506 374T523 302Q523 244 485 199T373 137ZM419 283Q420 309 401 328T352 359T293 376Q239 378 206 355T171 298Q171 269 188 249T236 215T301 193Q328 195 354 206T399 236T419 283Z" />
<glyph unicode="&#xa8;" horiz-adv-x="421" d="M60 530Q60 554 77 570T116 587Q136 587 154 571T172 530Q172 505 154 489T116 473Q95 473 78 489T60 530V530ZM249 530Q249 554 267 570T306 587Q326 587 343 571T361 530Q361 505 344 489T306 473Q285 473 267
489T249 530V530Z" />
<glyph unicode="&#xa9;" horiz-adv-x="854" d="M576 198Q553 176 516 157T429 139Q377 140 335 166T269 236T244 331Q244 387 268 431T336 500T437 526Q457 526 479 523T523 511T559 489L518 411Q502 426 484 431T445 436Q418 436 397 422T363 384T351 333Q351
306 362 283T395 246T446 232Q468 232 489 241T528 268L576 198ZM427 -15Q354 -15 291 11T180 83T104 192T76 330Q76 405 103 468T179 577T291 650T427 676Q499 676 562 650T674 578T750 468T777 330Q777 256 751 193T676 84T565 11T427 -15ZM426 68Q500 68 559
102T652 195T687 329Q687 406 653 465T559 558T426 592Q354 592 295 558T200 465T165 329Q165 254 198 195T291 102T426 68Z" />
<glyph unicode="&#xaa;" horiz-adv-x="397" d="M162 423Q125 423 96 440T49 490T31 573Q31 621 49 655T96 707T160 726Q199 726 224 712T263 674L259 659L265 716H339V429H260V496L267 481Q264 473 250 459T214 434T162 423ZM187 487Q206 487 221 495T246 517T260
551V602Q253 629 233 646T185 663Q154 663 132 639T110 576Q110 551 120 531T148 499T187 487Z" />
<glyph unicode="&#xab;" horiz-adv-x="607" d="M45 242Q49 246 66 260T108 295T160 338T211 380T253 415T275 434V341Q269 335 254 322T221 292T187 262T167 242Q172 237 187 223T220 193T254 162T275 143V50L45 242ZM272 242Q276 246 293 260T335 295T387 338T438
380T480 415T501 434V341Q496 335 481 322T448 292T414 262T393 242Q399 237 414 223T447 193T481 162T501 143V50L272 242Z" />
<glyph unicode="&#xac;" horiz-adv-x="494" d="M65 303H430V108H323V200H65V303Z" />
<glyph unicode="&#xad;" horiz-adv-x="600" d="M54 263H240V173H54V263Z" />
<glyph unicode="&#xae;" horiz-adv-x="502" d="M251 288Q191 288 140 316T59 394T29 506Q29 569 59 618T140 695T251 723Q312 723 362 695T443 618T473 506Q473 443 443 394T363 317T251 288ZM251 345Q296 345 332 366T390 423T411 506Q411 552 390 588T333 646T251
667Q206 667 170 646T112 589T91 506Q91 460 112 424T169 366T251 345ZM172 618H260Q299 618 319 600T339 547Q339 519 321 496T265 473H229V399H172V618ZM249 517Q266 517 272 525T279 545Q279 557 272 565T250 574H230V517H249ZM300 487L340 399H275L242 485L300
487Z" />
<glyph unicode="&#xaf;" horiz-adv-x="368" d="M60 541H308V469H60V541Z" />
<glyph unicode="&#xb0;" horiz-adv-x="285" d="M34 568Q34 597 48 621T86 658T140 672Q169 672 192 658T230 621T244 568Q244 539 230 515T193 477T140 463Q111 463 87 477T48 515T34 568V568ZM140 520Q160 520 174 533T188 567Q188 587 174 601T140 615Q120 615
107 601T93 567Q93 547 106 534T140 520V520Z" />
<glyph unicode="&#xb1;" horiz-adv-x="532" d="M223 579H317V441H452V351H317V214H223V351H88V441H223V579ZM88 173H452V83H88V173Z" />
<glyph unicode="&#xb2;" horiz-adv-x="404" d="M63 633Q81 659 119 676T200 694Q262 693 301 659T340 564Q340 524 319 488T264 420T197 363T136 314L151 383H354V297H73V355Q97 371 124 391T176 435T216 485T232 537Q232 575 217 591T172 608Q149 608 127 596T94
566L63 633Z" />
<glyph unicode="&#xb3;" horiz-adv-x="387" d="M165 294Q123 294 95 310T52 342L81 402Q91 391 109 376T153 362Q181 362 199 379T218 430Q218 466 198 481T151 497Q134 497 123 494T103 488L98 497L184 628L207 612H66V686H295L190 502L123 520Q136 531 153 538T193
546Q220 546 247 534T292 496T311 433Q311 395 293 363T242 313T165 294Z" />
<glyph unicode="&#xb4;" horiz-adv-x="284" d="M240 620L109 486H44L126 620H240Z" />
<glyph unicode="&#xb5;" horiz-adv-x="554" d="M213 -17Q158 -17 123 16T83 100L182 89V-201H79V110V419H182V145Q184 113 200 93T254 71Q288 71 314 91T356 147T372 229V419H475V0H382L372 102L377 81Q364 53 340 31T284 -4T213 -17Z" />
<glyph unicode="&#xb6;" horiz-adv-x="562" d="M204 429Q158 429 121 451T61 511T39 594Q39 641 61 678T120 738T204 761H461V0H370V671H296V0H204V429Z" />
<glyph unicode="&#xb7;" horiz-adv-x="171" d="M30 287Q30 311 47 327T87 344Q107 344 124 328T142 287Q142 261 125 246T87 230Q65 230 48 245T30 287V287Z" />
<glyph unicode="&#xb8;" horiz-adv-x="396" d="M108 -150Q119 -162 135 -169T173 -177Q198 -177 218 -166T239 -133Q239 -117 226 -104T176 -90Q160 -90 143 -94T112 -103L95 -53L164 9L243 6L170 -78L148 -53Q159 -49 173 -47T202 -44Q256 -42 290 -64T325 -131Q325
-166 305 -188T253 -221T184 -232Q145 -232 119 -221T76 -193L108 -150Z" />
<glyph unicode="&#xb9;" horiz-adv-x="273" d="M41 661H198V280H102V569H41V661Z" />
<glyph unicode="&#xba;" horiz-adv-x="376" d="M31 573Q31 616 51 650T107 705T189 725Q235 725 270 705T325 651T345 573Q345 530 326 495T271 441T188 421Q143 421 107 439T51 492T31 573ZM111 572Q111 549 121 530T149 501T188 490Q210 490 227 500T255 530T265
572Q265 596 255 614T228 644T188 656Q166 656 149 645T121 614T111 572Z" />
<glyph unicode="&#xbb;" horiz-adv-x="607" d="M547 242Q543 246 526 260T484 295T432 338T381 380T339 415T318 434V341Q323 335 338 322T371 292T405 262T426 242Q420 237 405 223T372 193T338 162T318 143V50L547 242ZM320 242Q316 246 299 260T258 295T206
338T154 380T112 415T91 434V341Q96 335 111 322T145 292T179 262T199 242Q194 237 179 223T145 193T111 162T91 143V50L320 242Z" />
<glyph unicode="&#xbc;" horiz-adv-x="821" d="M649 687L242 0H145L552 687H649ZM44 661H201V280H105V569H44V661ZM789 157V98H482L480 125L681 389H744V0H656V282L678 285L555 121L541 157H789Z" />
<glyph unicode="&#xbd;" horiz-adv-x="886" d="M44 663H201V282H105V571H44V663ZM531 328Q549 354 587 371T668 389Q730 388 769 354T808 259Q808 219 787 183T732 115T665 58T604 9L619 78H822V-8H541V50Q565 66 592 86T644 130T684 180T700 232Q700 270 685
286T640 303Q617 303 595 291T562 261L531 328ZM639 688L232 0H135L542 688H639Z" />
<glyph unicode="&#xbe;" horiz-adv-x="840" d="M419 294Q377 294 349 310T306 342L335 402Q345 391 363 376T407 362Q435 362 453 379T472 430Q472 466 452 481T405 497Q388 497 377 494T357 488L352 497L438 628L461 612H320V686H549L444 502L377 520Q390 531
407 538T447 546Q474 546 501 534T546 496T565 433Q565 395 547 363T496 313T419 294ZM673 688L266 0H169L576 688H673ZM787 157V99H480L478 125L679 389H743V0H654V282L676 285L553 121L539 157H787Z" />
<glyph unicode="&#xbf;" horiz-adv-x="440" d="M301 352V291Q301 242 288 212T255 161T212 120Q181 94 159 67T137 -6Q137 -36 152 -59T190 -95T239 -108Q271 -108 295 -94T335 -57T361 -7L446 -46Q439 -67 423 -94T381 -146T316 -187T228 -204Q172 -203 127 -182T55
-119T28 -15Q28 35 42 67T78 124T124 170Q144 189 161 206T188 249T198 314V352H301ZM248 539Q276 539 294 523T313 482Q313 457 295 441T248 424Q221 424 204 440T186 482Q186 507 203 523T248 539Z" />
<glyph unicode="&#xc0;" horiz-adv-x="700" d="M28 0L347 755H353L672 0H550L318 588L395 639L133 0H28ZM222 272H480L517 180H190L222 272ZM192 925H306L376 791H312L192 925Z" />
<glyph unicode="&#xc1;" horiz-adv-x="700" d="M28 0L347 755H353L672 0H550L318 588L395 639L133 0H28ZM222 272H480L517 180H190L222 272ZM766 919L635 785H570L652 919H766Z" />
<glyph unicode="&#xc2;" horiz-adv-x="700" d="M28 0L347 755H353L672 0H550L318 588L395 639L133 0H28ZM222 272H480L517 180H190L222 272ZM421 801L330 894L359 901L268 801H173L342 975H343L515 801H421Z" />
<glyph unicode="&#xc3;" horiz-adv-x="700" d="M28 0L347 755H353L672 0H550L318 588L395 639L133 0H28ZM222 272H480L517 180H190L222 272ZM426 820Q394 820 373 834T334 865Q322 876 311 884T284 893Q272 893 263 884T249 859T245 820H191Q188 859 199 891T234
942T290 961Q316 961 335 947T370 918Q384 905 396 895T424 884Q444 884 451 905T459 961L513 960Q517 919 507 887T475 838T426 820Z" />
<glyph unicode="&#xc4;" horiz-adv-x="700" d="M28 0L347 755H353L672 0H550L318 588L395 639L133 0H28ZM222 272H480L517 180H190L222 272ZM194 847Q194 871 211 887T250 904Q270 904 288 888T306 847Q306 822 288 806T250 790Q229 790 212 806T194 847V847ZM383
847Q383 871 401 887T440 904Q460 904 477 888T495 847Q495 822 478 806T440 790Q419 790 401 806T383 847V847Z" />
<glyph unicode="&#xc5;" horiz-adv-x="700" d="M28 0L347 755H353L672 0H550L318 588L395 639L133 0H28ZM222 272H480L517 180H190L222 272ZM255 880Q255 922 282 947T352 973Q394 973 421 948T449 881Q449 840 421 814T352 788Q310 788 283 813T255 880ZM310
879Q310 860 322 848T352 836Q371 836 382 848T394 879Q394 900 383 911T353 923Q334 923 322 912T310 879Z" />
<glyph unicode="&#xc6;" horiz-adv-x="954" d="M479 726H877V622H585V414H837V311H585V103H891V0H479V726ZM493 605Q491 595 488 583T483 568L134 0H11L479 726L493 605ZM239 260H493V175H207L239 260Z" />
<glyph unicode="&#xc7;" horiz-adv-x="695" d="M637 55Q621 44 590 29T516 2T422 -8Q337 -7 270 22T155 101T83 217T57 357Q57 439 83 507T157 627T271 706T415 734Q482 734 536 716T627 674L585 574Q556 594 514 612T419 631Q368 631 323 611T243 554T188 469T168
363Q168 305 186 256T237 171T318 115T424 95Q480 95 522 112T592 151L637 55ZM579 -150Q590 -162 606 -169T644 -177Q669 -177 689 -166T710 -133Q710 -117 697 -104T647 -90Q631 -90 614 -94T583 -103L566 -53L635 9L714 6L641 -78L619 -53Q630 -49 644 -47T673
-44Q727 -42 761 -64T796 -131Q796 -166 776 -188T724 -221T655 -232Q616 -232 590 -221T547 -193L579 -150Z" />
<glyph unicode="&#xc8;" horiz-adv-x="655" d="M102 726H579V623H209V416H538V313H209V103H593V0H102V726ZM179 911H293L363 777H299L179 911Z" />
<glyph unicode="&#xc9;" horiz-adv-x="655" d="M102 726H579V623H209V416H538V313H209V103H593V0H102V726ZM753 905L622 771H557L639 905H753Z" />
<glyph unicode="&#xca;" horiz-adv-x="655" d="M102 726H579V623H209V416H538V313H209V103H593V0H102V726ZM408 787L317 880L346 887L255 787H160L329 961H330L502 787H408Z" />
<glyph unicode="&#xcb;" horiz-adv-x="655" d="M102 726H579V623H209V416H538V313H209V103H593V0H102V726ZM181 833Q181 857 198 873T237 890Q257 890 275 874T293 833Q293 808 275 792T237 776Q216 776 199 792T181 833V833ZM370 833Q370 857 388 873T427 890Q447
890 464 874T482 833Q482 808 465 792T427 776Q406 776 388 792T370 833V833Z" />
<glyph unicode="&#xcc;" horiz-adv-x="311" d="M102 726H209V0H102V726ZM-2 911H112L182 777H118L-2 911Z" />
<glyph unicode="&#xcd;" horiz-adv-x="311" d="M102 726H209V0H102V726ZM572 905L441 771H376L458 905H572Z" />
<glyph unicode="&#xce;" horiz-adv-x="311" d="M102 726H209V0H102V726ZM227 787L136 880L165 887L74 787H-21L148 961H149L321 787H227Z" />
<glyph unicode="&#xcf;" horiz-adv-x="311" d="M102 726H209V0H102V726ZM0 833Q0 857 17 873T56 890Q76 890 94 874T112 833Q112 808 94 792T56 776Q35 776 18 792T0 833V833ZM189 833Q189 857 207 873T246 890Q266 890 283 874T301 833Q301 808 284 792T246 776Q225
776 207 792T189 833V833Z" />
<glyph unicode="&#xd0;" horiz-adv-x="757" d="M102 0V726H304Q412 726 488 693T610 606T678 486T700 353Q700 272 671 207T592 96T477 25T339 0H102ZM209 103H319Q378 103 427 120T513 170T570 251T590 361Q590 428 568 477T508 559T426 607T333 623H209V103ZM274
408H559V312H274V408Z" />
<glyph unicode="&#xd1;" horiz-adv-x="841" d="M735 -25L176 530L207 520L210 0H102V749H107L659 193L634 200L632 726H738V-25H735ZM483 792Q451 792 430 806T391 837Q379 848 368 856T341 865Q329 865 320 856T306 831T302 792H248Q245 831 256 863T291 914T347
933Q373 933 392 919T427 890Q441 877 453 867T481 856Q501 856 508 877T516 933L570 932Q574 891 564 859T532 810T483 792Z" />
<glyph unicode="&#xd2;" horiz-adv-x="856" d="M57 362Q57 437 85 504T165 623T283 704T427 734Q503 734 570 705T689 623T770 504T799 362Q799 285 770 218T690 100T571 21T427 -8Q350 -8 283 20T165 98T86 216T57 362ZM167 362Q167 306 187 258T244 173T327
116T430 95Q484 95 531 115T613 172T669 257T689 362Q689 418 669 466T613 552T530 610T428 631Q372 631 325 610T242 552T187 466T167 362ZM270 903H384L454 769H390L270 903Z" />
<glyph unicode="&#xd3;" horiz-adv-x="856" d="M57 362Q57 437 85 504T165 623T283 704T427 734Q503 734 570 705T689 623T770 504T799 362Q799 285 770 218T690 100T571 21T427 -8Q350 -8 283 20T165 98T86 216T57 362ZM167 362Q167 306 187 258T244 173T327
116T430 95Q484 95 531 115T613 172T669 257T689 362Q689 418 669 466T613 552T530 610T428 631Q372 631 325 610T242 552T187 466T167 362ZM844 897L713 763H648L730 897H844Z" />
<glyph unicode="&#xd4;" horiz-adv-x="856" d="M57 362Q57 437 85 504T165 623T283 704T427 734Q503 734 570 705T689 623T770 504T799 362Q799 285 770 218T690 100T571 21T427 -8Q350 -8 283 20T165 98T86 216T57 362ZM167 362Q167 306 187 258T244 173T327
116T430 95Q484 95 531 115T613 172T669 257T689 362Q689 418 669 466T613 552T530 610T428 631Q372 631 325 610T242 552T187 466T167 362ZM499 780L408 873L437 880L346 780H251L420 954H421L593 780H499Z" />
<glyph unicode="&#xd5;" horiz-adv-x="856" d="M57 362Q57 437 85 504T165 623T283 704T427 734Q503 734 570 705T689 623T770 504T799 362Q799 285 770 218T690 100T571 21T427 -8Q350 -8 283 20T165 98T86 216T57 362ZM167 362Q167 306 187 258T244 173T327
116T430 95Q484 95 531 115T613 172T669 257T689 362Q689 418 669 466T613 552T530 610T428 631Q372 631 325 610T242 552T187 466T167 362ZM504 799Q472 799 451 813T412 844Q400 855 389 863T362 872Q350 872 341 863T327 838T323 799H269Q266 838 277 870T312
921T368 940Q394 940 413 926T448 897Q462 884 474 874T502 863Q522 863 529 884T537 940L591 939Q595 898 585 866T553 817T504 799Z" />
<glyph unicode="&#xd6;" horiz-adv-x="856" d="M57 362Q57 437 85 504T165 623T283 704T427 734Q503 734 570 705T689 623T770 504T799 362Q799 285 770 218T690 100T571 21T427 -8Q350 -8 283 20T165 98T86 216T57 362ZM167 362Q167 306 187 258T244 173T327
116T430 95Q484 95 531 115T613 172T669 257T689 362Q689 418 669 466T613 552T530 610T428 631Q372 631 325 610T242 552T187 466T167 362ZM272 826Q272 850 289 866T328 883Q348 883 366 867T384 826Q384 801 366 785T328 769Q307 769 290 785T272 826V826ZM461
826Q461 850 479 866T518 883Q538 883 555 867T573 826Q573 801 556 785T518 769Q497 769 479 785T461 826V826Z" />
<glyph unicode="&#xd7;" horiz-adv-x="520" d="M280 251Q303 275 325 297T372 343Q390 324 409 304T448 264Q426 242 404 219T359 173Q382 151 404 128T451 80L369 0Q347 23 324 46T276 92Q254 69 231 47T186 2Q166 21 146 40T108 79Q131 102 153 124T199 171L105
265L185 346L280 251Z" />
<glyph unicode="&#xd8;" horiz-adv-x="858" d="M757 685L157 -16L90 45L691 746L757 685ZM57 362Q57 437 85 504T165 623T283 704T427 734Q503 734 570 705T689 623T770 504T799 362Q799 285 770 218T690 100T571 21T427 -8Q350 -8 283 20T165 98T86 216T57 362ZM167
362Q167 306 187 258T244 173T327 116T430 95Q484 95 531 115T613 172T669 257T689 362Q689 418 669 466T613 552T530 610T428 631Q372 631 325 610T242 552T187 466T167 362Z" />
<glyph unicode="&#xd9;" horiz-adv-x="736" d="M198 259Q198 213 221 176T282 117T367 95Q417 95 456 117T517 176T540 259V726H645V256Q645 177 608 118T508 25T367 -8V-8Q291 -8 228 25T129 117T92 256V726H198V259ZM210 911H324L394 777H330L210 911Z" />
<glyph unicode="&#xda;" horiz-adv-x="736" d="M198 259Q198 213 221 176T282 117T367 95Q417 95 456 117T517 176T540 259V726H645V256Q645 177 608 118T508 25T367 -8V-8Q291 -8 228 25T129 117T92 256V726H198V259ZM785 905L654 771H589L671 905H785Z" />
<glyph unicode="&#xdb;" horiz-adv-x="736" d="M198 259Q198 213 221 176T282 117T367 95Q417 95 456 117T517 176T540 259V726H645V256Q645 177 608 118T508 25T367 -8V-8Q291 -8 228 25T129 117T92 256V726H198V259ZM440 787L349 880L378 887L287 787H192L361
961H362L534 787H440Z" />
<glyph unicode="&#xdc;" horiz-adv-x="736" d="M198 259Q198 213 221 176T282 117T367 95Q417 95 456 117T517 176T540 259V726H645V256Q645 177 608 118T508 25T367 -8V-8Q291 -8 228 25T129 117T92 256V726H198V259ZM213 833Q213 857 230 873T269 890Q289 890
307 874T325 833Q325 808 307 792T269 776Q248 776 231 792T213 833V833ZM402 833Q402 857 420 873T459 890Q479 890 496 874T514 833Q514 808 497 792T459 776Q438 776 420 792T402 833V833Z" />
<glyph unicode="&#xdd;" horiz-adv-x="698" d="M294 239L25 726H157L366 330L334 328L541 726H672L401 239V0H294V239ZM779 903L648 769H583L665 903H779Z" />
<glyph unicode="&#xde;" horiz-adv-x="603" d="M322 592Q378 592 422 577T497 533T543 462T559 363Q559 320 547 278T508 202T436 147T322 126H212V0H102V721H212V592H322ZM312 229Q349 229 375 240T417 271T441 314T449 361Q449 393 435 422T391 470T313 489H212V229H312Z"
/>
<glyph unicode="&#xdf;" horiz-adv-x="606" d="M108 456Q108 522 136 569T211 641T317 666Q381 666 424 647T489 595T511 525Q511 483 493 448T439 395Q474 382 501 357T543 292T558 197Q558 130 533 84T463 14T360 -10Q318 -10 289 2T246 27L286 89Q302 77 317
73T350 68Q385 68 408 86T443 134T455 202Q455 246 441 277T400 326T338 342H332V432Q365 432 386 451T408 502Q408 525 398 543T368 572T318 582Q260 582 236 540T211 422V0H108V340H43V424H108V456Z" />
<glyph unicode="&#xe0;" horiz-adv-x="592" d="M254 -10Q195 -10 147 14T71 88T43 209Q43 280 72 331T150 409T256 437Q316 437 354 412T415 352L408 336L418 419H513V0H410V105L421 80Q417 72 404 58T370 27T320 1T254 -10ZM282 74Q315 74 341 86T385 120T410
172V259Q402 287 383 307T338 340T279 352Q243 352 213 335T165 286T147 214Q147 175 165 143T215 93T282 74ZM158 634H272L342 500H278L158 634Z" />
<glyph unicode="&#xe1;" horiz-adv-x="592" d="M254 -10Q195 -10 147 14T71 88T43 209Q43 280 72 331T150 409T256 437Q316 437 354 412T415 352L408 336L418 419H513V0H410V105L421 80Q417 72 404 58T370 27T320 1T254 -10ZM282 74Q315 74 341 86T385 120T410
172V259Q402 287 383 307T338 340T279 352Q243 352 213 335T165 286T147 214Q147 175 165 143T215 93T282 74ZM430 628L299 494H234L316 628H430Z" />
<glyph unicode="&#xe2;" horiz-adv-x="592" d="M254 -10Q195 -10 147 14T71 88T43 209Q43 280 72 331T150 409T256 437Q316 437 354 412T415 352L408 336L418 419H513V0H410V105L421 80Q417 72 404 58T370 27T320 1T254 -10ZM282 74Q315 74 341 86T385 120T410
172V259Q402 287 383 307T338 340T279 352Q243 352 213 335T165 286T147 214Q147 175 165 143T215 93T282 74ZM387 501L296 594L325 601L234 501H139L308 675H309L481 501H387Z" />
<glyph unicode="&#xe3;" horiz-adv-x="592" d="M254 -10Q195 -10 147 14T71 88T43 209Q43 280 72 331T150 409T256 437Q316 437 354 412T415 352L408 336L418 419H513V0H410V105L421 80Q417 72 404 58T370 27T320 1T254 -10ZM282 74Q315 74 341 86T385 120T410
172V259Q402 287 383 307T338 340T279 352Q243 352 213 335T165 286T147 214Q147 175 165 143T215 93T282 74ZM387 474Q355 474 334 488T295 519Q283 530 272 538T245 547Q233 547 224 538T210 513T206 474H152Q149 513 160 545T195 596T251 615Q277 615 296 601T331
572Q345 559 357 549T385 538Q405 538 412 559T420 615L474 614Q478 573 468 541T436 492T387 474Z" />
<glyph unicode="&#xe4;" horiz-adv-x="592" d="M254 -10Q195 -10 147 14T71 88T43 209Q43 280 72 331T150 409T256 437Q316 437 354 412T415 352L408 336L418 419H513V0H410V105L421 80Q417 72 404 58T370 27T320 1T254 -10ZM282 74Q315 74 341 86T385 120T410
172V259Q402 287 383 307T338 340T279 352Q243 352 213 335T165 286T147 214Q147 175 165 143T215 93T282 74ZM158 544Q158 568 175 584T214 601Q234 601 252 585T270 544Q270 519 252 503T214 487Q193 487 176 503T158 544V544ZM347 544Q347 568 365 584T404 601Q424
601 441 585T459 544Q459 519 442 503T404 487Q383 487 365 503T347 544V544Z" />
<glyph unicode="&#xe5;" horiz-adv-x="592" d="M254 -10Q195 -10 147 14T71 88T43 209Q43 280 72 331T150 409T256 437Q316 437 354 412T415 352L408 336L418 419H513V0H410V105L421 80Q417 72 404 58T370 27T320 1T254 -10ZM282 74Q315 74 341 86T385 120T410
172V259Q402 287 383 307T338 340T279 352Q243 352 213 335T165 286T147 214Q147 175 165 143T215 93T282 74ZM203 560Q203 602 230 627T300 653Q342 653 369 628T397 561Q397 520 369 494T300 468Q258 468 231 493T203 560ZM258 559Q258 540 270 528T300 516Q319
516 330 528T342 559Q342 580 331 591T301 603Q282 603 270 592T258 559Z" />
<glyph unicode="&#xe6;" horiz-adv-x="821" d="M208 -11Q151 -11 115 6T61 53T43 119Q43 160 67 189T132 233T216 249Q263 249 307 234T375 196L358 137Q328 160 303 170T240 181Q217 181 198 175T168 156T156 122Q156 95 176 78T236 61Q255 61 275 67T315 85T345
111V169H388L389 66Q368 39 339 22T275 -3T208 -11ZM338 203V263Q338 299 322 318T285 344T246 351Q206 351 175 332T122 286L70 352Q102 385 149 410T260 436Q312 436 351 420T414 371T437 291V262L338 203ZM571 -10Q498 -10 446 18T366 97T338 213Q338 275 369
325T454 406T573 436Q657 436 712 387T787 250L446 132L422 192L695 290L673 277Q662 308 636 331T565 355Q528 355 500 338T455 290T439 218Q439 176 456 145T504 95T573 77Q599 77 624 87T671 112L717 36Q685 15 646 3T571 -10Z" />
<glyph unicode="&#xe7;" horiz-adv-x="461" d="M422 39Q394 16 355 3T275 -10Q206 -10 154 17T72 93T43 210Q43 277 74 326T156 402T264 429Q316 429 356 415T425 376L374 309Q357 323 332 334T273 345Q238 345 209 328T163 280T146 210Q146 173 163 142T212 92T283
74Q309 74 331 81T370 103L422 39ZM406 -148Q417 -160 433 -167T471 -175Q496 -175 516 -164T537 -131Q537 -115 524 -102T474 -88Q458 -88 441 -92T410 -101L393 -51L462 11L541 8L468 -76L446 -51Q457 -47 471 -45T500 -42Q554 -40 588 -62T623 -129Q623 -164
603 -186T551 -219T482 -230Q443 -230 417 -219T374 -191L406 -148Z" />
<glyph unicode="&#xe8;" horiz-adv-x="527" d="M276 -10Q203 -10 151 18T71 97T43 213Q43 275 74 325T159 406T278 436Q362 436 417 387T492 250L151 132L127 192L400 290L379 277Q367 308 341 331T270 355Q234 355 206 338T161 290T144 218Q144 176 161 145T209
95T278 77Q305 77 329 87T376 112L423 36Q390 15 352 3T276 -10ZM121 635H235L305 501H241L121 635Z" />
<glyph unicode="&#xe9;" horiz-adv-x="527" d="M276 -10Q203 -10 151 18T71 97T43 213Q43 275 74 325T159 406T278 436Q362 436 417 387T492 250L151 132L127 192L400 290L379 277Q367 308 341 331T270 355Q234 355 206 338T161 290T144 218Q144 176 161 145T209
95T278 77Q305 77 329 87T376 112L423 36Q390 15 352 3T276 -10ZM393 629L262 495H197L279 629H393Z" />
<glyph unicode="&#xea;" horiz-adv-x="527" d="M276 -10Q203 -10 151 18T71 97T43 213Q43 275 74 325T159 406T278 436Q362 436 417 387T492 250L151 132L127 192L400 290L379 277Q367 308 341 331T270 355Q234 355 206 338T161 290T144 218Q144 176 161 145T209
95T278 77Q305 77 329 87T376 112L423 36Q390 15 352 3T276 -10ZM349 501L258 594L287 601L196 501H101L270 675H271L443 501H349Z" />
<glyph unicode="&#xeb;" horiz-adv-x="527" d="M276 -10Q203 -10 151 18T71 97T43 213Q43 275 74 325T159 406T278 436Q362 436 417 387T492 250L151 132L127 192L400 290L379 277Q367 308 341 331T270 355Q234 355 206 338T161 290T144 218Q144 176 161 145T209
95T278 77Q305 77 329 87T376 112L423 36Q390 15 352 3T276 -10ZM121 545Q121 569 138 585T177 602Q197 602 215 586T233 545Q233 520 215 504T177 488Q156 488 139 504T121 545V545ZM310 545Q310 569 328 585T367 602Q387 602 404 586T422 545Q422 520 405 504T367
488Q346 488 328 504T310 545V545Z" />
<glyph unicode="&#xec;" horiz-adv-x="260" d="M79 419H182V0H79V419ZM236 620H350L420 486H356L236 620Z" />
<glyph unicode="&#xed;" horiz-adv-x="260" d="M79 419H182V0H79V419ZM508 870L377 736H312L394 870H508Z" />
<glyph unicode="&#xee;" horiz-adv-x="260" d="M79 419H182V0H79V419ZM464 742L373 835L402 842L311 742H216L385 916H386L558 742H464Z" />
<glyph unicode="&#xef;" horiz-adv-x="260" d="M79 419H182V0H79V419ZM235 530Q235 554 252 570T291 587Q311 587 329 571T347 530Q347 505 329 489T291 473Q270 473 253 489T235 530V530ZM424 530Q424 554 442 570T481 587Q501 587 518 571T536 530Q536 505 519
489T481 473Q460 473 442 489T424 530V530Z" />
<glyph unicode="&#xf0;" horiz-adv-x="550" d="M266 -10Q204 -10 154 17T73 94T43 214Q43 277 71 327T146 407T251 436Q294 436 327 419T385 372T423 309T440 240L402 254Q400 329 382 392T330 509T251 611T148 703L223 771Q283 730 335 672T425 544T485 399T507
251Q507 201 491 155T444 71T369 12T266 -10ZM275 74Q312 74 341 92T386 142T403 213Q403 252 387 283T341 333T275 352Q238 352 209 333T164 283T147 213Q147 174 164 143T210 93T275 74ZM438 673L194 521L160 589L404 740L438 673Z" />
<glyph unicode="&#xf1;" horiz-adv-x="561" d="M171 419L180 323L176 336Q197 381 241 408T345 436Q404 436 442 401T482 310V0H379V274Q378 306 360 326T304 348Q270 348 242 328T198 272T182 191V0H79V419H171ZM358 467Q326 467 305 481T266 512Q254 523 243
531T216 540Q204 540 195 531T181 506T177 467H123Q120 506 131 538T166 589T222 608Q248 608 267 594T302 565Q316 552 328 542T356 531Q376 531 383 552T391 608L445 607Q449 566 439 534T407 485T358 467Z" />
<glyph unicode="&#xf2;" horiz-adv-x="550" d="M43 214Q43 277 73 327T156 407T277 436Q346 436 398 407T478 328T507 214Q507 151 479 100T398 20T276 -10Q209 -10 157 17T74 94T43 214ZM147 213Q147 174 164 143T210 93T275 74Q312 74 341 92T386 142T403 213Q403
252 387 283T341 333T275 352Q238 352 209 333T164 283T147 213ZM124 634H238L308 500H244L124 634Z" />
<glyph unicode="&#xf3;" horiz-adv-x="550" d="M43 214Q43 277 73 327T156 407T277 436Q346 436 398 407T478 328T507 214Q507 151 479 100T398 20T276 -10Q209 -10 157 17T74 94T43 214ZM147 213Q147 174 164 143T210 93T275 74Q312 74 341 92T386 142T403 213Q403
252 387 283T341 333T275 352Q238 352 209 333T164 283T147 213ZM396 628L265 494H200L282 628H396Z" />
<glyph unicode="&#xf4;" horiz-adv-x="550" d="M43 214Q43 277 73 327T156 407T277 436Q346 436 398 407T478 328T507 214Q507 151 479 100T398 20T276 -10Q209 -10 157 17T74 94T43 214ZM147 213Q147 174 164 143T210 93T275 74Q312 74 341 92T386 142T403 213Q403
252 387 283T341 333T275 352Q238 352 209 333T164 283T147 213ZM352 501L261 594L290 601L199 501H104L273 675H274L446 501H352Z" />
<glyph unicode="&#xf5;" horiz-adv-x="550" d="M43 214Q43 277 73 327T156 407T277 436Q346 436 398 407T478 328T507 214Q507 151 479 100T398 20T276 -10Q209 -10 157 17T74 94T43 214ZM147 213Q147 174 164 143T210 93T275 74Q312 74 341 92T386 142T403 213Q403
252 387 283T341 333T275 352Q238 352 209 333T164 283T147 213ZM353 474Q321 474 300 488T261 519Q249 530 238 538T211 547Q199 547 190 538T176 513T172 474H118Q115 513 126 545T161 596T217 615Q243 615 262 601T297 572Q311 559 323 549T351 538Q371 538
378 559T386 615L440 614Q444 573 434 541T402 492T353 474Z" />
<glyph unicode="&#xf6;" horiz-adv-x="550" d="M43 214Q43 277 73 327T156 407T277 436Q346 436 398 407T478 328T507 214Q507 151 479 100T398 20T276 -10Q209 -10 157 17T74 94T43 214ZM147 213Q147 174 164 143T210 93T275 74Q312 74 341 92T386 142T403 213Q403
252 387 283T341 333T275 352Q238 352 209 333T164 283T147 213ZM123 544Q123 568 140 584T179 601Q199 601 217 585T235 544Q235 519 217 503T179 487Q158 487 141 503T123 544V544ZM312 544Q312 568 330 584T369 601Q389 601 406 585T424 544Q424 519 407 503T369
487Q348 487 330 503T312 544V544Z" />
<glyph unicode="&#xf7;" horiz-adv-x="507" d="M198 403Q198 427 215 443T254 460Q275 460 292 444T310 403Q310 378 293 363T254 347Q233 347 216 362T198 403V403ZM198 107Q198 131 215 148T254 165Q275 165 292 148T310 107Q310 81 293 66T254 50Q233 50 216
65T198 107V107ZM69 298H434V208H69V298Z" />
<glyph unicode="&#xf8;" horiz-adv-x="526" d="M483 408L104 -26L54 20L431 452L483 408ZM43 214Q43 277 73 327T156 407T277 436Q346 436 398 407T478 328T507 214Q507 151 479 100T398 20T276 -10Q209 -10 157 17T74 94T43 214ZM147 213Q147 174 164 143T210
93T275 74Q312 74 341 92T386 142T403 213Q403 252 387 283T341 333T275 352Q238 352 209 333T164 283T147 213Z" />
<glyph unicode="&#xf9;" horiz-adv-x="554" d="M213 -17Q155 -17 118 18T79 108V419H182V145Q184 113 200 93T254 71Q288 71 314 91T356 147T372 229V419H475V0H382L374 97L378 81Q365 53 341 31T284 -4T213 -17ZM127 634H241L311 500H247L127 634Z" />
<glyph unicode="&#xfa;" horiz-adv-x="554" d="M213 -17Q155 -17 118 18T79 108V419H182V145Q184 113 200 93T254 71Q288 71 314 91T356 147T372 229V419H475V0H382L374 97L378 81Q365 53 341 31T284 -4T213 -17ZM399 628L268 494H203L285 628H399Z" />
<glyph unicode="&#xfb;" horiz-adv-x="554" d="M213 -17Q155 -17 118 18T79 108V419H182V145Q184 113 200 93T254 71Q288 71 314 91T356 147T372 229V419H475V0H382L374 97L378 81Q365 53 341 31T284 -4T213 -17ZM355 501L264 594L293 601L202 501H107L276 675H277L449
501H355Z" />
<glyph unicode="&#xfc;" horiz-adv-x="554" d="M213 -17Q155 -17 118 18T79 108V419H182V145Q184 113 200 93T254 71Q288 71 314 91T356 147T372 229V419H475V0H382L374 97L378 81Q365 53 341 31T284 -4T213 -17ZM126 544Q126 568 143 584T182 601Q202 601 220
585T238 544Q238 519 220 503T182 487Q161 487 144 503T126 544V544ZM315 544Q315 568 333 584T372 601Q392 601 409 585T427 544Q427 519 410 503T372 487Q351 487 333 503T315 544V544Z" />
<glyph unicode="&#xfd;" horiz-adv-x="502" d="M114 -201L391 419H485L215 -201H114ZM220 -3L17 419H133L299 49L220 -3ZM378 870L247 736H182L264 870H378Z" />
<glyph unicode="&#xfe;" horiz-adv-x="593" d="M329 -10Q298 -10 269 -1T216 25T178 66L180 103V-201H78V777H181V326L170 349Q189 374 216 393T277 425T349 437Q408 437 454 409T528 330T555 210Q555 142 526 93T445 17T329 -10ZM309 72Q348 72 380 90T431 139T451
209Q451 249 433 281T383 331T316 349Q281 349 254 337T208 302T181 249V170Q187 142 205 120T250 85T309 72Z" />
<glyph unicode="&#xff;" horiz-adv-x="502" d="M114 -201L391 419H485L215 -201H114ZM220 -3L17 419H133L299 49L220 -3ZM106 530Q106 554 123 570T162 587Q182 587 200 571T218 530Q218 505 200 489T162 473Q141 473 124 489T106 530V530ZM295 530Q295 554 313
570T352 587Q372 587 389 571T407 530Q407 505 390 489T352 473Q331 473 313 489T295 530V530Z" />
<glyph unicode="&#x2013;" horiz-adv-x="516" d="M102 259H407V169H102V259Z" />
<glyph unicode="&#x2014;" horiz-adv-x="710" d="M101 259H609V169H101V259Z" />
<glyph unicode="&#x2018;" horiz-adv-x="184" d="M102 735L154 710Q132 687 120 652T114 584L33 577Q27 612 34 641T60 695T102 735Z" />
<glyph unicode="&#x2019;" horiz-adv-x="187" d="M84 563L32 588Q53 608 65 643T71 714L153 721Q159 693 150 662T124 605T84 563V563Z" />
<glyph unicode="&#x201a;" horiz-adv-x="187" d="M84 -83L32 -58Q53 -38 65 -3T71 68L153 75Q159 47 150 16T124 -41T84 -83V-83Z" />
<glyph unicode="&#x201c;" horiz-adv-x="301" d="M233 735L285 710Q263 687 251 652T245 584L164 577Q158 612 165 641T191 695T233 735ZM106 735L158 710Q136 687 124 652T118 584L37 577Q31 612 38 641T64 695T106 735Z" />
<glyph unicode="&#x201d;" horiz-adv-x="299" d="M84 563L32 588Q53 608 65 643T71 714L153 721Q159 693 150 662T124 605T84 563V563ZM206 563L154 588Q175 608 187 643T193 714L275 721Q281 693 272 662T246 605T206 563V563Z" />
<glyph unicode="&#x201e;" horiz-adv-x="309" d="M84 -79L32 -54Q53 -34 65 1T71 72L153 79Q159 51 150 20T124 -37T84 -79V-79ZM206 -79L154 -54Q175 -34 187 1T193 72L275 79Q281 51 272 20T246 -37T206 -79V-79Z" />
<glyph unicode="&#x2022;" horiz-adv-x="485" d="M108 304Q108 342 126 373T174 423T242 441Q281 441 311 423T360 373T379 304Q379 267 361 236T311 187T242 169Q205 169 175 187T126 236T108 304V304Z" />
<glyph unicode="&#x2039;" horiz-adv-x="369" d="M45 242Q49 246 66 260T108 295T160 338T211 380T253 415T275 434V341Q269 335 254 322T221 292T187 262T167 242Q172 237 187 223T220 193T254 162T275 143V50L45 242Z" />
<glyph unicode="&#x203a;" horiz-adv-x="362" d="M320 242Q316 246 299 260T258 295T206 338T154 380T112 415T91 434V341Q96 335 111 322T145 292T179 262T199 242Q194 237 179 223T145 193T111 162T91 143V50L320 242Z" />
</font>
</defs>
</svg>
